<svg width="60" height="60" viewBox="0 0 60 60" fill="none" xmlns="http://www.w3.org/2000/svg">
<path d="M40.9091 10.5C40.0909 10.5 39.5455 11.0455 39.5455 11.8636C39.5455 12.6818 40.091 13.2272 40.9091 13.2272C49.9091 13.2272 57.2727 13.4999 57.2727 15.6817C57.2727 20.9999 43.7727 26.9999 35.8636 30.409C34.9091 29.5908 34.2272 27.6817 34.2272 26.1817C34.2272 24.6817 34.7727 23.3181 35.7272 22.3635C37.2272 20.9999 38.0454 18.818 38.0454 16.6362C38.0454 14.0453 36.6818 11.7271 34.3636 10.6362C34.2272 10.4998 33.9545 10.4998 33.8181 10.4998C31.909 10.3634 29.8636 10.2271 27.9545 10.0907C24.8181 9.81798 21.5454 9.54517 18.5454 9.54517C9.6818 9.54517 5.31809 13.4997 3.13629 16.7725C1.63641 19.0909 0 23.3182 0 27.1364C0 30.8182 1.63641 35.5909 2.86359 39.4091C3.13629 40.0909 3.2727 40.7727 3.54539 41.3182C3.81809 42.1364 4.0909 42.9546 4.22719 43.6364C5.45449 47.4546 6.2727 50.4546 9.95449 50.4546C12 50.4546 14.3181 48.2728 18.2727 44.3182C20.8636 41.7273 23.8636 38.8637 25.7727 37.9091C27.1363 37.2273 28.7727 36.5455 30.5454 35.8636C31.2272 35.5909 31.4999 34.7727 31.2272 34.0909C30.9545 33.4091 30.1363 33.1363 29.4545 33.4091C27.6818 34.2273 26.0454 34.9091 24.6818 35.4546C22.2273 36.5455 19.2273 39.5455 16.3636 42.4091C14.1818 44.4546 10.9091 47.7273 9.95449 47.7273C8.5909 47.7273 8.04539 46.7727 6.95449 42.8182C6.6818 42.1364 6.54539 41.3182 6.2727 40.5C6 39.8182 5.86359 39.1364 5.5909 38.4545C4.36359 34.7727 2.86359 30.2727 2.86359 27.1363C2.86359 23.5908 4.5 19.909 5.45449 18.409C8.04539 14.3181 12.5454 12.2726 18.6818 12.2726C21.5454 12.2726 24.8182 12.5453 27.9545 12.8181C29.8636 12.9545 31.7727 13.0908 33.6818 13.2272C34.9091 13.909 35.5909 15.1363 35.5909 16.6363C35.5909 18.1363 35.0454 19.4999 34.0909 20.4545C32.5909 21.8181 31.7727 24 31.7727 26.1818C31.7727 28.2273 32.7273 31.7727 35.4545 33.1363C35.8636 33.2727 36.2727 33.2727 36.5454 33.1363C48.2727 27.9545 60 22.3636 60 15.6818C60 10.7727 53.0455 10.5 40.9091 10.5Z" fill="#131E29"/>
</svg>
