<svg width="60" height="60" viewBox="0 0 60 60" fill="none" xmlns="http://www.w3.org/2000/svg">
<path d="M31.3892 30.2634C31.2459 29.725 30.946 29.2413 30.5275 28.8736C30.1089 28.5058 29.5906 28.2707 29.0382 28.198C28.4859 28.1253 27.9244 28.2183 27.4249 28.4652C26.9255 28.712 26.5106 29.1017 26.2329 29.5847L17.6389 44.4769C17.454 44.7969 17.334 45.1503 17.2858 45.5167C17.2375 45.8831 17.262 46.2555 17.3578 46.6125C17.4536 46.9695 17.6188 47.3041 17.8439 47.5972C18.0691 47.8903 18.3499 48.1361 18.6701 48.3206C18.9901 48.5055 19.3435 48.6255 19.7099 48.6737C20.0764 48.7219 20.4487 48.6975 20.8057 48.6017C21.1627 48.5059 21.4973 48.3407 21.7904 48.1155C22.0835 47.8904 22.3293 47.6096 22.5139 47.2894L31.1117 32.3972C31.2964 32.0774 31.416 31.7242 31.4636 31.358C31.5112 30.9918 31.4859 30.6198 31.3892 30.2634ZM29.4842 31.4597L20.8864 46.3519C20.8269 46.4624 20.7458 46.5598 20.648 46.6384C20.5502 46.717 20.4376 46.7752 20.3168 46.8095C20.1961 46.8437 20.0697 46.8534 19.9452 46.8379C19.8207 46.8225 19.7005 46.7822 19.5918 46.7194C19.4832 46.6566 19.3882 46.5726 19.3126 46.4725C19.237 46.3723 19.1822 46.258 19.1516 46.1363C19.121 46.0146 19.1151 45.888 19.1344 45.764C19.1536 45.64 19.1975 45.5211 19.2635 45.4144L27.8614 30.5231C27.9208 30.4126 28.0019 30.3152 28.0997 30.2366C28.1975 30.158 28.3101 30.0998 28.4309 30.0655C28.5516 30.0312 28.678 30.0216 28.8025 30.037C28.927 30.0525 29.0472 30.0928 29.1559 30.1556C29.2645 30.2184 29.3595 30.3023 29.4351 30.4025C29.5107 30.5026 29.5655 30.617 29.5961 30.7387C29.6267 30.8604 29.6326 30.987 29.6133 31.111C29.5941 31.235 29.5502 31.3539 29.4842 31.4606V31.4597Z" fill="#131E29"/>
<path d="M30 40.3125C29.2583 40.3125 28.5333 40.5324 27.9166 40.9445C27.2999 41.3565 26.8193 41.9422 26.5355 42.6274C26.2516 43.3127 26.1774 44.0667 26.3221 44.7941C26.4668 45.5215 26.8239 46.1897 27.3484 46.7141C27.8728 47.2386 28.541 47.5958 29.2684 47.7404C29.9958 47.8851 30.7498 47.8109 31.4351 47.527C32.1203 47.2432 32.706 46.7626 33.118 46.1459C33.5301 45.5292 33.75 44.8042 33.75 44.0625C33.75 43.0679 33.3549 42.1141 32.6517 41.4109C31.9484 40.7076 30.9946 40.3125 30 40.3125ZM30 45.9375C29.6292 45.9375 29.2666 45.8275 28.9583 45.6215C28.65 45.4155 28.4096 45.1226 28.2677 44.78C28.1258 44.4374 28.0887 44.0604 28.161 43.6967C28.2334 43.333 28.412 42.9989 28.6742 42.7367C28.9364 42.4744 29.2705 42.2959 29.6342 42.2235C29.9979 42.1512 30.3749 42.1883 30.7175 42.3302C31.0601 42.4721 31.353 42.7125 31.559 43.0208C31.765 43.3291 31.875 43.6917 31.875 44.0625C31.875 44.5598 31.6775 45.0367 31.3258 45.3883C30.9742 45.74 30.4973 45.9375 30 45.9375Z" fill="#131E29"/>
<path d="M22.5 32.8125C22.5 32.0708 22.2801 31.3458 21.868 30.7291C21.456 30.1124 20.8703 29.6318 20.1851 29.348C19.4998 29.0641 18.7458 28.9899 18.0184 29.1346C17.291 29.2793 16.6228 29.6364 16.0984 30.1609C15.5739 30.6853 15.2168 31.3535 15.0721 32.0809C14.9274 32.8083 15.0016 33.5623 15.2855 34.2476C15.5693 34.9328 16.0499 35.5185 16.6666 35.9305C17.2833 36.3426 18.0083 36.5625 18.75 36.5625C19.7446 36.5625 20.6984 36.1674 21.4017 35.4642C22.1049 34.7609 22.5 33.8071 22.5 32.8125ZM16.875 32.8125C16.875 32.4417 16.985 32.0791 17.191 31.7708C17.397 31.4625 17.6899 31.2221 18.0325 31.0802C18.3751 30.9383 18.7521 30.9012 19.1158 30.9735C19.4795 31.0459 19.8136 31.2245 20.0758 31.4867C20.3381 31.7489 20.5166 32.083 20.589 32.4467C20.6613 32.8104 20.6242 33.1874 20.4823 33.53C20.3404 33.8726 20.1 34.1655 19.7917 34.3715C19.4834 34.5775 19.1208 34.6875 18.75 34.6875C18.2527 34.6875 17.7758 34.49 17.4242 34.1383C17.0725 33.7867 16.875 33.3098 16.875 32.8125Z" fill="#131E29"/>
<path d="M55.5938 46.8562L46.8188 14.1187C46.6379 13.4622 46.3172 12.8525 45.8787 12.3314C45.4402 11.8104 44.8942 11.3903 44.2781 11.1L38.4375 8.36249C40.1328 6.9673 41.4646 5.18194 42.3188 3.15936C42.4108 2.92813 42.4071 2.66982 42.3087 2.44126C42.2102 2.2127 42.025 2.03261 41.7938 1.94061C41.5625 1.84862 41.3042 1.85225 41.0757 1.9507C40.8471 2.04916 40.667 2.23438 40.575 2.46561C39.718 4.47368 38.327 6.20842 36.5531 7.48124C36.5531 7.48124 24.6938 1.92186 24.6844 1.93124C24.5323 1.8749 24.3679 1.85997 24.2081 1.88797C24.0484 1.91597 23.8989 1.9859 23.775 2.09061L15.2344 9.28124C12.1042 7.9836 9.58179 5.5483 8.175 2.46561C8.08301 2.23438 7.90292 2.04916 7.67436 1.9507C7.4458 1.85225 7.18749 1.84862 6.95625 1.94061C6.72502 2.03261 6.5398 2.2127 6.44134 2.44126C6.34289 2.66982 6.33926 2.92813 6.43125 3.15936C7.87379 6.42774 10.4422 9.06934 13.6688 10.6031L7.29375 15.975C6.77055 16.4135 6.34995 16.9615 6.06161 17.5803C5.77328 18.1991 5.62424 18.8736 5.625 19.5562V53.4375C5.625 54.6807 6.11886 55.873 6.99794 56.7521C7.87702 57.6311 9.0693 58.125 10.3125 58.125H38.4375C39.3796 58.1237 40.2994 57.8385 41.077 57.3067C41.8546 56.7749 42.454 56.0212 42.7969 55.1437L52.275 52.6031C53.4752 52.2779 54.4979 51.491 55.1197 50.4142C55.7416 49.3374 55.912 48.0583 55.5938 46.8562ZM34.6969 8.68124C34.3125 8.89686 33.9188 9.09374 33.5156 9.28124L30.4313 6.68436L34.6969 8.68124ZM41.25 53.4375C41.2478 54.1827 40.9507 54.8968 40.4238 55.4238C39.8968 55.9507 39.1827 56.2478 38.4375 56.25H10.3125C9.56727 56.2478 8.85319 55.9507 8.32622 55.4238C7.79926 54.8968 7.50223 54.1827 7.5 53.4375V19.5562C7.49933 19.1467 7.58885 18.742 7.76222 18.371C7.9356 17.9999 8.18855 17.6716 8.50313 17.4094L24.375 4.04061L31.5563 10.0875C30.3653 10.4865 29.142 10.7814 27.9 10.9687C27.6242 10.1565 27.0767 9.46416 26.3499 9.00854C25.623 8.55292 24.7613 8.36187 23.9101 8.46759C23.0588 8.57331 22.27 8.96934 21.6767 9.58891C21.0834 10.2085 20.7219 11.0137 20.6531 11.8687C20.6531 11.8875 20.6438 11.9062 20.6438 11.925C20.6438 11.9437 20.6438 11.9625 20.6438 11.9906C20.6438 12.0562 20.625 12.1219 20.625 12.1875C20.6352 13.1178 20.9909 14.0112 21.6229 14.6939C22.255 15.3767 23.1182 15.8001 24.045 15.8819C24.9718 15.9637 25.896 15.6981 26.6378 15.1366C27.3797 14.5751 27.8864 13.7579 28.0594 12.8437C29.8196 12.5855 31.5437 12.123 33.1969 11.4656L40.2469 17.4094C40.5615 17.6716 40.8144 17.9999 40.9878 18.371C41.1612 18.742 41.2507 19.1467 41.25 19.5562V53.4375ZM24.375 13.125C24.9281 13.125 25.4719 13.1062 26.025 13.0687C25.8663 13.3688 25.6288 13.6198 25.3381 13.795C25.0474 13.9701 24.7144 14.0626 24.375 14.0626C24.0356 14.0626 23.7026 13.9701 23.4119 13.795C23.1212 13.6198 22.8837 13.3688 22.725 13.0687C23.2781 13.1062 23.8219 13.125 24.375 13.125ZM22.7906 11.1937C22.9579 10.9242 23.1912 10.7017 23.4685 10.5475C23.7457 10.3933 24.0577 10.3123 24.375 10.3123C24.6923 10.3123 25.0043 10.3933 25.2815 10.5475C25.5588 10.7017 25.7921 10.9242 25.9594 11.1937C24.9042 11.2594 23.8459 11.2594 22.7906 11.1937ZM51.7875 50.7844L43.125 53.1094V19.5562C43.1258 18.8736 42.9767 18.1991 42.6884 17.5803C42.4001 16.9615 41.9795 16.4135 41.4563 15.975L35.0906 10.6031C35.6565 10.3091 36.2072 9.98684 36.7406 9.63749L43.4906 12.8062C43.8606 12.9786 44.1883 13.2299 44.4507 13.5425C44.713 13.8551 44.9038 14.2214 45.0094 14.6156L53.775 47.3437C53.8713 47.7002 53.8963 48.0721 53.8484 48.4382C53.8006 48.8043 53.6809 49.1573 53.4962 49.477C53.3115 49.7967 53.0655 50.0768 52.7723 50.3012C52.479 50.5255 52.1444 50.6897 51.7875 50.7844Z" fill="#131E29"/>
<path d="M24.375 23.4375C21.4083 23.4375 18.5082 24.3172 16.0415 25.9655C13.5747 27.6137 11.6521 29.9564 10.5168 32.6972C9.3815 35.4381 9.08445 38.4541 9.66323 41.3639C10.242 44.2736 11.6706 46.9463 13.7684 49.0441C15.8662 51.1419 18.5389 52.5705 21.4487 53.1493C24.3584 53.7281 27.3744 53.431 30.1153 52.2957C32.8562 51.1604 35.1988 49.2378 36.847 46.7711C38.4953 44.3043 39.375 41.4042 39.375 38.4375C39.3698 34.4609 37.7878 30.6486 34.9759 27.8367C32.1639 25.0247 28.3517 23.4427 24.375 23.4375ZM24.375 51.5625C21.7791 51.5625 19.2415 50.7927 17.0831 49.3505C14.9248 47.9083 13.2425 45.8585 12.2491 43.4602C11.2557 41.0619 10.9958 38.4229 11.5022 35.8769C12.0086 33.3309 13.2587 30.9923 15.0942 29.1567C16.9298 27.3212 19.2684 26.0711 21.8144 25.5647C24.3604 25.0583 26.9994 25.3182 29.3977 26.3116C31.796 27.305 33.8459 28.9872 35.288 31.1456C36.7302 33.304 37.5 35.8416 37.5 38.4375C37.4963 41.9173 36.1123 45.2536 33.6517 47.7142C31.1911 50.1748 27.8548 51.5588 24.375 51.5625Z" fill="#131E29"/>
</svg>
