<svg width="60" height="60" viewBox="0 0 60 60" fill="none" xmlns="http://www.w3.org/2000/svg">
<path d="M57.271 24.075L41.3617 8.16558C40.8343 7.63889 40.1195 7.34306 39.3742 7.34306C38.6288 7.34306 37.914 7.63889 37.3867 8.16558L34.7335 10.8187C34.3244 11.2286 34.0525 11.7552 33.9551 12.326C33.8577 12.8969 33.9397 13.4839 34.1898 14.0062L33.8429 14.3531C33.5828 14.6155 33.2732 14.8235 32.932 14.9651C32.5908 15.1068 32.2248 15.1791 31.8554 15.1781H29.6616C29.3107 15.179 28.9612 15.2231 28.621 15.3093L25.996 12.6843C26.2477 12.163 26.3314 11.5765 26.2357 11.0056C26.14 10.4347 25.8696 9.90756 25.4617 9.49683L22.7898 6.83433C22.2575 6.32437 21.5488 6.03967 20.8117 6.03967C20.0745 6.03967 19.3658 6.32437 18.8335 6.83433L2.9054 22.7531C2.38293 23.2808 2.08984 23.9933 2.08984 24.7359C2.08984 25.4785 2.38293 26.191 2.9054 26.7187L5.5679 29.3812C5.97521 29.7944 6.50205 30.0692 7.07401 30.1668C7.64597 30.2644 8.23413 30.1798 8.7554 29.925L13.5179 34.6781C12.9929 35.2025 12.6352 35.871 12.4903 36.5988C12.3454 37.3266 12.4196 38.0811 12.7037 38.7667C12.9878 39.4523 13.4689 40.0381 14.0861 40.4502C14.7033 40.8622 15.4289 41.0818 16.171 41.0812C16.2559 41.0765 16.3404 41.0671 16.4242 41.0531C16.3856 41.5864 16.4619 42.1218 16.6479 42.6232C16.8339 43.1245 17.1252 43.5801 17.5023 43.9593C17.8478 44.3089 18.2596 44.586 18.7136 44.7743C19.1675 44.9627 19.6545 45.0585 20.146 45.0562C20.2398 45.0562 20.3148 45.0375 20.3992 45.0375C20.3637 45.5494 20.4338 46.0632 20.6052 46.5469C20.7766 47.0305 21.0456 47.4738 21.3955 47.8492C21.7454 48.2246 22.1687 48.5241 22.6392 48.729C23.1097 48.934 23.6172 49.04 24.1304 49.0406C24.2148 49.0406 24.2992 49.0125 24.3835 49.0125C24.3418 49.5453 24.4157 50.0808 24.6002 50.5824C24.7846 51.084 25.0753 51.5399 25.4523 51.9187C26.1566 52.621 27.1107 53.0154 28.1054 53.0154C29.1001 53.0154 30.0542 52.621 30.7585 51.9187L32.0804 53.2406C32.5617 53.7231 33.1654 54.0653 33.8267 54.2304C34.4879 54.3956 35.1816 54.3774 35.8333 54.1778C36.4849 53.9783 37.0699 53.6049 37.5253 53.0979C37.9807 52.5908 38.2893 51.9692 38.4179 51.3C39.006 51.5897 39.6602 51.7187 40.3143 51.6737C40.9683 51.6287 41.5988 51.4114 42.1416 51.0438C42.6844 50.6762 43.1202 50.1714 43.4048 49.5808C43.6893 48.9902 43.8125 48.3348 43.7617 47.6812C43.8455 47.6952 43.93 47.7046 44.0148 47.7093C44.5074 47.7097 44.9952 47.613 45.4505 47.4248C45.9057 47.2366 46.3194 46.9606 46.6679 46.6125C47.0449 46.2336 47.3355 45.7778 47.52 45.2762C47.7045 44.7746 47.7784 44.239 47.7367 43.7062C47.8204 43.7202 47.905 43.7296 47.9898 43.7343C48.7319 43.7349 49.4575 43.5153 50.0747 43.1033C50.6919 42.6913 51.173 42.1054 51.4571 41.4198C51.7412 40.7342 51.8155 39.9797 51.6705 39.2519C51.5256 38.5241 51.1679 37.8557 50.6429 37.3312L47.9898 34.6781L51.3835 31.2187C51.7686 31.4196 52.1961 31.5257 52.6304 31.5281C53 31.53 53.3662 31.4581 53.7075 31.3164C54.0488 31.1747 54.3584 30.9662 54.6179 30.7031L57.271 28.05C57.5325 27.7892 57.7399 27.4794 57.8815 27.1384C58.023 26.7973 58.0959 26.4317 58.0959 26.0625C58.0959 25.6932 58.023 25.3276 57.8815 24.9865C57.7399 24.6455 57.5325 24.3357 57.271 24.075ZM8.21165 28.0593C8.03396 28.2264 7.79927 28.3194 7.5554 28.3194C7.31153 28.3194 7.07684 28.2264 6.89915 28.0593L4.23665 25.3875C4.1498 25.3017 4.08085 25.1995 4.03378 25.0868C3.98672 24.9742 3.96249 24.8533 3.96249 24.7312C3.96249 24.6091 3.98672 24.4883 4.03378 24.3756C4.08085 24.2629 4.1498 24.1608 4.23665 24.075L20.1554 8.15621C20.2414 8.06977 20.3437 8.00124 20.4563 7.95457C20.569 7.90791 20.6897 7.88403 20.8117 7.88433C20.9337 7.88314 21.0547 7.9066 21.1675 7.95332C21.2803 8.00004 21.3825 8.06905 21.4679 8.15621L24.1304 10.8187C24.2168 10.9035 24.2856 11.0046 24.3328 11.1161C24.3801 11.2275 24.4048 11.3473 24.4057 11.4683C24.4066 11.5894 24.3835 11.7094 24.3379 11.8216C24.2923 11.9337 24.2249 12.0358 24.1398 12.1218C24.1304 12.1312 24.121 12.1312 24.1117 12.1406L8.21165 28.0593ZM14.8492 38.6531C14.6753 38.4796 14.5374 38.2736 14.4433 38.0467C14.3492 37.8199 14.3008 37.5768 14.3008 37.3312C14.3008 37.0856 14.3492 36.8425 14.4433 36.6157C14.5374 36.3888 14.6753 36.1828 14.8492 36.0093L18.8242 32.025C19.176 31.6731 19.6532 31.4755 20.1507 31.4755C20.6483 31.4755 21.1255 31.6731 21.4773 32.025C21.8291 32.3768 22.0268 32.854 22.0268 33.3515C22.0268 33.8491 21.8291 34.3263 21.4773 34.6781L17.5023 38.6531C17.1458 38.996 16.6704 39.1876 16.1757 39.1876C15.6811 39.1876 15.2056 38.996 14.8492 38.6531ZM18.8242 42.6375C18.6498 42.4633 18.5115 42.2565 18.4172 42.0289C18.3228 41.8013 18.2742 41.5573 18.2742 41.3109C18.2742 41.0645 18.3228 40.8205 18.4172 40.5929C18.5115 40.3653 18.6498 40.1585 18.8242 39.9843L22.7992 36.0093C22.9694 35.8208 23.1761 35.6688 23.4068 35.5626C23.6376 35.4564 23.8875 35.3982 24.1414 35.3915C24.3953 35.3848 24.6479 35.4298 24.8839 35.5237C25.1199 35.6176 25.3344 35.7584 25.5143 35.9377C25.6942 36.117 25.8358 36.331 25.9305 36.5666C26.0253 36.8023 26.0711 37.0548 26.0653 37.3087C26.0595 37.5626 26.0022 37.8127 25.8968 38.0438C25.7914 38.2749 25.6402 38.4822 25.4523 38.6531L21.4773 42.6375C21.1186 42.9761 20.644 43.1648 20.1507 43.1648C19.6574 43.1648 19.1828 42.9761 18.8242 42.6375ZM22.7992 46.6125C22.6248 46.4383 22.4865 46.2315 22.3922 46.0039C22.2978 45.7763 22.2492 45.5323 22.2492 45.2859C22.2492 45.0395 22.2978 44.7955 22.3922 44.5679C22.4865 44.3403 22.6248 44.1335 22.7992 43.9593L26.7742 39.9843C27.1284 39.6328 27.6063 39.4342 28.1054 39.4312C28.476 39.4331 28.8378 39.5446 29.1453 39.7516C29.4527 39.9585 29.6921 40.2518 29.8334 40.5944C29.9746 40.9371 30.0115 41.3138 29.9392 41.6773C29.867 42.0408 29.6888 42.3749 29.4273 42.6375L25.4523 46.6125C25.0947 46.9532 24.6197 47.1433 24.1257 47.1433C23.6318 47.1433 23.1567 46.9532 22.7992 46.6125ZM29.4273 50.5875C29.0754 50.9393 28.5983 51.1369 28.1007 51.1369C27.6032 51.1369 27.126 50.9393 26.7742 50.5875C26.4223 50.2356 26.2247 49.7584 26.2247 49.2609C26.2247 48.7633 26.4223 48.2862 26.7742 47.9343L29.4273 45.2906C29.6009 45.1153 29.8075 44.9763 30.0352 44.8813C30.2629 44.7864 30.5072 44.7375 30.7538 44.7375C31.0005 44.7375 31.2448 44.7864 31.4725 44.8813C31.7001 44.9763 31.9068 45.1153 32.0804 45.2906C32.2556 45.4633 32.3947 45.6691 32.4896 45.896C32.5846 46.1229 32.6335 46.3665 32.6335 46.6125C32.6335 46.8584 32.5846 47.102 32.4896 47.3289C32.3947 47.5558 32.2556 47.7616 32.0804 47.9343L29.4273 50.5875ZM49.321 38.6531C49.4952 38.8273 49.6334 39.0341 49.7277 39.2617C49.822 39.4893 49.8705 39.7333 49.8705 39.9796C49.8705 40.226 49.822 40.47 49.7277 40.6976C49.6334 40.9252 49.4952 41.132 49.321 41.3062C49.1468 41.4804 48.94 41.6186 48.7124 41.7129C48.4848 41.8072 48.2408 41.8557 47.9945 41.8557C47.7481 41.8557 47.5041 41.8072 47.2765 41.7129C47.0489 41.6186 46.8421 41.4804 46.6679 41.3062L44.6804 39.3187C44.5039 39.1422 44.2644 39.043 44.0148 39.043C43.7651 39.043 43.5257 39.1422 43.3492 39.3187C43.1726 39.4952 43.0734 39.7347 43.0734 39.9843C43.0734 40.234 43.1726 40.4734 43.3492 40.65L45.3367 42.6375C45.5252 42.8077 45.6771 43.0144 45.7833 43.2451C45.8895 43.4759 45.9478 43.7258 45.9544 43.9797C45.9611 44.2336 45.9162 44.4862 45.8223 44.7222C45.7284 44.9582 45.5876 45.1727 45.4083 45.3526C45.229 45.5325 45.015 45.6741 44.7794 45.7688C44.5437 45.8636 44.2912 45.9094 44.0373 45.9036C43.7834 45.8978 43.5333 45.8405 43.3022 45.7351C43.0711 45.6297 42.8638 45.4785 42.6929 45.2906L40.696 43.2937C40.5204 43.1191 40.2828 43.0211 40.0351 43.0211C39.7874 43.0211 39.5498 43.1191 39.3742 43.2937C39.1985 43.4707 39.0999 43.71 39.0999 43.9593C39.0999 44.2087 39.1985 44.4479 39.3742 44.625L41.3617 46.6125C41.7135 46.9643 41.9111 47.4415 41.9111 47.939C41.9111 48.4366 41.7135 48.9138 41.3617 49.2656C41.0098 49.6174 40.5326 49.8151 40.0351 49.8151C39.5375 49.8151 39.0604 49.6174 38.7085 49.2656L36.721 47.2781C36.6106 47.1715 36.4752 47.0941 36.3273 47.0531C36.1672 46.9984 35.9948 46.9905 35.8304 47.0303C35.666 47.0702 35.5164 47.1561 35.3992 47.2781C35.2245 47.4537 35.1265 47.6913 35.1265 47.939C35.1265 48.1867 35.2245 48.4243 35.3992 48.6L36.0554 49.2656C36.2439 49.4358 36.3959 49.6425 36.5021 49.8733C36.6083 50.104 36.6665 50.3539 36.6732 50.6078C36.6799 50.8617 36.6349 51.1143 36.541 51.3503C36.4472 51.5863 36.3063 51.8008 36.127 51.9807C35.9477 52.1606 35.7338 52.3022 35.4981 52.397C35.2624 52.4917 35.01 52.5375 34.756 52.5317C34.5021 52.5259 34.252 52.4686 34.0209 52.3632C33.7898 52.2579 33.5825 52.1066 33.4117 51.9187L32.0804 50.5875L33.4117 49.2656C34.114 48.5612 34.5084 47.6071 34.5084 46.6125C34.5084 45.6178 34.114 44.6637 33.4117 43.9593C32.8765 43.4341 32.1922 43.087 31.4523 42.9656C31.7503 42.3777 31.8865 41.721 31.8468 41.0631C31.8071 40.4052 31.593 39.7696 31.2265 39.2218C30.86 38.674 30.3543 38.2335 29.7613 37.9458C29.1683 37.658 28.5094 37.5332 27.8523 37.5843C27.8901 37.051 27.8135 36.5158 27.6276 36.0146C27.4416 35.5134 27.1506 35.0577 26.7742 34.6781C26.3976 34.3007 25.9435 34.0096 25.4433 33.8251C24.9431 33.6405 24.4087 33.5669 23.8773 33.6093C23.9158 33.076 23.8395 32.5406 23.6535 32.0392C23.4675 31.5379 23.1762 31.0823 22.7992 30.7031C22.0858 30.0217 21.1372 29.6415 20.1507 29.6415C19.1642 29.6415 18.2157 30.0217 17.5023 30.7031L14.8492 33.3562L10.1992 28.7156L24.7867 14.1281L26.821 16.1625C26.653 16.2829 26.4933 16.4144 26.3429 16.5562L21.4773 21.4218C20.7749 22.1262 20.3806 23.0803 20.3806 24.075C20.3806 25.0696 20.7749 26.0237 21.4773 26.7281C22.1907 27.4095 23.1392 27.7897 24.1257 27.7897C25.1122 27.7897 26.0608 27.4095 26.7742 26.7281L28.771 24.7312C29.6527 23.8575 30.8438 23.3672 32.0851 23.3672C33.3264 23.3672 34.5175 23.8575 35.3992 24.7312L49.321 38.6531ZM46.6585 33.3468L36.721 23.4093C35.4894 22.1801 33.8205 21.4897 32.0804 21.4897C30.3403 21.4897 28.6714 22.1801 27.4398 23.4093L25.4523 25.3968C25.0958 25.7398 24.6204 25.9313 24.1257 25.9313C23.6311 25.9313 23.1556 25.7398 22.7992 25.3968C22.6248 25.2227 22.4865 25.0159 22.3922 24.7883C22.2978 24.5607 22.2492 24.3167 22.2492 24.0703C22.2492 23.8239 22.2978 23.5799 22.3922 23.3523C22.4865 23.1246 22.6248 22.9178 22.7992 22.7437L27.6648 17.8781C27.9231 17.6173 28.2328 17.413 28.5742 17.2781C28.6385 17.2619 28.7013 17.2399 28.7617 17.2125C29.0515 17.1126 29.3552 17.0588 29.6616 17.0531H31.8554C32.47 17.0545 33.0789 16.9343 33.6468 16.6994C34.2148 16.4644 34.7307 16.1195 35.1648 15.6843L35.3992 15.4593L49.9492 30.0093L46.6585 33.3468ZM55.9492 26.7281L53.296 29.3718C53.1187 29.5433 52.8817 29.6392 52.6351 29.6392C52.3884 29.6392 52.1514 29.5433 51.9742 29.3718L36.0554 13.4625C35.8808 13.2868 35.7828 13.0492 35.7828 12.8015C35.7828 12.5538 35.8808 12.3162 36.0554 12.1406L38.7085 9.48746C38.8862 9.31316 39.1252 9.21553 39.3742 9.21553C39.6231 9.21553 39.8621 9.31316 40.0398 9.48746L55.9492 25.3968C56.1248 25.5738 56.2234 25.8131 56.2234 26.0625C56.2234 26.3118 56.1248 26.5511 55.9492 26.7281Z" fill="#131E29"/>
</svg>
