<svg width="60" height="60" viewBox="0 0 60 60" fill="none" xmlns="http://www.w3.org/2000/svg">
<g clip-path="url(#clip0_69_3686)">
<path d="M50.4631 34.9999C49.2606 35.0001 48.1074 35.4779 47.257 36.328L35.586 48H28V47C27.9967 44.24 25.76 42.0033 23 42H22C20.8954 42 20 42.8954 20 44V45C20.0039 46.0854 20.3644 47.1395 21.026 48H13V60H47V49.414L53.671 42.742C54.5246 41.8935 55.0033 40.7386 55 39.535C54.9995 37.0299 52.9682 34.9994 50.4631 34.9999ZM22 44H23C24.6569 44 26 45.3431 26 47V48H25C23.3431 48 22 46.6569 22 45V44ZM45 58H15V50H45V58ZM52.3136 41.2714C52.295 41.2905 52.2761 41.3094 52.257 41.328L45.586 48H38.414L48.671 37.742C49.6456 36.7361 51.2511 36.7108 52.257 37.6854C53.2629 38.66 53.2882 40.2655 52.3136 41.2714Z" fill="#131E29"/>
<path d="M51 39H49V41H51V39Z" fill="#131E29"/>
<path d="M47 43H45V45H47V43Z" fill="#131E29"/>
<path d="M13.708 38.293C13.2536 37.8412 12.9988 37.2267 13 36.586C12.9984 35.1585 11.8415 34.0016 10.414 34H9.58602C8.15852 34.0016 7.00164 35.1585 7.00002 36.586C7.00127 37.2267 6.74639 37.8412 6.29202 38.293C5.46189 39.1191 4.99677 40.2429 5.00002 41.414V41.586C5.00277 44.0226 6.97739 45.9973 9.41402 46H10.586C13.0226 45.9973 14.9973 44.0226 15 41.586V41.414C15.0033 40.2429 14.5381 39.1191 13.708 38.293ZM13 41.586C12.9984 42.9185 11.9185 43.9984 10.586 44H9.41402C8.08152 43.9984 7.00164 42.9185 7.00002 41.586V41.414C6.99877 40.7733 7.25364 40.1588 7.70802 39.707C8.53814 38.8809 9.00327 37.7571 9.00002 36.586C9.00002 36.2624 9.26239 36 9.58602 36H10.414C10.7376 36 11 36.2624 11 36.586C10.9968 37.7571 11.4619 38.8809 12.292 39.707C12.7464 40.1588 13.0013 40.7734 13 41.414V41.586Z" fill="#131E29"/>
<path d="M22.9498 26L24.4148 24.535C25.9098 23.0401 25.9101 20.6164 24.4152 19.1214C23.697 18.403 22.7226 17.9996 21.7068 18H21.4348C20.9565 15.6736 18.91 14.003 16.5348 14H15.9498L15.7428 13.793C13.9717 12.0219 11.1 12.0219 9.32883 13.793C7.55771 15.5641 7.55771 18.4359 9.32883 20.207L9.53583 20.414V21C9.53883 23.3751 11.2095 25.4216 13.5358 25.9V26.172C13.5356 28.2861 15.2493 30.0001 17.3635 30.0004C18.379 30.0005 19.3528 29.5971 20.0708 28.879L21.5358 27.414L24.8288 30.707L26.2428 29.293L22.9498 26ZM21.5348 24.586L18.2418 21.293L16.8278 22.707L20.1218 26L18.6568 27.465C17.9418 28.1785 16.7838 28.1774 16.0702 27.4624C15.7283 27.1199 15.5362 26.6559 15.5358 26.172V24H14.5358C12.879 24 11.5358 22.6569 11.5358 21V19.586L10.7428 18.793C9.66483 17.8971 9.38508 16.4559 10.281 15.3779C10.3806 15.258 10.491 15.1476 10.7428 15.207C11.7333 14.2175 13.3383 14.2175 14.3288 15.207L15.1218 16H16.5358C18.1927 16 19.5358 17.3431 19.5358 19V20H21.7068C22.7165 19.9995 23.5352 20.8176 23.5357 21.8271C23.536 22.3124 23.3432 22.7779 22.9998 23.121L21.5348 24.586Z" fill="#131E29"/>
<path d="M39.5 31H39C39 29.067 37.433 27.5 35.5 27.5C33.567 27.5 32 29.067 32 31H31.5C29.567 31 28 32.567 28 34.5C28 36.433 29.567 38 31.5 38H32V42H39V38H39.5C41.433 38 43 36.433 43 34.5C43 32.567 41.433 31 39.5 31ZM37 40H34V38H37V40ZM39.5 36H31.5C30.6716 36 30 35.3284 30 34.5C30 33.6716 30.6716 33 31.5 33H34V31C34 30.1716 34.6716 29.5 35.5 29.5C36.3284 29.5 37 30.1716 37 31V33H39.5C40.3284 33 41 33.6716 41 34.5C41 35.3284 40.3284 36 39.5 36Z" fill="#131E29"/>
<path d="M22 32H21C18.24 32.0033 16.0033 34.24 16 37V38C16 39.1046 16.8954 40 18 40H19C21.76 39.9967 23.9967 37.76 24 35V34C24 32.8954 23.1046 32 22 32ZM22 35C22 36.6569 20.6569 38 19 38H18V37C18 35.3431 19.3431 34 21 34H22V35Z" fill="#131E29"/>
<path d="M51 19C48.7979 19.0051 46.7254 20.0414 45.4 21.8C44.4939 23.013 44.0029 24.4859 44 26V28C44.0052 29.2668 44.8056 30.3938 46 30.816V33H48V30.816C49.1944 30.3938 49.9948 29.2668 50 28V26.8C49.9992 25.8219 50.2889 24.8655 50.832 24.052C51.5935 22.9116 52 21.5713 52 20.2V19H51ZM49.168 22.945C48.4059 24.0861 47.9994 25.4278 48 26.8V28C48 28.5523 47.5522 29 47 29C46.4478 29 46 28.5523 46 28V26C46.0008 23.6576 47.6275 21.6298 49.914 21.121C49.7904 21.773 49.5366 22.3932 49.168 22.945Z" fill="#131E29"/>
<path d="M31.816 2C31.3938 0.805625 30.2668 0.00525 29 0H27C23.134 0 20 3.134 20 7V8H21.2C22.5723 8.00075 23.9139 7.59425 25.055 6.832C25.8676 6.28937 26.8229 5.99975 27.8 6H29C30.2668 5.99475 31.3938 5.19438 31.816 4H34V2H31.816ZM29 4H27.8C26.427 3.99887 25.0846 4.40538 23.943 5.168C23.3909 5.53663 22.7703 5.79025 22.118 5.914C22.3796 4.75012 23.0468 3.71725 24 3C24.8665 2.353 25.9185 2.00225 27 2H29C29.5523 2 30 2.44775 30 3C30 3.55225 29.5523 4 29 4Z" fill="#131E29"/>
<path d="M34.9999 8.117V6H32.9999V8.117C30.729 8.62987 29.2263 10.7929 29.5379 13.1L30.7449 22.153C30.9833 23.951 32.6342 25.2153 34.4322 24.9768C35.9033 24.7816 37.0609 23.6241 37.2559 22.153L38.4619 13.1C38.7735 10.7929 37.2709 8.62987 34.9999 8.117ZM36.4799 12.833L36.0579 16H33.9999V18H35.7909L35.2729 21.886C35.1803 22.589 34.5353 23.0839 33.8321 22.9913C33.256 22.9154 32.8028 22.462 32.7269 21.886L31.6759 14H33.9999V12H31.5629C31.8395 10.6501 33.1582 9.78013 34.508 10.0568C35.7929 10.32 36.6545 11.5331 36.4799 12.833Z" fill="#131E29"/>
<path d="M44 14H43C41.3431 14 40 15.3431 40 17C40 18.6569 41.3431 20 43 20H44C45.6569 20 47 18.6569 47 17C47 15.3431 45.6569 14 44 14ZM44 18H43C42.4478 18 42 17.5523 42 17C42 16.4478 42.4478 16 43 16H44C44.5523 16 45 16.4478 45 17C45 17.5523 44.5523 18 44 18Z" fill="#131E29"/>
<path d="M25 10H24C22.3431 10 21 11.3431 21 13C21 14.6569 22.3431 16 24 16H25C26.6569 16 28 14.6569 28 13C28 11.3431 26.6569 10 25 10ZM25 14H24C23.4478 14 23 13.5523 23 13C23 12.4478 23.4478 12 24 12H25C25.5523 12 26 12.4478 26 13C26 13.5523 25.5523 14 25 14Z" fill="#131E29"/>
</g>
<defs>
<clipPath id="clip0_69_3686">
<rect width="60" height="60" fill="white"/>
</clipPath>
</defs>
</svg>
