<svg width="60" height="60" viewBox="0 0 60 60" fill="none" xmlns="http://www.w3.org/2000/svg">
<path d="M54.4912 30.9422C52.7663 30.12 50.9203 30.0647 49.2928 30.7875C49.2534 30.8053 49.2169 30.8278 49.1775 30.8466C46.9406 29.0485 44.4703 27.5972 41.8125 26.52C41.8538 23.58 40.6631 20.8941 38.3372 19.4175C36.5897 18.3085 34.4972 18.0694 32.4431 18.5625C32.3212 18.1266 32.2087 17.6869 32.0691 17.2575C34.7353 15.6638 36.7556 13.2075 37.8019 10.2656C38.0803 9.48095 37.9978 8.61845 37.5741 7.89845C37.1494 7.17752 36.4341 6.68533 35.61 6.54752C34.2534 6.3197 32.9569 7.07252 32.5191 8.33064C32.0091 9.7922 31.0772 11.0597 29.8491 11.9813C29.2997 10.9341 28.6884 9.91877 28.035 8.93908C28.0594 8.78252 28.1016 8.63439 28.1119 8.4722C28.1981 7.12877 27.7838 5.72908 26.9447 4.52908C25.1672 1.98845 21.9984 1.12502 19.8797 2.60627C17.7619 4.08752 17.4853 7.36033 19.2628 9.90283C20.3822 11.5022 22.0509 12.4256 23.6634 12.5297C25.4222 15.2869 26.6738 18.2944 27.3938 21.4838C26.7684 22.11 26.1891 22.8131 25.6875 23.6053C24.6525 25.2366 24.0619 26.9972 23.8744 28.71C23.3784 28.9153 22.8834 29.13 22.3978 29.3541C20.0756 26.6794 17.1047 24.691 13.7531 23.5463C12.9094 21.5447 10.4259 20.0906 7.5 20.0906C3.88125 20.0906 0.9375 22.3135 0.9375 25.0463C0.9375 27.7791 3.88125 30.0019 7.5 30.0019C9.12094 30.0019 10.6031 29.5538 11.7497 28.816C13.83 29.4956 15.7313 30.6225 17.3025 32.145C16.6997 32.5322 16.1128 32.9447 15.5334 33.36C13.6547 33.0553 11.3794 33.8456 9.62156 35.6044C7.98281 37.2431 7.18969 39.33 7.335 41.1281C6.17906 42.5663 5.10469 44.0822 4.155 45.6553C3.75563 46.3172 3.64313 47.1225 3.84656 47.8669C4.05188 48.6169 4.54125 49.2328 5.22469 49.6013C5.65219 49.831 6.1125 49.9406 6.56531 49.9406C7.51219 49.9406 8.42906 49.4606 8.9475 48.5991C9.71437 47.325 10.5797 46.0941 11.5059 44.9185L11.5275 44.9203C13.2225 44.9203 15.1172 44.1235 16.6284 42.6122C18.0413 41.1994 18.825 39.4547 18.9225 37.8488C20.8153 36.5006 22.8375 35.3428 24.9497 34.3875C25.5216 35.37 26.3034 36.2091 27.2859 36.8335C27.3234 36.8569 27.3638 36.8719 27.4013 36.8953C27.2691 37.9163 27.1866 38.9513 27.1866 39.9863C27.1866 42.1903 27.5025 44.3878 28.1072 46.5263C27.5269 47.7056 27.1866 49.1128 27.1866 50.626C27.1866 54.7613 29.7094 58.126 32.8116 58.126C35.9137 58.126 38.4366 54.7613 38.4366 50.626C38.4366 46.6163 36.0628 43.3406 33.0909 43.1447C32.9081 42.0985 32.8116 41.0391 32.8116 39.9863C32.8116 39.2269 32.8716 38.4694 32.9644 37.7194C35.6016 37.1522 38.1975 35.386 39.9356 32.6466C40.0725 32.431 40.1925 32.2116 40.3144 31.9913C42.2784 32.8528 44.1103 33.9675 45.7744 35.3231C45.4284 36.9441 45.6188 38.6906 46.335 40.3031C47.625 43.2131 50.3231 44.9972 53.0063 44.9972C53.8097 44.9972 54.6122 44.8369 55.3744 44.4994C58.6828 43.0322 60.0094 38.7628 58.3331 34.9828C57.5325 33.1753 56.1666 31.741 54.4912 30.9422ZM28.6406 13.7475C28.7541 13.981 28.9584 14.1572 29.2059 14.2341C29.4534 14.31 29.7225 14.2819 29.9475 14.1544C31.9791 13.0013 33.5213 11.1525 34.29 8.94845C34.425 8.56033 34.8647 8.32314 35.3016 8.3972C35.5762 8.44314 35.8162 8.60814 35.9587 8.85002C36.0422 8.99064 36.1622 9.28033 36.0356 9.63752C35.0588 12.3853 33.0928 14.64 30.4997 15.9872C30.0863 16.2019 29.8931 16.6885 30.0478 17.1291C30.2822 17.7994 30.4884 18.4866 30.6797 19.1766C30.105 19.4381 29.5434 19.7588 29.0034 20.1338C28.2778 17.3325 27.1594 14.671 25.6659 12.1903C25.8956 12.0881 26.1188 11.9719 26.3297 11.8247C26.6438 11.6053 26.9072 11.3353 27.1434 11.0428C27.6816 11.9241 28.1934 12.8222 28.6425 13.7485L28.6406 13.7475ZM20.7994 8.82752C19.6144 7.13252 19.6847 5.03158 20.955 4.14189C21.3394 3.87283 21.7913 3.74533 22.2666 3.74533C23.3606 3.74533 24.5822 4.42127 25.4091 5.60252C26.0053 6.4547 26.3006 7.43064 26.2416 8.35033C26.1872 9.19127 25.8366 9.87939 25.2534 10.2872C23.9813 11.176 21.9844 10.5206 20.7994 8.82658V8.82752ZM2.81156 25.0444C2.81156 23.3747 4.95844 21.9638 7.49906 21.9638C10.0397 21.9638 12.1866 23.3747 12.1866 25.0444C12.1866 26.7141 10.0397 28.125 7.49906 28.125C4.95844 28.125 2.81156 26.7141 2.81156 25.0444ZM7.34062 47.6306C7.09031 48.0441 6.55125 48.1847 6.1125 47.9475C5.88469 47.8256 5.72156 47.6203 5.65406 47.371C5.58469 47.116 5.62125 46.8497 5.75906 46.6219C6.46125 45.4585 7.24969 44.34 8.07281 43.2488C8.19656 43.4241 8.32969 43.5928 8.48344 43.7466C8.78344 44.0466 9.13594 44.2688 9.50812 44.4525C8.73656 45.481 7.99875 46.5375 7.34062 47.6306ZM15.3019 41.2847C14.3766 42.21 13.2628 42.8203 12.1659 43.0031C11.1825 43.1681 10.3481 42.9591 9.80906 42.421C8.62875 41.2397 9.14906 38.7253 10.9453 36.9281C12.0891 35.7844 13.5234 35.1581 14.7197 35.1581C15.4031 35.1581 16.0087 35.3625 16.4381 35.7919C17.6184 36.9731 17.0981 39.4875 15.3019 41.2847ZM18.6188 35.7816C18.4247 35.2913 18.1434 34.845 17.7647 34.4663C17.6869 34.3885 17.6025 34.3219 17.5191 34.2516C18.0909 33.8644 18.6703 33.4875 19.2591 33.1322C19.4972 32.9888 19.6594 32.746 19.7016 32.4713C19.7438 32.1966 19.6622 31.9163 19.4775 31.7091C17.7769 29.7844 15.6572 28.3078 13.2919 27.3675C13.6659 26.8378 13.9144 26.25 14.0119 25.6285C16.9031 26.7816 19.4419 28.6538 21.4125 31.0969C21.5953 31.3238 21.8653 31.4466 22.1428 31.4466C22.2797 31.4466 22.4184 31.4166 22.5497 31.3528C22.9725 31.1494 23.4131 30.9638 23.8481 30.7735C23.9062 31.4269 24.0244 32.0606 24.2091 32.6644C22.2638 33.5419 20.3916 34.5853 18.6188 35.7816ZM31.0528 37.9266C30.9834 38.61 30.9366 39.2972 30.9366 39.9853C30.9366 41.1347 31.0406 42.2888 31.2375 43.4288C30.6225 43.6688 30.0516 44.0456 29.5434 44.5322C29.2284 43.0331 29.0616 41.5106 29.0616 39.9853C29.0616 39.211 29.1169 38.4394 29.1966 37.6716C29.7984 37.8356 30.4219 37.9163 31.0528 37.9256V37.9266ZM36.5616 50.625C36.5616 53.6738 34.8441 56.25 32.8116 56.25C30.7791 56.25 29.0616 53.6738 29.0616 50.625C29.0616 47.5763 30.7791 45 32.8116 45C34.8441 45 36.5616 47.5763 36.5616 50.625ZM28.29 35.2491C25.2347 33.3113 24.7772 28.5375 27.27 24.6085C29.0475 21.8072 31.8525 20.1806 34.4241 20.1806C35.4591 20.1806 36.4556 20.4441 37.3331 21.001C40.3884 22.9397 40.8459 27.7135 38.3531 31.6406C35.8594 35.5688 31.3444 37.1878 28.29 35.2491ZM41.6072 28.47C43.7353 29.3822 45.7303 30.5531 47.565 31.9688C47.1244 32.401 46.7456 32.9016 46.4438 33.4669C44.7956 32.1919 43.005 31.1288 41.0953 30.2888C41.3184 29.685 41.4891 29.0775 41.6072 28.47ZM54.6141 42.7856C52.2506 43.8347 49.3059 42.3788 48.0487 39.5438C47.4291 38.146 47.31 36.6328 47.715 35.2828C48.1041 33.9853 48.9347 32.9972 50.0541 32.5013C50.5669 32.2744 51.1153 32.161 51.6769 32.161C52.3406 32.161 53.0231 32.3194 53.6859 32.6353C54.9581 33.241 55.9997 34.3444 56.6194 35.7422C57.8766 38.5772 56.9766 41.7375 54.6141 42.7856Z" fill="#131E29"/>
</svg>
