<svg width="60" height="60" viewBox="0 0 60 60" fill="none" xmlns="http://www.w3.org/2000/svg">
<g clip-path="url(#clip0_69_1513)">
<path d="M20.0613 10.5352C21.1031 10.5352 22.1215 10.2262 22.9878 9.64741C23.854 9.0686 24.5292 8.24592 24.9279 7.2834C25.3266 6.32087 25.4309 5.26174 25.2276 4.23993C25.0244 3.21812 24.5227 2.27952 23.786 1.54284C23.0493 0.806156 22.1107 0.304468 21.0889 0.101217C20.0671 -0.102033 19.008 0.00228236 18.0455 0.400973C17.0829 0.799663 16.2602 1.47482 15.6814 2.34107C15.1026 3.20732 14.7937 4.22575 14.7937 5.26758C14.7952 6.66415 15.3507 8.00308 16.3382 8.99061C17.3258 9.97814 18.6647 10.5336 20.0613 10.5352ZM20.0613 1.875C20.7323 1.875 21.3882 2.07398 21.9461 2.44676C22.504 2.81955 22.9388 3.3494 23.1956 3.96932C23.4524 4.58924 23.5196 5.27138 23.3887 5.92948C23.2577 6.58758 22.9346 7.19208 22.4601 7.66654C21.9857 8.14099 21.3812 8.4641 20.7231 8.59499C20.065 8.72588 19.3828 8.65867 18.7629 8.40188C18.143 8.14509 17.6132 7.71023 17.2404 7.15231C16.8676 6.59439 16.6687 5.93846 16.6687 5.26746C16.6697 4.36802 17.0275 3.50571 17.6635 2.86972C18.2995 2.23373 19.1618 1.876 20.0613 1.875ZM7.14826 31.8H7.21576C8.98283 31.8 9.70412 30.3855 10.2835 29.2491C10.3491 29.1202 10.4151 28.9913 10.4827 28.8623L12.9363 24.2127L13.4971 35.5133L9.71467 47.6182C9.63536 47.879 9.61914 48.1549 9.66735 48.4231C9.71555 48.6914 9.8268 48.9444 9.99193 49.1612C10.2137 49.4494 10.498 49.6833 10.8235 49.8453C11.149 50.0073 11.507 50.0932 11.8706 50.0964H14.3787C15.801 50.0964 16.3198 48.7429 16.5152 48.2331L20.8187 37.0065C20.8498 36.9256 20.8695 36.8408 20.8772 36.7545L21.1619 33.573C21.177 33.3945 21.2589 33.2282 21.3911 33.1073C21.5234 32.9864 21.6963 32.9198 21.8755 32.9207H26.9817C27.1716 32.9209 27.3536 32.9964 27.4879 33.1307C27.6222 33.265 27.6977 33.447 27.6979 33.6369V41.3309C27.6986 41.9138 27.9304 42.4726 28.3426 42.8848C28.7548 43.297 29.3137 43.5288 29.8966 43.5294H32.4052C33.5708 43.5294 34.5146 42.6129 34.6014 41.3975L35.5238 28.4705C35.5707 27.8135 35.4818 27.154 35.2626 26.5329C35.0434 25.9118 34.6987 25.3425 34.2499 24.8605C33.801 24.3785 33.2577 23.9941 32.6538 23.7312C32.0499 23.4684 31.3984 23.3327 30.7397 23.3327H27.4686L27.6224 21.1785L38.2699 10.5311C38.902 9.89748 39.2571 9.03902 39.2571 8.14401C39.2571 7.24899 38.902 6.39053 38.2699 5.75696L38.2223 5.70938C37.5886 5.07749 36.7302 4.72264 35.8354 4.72264C34.9405 4.72264 34.0821 5.07749 33.4484 5.70938L27.7124 11.4454C27.4919 11.6762 27.2151 11.8456 26.9092 11.937C26.6033 12.0283 26.2789 12.0385 25.9679 11.9664C24.0257 11.5651 22.0475 11.3633 20.0643 11.3644H19.9471C17.398 11.3486 14.8581 11.6727 12.3946 12.3282C9.94541 12.9845 8.97276 14.7737 8.39959 16.2592L3.83514 28.0868C3.55729 28.8063 3.66018 29.5751 4.12483 30.2529C4.74967 31.1638 5.99279 31.8 7.14826 31.8ZM5.58428 28.7619L10.1488 16.9345C10.788 15.2784 11.5537 14.4948 12.8793 14.1395C15.1849 13.528 17.5615 13.2254 19.9468 13.2396C21.841 13.2308 23.7309 13.4193 25.5861 13.8021C26.2017 13.9355 26.8411 13.9109 27.4446 13.7306C28.0482 13.5503 28.5963 13.2201 29.0378 12.7709L34.7738 7.03488C35.0559 6.7546 35.4374 6.59728 35.835 6.59728C36.2326 6.59728 36.6141 6.7546 36.8962 7.03488L36.9438 7.08246C37.2248 7.36411 37.3826 7.74573 37.3826 8.1436C37.3826 8.54146 37.2248 8.92308 36.9438 9.20473L26.0494 20.1C25.89 20.2595 25.7934 20.4712 25.7773 20.6961L25.527 24.2036C25.5179 24.332 25.5352 24.4609 25.5781 24.5823C25.6209 24.7037 25.6883 24.8149 25.7761 24.9092C25.8638 25.0034 25.97 25.0785 26.088 25.1299C26.2061 25.1812 26.3334 25.2077 26.4622 25.2077H30.7395C31.1406 25.2078 31.5374 25.2904 31.9052 25.4504C32.273 25.6105 32.6039 25.8446 32.8773 26.1382C33.1506 26.4317 33.3606 26.7784 33.4941 27.1566C33.6277 27.5349 33.6819 27.9365 33.6534 28.3366L32.731 41.2638C32.7171 41.4577 32.6007 41.6539 32.405 41.6539H29.8965C29.811 41.6528 29.7294 41.6183 29.6689 41.5579C29.6085 41.4975 29.574 41.4159 29.5728 41.3304V33.6374C29.572 32.9504 29.2988 32.2917 28.813 31.806C28.3272 31.3202 27.6685 31.0469 26.9815 31.0461H21.8753C21.2272 31.0431 20.6016 31.2843 20.1233 31.7217C19.645 32.1591 19.349 32.7607 19.2943 33.4065L19.0212 36.4577L14.7645 47.5622C14.5477 48.128 14.427 48.2088 14.4058 48.219C14.397 48.221 14.3879 48.2218 14.3788 48.2214H11.8701C11.7456 48.2146 11.627 48.1666 11.5327 48.0851L15.3364 35.9127C15.3693 35.8073 15.3834 35.697 15.378 35.5867L14.6397 20.7039C14.6295 20.4987 14.5522 20.3025 14.4197 20.1455C14.2872 19.9885 14.1067 19.8794 13.9061 19.8349C13.7055 19.7905 13.4958 19.8132 13.3094 19.8995C13.1229 19.9859 12.97 20.1311 12.8742 20.3128L8.82404 27.9868C8.75197 28.1235 8.68178 28.2609 8.61217 28.397C8.05869 29.4825 7.77744 29.9247 7.21494 29.9247H7.14826C6.60205 29.9247 5.95295 29.6029 5.6717 29.192C5.50928 28.9563 5.56178 28.8202 5.58428 28.7619ZM38.3883 36.5701V44.0434H23.2724C23.0238 44.0434 22.7853 44.1422 22.6095 44.318C22.4337 44.4938 22.3349 44.7323 22.3349 44.9809V51.7436H7.21858C6.96994 51.7436 6.73148 51.8423 6.55566 52.0181C6.37985 52.194 6.28108 52.4324 6.28108 52.6811V59.0625C6.28108 59.3111 6.37985 59.5496 6.55566 59.7254C6.73148 59.9012 6.96994 60 7.21858 60H55.3791C55.6278 60 55.8662 59.9012 56.042 59.7254C56.2178 59.5496 56.3166 59.3111 56.3166 59.0625V36.5701C56.3166 36.3215 56.2178 36.083 56.042 35.9072C55.8662 35.7314 55.6278 35.6326 55.3791 35.6326H39.3258C39.0772 35.6326 38.8387 35.7314 38.6629 35.9072C38.4871 36.083 38.3883 36.3215 38.3883 36.5701ZM40.2633 37.5076H54.4416V58.125H40.2633V37.5076ZM8.15608 53.6186H22.3349V58.125H8.15608V53.6186ZM24.2099 58.125V45.9184H38.3883V58.125H24.2099Z" fill="#131E29"/>
</g>
<defs>
<clipPath id="clip0_69_1513">
<rect width="60" height="60" fill="white"/>
</clipPath>
</defs>
</svg>
