<svg width="84" height="84" viewBox="0 0 84 84" fill="none" xmlns="http://www.w3.org/2000/svg">
<g clip-path="url(#clip0_181_6486)">
<path d="M35.4706 52.5649C33.0144 48.4185 31.6134 44.6606 31.4932 41.4445L43.442 49.5783C44.1184 50.0387 44.8762 49.8947 45.3365 49.2184C45.7969 48.5421 45.6529 47.7842 44.9766 47.3238L31.9006 38.4228C32.2123 37.4803 32.4471 36.6504 32.9843 35.8613C35.3631 32.3668 40.1356 31.6565 43.6538 31.577C44.4476 31.6224 45.0208 31.0228 45.0663 30.229C45.1117 29.4352 44.5121 28.862 43.7183 28.8166C37.5523 28.9083 33.1086 30.8321 30.7299 34.3265C27.507 39.061 28.3471 46.0663 33.1875 53.9799C36.0539 58.7355 37.3733 63.0977 37.0738 66.6879L24.4487 58.0938C23.7723 57.6334 23.0145 57.7775 22.5542 58.4537C22.0938 59.1301 22.2378 59.8879 22.9141 60.3483L36.3284 69.4796C36.211 69.8946 35.9041 70.3454 35.6739 70.6836L34.9065 71.8108C34.4461 72.4872 34.5902 73.245 35.2664 73.7053C35.9427 74.1657 36.7006 74.0217 37.161 73.3454L37.9283 72.2182C41.151 67.4839 40.3109 60.4787 35.4706 52.5649Z" fill="#131E29"/>
<path d="M29.7186 52.7741C29.7641 51.9803 29.1645 51.4071 28.3707 51.3616C22.2047 51.4533 17.7609 53.3771 15.3822 56.8715L14.6149 57.9988C14.1545 58.6751 14.2985 59.4329 14.9748 59.8933C15.6512 60.3537 16.409 60.2097 16.8693 59.5334L17.6366 58.4062C20.0154 54.9117 24.7879 54.2014 28.3061 54.1219C29.1 54.1675 29.6731 53.5679 29.7186 52.7741Z" fill="#131E29"/>
<path d="M50.8153 30.0199C47.9489 25.2644 46.6295 20.9022 46.929 17.3119L59.5542 25.9061C60.2306 26.3665 60.9884 26.2225 61.4487 25.5462C61.9091 24.8699 61.7651 24.112 61.0888 23.6517L47.6745 14.5203C47.7919 14.1054 48.0989 13.6544 48.329 13.3164L49.0965 12.1889C49.5568 11.5127 49.413 10.7548 48.7366 10.2944C48.0602 9.834 47.3024 9.97804 46.8421 10.6543L46.0747 11.7815C42.8519 16.516 43.692 23.5213 48.5324 31.435C50.9885 35.5814 52.3896 39.3393 52.5098 42.5553L40.5609 34.4215C39.8845 33.9611 39.1267 34.1051 38.6664 34.7814C38.2059 35.4578 38.35 36.2156 39.0263 36.6759L52.1024 45.5771C51.7907 46.5195 51.5558 47.3494 51.0187 48.1386C48.6399 51.6331 43.7906 52.4561 40.1597 52.4588C39.3659 52.4133 38.7927 53.0129 38.7473 53.8067C38.7425 54.2984 39.0039 54.6413 39.3421 54.8715C39.5675 55.025 39.8698 55.0657 40.1719 55.1065C46.2611 55.1276 50.8176 53.2805 53.273 49.6733C56.4958 44.9389 55.6557 37.9336 50.8153 30.0199Z" fill="#131E29"/>
<path d="M69.0274 24.1064C68.351 23.646 67.5932 23.79 67.1329 24.4663L66.3656 25.5935C63.9868 29.088 59.1376 29.9111 55.5066 29.9137C54.7128 29.8683 54.1396 30.4679 54.0942 31.2617C54.0894 31.7533 54.3508 32.0963 54.689 32.3265C54.9144 32.48 55.2167 32.5207 55.5188 32.5615C61.608 32.5825 66.1645 30.7354 68.6199 27.1282L69.3873 26.0009C69.8478 25.3247 69.7038 24.5668 69.0274 24.1064Z" fill="#131E29"/>
</g>
<defs>
<clipPath id="clip0_181_6486">
<rect width="60" height="60" fill="white" transform="translate(34.082 0.31897) rotate(34.2437)"/>
</clipPath>
</defs>
</svg>
