<svg width="60" height="60" viewBox="0 0 60 60" fill="none" xmlns="http://www.w3.org/2000/svg">
<path d="M7.5 57.5C4.7 57.5 2.5 55.3 2.5 52.5V44.4C2.5 32.3 7.6 20.7 16.5 12.6L17.9 11.3C18.8 10.5 20 10 21.3 10C23.5 10 25.2 11.3 26.1 13.6C27.9 18.4 28.8 26.8 28.8 32.5C28.8 36.7 28.3 45.1 27.5 49.3C27.1 51.5 25.7 53.1 23.8 53.6L8.8 57.4C8.4 57.4 8 57.5 7.5 57.5ZM21.3 12.5C20.7 12.5 20.1 12.7 19.6 13.2L18.2 14.4C9.8 22.1 5 33 5 44.4V52.5C5 53.9 6.1 55 7.5 55C7.7 55 7.9 55 8.1 54.9L23.1 51.1C24.1 50.9 24.8 50 25 48.8C25.8 44.9 26.2 36.6 26.2 32.5C26.2 26.2 25.1 18.4 23.7 14.5C23.1 12.7 22 12.5 21.3 12.5Z" fill="#131E29"/>
<path d="M52.4992 57.5C51.9992 57.5 51.6992 57.5 51.2992 57.3L36.2992 53.6C34.3992 53.1 32.9992 51.5 32.4992 49.3C31.6992 45.1 31.1992 36.7 31.1992 32.5C31.1992 26.8 32.0992 18.4 33.8992 13.6C34.7992 11.3 36.4992 10 38.6992 10C39.8992 10 41.0992 10.5 42.0992 11.3L43.4992 12.6C52.3992 20.8 57.4992 32.3 57.4992 44.4V52.5C57.4992 55.3 55.2992 57.5 52.4992 57.5ZM38.7992 12.5C38.0992 12.5 36.9992 12.7 36.3992 14.5C34.8992 18.4 33.7992 26.2 33.7992 32.5C33.7992 36.7 34.2992 44.9 34.9992 48.8C35.1992 50 35.9992 50.9 36.8992 51.1L51.8992 54.8C52.0992 54.9 52.2992 54.9 52.4992 54.9C53.8992 54.9 54.9992 53.8 54.9992 52.4V44.3C54.9992 32.9 50.1992 22 41.7992 14.3L40.3992 13.1C39.9992 12.7 39.3992 12.5 38.7992 12.5Z" fill="#131E29"/>
<path d="M33.2016 18.7L30.0016 15.5L26.8016 18.7L25.1016 16.9L30.0016 12L34.9016 16.9L33.2016 18.7Z" fill="#131E29"/>
<path d="M28.6992 3.80005H31.1992V13.8H28.6992V3.80005Z" fill="#131E29"/>
</svg>
