<svg width="60" height="60" viewBox="0 0 60 60" fill="none" xmlns="http://www.w3.org/2000/svg">
<g clip-path="url(#clip0_69_411)">
<path d="M16.1082 51.1826H26.4697C28.4194 51.1826 30 49.6021 30 47.6523C30 45.7027 28.4195 44.122 26.4697 44.122H19.41C15.5626 40.2315 9.16793 40.1938 5.28891 44.1211H1.75781V58.2422L33.5282 58.2421C33.5282 58.2421 41.4545 50.3132 46.6177 45.1481C47.9953 43.7699 47.9947 41.5362 46.6168 40.1583C45.2389 38.7804 43.005 38.7804 41.6271 40.1583L34.1312 47.6542H30" stroke="#131E29" stroke-width="2" stroke-miterlimit="10"/>
<path d="M43.8919 8.81742H33.5305C31.5808 8.81742 30.0002 10.398 30.0002 12.3477C30.0002 14.2973 31.5807 15.878 33.5305 15.878H40.5902C44.4376 19.7685 50.8323 19.8062 54.7113 15.8789H58.2424V1.75781L26.472 1.75793C26.472 1.75793 18.5457 9.68684 13.3825 14.8519C12.0049 16.2301 12.0055 18.4638 13.3833 19.8417C14.7612 21.2196 16.9952 21.2196 18.3731 19.8417L25.869 12.3458H30.0002" stroke="#131E29" stroke-width="2" stroke-miterlimit="10"/>
<path d="M29.9999 27.2967C29.9999 24.4507 27.6927 22.1435 24.8467 22.1435C20.2557 22.1435 17.9564 27.6943 21.2028 30.9406L29.9999 39.7377L38.7971 30.9405C42.0434 27.6942 39.7442 22.1434 35.1531 22.1434C32.3071 22.1434 29.9999 24.4506 29.9999 27.2967Z" stroke="#131E29" stroke-width="2" stroke-miterlimit="10"/>
</g>
<defs>
<clipPath id="clip0_69_411">
<rect width="60" height="60" fill="white"/>
</clipPath>
</defs>
</svg>
