<svg width="60" height="60" viewBox="0 0 60 60" fill="none" xmlns="http://www.w3.org/2000/svg">
<path d="M30.0002 58.125C29.8552 58.1266 29.7117 58.0945 29.5812 58.0312L25.7374 56.1094C19.961 53.2454 15.1027 48.82 11.7135 43.3352C8.32433 37.8503 6.53994 31.5255 6.56272 25.0781V10.3125C6.56267 10.1156 6.62458 9.92378 6.73968 9.76409C6.85477 9.6044 7.01721 9.485 7.20397 9.42279L29.704 1.92279C29.8963 1.85874 30.1042 1.85874 30.2965 1.92279L52.7965 9.42279C52.9832 9.485 53.1457 9.6044 53.2607 9.76409C53.3758 9.92378 53.4378 10.1156 53.4377 10.3125V25.0781C53.4605 31.5255 51.6761 37.8503 48.2869 43.3352C44.8978 48.82 40.0395 53.2454 34.263 56.1094L30.4193 58.0312C30.2887 58.0945 30.1453 58.1266 30.0002 58.125ZM8.43772 10.9884V25.0781C8.41711 31.1762 10.1054 37.1581 13.3113 42.3455C16.5171 47.533 21.1122 51.7185 26.5755 54.4275L30.0002 56.1394L33.424 54.4275C38.8877 51.7189 43.4832 47.5335 46.6892 42.346C49.8952 37.1584 51.5836 31.1764 51.5627 25.0781V10.9884L30.0002 3.80061L8.43772 10.9884Z" fill="#131E29"/>
<path d="M30.0002 51.8344C29.8552 51.836 29.7117 51.8039 29.5811 51.7407L28.2499 51.075C23.41 48.6766 19.3395 44.9693 16.5003 40.3741C13.6612 35.7788 12.1671 30.4797 12.1877 25.0782V14.3625C12.1877 14.1657 12.2496 13.9738 12.3647 13.8141C12.4798 13.6545 12.6422 13.535 12.829 13.4728L29.704 7.84784C29.8963 7.78379 30.1042 7.78379 30.2965 7.84784L47.1715 13.4728C47.3582 13.535 47.5207 13.6545 47.6357 13.8141C47.7508 13.9738 47.8128 14.1657 47.8127 14.3625V25.0782C47.8326 30.4789 46.3381 35.7771 43.499 40.3715C40.6599 44.9658 36.5897 48.6723 31.7505 51.0703L30.4193 51.736C30.2891 51.8008 30.1456 51.8345 30.0002 51.8344ZM14.0627 15.0385V25.0782C14.044 30.1304 15.442 35.0867 18.0978 39.3846C20.7537 43.6825 24.5611 47.1498 29.088 49.3932L30.0002 49.8488L30.9124 49.3932C35.4392 47.1497 39.2465 43.6823 41.9023 39.3844C44.5582 35.0866 45.9562 30.1303 45.9377 25.0782V15.0385L30.0002 9.72566L14.0627 15.0385Z" fill="#131E29"/>
</svg>
