<svg width="60" height="60" viewBox="0 0 60 60" fill="none" xmlns="http://www.w3.org/2000/svg">
<path d="M37.6688 29.0626H35.5407C35.4057 28.2302 35.0853 27.4388 34.6032 26.747L36.1032 25.2376C36.4812 25.4179 36.8938 25.5139 37.3126 25.5188C38.0583 25.5182 38.7731 25.2214 39.3001 24.6938C39.6661 24.3299 39.925 23.8723 40.0483 23.371C40.1716 22.8698 40.1545 22.3443 39.999 21.8521C39.8436 21.3599 39.5556 20.92 39.1668 20.5805C38.7779 20.2411 38.3031 20.0152 37.7945 19.9276C37.2858 19.84 36.7628 19.8941 36.2828 20.0839C35.8028 20.2738 35.3843 20.592 35.0731 21.0039C34.762 21.4157 34.5702 21.9052 34.5187 22.4188C34.4672 22.9325 34.5581 23.4503 34.7813 23.9157L33.272 25.4157C32.5801 24.9336 31.7887 24.6132 30.9563 24.4782V22.3313C31.5819 22.1102 32.109 21.675 32.4447 21.1028C32.7804 20.5305 32.903 19.858 32.7908 19.2041C32.6786 18.5502 32.3389 17.957 31.8316 17.5294C31.3244 17.1017 30.6823 16.8672 30.0188 16.8672C29.3554 16.8672 28.7133 17.1017 28.206 17.5294C27.6988 17.957 27.359 18.5502 27.2468 19.2041C27.1346 19.858 27.2572 20.5305 27.5929 21.1028C27.9286 21.675 28.4558 22.1102 29.0813 22.3313V24.4595C28.2489 24.5944 27.4576 24.9148 26.7657 25.397L25.2563 23.897C25.5068 23.3731 25.5889 22.7847 25.4916 22.2123C25.3942 21.6399 25.1221 21.1117 24.7126 20.7001C24.3856 20.3727 23.9829 20.1311 23.5402 19.9965C23.0975 19.862 22.6284 19.8388 22.1746 19.929C21.7208 20.0192 21.2962 20.2199 20.9385 20.5134C20.5808 20.8069 20.3011 21.1841 20.1241 21.6116C19.9471 22.0391 19.8782 22.5037 19.9237 22.9641C19.9692 23.4246 20.1276 23.8667 20.3849 24.2513C20.6421 24.6359 20.9903 24.9511 21.3985 25.1689C21.8067 25.3867 22.2624 25.5005 22.7251 25.5001C23.1438 25.4951 23.5565 25.3992 23.9345 25.2188L25.4345 26.7282C24.9523 27.4201 24.6319 28.2114 24.497 29.0438H22.3313C22.1102 28.4183 21.675 27.8911 21.1028 27.5554C20.5305 27.2197 19.858 27.0971 19.2041 27.2093C18.5502 27.3215 17.957 27.6613 17.5294 28.1685C17.1017 28.6758 16.8672 29.3179 16.8672 29.9813C16.8672 30.6448 17.1017 31.2869 17.5294 31.7941C17.957 32.3014 18.5502 32.6411 19.2041 32.7533C19.858 32.8655 20.5305 32.7429 21.1028 32.4072C21.675 32.0715 22.1102 31.5443 22.3313 30.9188H24.4595C24.5944 31.7512 24.9148 32.5426 25.397 33.2345L23.897 34.7438C23.3731 34.4934 22.7847 34.4112 22.2123 34.5086C21.6399 34.6059 21.1117 34.8781 20.7001 35.2876C20.334 35.6515 20.0752 36.1091 19.9519 36.6104C19.8286 37.1116 19.8456 37.6371 20.0011 38.1293C20.1566 38.6215 20.4445 39.0614 20.8334 39.4009C21.2223 39.7403 21.697 39.9662 22.2057 40.0538C22.7144 40.1414 23.2374 40.0874 23.7174 39.8975C24.1974 39.7077 24.6159 39.3894 24.927 38.9776C25.2382 38.5657 25.43 38.0762 25.4815 37.5626C25.533 37.049 25.4421 36.5311 25.2188 36.0657L26.7282 34.5657C27.4201 35.0478 28.2114 35.3682 29.0438 35.5032V37.6313C28.4183 37.8525 27.8911 38.2877 27.5554 38.8599C27.2197 39.4322 27.0971 40.1047 27.2093 40.7586C27.3215 41.4125 27.6613 42.0057 28.1685 42.4333C28.6758 42.8609 29.3179 43.0955 29.9813 43.0955C30.6448 43.0955 31.2869 42.8609 31.7941 42.4333C32.3014 42.0057 32.6411 41.4125 32.7533 40.7586C32.8655 40.1047 32.7429 39.4322 32.4072 38.8599C32.0715 38.2877 31.5443 37.8525 30.9188 37.6313V35.5407C31.7512 35.4057 32.5426 35.0853 33.2345 34.6032L34.7438 36.1032C34.4934 36.627 34.4112 37.2155 34.5086 37.7879C34.6059 38.3603 34.8781 38.8885 35.2876 39.3001C35.6515 39.6661 36.1091 39.925 36.6104 40.0483C37.1116 40.1716 37.6371 40.1545 38.1293 39.999C38.6215 39.8436 39.0614 39.5556 39.4009 39.1668C39.7403 38.7779 39.9662 38.3031 40.0538 37.7945C40.1414 37.2858 40.0874 36.7628 39.8975 36.2828C39.7077 35.8028 39.3894 35.3843 38.9776 35.0731C38.5657 34.762 38.0762 34.5702 37.5626 34.5187C37.049 34.4672 36.5311 34.5581 36.0657 34.7813L34.5657 33.272C35.0478 32.5801 35.3682 31.7887 35.5032 30.9563H37.6313C37.8525 31.5819 38.2877 32.109 38.8599 32.4447C39.4322 32.7804 40.1047 32.903 40.7586 32.7908C41.4125 32.6786 42.0057 32.3389 42.4333 31.8316C42.8609 31.3244 43.0955 30.6823 43.0955 30.0188C43.0955 29.3554 42.8609 28.7133 42.4333 28.206C42.0057 27.6988 41.4125 27.359 40.7586 27.2468C40.1047 27.1346 39.4322 27.2572 38.8599 27.5929C38.2877 27.9286 37.8525 28.4558 37.6313 29.0813L37.6688 29.0626ZM36.6282 22.0407C36.7158 21.9538 36.8197 21.8851 36.9339 21.8384C37.0481 21.7918 37.1705 21.7681 37.2938 21.7688C37.4172 21.7681 37.5395 21.7918 37.6537 21.8384C37.768 21.8851 37.8719 21.9538 37.9595 22.0407C38.0898 22.1721 38.1783 22.3392 38.2139 22.5208C38.2494 22.7025 38.2304 22.8906 38.1592 23.0614C38.0881 23.2323 37.9679 23.3783 37.8139 23.4809C37.6599 23.5836 37.4789 23.6384 37.2938 23.6384C37.1087 23.6384 36.9278 23.5836 36.7738 23.4809C36.6198 23.3783 36.4996 23.2323 36.4284 23.0614C36.3573 22.8906 36.3382 22.7025 36.3738 22.5208C36.4093 22.3392 36.4979 22.1721 36.6282 22.0407ZM30.0001 18.7501C30.1855 18.7501 30.3668 18.8051 30.5209 18.9081C30.6751 19.0111 30.7953 19.1575 30.8662 19.3288C30.9372 19.5001 30.9557 19.6886 30.9196 19.8705C30.8834 20.0523 30.7941 20.2194 30.663 20.3505C30.5319 20.4816 30.3648 20.5709 30.183 20.6071C30.0011 20.6432 29.8126 20.6247 29.6413 20.5537C29.47 20.4828 29.3236 20.3626 29.2206 20.2084C29.1176 20.0543 29.0626 19.873 29.0626 19.6876C29.0626 19.4389 29.1614 19.2005 29.3372 19.0247C29.513 18.8489 29.7514 18.7501 30.0001 18.7501ZM22.0407 23.372C21.9528 23.2848 21.8831 23.1811 21.8355 23.0669C21.7879 22.9526 21.7634 22.8301 21.7634 22.7063C21.7634 22.5826 21.7879 22.46 21.8355 22.3458C21.8831 22.2316 21.9528 22.1279 22.0407 22.0407C22.1283 21.9538 22.2322 21.8851 22.3464 21.8384C22.4606 21.7918 22.583 21.7681 22.7063 21.7688C22.8297 21.7681 22.952 21.7918 23.0662 21.8384C23.1805 21.8851 23.2844 21.9538 23.372 22.0407C23.5485 22.2172 23.6477 22.4567 23.6477 22.7063C23.6477 22.956 23.5485 23.1954 23.372 23.372C23.1954 23.5485 22.956 23.6477 22.7063 23.6477C22.4567 23.6477 22.2172 23.5485 22.0407 23.372ZM19.6876 30.9376C19.5022 30.9376 19.3209 30.8826 19.1667 30.7796C19.0126 30.6766 18.8924 30.5302 18.8215 30.3589C18.7505 30.1875 18.7319 29.999 18.7681 29.8172C18.8043 29.6353 18.8936 29.4683 19.0247 29.3372C19.1558 29.2061 19.3228 29.1168 19.5047 29.0806C19.6865 29.0444 19.875 29.063 20.0464 29.1339C20.2177 29.2049 20.3641 29.3251 20.4671 29.4792C20.5701 29.6334 20.6251 29.8147 20.6251 30.0001C20.6251 30.2487 20.5263 30.4872 20.3505 30.663C20.1747 30.8388 19.9362 30.9376 19.6876 30.9376ZM23.372 37.9595C23.2405 38.0898 23.0735 38.1783 22.8918 38.2139C22.7102 38.2494 22.5221 38.2304 22.3512 38.1592C22.1804 38.0881 22.0344 37.9679 21.9317 37.8139C21.8291 37.6599 21.7743 37.4789 21.7743 37.2938C21.7743 37.1087 21.8291 36.9278 21.9317 36.7738C22.0344 36.6198 22.1804 36.4996 22.3512 36.4284C22.5221 36.3573 22.7102 36.3382 22.8918 36.3738C23.0735 36.4093 23.2405 36.4979 23.372 36.6282C23.4598 36.7154 23.5296 36.8191 23.5772 36.9333C23.6248 37.0475 23.6493 37.1701 23.6493 37.2938C23.6493 37.4176 23.6248 37.5401 23.5772 37.6544C23.5296 37.7686 23.4598 37.8723 23.372 37.9595ZM30.0001 41.2501C29.8147 41.2501 29.6334 41.1951 29.4792 41.0921C29.3251 40.9891 29.2049 40.8427 29.1339 40.6714C29.063 40.5 29.0444 40.3115 29.0806 40.1297C29.1168 39.9478 29.2061 39.7808 29.3372 39.6497C29.4683 39.5186 29.6353 39.4293 29.8172 39.3931C29.999 39.3569 30.1875 39.3755 30.3589 39.4465C30.5302 39.5174 30.6766 39.6376 30.7796 39.7917C30.8826 39.9459 30.9376 40.1272 30.9376 40.3126C30.9376 40.5612 30.8388 40.7997 30.663 40.9755C30.4872 41.1513 30.2487 41.2501 30.0001 41.2501ZM30.0001 33.7501C29.2584 33.7501 28.5334 33.5302 27.9167 33.1181C27.3 32.706 26.8194 32.1204 26.5355 31.4352C26.2517 30.7499 26.1774 29.9959 26.3221 29.2685C26.4668 28.5411 26.824 27.8729 27.3484 27.3484C27.8729 26.824 28.5411 26.4668 29.2685 26.3221C29.9959 26.1774 30.7499 26.2517 31.4352 26.5355C32.1204 26.8194 32.706 27.3 33.1181 27.9167C33.5302 28.5334 33.7501 29.2584 33.7501 30.0001C33.7501 30.9946 33.355 31.9485 32.6517 32.6517C31.9485 33.355 30.9946 33.7501 30.0001 33.7501ZM37.9595 36.6282C38.0898 36.7596 38.1783 36.9267 38.2139 37.1083C38.2494 37.29 38.2304 37.4781 38.1592 37.6489C38.0881 37.8198 37.9679 37.9658 37.8139 38.0684C37.6599 38.1711 37.4789 38.2259 37.2938 38.2259C37.1087 38.2259 36.9278 38.1711 36.7738 38.0684C36.6198 37.9658 36.4996 37.8198 36.4284 37.6489C36.3573 37.4781 36.3382 37.29 36.3738 37.1083C36.4093 36.9267 36.4979 36.7596 36.6282 36.6282C36.7154 36.5403 36.8191 36.4706 36.9333 36.423C37.0475 36.3754 37.1701 36.3509 37.2938 36.3509C37.4176 36.3509 37.5401 36.3754 37.6544 36.423C37.7686 36.4706 37.8723 36.5403 37.9595 36.6282ZM41.2501 30.0001C41.2501 30.1855 41.1951 30.3668 41.0921 30.5209C40.9891 30.6751 40.8427 30.7953 40.6714 30.8662C40.5 30.9372 40.3115 30.9557 40.1297 30.9196C39.9478 30.8834 39.7808 30.7941 39.6497 30.663C39.5186 30.5319 39.4293 30.3648 39.3931 30.183C39.3569 30.0011 39.3755 29.8126 39.4465 29.6413C39.5174 29.47 39.6376 29.3236 39.7917 29.2206C39.9459 29.1176 40.1272 29.0626 40.3126 29.0626C40.5612 29.0626 40.7997 29.1614 40.9755 29.3372C41.1513 29.513 41.2501 29.7514 41.2501 30.0001Z" fill="#131E29"/>
<path d="M42.563 18.75L47.6442 13.6688C48.9733 14.6614 50.6289 15.1138 52.278 14.9351C53.9272 14.7563 55.4475 13.9597 56.533 12.7055C57.6186 11.4512 58.1889 9.8324 58.1292 8.17467C58.0696 6.51695 57.3843 4.94333 56.2114 3.77038C55.0384 2.59744 53.4648 1.9122 51.8071 1.85252C50.1494 1.79284 48.5305 2.36315 47.2763 3.44872C46.022 4.53429 45.2254 6.05456 45.0467 7.7037C44.868 9.35284 45.3204 11.0085 46.313 12.3375L41.2505 17.4375C38.4007 14.8802 34.7616 13.3749 30.938 13.1719V9.2438C31.8217 9.01561 32.5919 8.47296 33.1041 7.71754C33.6164 6.96212 33.8356 6.04581 33.7206 5.14036C33.6056 4.23491 33.1643 3.40248 32.4794 2.79912C31.7946 2.19575 30.9132 1.86287 30.0005 1.86287C29.0877 1.86287 28.2063 2.19575 27.5215 2.79912C26.8366 3.40248 26.3953 4.23491 26.2803 5.14036C26.1653 6.04581 26.3845 6.96212 26.8968 7.71754C27.409 8.47296 28.1792 9.01561 29.063 9.2438V13.1719C25.2393 13.3749 21.6003 14.8802 18.7505 17.4375L13.688 12.3563C14.6805 11.0272 15.1329 9.37159 14.9542 7.72245C14.7755 6.07331 13.9789 4.55304 12.7246 3.46747C11.4704 2.3819 9.85155 1.81159 8.19383 1.87127C6.53611 1.93095 4.96248 2.61619 3.78954 3.78913C2.61659 4.96208 1.93135 6.5357 1.87168 8.19342C1.812 9.85114 2.38231 11.47 3.46788 12.7242C4.55344 13.9785 6.07372 14.7751 7.72286 14.9538C9.372 15.1325 11.0276 14.6801 12.3567 13.6875L17.438 18.75C14.8806 21.5998 13.3753 25.2389 13.1723 29.0625H9.2442C9.01602 28.1788 8.47336 27.4086 7.71795 26.8964C6.96253 26.3841 6.04622 26.1649 5.14076 26.2799C4.23531 26.3949 3.40289 26.8362 2.79953 27.5211C2.19616 28.2059 1.86328 29.0873 1.86328 30C1.86328 30.9128 2.19616 31.7942 2.79953 32.479C3.40289 33.1639 4.23531 33.6052 5.14076 33.7202C6.04622 33.8352 6.96253 33.616 7.71795 33.1037C8.47336 32.5915 9.01602 31.8213 9.2442 30.9375H13.1723C13.3753 34.7612 14.8806 38.4002 17.438 41.25L12.3567 46.3125C11.0276 45.32 9.372 44.8675 7.72286 45.0463C6.07372 45.225 4.55344 46.0216 3.46788 47.2759C2.38231 48.5301 1.812 50.1489 1.87168 51.8067C1.93135 53.4644 2.61659 55.038 3.78954 56.211C4.96248 57.3839 6.53611 58.0691 8.19383 58.1288C9.85155 58.1885 11.4704 57.6182 12.7246 56.5326C13.9789 55.4471 14.7755 53.9268 14.9542 52.2776C15.1329 50.6285 14.6805 48.9729 13.688 47.6438L18.7505 42.5625C21.5937 45.1369 25.2335 46.659 29.063 46.875V50.8032C28.1792 51.0313 27.409 51.574 26.8968 52.3294C26.3845 53.0848 26.1653 54.0012 26.2803 54.9066C26.3953 55.8121 26.8366 56.6445 27.5215 57.2478C28.2063 57.8512 29.0877 58.1841 30.0005 58.1841C30.9132 58.1841 31.7946 57.8512 32.4794 57.2478C33.1643 56.6445 33.6056 55.8121 33.7206 54.9066C33.8356 54.0012 33.6164 53.0848 33.1041 52.3294C32.5919 51.574 31.8217 51.0313 30.938 50.8032V46.875C34.7674 46.659 38.4072 45.1369 41.2505 42.5625L46.3317 47.6438C45.3391 48.9729 44.8867 50.6285 45.0654 52.2776C45.2442 53.9268 46.0408 55.4471 47.295 56.5326C48.5493 57.6182 50.1681 58.1885 51.8258 58.1288C53.4835 58.0691 55.0572 57.3839 56.2301 56.211C57.4031 55.038 58.0883 53.4644 58.148 51.8067C58.2077 50.1489 57.6373 48.5301 56.5518 47.2759C55.4662 46.0216 53.9459 45.225 52.2968 45.0463C50.6477 44.8675 48.992 45.32 47.663 46.3125L42.563 41.25C45.1374 38.4068 46.6594 34.767 46.8755 30.9375H50.8036C51.0318 31.8213 51.5744 32.5915 52.3298 33.1037C53.0853 33.616 54.0016 33.8352 54.907 33.7202C55.8125 33.6052 56.6449 33.1639 57.2483 32.479C57.8516 31.7942 58.1845 30.9128 58.1845 30C58.1845 29.0873 57.8516 28.2059 57.2483 27.5211C56.6449 26.8362 55.8125 26.3949 54.907 26.2799C54.0016 26.1649 53.0853 26.3841 52.3298 26.8964C51.5744 27.4086 51.0318 28.1788 50.8036 29.0625H46.8755C46.6594 25.2331 45.1374 21.5933 42.563 18.75ZM5.62545 31.875C5.25461 31.875 4.8921 31.7651 4.58376 31.5591C4.27542 31.353 4.03509 31.0602 3.89318 30.7176C3.75126 30.375 3.71413 29.998 3.78648 29.6343C3.85883 29.2705 4.0374 28.9364 4.29963 28.6742C4.56185 28.412 4.89594 28.2334 5.25966 28.1611C5.62337 28.0887 6.00037 28.1259 6.34298 28.2678C6.6856 28.4097 6.97843 28.65 7.18446 28.9584C7.39049 29.2667 7.50045 29.6292 7.50045 30C7.50045 30.4973 7.30291 30.9742 6.95128 31.3259C6.59965 31.6775 6.12273 31.875 5.62545 31.875ZM54.3755 28.125C54.7463 28.125 55.1088 28.235 55.4171 28.441C55.7255 28.6471 55.9658 28.9399 56.1077 29.2825C56.2496 29.6251 56.2868 30.0021 56.2144 30.3658C56.1421 30.7296 55.9635 31.0636 55.7013 31.3259C55.4391 31.5881 55.105 31.7667 54.7412 31.839C54.3775 31.9114 54.0005 31.8742 53.6579 31.7323C53.3153 31.5904 53.0225 31.3501 52.8164 31.0417C52.6104 30.7334 52.5005 30.3709 52.5005 30C52.5005 29.5028 52.698 29.0259 53.0496 28.6742C53.4013 28.3226 53.8782 28.125 54.3755 28.125ZM51.563 3.75005C52.4901 3.75005 53.3963 4.02496 54.1672 4.54003C54.938 5.0551 55.5388 5.78719 55.8936 6.64372C56.2484 7.50025 56.3413 8.44275 56.1604 9.35203C55.9795 10.2613 55.5331 11.0966 54.8775 11.7521C54.222 12.4077 53.3867 12.8541 52.4774 13.035C51.5682 13.2158 50.6257 13.123 49.7691 12.7682C48.9126 12.4134 48.1805 11.8126 47.6654 11.0418C47.1504 10.2709 46.8755 9.36465 46.8755 8.43755C46.8755 7.19434 47.3693 6.00206 48.2484 5.12298C49.1275 4.24391 50.3198 3.75005 51.563 3.75005ZM28.1255 5.62505C28.1255 5.25421 28.2354 4.89169 28.4414 4.58335C28.6475 4.27501 28.9403 4.03469 29.2829 3.89277C29.6255 3.75086 30.0025 3.71373 30.3662 3.78607C30.73 3.85842 31.0641 4.037 31.3263 4.29922C31.5885 4.56144 31.7671 4.89554 31.8394 5.25925C31.9118 5.62297 31.8746 5.99997 31.7327 6.34258C31.5908 6.68519 31.3505 6.97802 31.0421 7.18405C30.7338 7.39008 30.3713 7.50005 30.0005 7.50005C29.5032 7.50005 29.0263 7.3025 28.6746 6.95087C28.323 6.59924 28.1255 6.12233 28.1255 5.62505ZM3.75045 8.43755C3.75045 7.51045 4.02537 6.60417 4.54044 5.83331C5.05551 5.06246 5.7876 4.46165 6.64412 4.10686C7.50065 3.75208 8.44315 3.65925 9.35244 3.84012C10.2617 4.02098 11.097 4.46742 11.7525 5.12298C12.4081 5.77854 12.8545 6.61377 13.0354 7.52306C13.2163 8.43235 13.1234 9.37485 12.7686 10.2314C12.4139 11.0879 11.813 11.82 11.0422 12.3351C10.2713 12.8501 9.36505 13.125 8.43795 13.125C7.19475 13.125 6.00247 12.6312 5.12339 11.7521C4.24431 10.873 3.75045 9.68075 3.75045 8.43755ZM8.43795 56.25C7.51085 56.25 6.60457 55.9751 5.83372 55.4601C5.06286 54.945 4.46205 54.2129 4.10727 53.3564C3.75248 52.4998 3.65965 51.5573 3.84052 50.6481C4.02139 49.7388 4.46783 48.9035 5.12339 48.248C5.77895 47.5924 6.61418 47.146 7.52347 46.9651C8.43275 46.7842 9.37525 46.8771 10.2318 47.2319C11.0883 47.5866 11.8204 48.1875 12.3355 48.9583C12.8505 49.7292 13.1255 50.6354 13.1255 51.5625C13.1255 52.1781 13.0042 52.7877 12.7686 53.3564C12.5331 53.9251 12.1878 54.4418 11.7525 54.8771C11.3172 55.3124 10.8005 55.6577 10.2318 55.8932C9.66307 56.1288 9.05352 56.25 8.43795 56.25ZM31.8755 54.375C31.8755 54.7459 31.7655 55.1084 31.5595 55.4167C31.3534 55.7251 31.0606 55.9654 30.718 56.1073C30.3754 56.2492 29.9984 56.2864 29.6347 56.214C29.2709 56.1417 28.9369 55.9631 28.6746 55.7009C28.4124 55.4386 28.2338 55.1046 28.1615 54.7408C28.0891 54.3771 28.1263 54.0001 28.2682 53.6575C28.4101 53.3149 28.6504 53.0221 28.9588 52.816C29.2671 52.61 29.6296 52.5 30.0005 52.5C30.4977 52.5 30.9746 52.6976 31.3263 53.0492C31.6779 53.4008 31.8755 53.8778 31.8755 54.375ZM56.2505 51.5625C56.2505 52.4896 55.9755 53.3959 55.4605 54.1668C54.9454 54.9376 54.2133 55.5384 53.3568 55.8932C52.5003 56.248 51.5578 56.3408 50.6485 56.16C49.7392 55.9791 48.9039 55.5327 48.2484 54.8771C47.5928 54.2215 47.1464 53.3863 46.9655 52.477C46.7847 51.5677 46.8775 50.6252 47.2323 49.7687C47.5871 48.9122 48.1879 48.1801 48.9587 47.665C49.7296 47.15 50.6359 46.875 51.563 46.875C52.8062 46.875 53.9984 47.3689 54.8775 48.248C55.7566 49.1271 56.2505 50.3193 56.2505 51.5625ZM30.0005 45C27.0337 45 24.1336 44.1203 21.6669 42.4721C19.2002 40.8239 17.2776 38.4812 16.1423 35.7403C15.0069 32.9994 14.7099 29.9834 15.2887 27.0737C15.8675 24.164 17.2961 21.4912 19.3939 19.3934C21.4916 17.2957 24.1644 15.867 27.0741 15.2883C29.9838 14.7095 32.9998 15.0065 35.7407 16.1419C38.4816 17.2772 40.8243 19.1998 42.4725 21.6665C44.1207 24.1332 45.0005 27.0333 45.0005 30C45.0005 33.9783 43.4201 37.7936 40.6071 40.6066C37.794 43.4197 33.9787 45 30.0005 45Z" fill="#131E29"/>
</svg>
