<svg width="60" height="60" viewBox="0 0 60 60" fill="none" xmlns="http://www.w3.org/2000/svg">
<g clip-path="url(#clip0_69_7313)">
<circle cx="30.5" cy="43.5" r="8.5" stroke="white" stroke-width="2"/>
<path d="M55.4972 25.5786C55.5406 25.028 55.1294 24.5465 54.5788 24.5031L45.6067 23.7957C45.0561 23.7523 44.5746 24.1635 44.5312 24.714C44.4878 25.2646 44.8989 25.7461 45.4495 25.7895L53.4247 26.4183L52.796 34.3936C52.7526 34.9441 53.1637 35.4257 53.7143 35.4691C54.2649 35.5125 54.7464 35.1013 54.7898 34.5508L55.4972 25.5786ZM29.6499 34.5204C29.6499 35.0727 30.0976 35.5204 30.6499 35.5204C31.2022 35.5204 31.6499 35.0727 31.6499 34.5204L29.6499 34.5204ZM31.357 4.29289C30.9665 3.90237 30.3333 3.90237 29.9428 4.29289L23.5788 10.6569C23.1883 11.0474 23.1883 11.6805 23.5788 12.0711C23.9694 12.4616 24.6025 12.4616 24.9931 12.0711L30.6499 6.41421L36.3068 12.0711C36.6973 12.4616 37.3305 12.4616 37.721 12.0711C38.1115 11.6805 38.1115 11.0474 37.721 10.6568L31.357 4.29289ZM53.8509 24.7395L37.5525 38.6558L38.8511 40.1768L55.1496 26.2605L53.8509 24.7395ZM31.6499 34.5204L31.6499 5L29.6499 5L29.6499 34.5204L31.6499 34.5204Z" fill="white"/>
<path d="M6.00332 25.4C5.95991 24.8494 6.37105 24.3679 6.92163 24.3245L15.8938 23.6171C16.4444 23.5737 16.9259 23.9849 16.9693 24.5355C17.0127 25.086 16.6016 25.5675 16.051 25.611L8.07573 26.2397L8.7045 34.215C8.74791 34.7656 8.33677 35.2471 7.7862 35.2905C7.23562 35.3339 6.7541 34.9228 6.71069 34.3722L6.00332 25.4ZM7.64957 24.5609L23.948 38.4772L22.6493 39.9982L6.35088 26.0819L7.64957 24.5609Z" fill="white"/>
<g clip-path="url(#clip1_69_7313)">
<path d="M46.6283 35.2166L50.3111 41.5955C50.3967 41.7439 50.5214 41.866 50.6715 41.9486C50.8217 42.0311 50.9916 42.0709 51.1628 42.0636C51.334 42.0564 51.4999 42.0024 51.6426 41.9074C51.7852 41.8125 51.8991 41.6803 51.9719 41.5252L59.9116 24.5858C59.9756 24.4491 60.0057 24.2989 59.9993 24.148C59.9928 23.9972 59.95 23.8501 59.8745 23.7193C59.799 23.5885 59.693 23.4779 59.5656 23.3969C59.4381 23.3159 59.293 23.2669 59.1426 23.254L40.5028 21.6603C40.3321 21.6457 40.1607 21.6782 40.0071 21.7542C39.8536 21.8302 39.7238 21.9468 39.6319 22.0914C39.5399 22.2361 39.4894 22.4031 39.4858 22.5744C39.4821 22.7457 39.5255 22.9147 39.6112 23.0631L42.6905 28.3967C40.2859 31.2326 38.6084 34.6116 37.8032 38.2415C36.998 41.8713 37.0892 45.6427 38.0691 49.2294C38.1232 49.4276 38.241 49.6025 38.4042 49.7273C38.5675 49.852 38.7672 49.9197 38.9726 49.9199C39.0179 49.9199 39.0632 49.9166 39.1081 49.9102C39.3345 49.8773 39.541 49.7628 39.6889 49.5882C39.8367 49.4137 39.9156 49.1911 39.9107 48.9624C39.8448 46.3002 40.4208 43.6613 41.59 41.2687C42.7593 38.8761 44.4874 36.8003 46.6283 35.2166ZM40.2047 39.8889C39.7961 40.6571 39.4423 41.4532 39.1459 42.2712C39.3555 37.3984 41.2615 32.752 44.5341 29.1356C44.6667 28.9885 44.7493 28.8032 44.77 28.6062C44.7907 28.4092 44.7486 28.2108 44.6495 28.0392L42.1332 23.6809L57.6432 25.007L51.0366 39.1021L47.7414 33.3951C47.6776 33.2846 47.5919 33.1882 47.4896 33.112C47.3873 33.0358 47.2705 32.9812 47.1463 32.9517C47.0222 32.9222 46.8933 32.9184 46.7677 32.9404C46.642 32.9624 46.5221 33.0099 46.4154 33.0798C43.8076 34.7935 41.672 37.1348 40.2047 39.8889ZM30.7692 0.401268C30.6829 0.277373 30.5678 0.176181 30.4339 0.106305C30.3 0.0364297 30.1512 -6.10352e-05 30.0002 -6.10352e-05C29.8492 -6.10352e-05 29.7004 0.0364297 29.5665 0.106305C29.4326 0.176181 29.3175 0.277373 29.2312 0.401268L16.5971 18.5206C16.499 18.6611 16.4414 18.8258 16.4305 18.9968C16.4195 19.1678 16.4556 19.3386 16.5349 19.4905C16.6142 19.6424 16.7335 19.7697 16.8801 19.8585C17.0266 19.9473 17.1947 19.9943 17.366 19.9943H24.5053V59.0625C24.5053 59.3112 24.6041 59.5496 24.7799 59.7254C24.9557 59.9012 25.1942 60 25.4428 60H34.5577C34.8063 60 35.0448 59.9012 35.2206 59.7254C35.3964 59.5496 35.4952 59.3112 35.4952 59.0625V19.9943H42.6342C42.8056 19.9943 42.9737 19.9473 43.1202 19.8585C43.2667 19.7697 43.3861 19.6424 43.4654 19.4905C43.5447 19.3386 43.5808 19.1678 43.5698 18.9968C43.5589 18.8258 43.5012 18.6611 43.4032 18.5206L30.7692 0.401268ZM34.5577 18.1193C34.309 18.1193 34.0706 18.2181 33.8948 18.3939C33.719 18.5697 33.6202 18.8082 33.6202 19.0568V58.125H26.3803V19.0568C26.3803 18.8082 26.2816 18.5697 26.1058 18.3939C25.9299 18.2181 25.6915 18.1193 25.4428 18.1193H19.1628L30.0001 2.57662L40.8375 18.1193H34.5577ZM0.125773 23.7188C0.0501588 23.8496 0.0073016 23.9968 0.000853708 24.1478C-0.00559419 24.2988 0.0245584 24.4491 0.0887418 24.586L8.02843 41.5246C8.10121 41.6797 8.2151 41.8119 8.35774 41.9069C8.50039 42.0018 8.66632 42.0558 8.83751 42.0631C9.0087 42.0703 9.17861 42.0305 9.32876 41.948C9.47892 41.8654 9.60358 41.7433 9.68921 41.5949L13.3719 35.216C15.5129 36.7997 17.241 38.8756 18.4103 41.2681C19.5795 43.6607 20.1555 46.2996 20.0896 48.9618C20.0847 49.1905 20.1636 49.4131 20.3114 49.5877C20.4593 49.7622 20.6658 49.8767 20.8922 49.9096C20.9371 49.9161 20.9824 49.9193 21.0277 49.9193C21.2331 49.9191 21.4328 49.8515 21.5961 49.7267C21.7593 49.602 21.8771 49.427 21.9312 49.2288C22.946 45.5065 23.0053 41.5884 22.1036 37.8371C21.2628 34.3596 19.6212 31.1267 17.3098 28.3961L20.3891 23.0625C20.4748 22.9141 20.5182 22.7451 20.5145 22.5738C20.5109 22.4025 20.4603 22.2355 20.3684 22.0909C20.2765 21.9463 20.1467 21.8296 19.9932 21.7536C19.8396 21.6776 19.6682 21.6451 19.4975 21.6597L0.857726 23.2534C0.707262 23.2663 0.562136 23.3153 0.434697 23.3964C0.307258 23.4774 0.201277 23.588 0.125773 23.7188ZM17.8671 23.681L15.3508 28.0394C15.2517 28.2109 15.2096 28.4093 15.2303 28.6063C15.251 28.8033 15.3336 28.9886 15.4662 29.1358C18.7388 32.7521 20.6448 37.3985 20.8544 42.2713C20.558 41.4533 20.2042 40.6572 19.7956 39.889C18.3283 37.1348 16.1926 34.7934 13.5846 33.0796C13.4779 33.0096 13.3581 32.9622 13.2324 32.9401C13.1067 32.9181 12.9779 32.922 12.8537 32.9515C12.7296 32.981 12.6128 33.0355 12.5105 33.1118C12.4081 33.188 12.3225 33.2843 12.2587 33.3948L8.96347 39.1019L2.35714 25.007L17.8671 23.681Z" fill="#131E29"/>
</g>
</g>
<defs>
<clipPath id="clip0_69_7313">
<rect width="60" height="60" fill="white"/>
</clipPath>
<clipPath id="clip1_69_7313">
<rect width="60" height="60" fill="white"/>
</clipPath>
</defs>
</svg>
