<svg width="151" height="200" viewBox="0 0 151 200" fill="none" xmlns="http://www.w3.org/2000/svg">
<path d="M28.5183 183.83C29.1871 183.951 29.9167 183.678 30.3119 182.827C31.7711 179.666 33.0783 176.444 34.1727 173.131C35.4495 169.331 36.4831 165.441 37.2127 161.52C38.6111 153.982 39.0671 146.292 38.5807 138.632C38.1551 132.067 36.5439 125.714 35.6623 119.21C34.9023 113.891 35.1759 108.571 35.7839 103.252C36.0879 100.517 36.5135 97.6292 37.5775 95.0456C37.6079 95.0456 37.8815 94.3769 38.0335 94.1337C38.1247 94.0122 38.4895 93.465 38.4895 93.465C38.6111 93.3131 38.7631 93.1611 38.9151 93.0091C38.9455 92.9787 38.9455 92.9787 38.9455 92.9787C38.9759 92.9483 39.0367 92.9179 39.0975 92.8875C39.1279 92.8571 39.1279 92.8571 39.1279 92.8571C39.1887 92.8267 39.2191 92.7963 39.2191 92.7963C39.1887 92.7659 39.1887 92.766 39.1583 92.766H39.1279C39.2495 92.6748 39.3103 92.7052 39.2799 92.7963C41.6207 93.0091 42.5327 89.4225 40.1311 88.9666C37.3647 88.4194 35.3279 90.4559 34.2335 92.766C32.8655 95.6231 32.3183 98.845 31.9231 101.976C31.2847 106.991 30.8895 112.34 31.3759 117.416C31.8623 122.614 33.2303 127.812 34.0511 132.857C35.1151 139.331 35.1455 146.079 34.4767 152.675C34.3247 154.134 34.1423 155.562 33.9295 157.021C33.1695 162.31 31.9231 167.508 30.1903 172.553C29.8255 176.322 29.2479 180.091 28.5183 183.83Z" fill="white"/>
<path d="M28.8225 184.438C29.7041 184.438 30.4336 183.951 30.8592 183.07C32.3792 179.818 33.6865 176.535 34.7505 173.313C36.0577 169.483 37.0609 165.562 37.7905 161.611C39.1889 154.073 39.6449 146.353 39.1585 138.571C38.8849 134.468 38.1552 130.365 37.456 126.444C37.0304 124.043 36.5744 121.581 36.24 119.119C35.4192 113.343 35.8752 107.629 36.3616 103.283C36.6656 100.608 37.0609 97.7508 38.1249 95.2584C38.1857 95.1672 38.2161 95.076 38.2769 94.9544C38.3681 94.772 38.4897 94.5289 38.5505 94.4073L38.7025 94.1641C38.8241 93.9818 38.9152 93.8602 38.9456 93.769C39.0368 93.6474 39.1584 93.5258 39.2496 93.4347L39.3105 93.3739C39.4625 93.3739 39.6145 93.3739 39.7665 93.3739H40.496L40.3745 93.2523C41.3777 92.8875 42.016 91.9757 42.1376 91.003C42.2896 89.9088 41.7729 88.6626 40.2529 88.3587C37.6385 87.8116 35.2065 89.3921 33.7169 92.4924C32.2881 95.5015 31.7712 98.7538 31.3456 101.885C30.8288 105.866 30.2513 111.793 30.7985 117.447C31.1025 120.729 31.7712 124.073 32.4096 127.295C32.7744 129.149 33.1696 131.094 33.4736 132.948C34.4768 138.967 34.5984 145.593 33.8992 152.584C33.7472 154.043 33.5648 155.471 33.352 156.9C32.592 162.097 31.3456 167.295 29.6432 172.31C29.248 176.14 28.6705 179.909 27.9409 183.678L27.8192 184.286L28.4272 184.377C28.5488 184.438 28.7009 184.438 28.8225 184.438ZM37.1825 94.4681L37 94.8328C35.9056 97.4772 35.48 100.426 35.176 103.191C34.6896 107.599 34.2337 113.404 35.0545 119.301C35.3889 121.763 35.8449 124.255 36.2705 126.657C36.9697 130.578 37.6993 134.62 37.9729 138.663C38.4593 146.322 38.0033 153.982 36.6049 161.398C35.8753 165.289 34.872 169.179 33.5952 172.948C32.5312 176.109 31.2545 179.362 29.7649 182.584C29.6129 182.888 29.4304 183.07 29.248 183.161C29.9168 179.605 30.4641 176.079 30.7985 172.614C32.5009 167.66 33.7472 162.401 34.5376 157.112C34.7504 155.654 34.9329 154.195 35.0849 152.736C35.8145 145.623 35.6624 138.906 34.6592 132.766C34.3552 130.881 33.96 128.936 33.5952 127.082C32.9568 123.891 32.288 120.608 31.984 117.356C31.4368 111.824 32.0448 105.988 32.5312 102.067C32.9264 99.0578 33.4433 95.8967 34.7809 93.0395C35.3889 91.7933 37.0912 88.9666 40.04 89.5745C41.0128 89.7569 41.0129 90.5471 40.9825 90.8815C40.8913 91.5502 40.3744 92.1885 39.584 92.2492C39.4624 92.1885 39.1584 92.0669 38.7936 92.3404L38.3072 92.7052C38.1856 92.8268 38.0641 92.9787 37.9425 93.1003L37.8209 93.3131C37.7601 93.3739 37.7297 93.4651 37.6689 93.5562L37.4865 93.8602C37.3953 93.9818 37.2737 94.2249 37.1825 94.4681Z" fill="#E1E1E1"/>
<path d="M43.84 169.727C43.84 170.486 44.2048 171.034 44.7216 171.337C45.3296 170.426 45.968 169.544 46.6064 168.632C47.0016 168.055 47.4272 167.508 47.8224 166.961C47.8224 164.863 47.8528 162.736 47.8832 160.638V160.486C48.0352 151.976 48.4912 143.496 49.3728 135.015C50.6192 122.979 53.2944 111.277 55.4832 99.3922C56 96.687 56.4256 94.0122 56.8208 91.2767C58.0064 83.4651 58.9488 75.6536 60.0128 67.8116C61.0464 60.0305 61.8672 52.2797 62.6576 44.4682C63.0528 40.7296 63.8432 37.1126 65.0288 33.5867C65.7888 31.3679 66.6704 29.2402 67.8256 27.2037C68.16 26.5958 68.5248 25.9879 68.9504 25.4408C68.9504 25.4408 69.4368 25.1065 69.1632 25.1977C71.2304 23.9515 69.2544 20.6992 67.0352 21.8238C66.0016 22.3405 65.3024 23.7083 64.7248 24.6202C63.6 26.5351 62.688 28.5411 61.8976 30.608C61.6848 31.1551 61.472 31.763 61.32 32.3101C59.648 37.9636 58.9792 43.9515 58.3104 49.7873C58.1888 50.6992 58.0976 51.611 58.0064 52.5229C57.064 60.3648 55.9696 68.2372 54.9056 76.0487C53.8416 83.8603 52.9296 91.6718 51.44 99.3922C50.4368 104.62 49.2512 109.818 48.2784 115.046C45.1776 131.733 43.9616 148.663 43.84 165.623V165.988C43.84 167.265 43.84 168.48 43.84 169.727Z" fill="white"/>
<path d="M44.9038 172.128L45.2078 171.672C45.8158 170.76 46.4238 169.878 47.0622 168.997C47.4574 168.42 47.8526 167.872 48.2782 167.325L48.3998 167.173V166.991C48.3998 164.894 48.4302 162.796 48.4606 160.669V160.486C48.643 151.307 49.1294 143.009 49.9502 135.076C50.8926 126.079 52.6558 117.113 54.3582 108.42C54.9358 105.441 55.5134 102.492 56.0606 99.5138C56.5774 96.687 57.0334 93.9514 57.3982 91.3983C58.1886 86.0487 58.9182 80.5776 59.6174 75.3192C59.9518 72.8572 60.2558 70.3952 60.5902 67.9332C61.5934 60.5168 62.3838 52.9484 63.1438 45.6536L63.2654 44.5897C63.6302 40.9423 64.4206 37.3253 65.6062 33.8299C66.3966 31.459 67.3086 29.3922 68.3422 27.5381C68.6158 27.0517 68.9502 26.4438 69.3454 25.8967C69.467 25.8055 69.5886 25.684 69.7102 25.5624C70.683 24.8329 70.9262 23.5867 70.2878 22.4621C69.6494 21.3375 68.251 20.5776 66.7614 21.3375C65.6974 21.8846 64.9982 23.0396 64.451 24.0122L64.2382 24.377C63.2046 26.1095 62.2926 28.0548 61.3806 30.456C61.1678 31.0031 60.955 31.611 60.7726 32.2189C59.131 37.7508 58.4622 43.5867 57.8238 49.2706L57.7022 50.1824C57.611 50.9727 57.5198 51.763 57.4286 52.5533C56.5774 59.7873 55.5438 67.1429 54.571 74.2554L54.3278 76.0487C54.115 77.5989 53.9022 79.149 53.7198 80.6992C52.899 86.839 52.0782 93.1916 50.8622 99.3618C50.4062 101.763 49.8894 104.134 49.403 106.505C48.8254 109.331 48.2174 112.158 47.6702 115.015C44.8126 130.365 43.3534 146.961 43.2318 165.714V166.079C43.2014 167.325 43.2014 168.541 43.2014 169.787C43.2014 170.699 43.627 171.489 44.387 171.915L44.9038 172.128ZM47.2142 166.748C46.8494 167.265 46.4542 167.751 46.0894 168.298C45.603 168.997 45.0862 169.696 44.5998 170.426C44.4782 170.243 44.4174 170 44.4174 169.727C44.4174 168.48 44.4174 167.265 44.4478 166.018V165.654C44.5694 146.961 46.0286 130.456 48.8558 115.167C49.403 112.34 49.9806 109.514 50.5582 106.687C51.0446 104.316 51.5614 101.915 52.0174 99.5138C53.203 93.3131 54.0542 86.9302 54.875 80.7903C55.0878 79.2402 55.3006 77.69 55.483 76.1399L55.7262 74.3466C56.699 67.2341 57.7326 59.8481 58.5838 52.6141C58.675 51.8238 58.7662 51.0335 58.8574 50.2432L58.979 49.301C59.6174 43.6779 60.2862 37.8724 61.8974 32.4621C62.0798 31.915 62.2622 31.3375 62.475 30.7903C63.387 28.4195 64.2686 26.5654 65.2718 24.8937L65.4846 24.5289C65.971 23.7083 66.579 22.7052 67.3086 22.3101C68.1598 21.8846 68.9198 22.3405 69.2542 22.9484C69.3454 23.1308 69.8014 24.073 68.859 24.6201L69.011 24.9241L68.7678 24.7417C68.707 24.8025 68.5854 24.8937 68.5854 24.8937L68.4638 25.0153C68.0078 25.6536 67.6126 26.3223 67.3086 26.8694C66.2446 28.7843 65.3022 30.9119 64.4814 33.3435C63.2654 36.9302 62.4446 40.6384 62.0798 44.377L61.9582 45.4408C61.1982 52.7356 60.4078 60.2736 59.435 67.69C59.1006 70.152 58.7662 72.6141 58.4622 75.0761C57.763 80.3344 57.0334 85.7751 56.243 91.1247C55.8478 93.6779 55.4222 96.4135 54.9054 99.2098C54.3582 102.189 53.7806 105.137 53.203 108.116C51.5006 116.839 49.7374 125.836 48.795 134.894C47.9742 142.857 47.4574 151.216 47.3054 160.426V160.608C47.2446 162.675 47.2142 164.711 47.2142 166.748Z" fill="#E1E1E1"/>
<path d="M44.235 180.152C44.9342 180.274 45.7246 180.061 46.2414 179.301C48.2478 176.292 50.8014 173.739 53.659 171.611C56.547 169.453 59.7694 167.69 63.1438 166.353C71.4126 163.04 80.5934 161.489 89.531 161.763C95.915 161.976 101.387 158.116 102.36 151.641C102.846 148.389 102.451 144.833 101.265 141.733C100.384 139.362 96.5534 140.395 97.435 142.766C98.651 145.958 99.1982 150.061 97.8606 153.283C96.675 156.049 93.787 157.69 90.8382 157.812C89.4094 157.872 87.9502 157.72 86.491 157.751C82.083 157.872 77.7054 158.389 73.419 159.24C68.6766 160.182 63.995 161.581 59.587 163.648C56.4254 165.076 53.4158 166.839 50.6798 168.997C48.2782 172.553 46.1502 176.322 44.235 180.152Z" fill="white"/>
<path d="M44.6 180.79C45.4512 180.79 46.2112 180.395 46.728 179.635C48.6128 176.839 51.0448 174.316 53.9936 172.097C56.7296 170.061 59.8608 168.298 63.3568 166.9C71.504 163.647 80.5328 162.067 89.5008 162.371C96.4624 162.584 101.965 158.237 102.938 151.733C103.424 148.45 103.029 144.711 101.813 141.55C101.478 140.638 100.718 140.03 99.776 139.879C98.8032 139.727 97.7696 140.061 97.192 140.79C96.6752 141.429 96.584 142.219 96.888 143.04C98.2864 146.687 98.4384 150.456 97.3136 153.1C96.28 155.502 93.7264 157.143 90.808 157.265C90.0784 157.295 89.3184 157.265 88.5888 157.234C87.8896 157.204 87.16 157.173 86.4608 157.204C82.2048 157.325 77.7664 157.812 73.2976 158.693C68.1904 159.696 63.4784 161.185 59.344 163.131C56 164.651 52.96 166.474 50.3152 168.541L50.1936 168.693C47.9136 172.158 45.7552 175.927 43.7488 179.909L43.384 180.608L44.1744 180.76C44.296 180.79 44.448 180.79 44.6 180.79ZM87.4032 161.155C78.9824 161.155 70.5616 162.766 62.9008 165.806C59.3136 167.234 56.0912 169.027 53.2944 171.155C50.224 173.435 47.7008 176.079 45.7552 178.967C45.6032 179.179 45.4512 179.331 45.2992 179.423C47.1232 175.866 49.0688 172.492 51.1056 169.392C53.6592 167.386 56.5776 165.654 59.8 164.195C63.8736 162.28 68.4944 160.821 73.5104 159.848C77.9184 158.997 82.296 158.48 86.4912 158.389C87.16 158.389 87.8592 158.389 88.528 158.42C89.288 158.45 90.0784 158.48 90.8384 158.45C94.2128 158.328 97.1616 156.413 98.3776 153.556C99.624 150.638 99.472 146.535 97.9824 142.584C97.8304 142.158 97.8608 141.793 98.104 141.52C98.408 141.155 99.016 140.942 99.5632 141.034C99.8672 141.094 100.414 141.277 100.688 141.976C101.843 144.985 102.208 148.48 101.752 151.581C100.901 157.447 95.8848 161.429 89.5312 161.185C88.8016 161.155 88.1024 161.155 87.4032 161.155Z" fill="#E1E1E1"/>
<path d="M124.035 55.9272V56.0488C124.096 55.9272 124.096 55.8057 124.065 55.7145C124.035 55.7753 124.035 55.8665 124.035 55.9272Z" fill="white"/>
<path d="M123.427 58.5412L124.552 56.292C124.704 55.988 124.704 55.684 124.582 55.4409L123.457 53.222L123.427 58.5412ZM123.701 55.8664L123.518 55.9576C123.488 55.8664 123.488 55.7752 123.488 55.7448L123.701 55.8664Z" fill="#E1E1E1"/>
<path d="M29.3697 192.614C30.2209 193.131 31.4369 193.1 32.1361 192.006C34.1729 188.845 36.2097 185.654 38.2161 182.492C39.8881 179.149 41.7425 175.927 43.7489 172.796C44.6609 171.398 45.6033 170 46.5761 168.632C47.4273 167.416 48.3393 166.231 49.2513 165.046C49.4337 164.802 49.6161 164.59 49.8289 164.347C50.0417 164.012 50.2545 163.708 50.4369 163.374C53.7505 158.207 57.1249 153.161 60.3777 147.964C61.5937 146.018 62.7793 144.073 63.9041 142.097C67.2481 136.383 70.3185 130.517 73.1761 124.529C75.9121 118.754 78.5873 113.009 81.9617 107.568C84.2113 103.982 86.6129 100.486 89.3793 97.2645C90.2001 96.2919 91.0513 95.3496 91.9937 94.4985C92.2369 94.2554 92.5105 94.0426 92.7537 93.8298C92.7537 93.8298 92.7537 93.8298 92.7841 93.7994C92.8145 93.7994 92.8145 93.7691 92.8145 93.7691C93.0577 93.6779 93.2705 93.5563 93.4529 93.4043C99.5329 88.6323 105.491 83.6475 110.903 78.1156C115.675 73.2523 120.57 67.7812 123.032 61.3678C123.579 59.9393 123.944 58.4803 124.035 56.9301C124.066 56.6262 124.066 56.3222 124.035 56.0183C123.975 56.2007 123.823 56.4134 123.61 56.5654C124.491 55.3496 124.005 53.2523 122.12 53.4043C120.235 53.5563 120.114 55.0153 120.083 56.4742C120.083 56.7174 120.053 56.9301 120.053 57.1429V57.2645C120.053 57.2645 120.023 57.3253 119.992 57.5381C119.84 58.2979 119.658 59.0274 119.415 59.7569C118.746 61.7326 117.317 64.1642 115.888 66.2007C109.352 75.6232 100.05 83.2523 91.1121 90.2736C89.8961 90.8511 88.6801 92.1885 88.0417 92.8876C84.9409 96.1703 82.2657 99.8785 79.8337 103.617C76.2465 109.119 73.3281 114.924 70.5617 120.882C67.6129 127.204 64.3905 133.435 60.8945 139.483C56.5169 147.082 51.5921 154.286 46.8497 161.672C46.7889 161.793 46.6977 161.885 46.6673 161.976C46.6369 162.006 46.6065 162.037 46.5761 162.067C42.6545 168.176 38.7329 174.316 34.8113 180.456C32.7745 183.647 30.7073 186.839 28.7009 190.03C28.0321 191.064 28.5185 192.097 29.3697 192.614Z" fill="white"/>
<path d="M30.4944 193.526C31.2848 193.526 32.0752 193.161 32.6224 192.341L38.7024 182.827C40.344 179.514 42.1984 176.292 44.2352 173.131C45.1168 171.763 46.0592 170.365 47.0624 168.997C47.8224 167.933 48.6432 166.809 49.7376 165.441C49.9504 165.167 50.1024 164.955 50.2848 164.772L50.9536 163.708C52.2608 161.702 53.568 159.666 54.8752 157.66C56.8512 154.62 58.9184 151.459 60.8944 148.298C62.3232 146.018 63.448 144.134 64.4512 142.401C67.7648 136.687 70.896 130.76 73.7232 124.803L74.1792 123.86C76.7024 118.541 79.3168 113.04 82.4784 107.903C85.032 103.799 87.3728 100.547 89.8352 97.6901C90.504 96.8998 91.416 95.8664 92.3888 94.9545C92.5104 94.8329 92.632 94.7417 92.7536 94.6506C92.8448 94.5898 92.936 94.4986 92.9968 94.4378H93.3616V94.225C93.5136 94.1642 93.6352 94.0427 93.7872 93.9515C101.174 88.1764 106.555 83.4348 111.328 78.6019C116.222 73.5867 121.117 68.0852 123.579 61.6414C124.187 60.0001 124.552 58.5107 124.643 57.0518C124.674 56.7174 124.674 56.3527 124.643 56.0183L124.613 55.7752C124.704 55.2889 124.643 54.7721 124.461 54.2858L124.37 53.4651L124.218 53.8603C123.762 53.1612 122.971 52.8269 122.09 52.8876C119.566 53.1004 119.536 55.2585 119.506 56.5351C119.506 56.6566 119.506 56.7478 119.506 56.8694C119.506 56.991 119.475 57.1126 119.475 57.2341L119.414 57.4773C119.262 58.2372 119.08 58.9363 118.837 59.605C118.259 61.3071 116.982 63.5867 115.402 65.8968C108.957 75.1977 99.6848 82.8269 90.7472 89.8481C89.592 90.3649 88.4064 91.6718 87.6768 92.4317C84.8496 95.4408 82.2048 98.8755 79.3168 103.344C75.456 109.271 72.4464 115.441 70.0144 120.669C67.1872 126.748 63.9648 132.979 60.3776 139.24C57.216 144.711 53.72 150.091 50.3152 155.289C48.9776 157.325 47.6704 159.362 46.3328 161.429C46.2416 161.581 46.1808 161.672 46.1504 161.733L46.0592 161.824L34.2944 180.213C32.2576 183.404 30.1904 186.596 28.184 189.787C27.8192 190.365 27.6976 191.003 27.8192 191.641C27.9712 192.28 28.4272 192.857 29.0352 193.222C29.4912 193.374 30.008 193.526 30.4944 193.526ZM92.176 93.5563C92.1152 93.6171 92.024 93.6779 91.9632 93.7387C91.8112 93.8603 91.6896 93.9819 91.5376 94.1035C90.5344 95.0457 89.592 96.1095 88.8928 96.8998C86.4 99.7873 84.0288 103.1 81.4448 107.265C78.2528 112.432 75.608 117.964 73.0848 123.313L72.6288 124.255C69.8016 130.213 66.7008 136.11 63.3872 141.793C62.384 143.526 61.2896 145.38 59.8608 147.629C57.9152 150.76 55.848 153.921 53.872 156.961C52.5648 158.967 51.2576 161.003 49.9504 163.009L49.312 164.012C49.1904 164.164 49.008 164.347 48.856 164.559C47.7008 166.049 46.8496 167.173 46.0896 168.268C45.0864 169.666 44.144 171.064 43.232 172.462C41.1952 175.654 39.3104 178.936 37.6688 182.219L31.6192 191.672C31.1328 192.462 30.2512 192.432 29.6736 192.097C29.3392 191.885 29.096 191.581 29.0048 191.246C28.944 190.942 29.0048 190.638 29.2176 190.304C31.2544 187.113 33.2912 183.921 35.328 180.73L47.3664 161.915C48.6736 159.909 49.9808 157.872 51.3184 155.836C54.7232 150.638 58.2192 145.258 61.4112 139.757C64.9984 133.496 68.2512 127.204 71.1088 121.094C73.5104 115.897 76.4896 109.787 80.32 103.921C83.1776 99.5138 85.7616 96.1399 88.4672 93.2828C89.1664 92.5229 90.3216 91.3071 91.3552 90.7904C100.475 83.6475 109.808 75.9576 116.374 66.5351C117.347 65.1369 119.11 62.4013 119.962 59.9393C120.205 59.2098 120.418 58.45 120.57 57.6597L120.63 57.1734C120.63 57.0822 120.63 56.991 120.63 56.8998C120.63 56.7782 120.661 56.6262 120.661 56.5047C120.691 54.8633 120.904 54.1338 122.15 54.0427C122.637 54.0123 123.032 54.1642 123.245 54.5594C123.518 55.0457 123.458 55.7752 123.123 56.2615L119.718 60.9728L123.366 57.6293C123.214 58.7539 122.941 59.9089 122.454 61.1855C120.083 67.4165 115.28 72.8269 110.477 77.7509C105.765 82.5533 100.384 87.2645 93.0576 93.0092C92.9056 93.1308 92.7536 93.222 92.632 93.2524L92.4496 93.3132L92.176 93.4044V93.5563Z" fill="#E1E1E1"/>
<path d="M84.7585 55.2889C84.3329 55.3193 86.6129 54.8329 85.9745 54.8633C85.7921 54.8633 86.2481 54.4682 85.9745 54.8937C85.6705 55.3193 85.3665 55.7448 85.0929 56.2007C84.1505 57.6293 83.2385 59.0883 82.3265 60.5472C79.3473 65.38 76.5201 70.3345 73.7537 75.3193C65.9409 89.453 58.7057 103.982 52.8689 119.058C49.7073 127.204 46.9409 135.562 45.2689 144.164C44.7825 146.657 40.9521 145.593 41.4385 143.1C44.6609 126.535 51.5313 110.699 58.7969 95.5624C64.8769 82.918 71.5345 70.5168 78.8609 58.5411C79.8641 56.8998 80.8673 55.2585 81.9617 53.6779C82.6609 52.6445 83.3297 51.3983 84.7281 51.3375C87.3121 51.1855 87.3121 55.1673 84.7585 55.2889Z" fill="white"/>
<path d="M43.6271 146.17C44.7519 146.17 45.664 145.441 45.8768 144.255C47.336 136.809 49.7375 128.845 53.4464 119.24C58.6751 105.745 65.2719 91.8542 74.3007 75.5624C77.3407 70.0913 80.1375 65.2585 82.8431 60.8208C83.7247 59.3618 84.6367 57.9029 85.5791 56.4743C85.8223 56.1095 86.0655 55.7448 86.3087 55.3801C86.5519 55.2585 86.6735 55.1369 86.6735 54.8937C87.0991 54.377 87.2815 53.6779 87.2511 53.0396C87.1903 51.8542 86.3695 50.6384 84.7279 50.6992C83.1775 50.7904 82.3871 52.0062 81.7183 52.9788L81.5055 53.3132C80.3807 54.9849 79.2863 56.7782 78.4047 58.2068C71.3823 69.6658 64.6031 82.1278 58.3103 95.2889C51.1968 110.091 44.1743 126.14 40.8911 142.979C40.5567 144.681 41.7727 145.866 43.0799 146.11C43.2927 146.14 43.4751 146.17 43.6271 146.17ZM84.5759 55.8968C83.6335 57.3253 82.7215 58.7843 81.8399 60.2433C79.1039 64.681 76.3071 69.5138 73.2671 75.0153C64.2383 91.3679 57.5807 105.289 52.3519 118.845C48.6127 128.511 46.2111 136.505 44.7215 144.043C44.5087 145.106 43.5967 145.015 43.3231 144.955C42.7151 144.833 41.864 144.286 42.0768 143.222C45.3296 126.505 52.3216 110.578 59.4048 95.836C65.6976 82.7357 72.4159 70.3041 79.4383 58.8755C80.3199 57.4469 81.4143 55.684 82.5087 54.0427L82.7215 53.7083C83.2991 52.8269 83.8463 52.0062 84.7887 51.9758C85.9439 51.8542 86.0655 52.9788 86.0655 53.1612C86.0959 53.526 85.9743 53.9211 85.7615 54.225C85.6703 54.2858 85.5487 54.377 85.4879 54.4986C85.3967 54.529 85.3055 54.5594 85.1839 54.5594C84.4543 54.7418 84.0287 54.8633 84.1199 55.4105L84.2111 55.9272L84.5759 55.8968Z" fill="#E1E1E1"/>
<path d="M39.8581 93.5561C39.8581 93.5259 39.8581 93.5259 39.8883 93.5259C40.0695 93.5561 39.9789 93.5561 39.8581 93.5561Z" fill="white"/>
<path d="M40.3438 94.1946L40.587 93.6475L40.6782 93.1003L39.4014 92.7964L39.2798 93.3739L38.8846 94.1338H39.7966L40.3438 94.1946Z" fill="#E1E1E1"/>
<path d="M39.6446 93.5258C39.675 93.4954 39.675 93.4954 39.7054 93.4954C39.7966 93.4346 39.7662 93.465 39.7358 93.4954C39.7662 93.4954 39.827 93.4954 39.8574 93.4954V93.5258C39.827 93.5258 39.7662 93.4954 39.7358 93.4954C39.7054 93.4954 39.675 93.4954 39.6446 93.5258C39.7358 93.5562 39.7966 93.5562 39.8574 93.5562C39.827 93.6474 39.7358 93.7082 39.6446 93.5562C39.5838 93.5866 39.5838 93.5866 39.6446 93.5258C39.6142 93.5258 39.6142 93.5258 39.6446 93.5258C39.6142 93.5258 39.6142 93.5258 39.6446 93.5258Z" fill="white"/>
<path d="M39.4625 94.3769L39.6753 94.225H39.7665L40.1009 94.1946L40.5265 93.5563L40.4961 93.4955L40.7393 93.0092L40.1009 92.918C40.0401 92.8572 39.9489 92.8268 39.8577 92.7964L39.7665 92.6748L39.5841 92.7964H39.5537L39.4625 92.8572C39.4625 92.8572 39.4321 92.8572 39.4321 92.8876L39.3409 92.918L38.8241 93.2523L38.8545 93.3131L38.3073 93.7082L38.3985 93.7386L38.3073 93.8298L39.1585 93.9514L39.4625 94.3769Z" fill="#E1E1E1"/>
<path d="M11.2815 135.289C14.0783 137.568 16.2671 140.912 17.9999 143.982C22.8031 152.432 24.9007 162.219 25.3263 171.885C25.7215 180.517 24.7183 189.149 23.0159 197.599C22.4991 200.091 18.6991 199.027 19.1855 196.535C21.7391 183.891 22.6207 170.517 19.3071 157.933C18.3039 154.103 16.9055 150.365 15.0207 146.839C13.8047 144.559 12.2543 142.219 10.7951 140.517C10.0655 139.666 9.30546 138.784 8.42386 138.085C6.50866 136.505 9.33586 133.708 11.2815 135.289Z" fill="white"/>
<path d="M21.3438 199.605C21.6174 199.605 21.891 199.574 22.1342 199.483C22.9246 199.21 23.4414 198.602 23.6238 197.69C25.539 188.207 26.299 179.757 25.9646 171.854C25.4782 160.973 22.9854 151.52 18.547 143.708C16.9358 140.851 14.6862 137.264 11.6766 134.833C10.339 133.769 8.66699 134.225 7.78539 135.319C6.93419 136.383 7.05579 137.72 8.11979 138.571C8.97099 139.271 9.73099 140.122 10.3998 140.912C11.7678 142.553 13.2878 144.802 14.5342 147.143C16.2974 150.395 17.6958 154.073 18.7598 158.085C21.6478 169.149 21.6174 181.702 18.6382 196.413C18.4558 197.356 18.7294 198.267 19.459 198.875C19.9758 199.362 20.675 199.605 21.3438 199.605ZM10.0046 135.41C10.3086 135.41 10.6126 135.502 10.9166 135.745C13.7742 138.055 15.9326 141.52 17.5134 144.286C21.8606 151.945 24.2926 161.246 24.779 171.915C25.1438 179.726 24.3838 188.085 22.4686 197.477C22.3774 197.933 22.1342 198.237 21.7694 198.359C21.283 198.511 20.675 198.359 20.2494 197.994C19.9758 197.751 19.6718 197.325 19.8238 196.657C22.8638 181.733 22.8942 169.027 19.9454 157.781C18.8814 153.678 17.4222 149.909 15.6286 146.565C14.3518 144.164 12.771 141.824 11.3422 140.152C10.6126 139.301 9.82219 138.389 8.87979 137.66C8.08939 137.021 8.51499 136.353 8.72779 136.079C8.97099 135.745 9.4574 135.41 10.0046 135.41Z" fill="#E1E1E1"/>
<path d="M41.0735 198.146C44.2351 188.906 48.2479 179.818 53.6287 171.641C55.0271 169.483 56.5775 167.386 58.1583 165.35C58.6143 164.772 59.0703 164.225 59.5263 163.678C63.3567 159.058 67.7647 154.802 72.7199 151.429C74.4223 150.274 76.1855 149.179 78.0095 148.268C78.6175 147.964 79.2255 147.66 79.8639 147.386L79.8943 147.356C79.9551 147.325 80.0463 147.295 80.1679 147.264C80.3199 147.204 80.4719 147.143 80.6543 147.082C83.8463 145.866 86.8863 143.708 89.7439 141.824C93.6351 139.24 97.4655 136.413 100.809 133.131C102.664 131.307 104.397 129.301 105.765 127.082C106.069 126.535 106.403 125.988 106.646 125.41C106.707 125.258 106.859 125.076 106.889 124.894C106.889 124.863 106.889 124.863 106.92 124.833C106.889 124.863 106.829 124.894 106.768 124.954C107.376 124.103 107.437 122.736 106.373 121.945C104.427 120.517 103.424 123.1 102.785 124.316C101.509 126.687 99.6847 128.723 97.7391 130.578C93.9999 134.225 89.6831 137.234 85.2447 139.97C83.2383 141.216 81.2927 142.614 79.1039 143.465C75.4863 144.863 72.0815 146.93 68.9503 149.271C61.6543 154.681 55.6351 161.459 50.6495 168.997C48.2783 172.553 46.1503 176.322 44.2351 180.152C41.4991 185.654 39.2191 191.337 37.2431 197.082C36.4223 199.514 40.2831 200.547 41.0735 198.146Z" fill="white"/>
<path d="M39.1581 200.122C39.3405 200.122 39.5229 200.091 39.7053 200.061C40.6173 199.878 41.3165 199.24 41.6205 198.328C45.1165 188.055 49.2205 179.423 54.1149 171.945C55.5133 169.818 57.0029 167.72 58.6141 165.684C59.0701 165.106 59.5261 164.559 59.9821 164.012C64.0861 159.058 68.4941 154.985 73.0541 151.885C74.9085 150.638 76.6109 149.605 78.2829 148.784C78.8909 148.48 79.4989 148.207 80.1069 147.933L80.8669 147.629C83.6637 146.565 86.3085 144.802 88.8621 143.1L90.0781 142.31C94.6077 139.331 98.2557 136.474 101.235 133.556C103.393 131.459 105.035 129.423 106.281 127.386C106.585 126.869 106.92 126.261 107.193 125.654C107.345 125.38 107.467 125.198 107.467 124.954H107.437C108.014 123.891 107.923 122.401 106.707 121.459C106.069 121.003 105.461 120.821 104.822 120.973C103.637 121.246 102.937 122.614 102.421 123.587L102.208 124.012C101.144 126.018 99.6237 127.903 97.2829 130.122C94.0605 133.252 90.2301 136.14 84.9101 139.453L83.8157 140.152C82.2349 141.155 80.5933 142.219 78.8605 142.888C75.4861 144.195 72.1117 146.14 68.5853 148.784C61.6845 153.921 55.4829 160.608 50.1629 168.663C47.8829 172.128 45.7245 175.897 43.7181 179.878C41.1341 185.076 38.7933 190.79 36.6957 196.9C36.3917 197.751 36.5437 198.572 37.0909 199.21C37.6077 199.787 38.3677 200.122 39.1581 200.122ZM79.5597 146.869C78.9517 147.143 78.3741 147.416 77.7661 147.72C76.0637 148.571 74.3005 149.635 72.4157 150.912C67.7645 154.073 63.2957 158.237 59.1005 163.252C58.6445 163.799 58.1581 164.377 57.7325 164.954C56.1213 167.021 54.5709 169.149 53.1725 171.277C48.2173 178.815 44.0829 187.538 40.5565 197.933C40.3437 198.572 39.8877 198.784 39.5229 198.875C38.9757 198.997 38.3677 198.784 38.0333 198.42C37.7597 198.116 37.6989 197.72 37.8509 197.265C39.9181 191.216 42.2589 185.532 44.8125 180.395C46.7885 176.444 48.9165 172.705 51.1965 169.301C56.4557 161.368 62.5661 154.772 69.3453 149.727C72.8109 147.143 76.0637 145.289 79.3469 144.012C81.2013 143.283 82.8733 142.219 84.5149 141.155L85.5789 140.456C90.9901 137.113 94.8813 134.164 98.1645 130.973C100.597 128.632 102.177 126.657 103.302 124.559L103.545 124.103C103.941 123.374 104.488 122.249 105.157 122.097C105.248 122.067 105.552 122.006 106.038 122.371C106.829 122.948 106.768 123.921 106.312 124.559L103.941 127.842L105.157 126.9C103.971 128.784 102.421 130.669 100.414 132.644C97.4957 135.502 93.9085 138.328 89.4397 141.246L88.2237 142.037C85.7309 143.708 83.1469 145.41 80.4717 146.444L79.5597 146.869Z" fill="#E1E1E1"/>
<path d="M131.149 81.9454C134.523 88.7235 134.736 97.4773 131.149 104.195C129.295 107.629 126.528 110.365 123.367 112.584C121.269 114.073 119.293 110.638 121.36 109.149C126.893 105.228 130.055 99.3618 129.751 92.5533C129.659 90.4256 129.264 88.3587 128.595 86.2615C128.383 85.5928 128.139 84.9241 127.866 84.2554C128.109 84.8937 127.805 84.1338 127.714 83.9514C126.619 81.6718 130.024 79.6353 131.149 81.9454Z" fill="white"/>
<path d="M122.333 113.526C122.789 113.526 123.275 113.374 123.731 113.07C127.318 110.547 129.963 107.629 131.666 104.468C135.253 97.8116 135.253 88.8754 131.696 81.6718C130.966 80.2128 129.507 80.0912 128.474 80.6079C127.288 81.1854 126.437 82.6444 127.197 84.1946C127.227 84.2857 127.318 84.4681 127.379 84.6201L127.44 84.7721C127.653 85.3192 127.866 85.8663 128.018 86.4438C128.686 88.5714 129.051 90.5775 129.142 92.5836C129.416 99.0274 126.528 104.742 120.995 108.663C119.627 109.635 119.627 111.368 120.418 112.492C120.934 113.161 121.603 113.526 122.333 113.526ZM129.629 81.5198C129.994 81.5198 130.389 81.7021 130.632 82.1885C134.037 89.0578 134.037 97.5684 130.632 103.891C129.021 106.9 126.467 109.635 123.032 112.067C122.15 112.675 121.573 112.006 121.421 111.763C120.965 111.125 120.934 110.152 121.725 109.605C127.592 105.471 130.662 99.3921 130.358 92.5228C130.267 90.4256 129.872 88.2979 129.173 86.0791C129.051 85.6535 128.899 85.2584 128.747 84.8328L128.474 84.1338C128.474 84.1034 128.443 84.073 128.443 84.0122C128.382 83.8602 128.322 83.7082 128.291 83.6474C127.805 82.7052 128.474 81.9453 129.021 81.6414C129.203 81.5806 129.416 81.5198 129.629 81.5198Z" fill="#E1E1E1"/>
<path d="M31.8014 197.508C33.595 192.371 35.723 187.356 38.2158 182.493C39.8878 179.149 41.7422 175.927 43.7486 172.796C44.0527 172.31 44.387 171.824 44.7214 171.307C45.3294 170.395 45.9678 169.514 46.6062 168.602C47.0014 168.024 47.427 167.477 47.8222 166.93C48.3086 166.292 48.795 165.654 49.2814 165.015C49.4638 164.772 49.6462 164.559 49.859 164.316C56.4254 156.11 64.451 148.48 73.8446 143.617C80.7758 140.031 86.8558 134.59 92.115 128.876C96.0366 124.62 99.8062 120 102.846 115.076C104.184 112.918 100.779 110.912 99.411 113.07C95.6414 119.149 90.8382 124.772 85.7006 129.757C81.171 134.134 76.2462 137.721 70.7134 140.76C67.035 142.766 63.5998 145.258 60.3774 147.933C60.1038 148.146 59.8302 148.389 59.5566 148.602C55.3006 152.189 51.3791 156.17 47.8526 160.426C47.427 160.912 47.0318 161.429 46.6367 161.945C46.6063 161.976 46.5758 162.006 46.5454 162.037C45.603 163.222 44.691 164.407 43.8398 165.623C43.4142 166.17 43.019 166.778 42.6238 167.325C39.7358 171.489 37.1214 175.866 34.811 180.395C32.7742 184.347 30.9502 188.42 29.3694 192.553C28.883 193.83 28.427 195.107 27.971 196.383C27.1198 198.845 30.9502 199.879 31.8014 197.508Z" fill="white"/>
<path d="M29.8559 199.423C30.8591 199.423 31.9231 198.906 32.3487 197.69C34.2031 192.432 36.3615 187.417 38.7327 182.766C40.3743 179.514 42.1983 176.261 44.2351 173.131C44.5695 172.644 44.8735 172.158 45.2079 171.672C45.8159 170.76 46.4543 169.879 47.0623 168.997C47.4575 168.42 47.8527 167.872 48.2783 167.325C48.6431 166.839 49.0079 166.353 49.3727 165.897L49.7375 165.441C49.9503 165.167 50.1023 164.955 50.2847 164.772C57.7631 155.441 65.7583 148.511 74.1183 144.225C80.2591 141.034 86.2783 136.17 92.5407 129.362C97.0399 124.468 100.566 119.939 103.333 115.471C103.819 114.681 103.85 113.83 103.454 113.07C102.998 112.219 102.086 111.672 101.114 111.641C100.232 111.611 99.4111 112.067 98.8943 112.857C95.4287 118.42 90.8383 124.012 85.2751 129.453C80.8367 133.739 76.0031 137.295 70.4399 140.334C67.1263 142.158 63.7215 144.499 60.0127 147.568L59.1919 148.237C55.0271 151.733 51.0447 155.745 47.3967 160.152C47.1231 160.456 46.8799 160.79 46.6063 161.125L46.1807 161.672C45.1167 163.009 44.2351 164.195 43.3535 165.38C42.9583 165.927 42.5327 166.535 42.1375 167.113C39.3103 171.155 36.6655 175.593 34.2639 180.274C32.2575 184.195 30.4031 188.298 28.7919 192.493C28.3663 193.587 27.9711 194.711 27.5759 195.806L27.3935 196.353C26.9375 197.66 27.5455 198.906 28.8831 199.392C29.1871 199.392 29.5215 199.423 29.8559 199.423ZM31.2239 197.295C30.8591 198.298 29.8559 198.359 29.2783 198.146C29.0047 198.055 28.1535 197.66 28.5183 196.626L28.7007 196.11C29.0959 195.015 29.4911 193.921 29.9167 192.827C31.5279 188.693 33.3519 184.62 35.3583 180.73C37.7295 176.079 40.3439 171.702 43.1407 167.72C43.5359 167.143 43.9311 166.565 44.3567 166.018C45.2079 164.833 46.0895 163.678 47.0623 162.462L47.5791 161.824C47.8223 161.489 48.0959 161.186 48.3391 160.882C51.9263 156.535 55.8479 152.584 59.9823 149.119L60.7727 148.45C64.4207 145.441 67.7647 143.131 71.0175 141.337C76.6719 138.237 81.6271 134.62 86.1263 130.243C91.7807 124.742 96.4319 119.088 99.9279 113.435C100.262 112.888 100.749 112.766 101.083 112.766C101.63 112.796 102.178 113.131 102.421 113.587C102.634 113.951 102.603 114.377 102.33 114.803C99.5935 119.179 96.1279 123.678 91.6591 128.511C85.4879 135.228 79.5599 140.031 73.5407 143.131C65.0591 147.508 56.9119 154.529 49.3423 163.982C49.1599 164.164 49.0079 164.377 48.8559 164.59L48.4303 165.137C48.0655 165.623 47.6703 166.11 47.3055 166.596C46.8799 167.143 46.4847 167.72 46.0895 168.298C45.4511 169.179 44.8127 170.091 44.2047 171.003C43.8703 171.489 43.5663 171.976 43.2319 172.462C41.1647 175.654 39.2799 178.936 37.6383 182.219C35.2671 186.93 33.1087 191.976 31.2239 197.295Z" fill="#E1E1E1"/>
<path d="M125.586 36.4438C127.014 36.4742 128.443 36.6262 129.75 37.2341C131.483 38.0244 132.821 39.4834 133.763 41.1247C138.597 49.4226 138.658 63.1612 128.2 67.0821C124.826 68.3587 121.026 68.1764 117.53 67.1733C113.699 66.0487 110.051 64.225 107.011 61.611C103.363 58.4803 100.019 54.0426 100.354 48.9666C101.053 37.9636 115.766 36.7174 124.126 36.4438C124.613 36.4438 125.099 36.4438 125.586 36.4438Z" fill="white"/>
<path d="M123.002 68.5715C124.734 68.5715 126.558 68.3283 128.382 67.6293C132.243 66.1703 135.01 63.3131 136.438 59.3618C138.384 53.8603 137.533 46.4134 134.28 40.8207C133.155 38.8755 131.666 37.4469 129.994 36.687C128.808 36.1399 127.41 35.8663 125.616 35.8359C125.13 35.8359 124.613 35.8359 124.126 35.8663C114.003 36.2007 100.475 37.9028 99.7759 48.9362C99.3807 54.9241 103.91 59.7265 106.646 62.0669C109.626 64.5897 113.334 66.5654 117.378 67.7508C118.898 68.1764 120.843 68.5715 123.002 68.5715ZM125.19 37.0517C125.312 37.0517 125.464 37.0517 125.586 37.0517C127.227 37.0821 128.474 37.3253 129.507 37.7812C131.331 38.6019 132.547 40.2128 133.246 41.4286C136.347 46.7478 137.168 53.7995 135.314 58.9666C134.006 62.5837 131.483 65.1976 127.987 66.535C124.187 67.9636 120.296 67.3557 117.712 66.5958C113.821 65.4712 110.264 63.5867 107.406 61.1551C104.853 58.9666 100.597 54.4682 100.962 48.997C101.6 38.9362 114.52 37.3557 124.187 37.0517C124.491 37.0517 124.826 37.0517 125.19 37.0517Z" fill="#E1E1E1"/>
<path d="M119.657 20.1217C121.147 18.298 122.88 16.687 124.825 15.38C127.896 13.3435 131.422 12.0366 135.131 12.4013C140.42 12.918 144.98 15.9575 147.504 20.6384C151.456 27.8724 151.06 37.6901 147.99 45.1673C146.075 49.8177 142.852 54.225 137.532 54.9545C130.48 55.9271 122.545 50.8208 118.228 45.5624C111.996 37.9028 113.79 27.3253 119.657 20.1217Z" fill="white"/>
<path d="M135.739 55.6536C136.377 55.6536 136.985 55.6232 137.624 55.532C142.305 54.8937 146.075 51.3678 148.568 45.38C152.003 37.0517 151.79 27.2341 148.051 20.3344C145.406 15.4712 140.694 12.3405 135.192 11.7934C131.696 11.4286 128.109 12.4925 124.491 14.8633C122.515 16.1703 120.721 17.8116 119.171 19.7265C113.699 26.4742 110.933 37.538 117.773 45.8967C121.785 50.8207 128.899 55.6536 135.739 55.6536ZM133.854 12.918C134.249 12.918 134.675 12.9484 135.07 12.9788C140.177 13.4955 144.525 16.383 146.987 20.9119C150.574 27.4773 150.757 36.8998 147.443 44.9241C145.102 50.5776 141.758 53.7387 137.441 54.3466C130.814 55.2584 123.001 50.4256 118.685 45.1672C112.27 37.3253 114.915 26.8694 120.083 20.4864C121.573 18.6627 123.245 17.1125 125.129 15.8663C128.109 13.921 131.027 12.918 133.854 12.918Z" fill="#E1E1E1"/>
<path d="M83.7245 7.96356C84.3629 9.27055 84.8797 10.6687 85.2141 12.1581C86.0653 15.9879 86.1565 20.6991 84.8189 24.4073C83.2685 28.7234 79.1645 31.8541 74.6653 32.8572C69.2845 34.073 63.0829 33.1003 58.8573 29.3921C53.4765 24.6809 54.2061 17.2949 57.2461 11.459C59.5565 7.05171 63.3869 3.3739 68.0381 1.55019C74.8781 -1.15498 80.8061 2.18849 83.7245 7.96356Z" fill="white"/>
<path d="M70.1965 33.9514C71.7165 33.9514 73.2669 33.7691 74.7869 33.4347C79.7725 32.3101 83.8157 28.9362 85.3661 24.5897C86.5821 21.1551 86.7645 16.4438 85.7917 12.0062C85.4573 10.4864 84.9405 8.99703 84.2717 7.65965C80.8973 0.972715 74.4525 -1.64127 67.8253 0.972715C63.2045 2.79642 59.1613 6.53502 56.7293 11.1855C53.7501 16.8694 52.6557 24.7721 58.4621 29.8481C61.4717 32.5229 65.7277 33.9514 70.1965 33.9514ZM72.7805 1.21588C77.0669 1.21588 80.8973 3.70828 83.1773 8.23715C83.8157 9.48335 84.3021 10.8815 84.6061 12.3101C85.5181 16.535 85.3965 21.0031 84.2413 24.225C82.8429 28.1156 79.0429 31.2767 74.5133 32.3101C68.8893 33.5867 63.0221 32.3101 59.2221 28.997C53.9325 24.377 54.9965 17.0821 57.7629 11.7934C60.0429 7.38609 63.8733 3.89065 68.2509 2.15813C69.7709 1.48943 71.2909 1.21588 72.7805 1.21588Z" fill="#E1E1E1"/>
<path d="M94.6688 44.0731C94.8816 46.8694 94.0304 49.8786 92.5104 52.0062C90.9296 54.2858 88.4368 55.9576 85.6704 56.3527C80.8064 57.0518 75.5168 52.8877 73.784 48.4804C71.4736 42.5229 76.8848 37.295 82.3872 36.2007C85.0624 35.684 88.224 35.9576 90.6256 37.295C93.2704 38.7843 94.4864 41.3375 94.6688 44.0731Z" fill="white"/>
<path d="M84.5761 57.0517C84.9713 57.0517 85.3969 57.0214 85.7921 56.9606C88.5889 56.5654 91.2945 54.8329 93.0273 52.3709C94.6385 50.0609 95.4897 46.9302 95.2769 44.0426C95.0337 40.7903 93.5137 38.2372 90.9905 36.839C88.5889 35.5016 85.3665 35.0761 82.3265 35.684C78.7089 36.3831 75.3344 38.7235 73.7537 41.6414C72.5072 43.8907 72.3553 46.3527 73.2673 48.7539C74.9089 52.9788 79.6817 57.0517 84.5761 57.0517ZM85.0017 36.5958C86.9473 36.5958 88.8625 37.0214 90.3825 37.8724C92.5409 39.0578 93.8481 41.2767 94.0609 44.1338C94.2433 46.7174 93.4833 49.6353 92.0241 51.7022C90.4737 53.9211 88.0721 55.4408 85.5793 55.8055C80.9281 56.4742 75.9425 52.4013 74.3313 48.3283C73.5409 46.2919 73.6625 44.1642 74.7265 42.2493C76.1553 39.6353 79.2257 37.5077 82.5089 36.8694C83.3601 36.687 84.1809 36.5958 85.0017 36.5958Z" fill="#E1E1E1"/>
<path d="M142.366 76.6869C141.728 77.69 140.998 78.6322 140.238 79.5137C136.772 83.7082 132.486 87.538 127.196 88.8146C122.272 90 117.164 88.2371 115.401 83.2219C114.428 80.4559 114.58 77.4164 115.188 74.5593C116.313 69.1489 119.201 63.4954 124.643 61.4286C129.75 59.4833 136.012 60.4255 140.694 63.1003C143.278 64.5897 145.254 67.0517 144.92 70.152C144.676 72.5228 143.643 74.7112 142.366 76.6869Z" fill="white"/>
<path d="M124.278 89.7568C125.312 89.7568 126.345 89.6353 127.349 89.3921C131.969 88.2979 136.347 85.1976 140.694 79.9088C141.545 78.8754 142.245 77.9331 142.853 77.0213C144.403 74.6505 145.285 72.4316 145.497 70.2128C145.801 67.2037 144.16 64.4073 140.968 62.5836C135.769 59.6049 129.446 58.9666 124.4 60.8815C119.566 62.7356 115.979 67.6596 114.581 74.4377C113.851 77.9635 113.942 80.9119 114.824 83.4043C116.435 87.9331 120.357 89.7568 124.278 89.7568ZM141.849 76.3526C141.272 77.2341 140.603 78.1459 139.782 79.1489C135.587 84.2249 131.453 87.2037 127.075 88.2371C122.819 89.2401 117.742 88.0243 115.979 83.0395C115.158 80.7295 115.097 78.0243 115.797 74.7113C116.405 71.7021 118.533 64.4377 124.856 62.0061C129.477 60.2432 135.587 60.8815 140.39 63.6474C141.697 64.4073 144.707 66.535 144.312 70.1216C144.129 72.0973 143.309 74.1641 141.849 76.3526Z" fill="#E1E1E1"/>
<path d="M90.6556 65.1065C92.1452 67.4165 92.5404 70.4561 90.8684 72.7965C89.0444 75.3801 85.214 77.6597 82.022 77.5685C78.2524 77.4773 75.0604 74.1643 73.966 70.7296C73.0844 67.8725 73.7836 64.377 76.3372 62.6141C79.134 60.6992 83.6332 60.2433 86.7036 61.6415C88.254 62.3406 89.6828 63.5868 90.6556 65.1065Z" fill="white"/>
<path d="M82.1741 78.146C85.6701 78.146 89.5613 75.6232 91.3549 73.1308C93.0269 70.7904 92.9661 67.5989 91.1725 64.7721C90.1389 63.1308 88.6493 61.8238 86.9773 61.0639C83.7549 59.5746 79.0429 60.0305 76.0333 62.0974C72.9933 64.1642 72.5677 68.0852 73.4189 70.8816C74.5133 74.4074 77.8269 78.0244 82.0221 78.146C82.0525 78.146 82.1133 78.146 82.1741 78.146ZM82.6301 61.3983C83.9981 61.3983 85.3357 61.6414 86.4605 62.1582C87.8893 62.8269 89.2269 64.0123 90.1389 65.4104C91.3245 67.2645 92.0237 70.0913 90.3821 72.4317C88.7405 74.7114 85.1837 77.0518 82.0221 76.9606C78.4349 76.8694 75.4861 73.5867 74.5437 70.5472C73.7837 68.0852 74.2701 64.7417 76.7021 63.1004C78.3133 61.9758 80.5021 61.3983 82.6301 61.3983Z" fill="#E1E1E1"/>
<path d="M124.279 117.265C124.947 120.608 125.13 124.59 124.856 127.964C124.461 133.313 120.965 138.328 115.067 137.599C111.267 137.143 107.528 134.59 105.035 131.763C100.749 126.93 98.4994 119.027 101.722 113.07C104.002 108.845 108.471 106.322 113.274 106.565C115.615 106.687 117.955 107.356 119.871 108.754C122.485 110.638 123.488 113.648 124.127 116.657C124.187 116.809 124.218 117.021 124.279 117.265Z" fill="white"/>
<path d="M116.162 138.237C118.138 138.237 119.962 137.599 121.482 136.353C123.731 134.499 125.19 131.459 125.434 127.964C125.707 124.407 125.494 120.365 124.826 117.113C124.795 116.9 124.734 116.687 124.674 116.474C124.035 113.526 122.971 110.243 120.174 108.237C118.259 106.869 115.858 106.049 113.243 105.927C108.197 105.714 103.546 108.298 101.144 112.736C97.7089 119.088 100.232 127.295 104.518 132.128C107.467 135.471 111.358 137.72 114.915 138.146C115.371 138.207 115.766 138.237 116.162 138.237ZM123.701 117.356C124.309 120.486 124.522 124.438 124.278 127.872C124.035 130.973 122.728 133.799 120.752 135.41C119.171 136.687 117.286 137.204 115.158 136.961C111.875 136.565 108.258 134.468 105.491 131.337C101.478 126.809 99.0769 119.179 102.269 113.313C104.458 109.271 108.683 106.9 113.274 107.113C115.675 107.234 117.834 107.933 119.566 109.179C122.029 110.973 122.971 113.86 123.61 116.717C123.61 116.961 123.64 117.143 123.701 117.356Z" fill="#E1E1E1"/>
<path d="M99.1374 145.623C98.6206 146.292 98.043 146.93 97.435 147.508C95.3678 149.483 92.2974 151.064 89.6526 149.179C88.4366 148.328 87.6462 146.991 87.1294 145.593C85.2446 140.243 88.2846 133.587 93.635 131.611C96.1582 130.699 99.1374 130.821 101.539 132.006C104.153 133.313 104.123 135.988 103.12 138.389C102.056 140.942 100.809 143.465 99.1374 145.623Z" fill="white"/>
<path d="M92.2669 150.608C94.0605 150.608 96.0061 149.696 97.8301 147.933C98.4381 147.356 99.0461 146.687 99.5933 145.988C101.083 144.073 102.36 141.763 103.667 138.632C105.035 135.35 104.336 132.736 101.813 131.489C99.2893 130.213 96.1581 130.061 93.4221 131.064C87.8285 133.1 84.5757 140.122 86.5517 145.775C87.1597 147.477 88.1021 148.815 89.2877 149.666C90.1997 150.304 91.2029 150.608 92.2669 150.608ZM97.1309 131.581C98.5901 131.581 100.019 131.885 101.265 132.523C103.88 133.83 103.181 136.596 102.542 138.146C101.296 141.155 100.049 143.404 98.6205 145.228C98.1037 145.897 97.5565 146.505 96.9789 147.052C96.0669 147.933 92.8141 150.699 89.9565 148.663C88.7101 147.781 88.0109 146.383 87.6765 145.35C85.8829 140.274 88.8317 133.951 93.8173 132.128C94.8813 131.793 96.0061 131.581 97.1309 131.581Z" fill="#E1E1E1"/>
<path d="M8.81946 138.237C8.24186 138.45 7.63386 138.632 6.99546 138.754C4.92826 139.179 2.37466 138.967 1.46266 136.748C1.03706 135.745 1.03706 134.59 1.28026 133.526C2.19226 129.422 6.72186 126.444 10.8259 127.295C12.7715 127.69 14.5955 128.936 15.6291 130.638C16.7539 132.492 15.6899 134.134 14.1091 135.258C12.4979 136.444 10.7347 137.538 8.81946 138.237Z" fill="white"/>
<path d="M5.32329 139.544C5.90089 139.544 6.50889 139.483 7.14729 139.331C7.78569 139.21 8.42409 139.027 9.03209 138.784C10.7345 138.176 12.4673 137.204 14.5041 135.745C16.6929 134.195 17.3009 132.158 16.1761 130.334C15.0513 128.511 13.1057 127.173 10.9777 126.717C6.60009 125.805 1.7057 128.967 0.732897 133.404C0.428898 134.742 0.520092 135.957 0.945691 136.991C1.61449 138.632 3.22569 139.544 5.32329 139.544ZM9.3969 127.72C9.8529 127.72 10.2785 127.751 10.7345 127.872C12.5585 128.267 14.2001 129.392 15.1729 130.942C16.1761 132.584 14.9905 133.921 13.8049 134.772C11.8593 136.17 10.2177 137.082 8.60649 137.66C8.0289 137.872 7.45129 138.024 6.87369 138.146C5.71849 138.389 2.95209 138.723 2.00969 136.505C1.58409 135.502 1.70569 134.377 1.85769 133.617C2.64809 130.274 6.0225 127.72 9.3969 127.72Z" fill="#E1E1E1"/>
<path d="M124.096 102.948C124.157 100.517 123.579 98.1459 121.847 96.3222C119.263 93.6171 115.067 92.462 111.419 92.9788C106.251 93.7082 102.299 98.2371 100.354 102.888C98.4691 107.416 97.5267 115.319 101.661 118.936C103.09 120.182 104.975 120.76 106.859 120.881C109.595 121.064 112.605 120.608 115.037 119.301C120.6 116.261 123.944 109.149 124.096 102.948Z" fill="white"/>
<path d="M108.014 121.52C110.72 121.52 113.274 120.942 115.28 119.818C120.63 116.869 124.491 109.939 124.674 102.948C124.734 100.03 123.914 97.6596 122.242 95.8967C119.658 93.1915 115.371 91.7933 111.298 92.3708C105.613 93.1915 101.63 98.2067 99.7456 102.644C97.9216 106.991 96.7056 115.41 101.205 119.392C102.968 120.942 105.187 121.398 106.768 121.489C107.224 121.52 107.619 121.52 108.014 121.52ZM113.122 93.4347C116.253 93.4347 119.445 94.6505 121.39 96.7174C122.85 98.2371 123.549 100.334 123.488 102.918C123.336 109.514 119.749 116.018 114.733 118.754C112.635 119.909 109.778 120.456 106.89 120.274C105.522 120.182 103.546 119.787 102.056 118.45C98.2256 115.076 99.0768 107.416 100.901 103.07C102.634 98.9362 106.342 94.2553 111.51 93.5259C112.027 93.4955 112.574 93.4347 113.122 93.4347Z" fill="#E1E1E1"/>
<path d="M100.202 93.6171C102.147 95.7751 103.211 98.6019 103.12 101.854C102.998 106.322 101.326 110.973 98.7425 114.59C97.5569 116.261 96.0065 117.781 94.1521 118.632C86.3393 122.219 79.8033 113.222 80.0161 106.261C80.1073 103.131 81.1105 100.061 82.5089 97.2341C83.5121 95.1976 84.7585 93.2523 86.4913 91.7934C89.1665 89.5441 92.4801 89.0578 95.6721 90.4256C97.4657 91.2159 99.0161 92.2797 100.202 93.6171Z" fill="white"/>
<path d="M90.5649 120.03C91.8417 120.03 93.1185 119.727 94.3953 119.149C96.1889 118.328 97.8305 116.9 99.2289 114.924C101.965 111.094 103.607 106.322 103.698 101.854C103.789 98.5107 102.725 95.532 100.627 93.1916C99.3505 91.7934 97.7697 90.6688 95.8545 89.8481C92.4497 88.3891 88.8929 88.9058 86.0657 91.3071C84.4849 92.6444 83.1777 94.4378 81.9313 96.9302C80.3201 100.152 79.4689 103.283 79.3777 106.201C79.2561 110.821 81.8705 115.958 85.5793 118.45C87.1905 119.514 88.8625 120.03 90.5649 120.03ZM99.7761 94.0122C101.661 96.1095 102.634 98.8147 102.543 101.824C102.421 106.049 100.871 110.578 98.2865 114.225C97.0097 116.049 95.5201 117.325 93.9089 118.055C90.6257 119.544 87.9505 118.541 86.2785 117.447C82.8737 115.198 80.4721 110.486 80.5937 106.231C80.6849 103.465 81.4753 100.517 83.0257 97.4469C84.1809 95.0761 85.3969 93.4347 86.8561 92.1885C89.3489 90.0609 92.3889 89.6049 95.3985 90.9119C97.1617 91.7022 98.6209 92.7356 99.7761 94.0122Z" fill="#E1E1E1"/>
<path d="M27.0289 198.815C27.2113 198.602 27.3329 198.328 27.4241 197.994C29.1873 189.392 31.4673 180.882 34.2337 172.553C36.4833 165.654 39.0977 158.845 42.0161 152.219C50.9841 131.672 62.7185 112.249 76.7329 94.7114C81.0497 89.2706 85.6097 83.9819 90.4737 78.9971C91.8721 77.5685 93.2705 76.1703 94.7601 74.8329C95.1857 74.4378 95.6113 74.0731 96.0369 73.7083C96.0673 73.6779 96.0673 73.6779 96.0673 73.6779H96.0977C97.5569 73.0092 97.8001 70.456 95.8545 69.9393C94.3649 69.5442 93.1489 70.9424 92.1457 71.8542C90.4433 73.4044 88.8017 75.0153 87.2209 76.687C74.6657 89.6962 63.7825 104.438 54.4193 119.879C46.7585 132.462 40.1313 145.714 34.8113 159.453C33.2001 163.556 31.7105 167.69 30.3121 171.885C29.5217 180.213 27.8193 188.48 25.2657 196.413C24.7793 197.812 25.8737 198.754 27.0289 198.815Z" fill="white"/>
<path d="M27.3025 199.423L27.4849 199.21C27.7585 198.936 27.9409 198.541 28.0017 198.116C29.7649 189.544 32.0449 181.003 34.7809 172.736C37.0001 165.927 39.6145 159.119 42.5329 152.432C51.5009 131.945 63.1441 112.644 77.1585 95.0761C81.8401 89.1794 86.3393 84.073 90.8689 79.4226C92.4801 77.7812 93.8177 76.4742 95.1249 75.2888C95.5201 74.9241 95.9457 74.5593 96.3409 74.225C97.2833 73.7387 97.8913 72.6444 97.7697 71.5502C97.6785 70.4864 96.9793 69.6961 95.9153 69.4226C94.3041 68.997 92.9969 70.2432 92.0241 71.1247L91.6593 71.459C90.1697 72.8268 88.5889 74.3466 86.7041 76.3223C74.8785 88.5411 63.8129 103.1 53.8113 119.605C46.0289 132.401 39.4017 145.775 34.1729 159.271C32.5921 163.252 31.0721 167.447 29.6737 171.702C28.8529 180.122 27.1809 188.328 24.6273 196.231C24.3841 196.991 24.4753 197.72 24.9009 198.328C25.3569 198.967 26.1473 199.392 26.9985 199.423H27.3025ZM95.8849 73.1004H95.7937L95.6113 73.2524C95.1857 73.6171 94.7297 74.0122 94.3041 74.377C92.9665 75.5928 91.5985 76.9302 89.9873 78.5715C85.4273 83.2524 80.9281 88.3891 76.2161 94.3162C62.1409 111.976 50.4369 131.368 41.4385 151.945C38.4897 158.632 35.8753 165.502 33.6561 172.34C30.9201 180.638 28.6097 189.24 26.8465 197.842C26.8161 197.964 26.7857 198.055 26.7553 198.146C26.3905 198.055 26.0865 197.872 25.9041 197.599C25.6913 197.295 25.6609 196.961 25.7825 196.565C28.3361 188.572 30.0689 180.274 30.8593 171.915C32.2273 167.812 33.7473 163.647 35.2977 159.666C40.5265 146.201 47.0929 132.918 54.8449 120.182C64.8161 103.769 75.8209 89.2706 87.5553 77.1125C89.4097 75.1672 90.9601 73.6475 92.4497 72.3101L92.8145 71.9758C93.6657 71.1855 94.6081 70.2736 95.5809 70.5472C96.3409 70.7296 96.5233 71.3071 96.5537 71.6414C96.6449 72.2189 96.3409 72.8268 95.8849 73.1004Z" fill="#E1E1E1"/>
<path d="M23.2594 120.517C23.3202 120.638 23.3506 120.73 23.4114 120.851C23.4418 120.912 23.4722 120.942 23.4722 120.973C23.4722 121.003 23.4722 121.003 23.4722 121.003C23.5026 121.033 23.5026 121.033 23.5026 121.064C23.5634 121.185 23.5938 121.307 23.6546 121.398C24.1106 122.553 24.5666 123.739 24.9618 124.894C30.1602 139.909 31.8322 156.049 30.3122 171.854C30.2818 172.067 30.2514 172.31 30.2514 172.523C29.8562 176.322 29.309 180.061 28.549 183.799C27.6674 188.055 26.573 192.249 25.2658 196.383C24.8098 197.781 25.9042 198.754 27.0594 198.784C27.8802 198.845 28.7618 198.45 29.0658 197.416C31.589 189.514 33.3218 181.368 34.173 173.1C34.2034 172.918 34.2338 172.705 34.2338 172.523C34.325 171.733 34.3858 170.973 34.4466 170.182C34.7202 166.596 34.8418 163.009 34.781 159.423C34.7506 157.143 34.6594 154.894 34.5074 152.644C34.0514 146.17 33.0786 139.726 31.5586 133.435C30.3426 128.389 28.8834 123.252 26.6946 118.511C25.6002 116.201 22.1954 118.237 23.2594 120.517Z" fill="white"/>
<path d="M27.2417 199.423C28.3665 199.423 29.2785 198.754 29.6433 197.629C32.1969 189.696 33.9298 181.489 34.781 173.192C34.8114 173.04 34.8113 172.827 34.8417 172.644C34.9329 171.854 34.9938 171.064 35.0546 170.274C35.3282 166.474 35.4498 162.918 35.389 159.453C35.3586 157.173 35.2673 154.924 35.1153 152.644C34.6593 146.109 33.6561 139.605 32.1361 133.344C30.6161 127.021 29.1265 122.401 27.2417 118.298C26.6641 117.052 25.3874 116.596 24.141 117.173C22.8946 117.751 22.0434 119.271 22.7426 120.79L22.9857 121.337C23.0161 121.429 23.0465 121.52 23.1073 121.611C23.5937 122.796 24.0194 123.951 24.445 125.137C29.4914 139.696 31.3154 155.866 29.765 171.854L29.7041 172.523C29.3393 176.201 28.7617 179.97 28.0321 183.739C27.1505 187.964 26.0561 192.188 24.7793 196.261C24.5361 197.021 24.6274 197.751 25.053 198.359C25.509 198.997 26.2994 199.423 27.1506 199.453C27.0898 199.423 27.1505 199.423 27.2417 199.423ZM25.1746 118.085C25.509 118.085 25.8738 118.237 26.117 118.754C27.9714 122.766 29.4305 127.325 30.9201 133.556C32.4097 139.787 33.3826 146.201 33.869 152.675C34.021 154.954 34.1122 157.173 34.1426 159.423C34.2034 162.857 34.0817 166.353 33.8081 170.152C33.7473 170.912 33.6865 171.702 33.5953 172.462C33.5649 172.675 33.565 172.857 33.5346 173.009C32.6834 181.246 30.9809 189.392 28.4577 197.234C28.2145 197.994 27.5761 198.207 27.0593 198.176C26.5729 198.146 26.1169 197.933 25.8737 197.599C25.6609 197.295 25.6306 196.961 25.7521 196.565C27.0594 192.462 28.1841 188.207 29.0657 183.921C29.8257 180.122 30.4033 176.292 30.7681 172.584L30.829 171.915C32.4098 155.775 30.5553 139.453 25.4481 124.711C25.0225 123.526 24.597 122.34 24.1106 121.185L23.7457 120.274C23.3201 119.392 23.8674 118.541 24.5666 118.237C24.7186 118.176 24.9314 118.085 25.1746 118.085Z" fill="#E1E1E1"/>
<path d="M103.91 63.3738C104.974 66.4741 104.609 70.3343 103.15 73.2522C102.238 75.0456 100.779 76.5957 98.9246 77.3556C97.0094 78.1459 94.7902 78.0851 92.9054 77.2948C88.7406 75.6231 86.3694 71.003 86.3998 66.6261C86.4302 63.9209 87.4942 61.1854 89.4398 59.2705C91.4158 57.2948 94.7902 57.0212 97.4046 57.5076C100.566 58.0851 102.907 60.4255 103.91 63.3738Z" fill="white"/>
<path d="M96.0367 78.5411C97.1311 78.5411 98.1951 78.3283 99.1679 77.9332C101.053 77.1429 102.664 75.5927 103.697 73.5563C105.278 70.456 105.582 66.383 104.488 63.2219C103.333 59.8784 100.749 57.538 97.5263 56.9605C94.8511 56.4742 91.2031 56.7477 89.0447 58.9058C87.0383 60.9119 85.8831 63.7386 85.8223 66.687C85.7615 71.6414 88.5887 76.231 92.6927 77.9028C93.7871 78.2979 94.9119 78.5411 96.0367 78.5411ZM103.363 63.5563C104.366 66.4438 104.062 70.152 102.633 72.9788C101.721 74.7721 100.323 76.1398 98.7119 76.8085C97.0095 77.5076 94.9727 77.5076 93.1183 76.7477C89.4399 75.2584 86.9471 71.1246 87.0079 66.6566C87.0383 64.0122 88.0719 61.4894 89.8655 59.6961C91.7199 57.842 94.9119 57.6596 97.3135 58.0851C100.08 58.6018 102.36 60.6383 103.363 63.5563Z" fill="#E1E1E1"/>
<path d="M43.7183 93.4651C43.6575 94.4682 43.3231 95.5016 42.6239 96.2311C41.8943 96.9606 40.7391 97.2645 39.8271 96.839C38.9759 96.4439 38.5199 95.532 37.9423 94.8025C37.0911 93.7387 35.9663 92.9788 34.8415 92.2189C33.8383 91.5198 32.7439 90.6688 32.6527 89.453C32.5919 88.5715 33.1391 87.7205 33.8687 87.2341C34.5983 86.7478 35.5103 86.5958 36.3919 86.5654C40.3743 86.5046 43.9919 89.2706 43.7183 93.4651Z" fill="white"/>
<path d="M40.739 97.6293C41.5598 97.6293 42.411 97.2949 43.0494 96.6566C43.8094 95.8967 44.2654 94.8025 44.3262 93.5259C44.4478 91.5502 43.8094 89.7873 42.4718 88.4195C40.9822 86.839 38.7326 85.9575 36.3918 86.0183C35.2366 86.0487 34.2942 86.2919 33.5646 86.7782C32.5918 87.4165 32.0142 88.4803 32.075 89.5138C32.1662 90.9423 33.3214 91.915 34.5374 92.7357C35.6622 93.4955 36.7566 94.225 37.5166 95.1977C37.6382 95.38 37.7902 95.532 37.9118 95.7144C38.3374 96.3223 38.8542 97.0214 39.6142 97.3861C39.9486 97.5381 40.3438 97.6293 40.739 97.6293ZM36.5438 87.1733C38.5198 87.1733 40.3742 87.9028 41.6206 89.2098C42.715 90.3344 43.2318 91.7934 43.1406 93.4347C43.0798 94.4378 42.7454 95.2585 42.1982 95.8056C41.6206 96.3831 40.7086 96.5958 40.1006 96.2919C39.6142 96.0487 39.2494 95.532 38.8542 95.0153C38.7022 94.8329 38.5806 94.6202 38.4286 94.4378C37.547 93.3436 36.4222 92.5533 35.2974 91.7934C34.2334 91.0639 33.3214 90.3344 33.2606 89.4226C33.2302 88.8147 33.595 88.146 34.203 87.7509C34.7502 87.3861 35.5102 87.2037 36.4222 87.1733C36.4526 87.1733 36.5134 87.1733 36.5438 87.1733Z" fill="#E1E1E1"/>
<path d="M28.7313 117.964C30.4945 120 29.4913 122.189 26.9681 122.614C25.6305 122.827 24.2929 122.857 22.9553 122.644C21.9521 122.493 20.9185 122.189 20.0977 121.581C17.3009 119.514 19.4594 116.687 22.165 116.17C23.1986 115.958 24.2929 116.049 25.3266 116.231C26.0257 116.353 26.7553 116.535 27.3633 116.869C27.8801 117.143 28.3665 117.508 28.7313 117.964Z" fill="white"/>
<path d="M24.8705 123.404C25.6001 123.404 26.3601 123.344 27.0897 123.222C28.5793 122.979 29.6737 122.158 30.0689 121.033C30.4641 119.939 30.1297 118.693 29.1873 117.599C28.7617 117.082 28.2145 116.687 27.6673 116.383C27.0593 116.079 26.3905 115.866 25.4481 115.684C24.1713 115.441 23.0465 115.441 22.0737 115.623C20.1889 115.988 18.6385 117.295 18.2737 118.815C18.1217 119.514 18.0913 120.882 19.7329 122.128C20.5233 122.705 21.5265 123.1 22.8337 123.283C23.5329 123.344 24.2017 123.404 24.8705 123.404ZM23.4721 116.657C24.0193 116.657 24.5969 116.717 25.2353 116.839C26.0561 116.991 26.6337 117.173 27.1201 117.416C27.5457 117.629 27.9409 117.964 28.3057 118.359C28.9745 119.119 29.2177 119.939 28.9441 120.638C28.6705 121.368 27.9409 121.885 26.8769 122.067C25.6001 122.28 24.3233 122.31 23.0465 122.097C21.9217 121.915 21.1009 121.611 20.4625 121.155C19.8849 120.73 19.2161 120 19.4289 119.058C19.6721 118.024 20.8881 117.052 22.2865 116.778C22.6513 116.687 23.0465 116.657 23.4721 116.657Z" fill="#E1E1E1"/>
</svg>
