<svg width="226" height="175" viewBox="0 0 226 175" fill="none" xmlns="http://www.w3.org/2000/svg">
<path d="M48.3804 50.4996C45.4413 47.5924 42.6619 46.0589 41.352 41.7141C37.9656 30.4367 44.6107 19.2551 52.7253 11.8753C63.8429 1.81189 79.9444 -0.807793 94.3846 1.36463C101.924 2.48278 109.272 5.03857 115.885 8.80835C121.572 12.067 129.079 16.7313 127.897 24.3667L121.029 31.5548C121.476 31.0437 110.837 27.6892 110.454 27.6253C100.039 25.6126 89.2411 26.3794 78.8582 28.2962C70.488 29.8297 57.8049 31.2673 52.5975 38.9347C50.1695 42.5128 50.6806 46.5701 52.885 50.1482L47.6776 50.4996H48.3804Z" fill="white"/>
<path d="M48.8283 50.0524C47.2948 48.5508 45.5377 47.241 44.132 45.5797C42.1513 43.2156 41.3526 40.1167 41.129 37.0817C40.7776 31.9063 42.343 26.8586 44.8988 22.386C50.0103 13.5366 58.4444 6.98736 68.1245 3.82458C77.6448 0.725688 88.0916 0.534004 97.8355 2.61058C103.33 3.76068 108.634 5.67752 113.586 8.2972C117.451 10.3418 121.604 12.642 124.543 15.9965C126.173 17.8814 127.323 20.1497 127.355 22.6735C127.387 24.207 127.099 24.2709 126.013 25.421C124.192 27.3378 122.371 29.2227 120.582 31.1395C120.933 31.3312 121.285 31.5549 121.636 31.7465C122.179 30.0853 114.768 28.3282 113.745 28.0087C108.218 26.2197 102.404 25.7724 96.6215 25.8363C89.05 25.9002 81.6382 27.1781 74.1945 28.4879C68.3801 29.5102 62.2462 30.6923 57.1665 33.8551C54.6108 35.4205 52.2147 37.6249 51.0646 40.4682C49.6589 43.8865 50.5215 47.4327 52.3105 50.4996C52.5022 50.1801 52.662 49.8607 52.8537 49.5412C51.1285 49.669 49.3714 49.7968 47.6462 49.8926C46.8476 49.9565 46.8156 51.2344 47.6462 51.1705C49.3714 51.0427 51.1285 50.9149 52.8537 50.8191C53.3329 50.7872 53.6523 50.3079 53.3968 49.8607C51.5119 46.634 50.841 42.8962 52.9176 39.5736C54.3552 37.2734 56.5915 35.5802 58.9556 34.3023C63.4921 31.8424 68.6995 30.7881 73.7153 29.8617C80.1047 28.7115 86.5261 27.5614 93.0114 27.21C98.8578 26.9225 105.343 26.8586 110.998 28.4879C112.691 28.9671 114.384 29.5422 116.045 30.1172C117.004 30.4367 117.962 30.7881 118.921 31.1395C119.24 31.2673 119.592 31.491 119.943 31.5868C120.742 31.7785 120.167 32.1299 120.39 31.3951C120.199 32.0021 121.029 32.4813 121.445 32.0021C123.266 30.0853 125.087 28.2004 126.908 26.2836C127.451 25.7404 128.217 25.1654 128.505 24.4306C129.176 22.7374 128.409 20.0219 127.706 18.4565C125.917 14.463 122.084 11.7475 118.442 9.54315C113.554 6.57205 108.346 4.14405 102.819 2.51474C82.1174 -3.55525 57.2624 1.01321 44.8668 20.0538C41.6082 25.0696 39.4358 31.0437 39.8511 37.0817C40.0428 39.7973 40.6498 42.6406 42.0874 44.9727C43.5889 47.3368 45.9211 49.03 47.9018 50.9788C48.5408 51.5219 49.4353 50.6274 48.8283 50.0524Z" fill="#E1E1E1"/>
<path d="M223.133 122.509C223.676 123.978 224.059 125.544 224.283 127.109C224.954 131.742 223.867 137.205 220.066 140.272C216.456 143.179 211.184 144.265 206.68 143.371C201.888 142.412 197.415 138.674 193.422 135.991C184.796 130.144 175.851 125.672 166.203 121.774C162.688 120.368 159.206 119.059 155.596 117.972C153.647 117.397 151.667 116.854 149.846 115.928C144.287 113.084 143.009 107.27 145.597 101.871L160.74 92.2867C165.691 93.4049 170.643 94.555 175.627 95.6732C186.361 98.1012 197.351 99.3471 207.127 104.842C214.06 108.74 220.417 114.905 223.133 122.509Z" fill="white"/>
<path d="M222.526 122.669C224.826 129.346 224.379 137.652 217.382 141.262C214.028 142.987 209.907 143.53 206.233 142.604C202.655 141.709 199.556 139.473 196.585 137.396C184.221 128.675 170.324 121.806 155.82 117.397C152.21 116.311 148.28 115.225 146.204 111.775C145.437 110.465 145.054 108.995 144.99 107.494C144.958 106.184 145.117 103.532 145.98 102.446C146.459 101.807 147.737 101.328 148.408 100.913C150.005 99.8902 151.603 98.8999 153.2 97.8776C154.893 96.7913 156.587 95.7371 158.28 94.6509C158.919 94.2356 160.261 92.9896 161.027 92.9257C161.858 92.8299 163.551 93.5966 164.541 93.8203C166.618 94.2995 168.727 94.7787 170.803 95.2579C174.637 96.1205 178.471 96.983 182.336 97.7498C190.61 99.411 199.045 101.104 206.52 105.257C213.549 109.091 219.683 115.065 222.526 122.669C222.813 123.435 224.059 123.116 223.74 122.317C217.989 106.983 202.175 100.593 187.32 97.4303C183.231 96.5677 179.141 95.801 175.052 94.8745C172.848 94.3634 170.611 93.8522 168.407 93.373C166.107 92.8618 163.711 92.0312 161.347 91.7756C160.229 91.6478 159.622 92.2868 158.663 92.8938C156.842 94.0439 155.053 95.162 153.232 96.3121C151.347 97.4942 149.494 98.6762 147.609 99.8583C146.875 100.306 145.756 100.753 145.181 101.424C143.552 103.277 143.456 107.27 143.967 109.506C144.606 112.35 146.491 114.714 149.015 116.183C152.689 118.324 157.226 119.091 161.187 120.528C165.596 122.126 169.941 123.947 174.222 125.927C181.953 129.505 189.237 133.786 196.201 138.706C199.715 141.166 203.421 143.658 207.766 144.201C211.44 144.648 215.338 143.946 218.564 142.093C225.593 138.067 226.168 129.346 223.74 122.349C223.484 121.551 222.27 121.902 222.526 122.669Z" fill="#E1E1E1"/>
<path d="M134.479 67.1762C134.223 66.5692 133.329 65.8664 132.882 65.3871C131.54 63.8217 130.23 62.1924 128.984 60.5312C125.629 56.0585 122.499 51.2025 120.614 45.8993C118.825 40.8516 118.569 35.165 121.796 30.6285C124.224 27.2101 127.962 24.9418 131.955 23.6C143.648 19.6386 156.203 21.6832 167.896 24.4626C173.998 25.9322 179.429 28.1685 184.86 31.3313C190.195 34.4621 195.307 38.775 200.865 41.4905C206.009 43.9824 211.6 45.6756 215.274 50.4039C215.306 50.4358 215.338 50.4997 215.369 50.5316C219.97 56.5697 219.235 65.0677 214.219 70.7862C209.491 76.1853 200.226 84.5875 188.438 85.0028L192.495 79.3162C192.719 78.9967 195.722 78.8689 196.169 78.7411C198.533 78.1661 200.865 77.2077 202.878 75.8339C205.114 74.3005 206.967 72.2558 208.341 69.9556C209.555 67.911 211.408 64.3648 210.29 62.0007C209.491 60.3075 207.255 59.2852 205.498 59.0296C199.364 58.199 193.997 54.8126 188.949 51.4581C183.71 47.9759 178.023 44.9089 171.953 43.1838C166.969 41.7781 162.241 41.6822 157.13 42.449C152.114 43.1838 147.002 44.3339 141.955 43.3754C138.408 42.7045 134.958 40.8516 131.284 40.8516C128.824 40.8516 125.182 41.81 125.182 44.845L134.479 67.1762Z" fill="white"/>
<path d="M135.022 66.8566C134.511 65.9941 133.744 65.3871 133.073 64.6203C131.731 63.1188 130.517 61.5214 129.303 59.8921C127.323 57.2405 125.47 54.493 123.872 51.5858C120.741 45.8353 118.186 38.6472 121.444 32.3855C124.639 26.2516 132.019 23.6958 138.376 22.6415C145.405 21.4914 152.593 22.0665 159.525 23.3444C166.298 24.5584 173.007 26.1877 179.269 29.1269C185.307 31.9702 190.482 36.0594 196.105 39.5736C201.057 42.6725 206.967 44.2379 211.664 47.7841C216.679 51.5858 218.884 57.8156 217.222 63.9175C215.721 69.4124 211.025 73.7253 206.648 77.1117C201.408 81.169 195.211 84.0443 188.47 84.3638C188.661 84.6833 188.821 85.0027 189.013 85.3222C189.875 84.1082 190.738 82.8942 191.633 81.6483C192.016 81.1371 192.399 80.3065 192.878 79.8912C193.326 79.5078 194.348 79.5717 195.179 79.4758C201.057 78.9008 206.296 74.8435 209.172 69.8277C210.322 67.8151 211.663 65.2273 211.216 62.8313C210.801 60.4991 208.565 59.1254 206.424 58.5823C202.814 57.6558 199.555 56.953 196.201 55.1959C192.942 53.4707 189.971 51.3302 186.84 49.3815C180.962 45.7075 174.445 42.5128 167.512 41.6183C159.525 40.564 151.858 43.7587 143.935 43.0239C138.472 42.5128 131.412 37.7526 126.204 41.6502C123.744 43.5032 124.703 45.388 125.629 47.6244C128.377 54.2055 131.092 60.7547 133.84 67.3359C134.159 68.0706 135.373 67.7512 135.054 66.9844C132.913 61.8409 130.773 56.6654 128.632 51.5219C128.057 50.1162 127.45 48.7106 126.875 47.2729C126.588 46.5381 126.013 45.6756 125.885 44.8769C125.502 42.5767 128.664 41.6822 130.421 41.4905C133.744 41.171 136.875 42.6406 140.006 43.5351C147.034 45.4839 153.871 43.0878 160.899 42.6406C168.183 42.1933 175.02 44.3338 181.409 47.6882C187.224 50.7232 192.335 55.0042 198.405 57.6239C201.089 58.774 203.836 59.0296 206.584 59.9241C210.865 61.2978 210.29 64.9398 208.597 68.2304C206.871 71.5849 204.348 74.4282 201.025 76.2172C199.428 77.1117 197.575 77.8465 195.754 78.1341C194.795 78.2938 193.677 78.166 192.751 78.4855C191.76 78.8369 191.249 79.987 190.674 80.8176C189.78 82.0955 188.853 83.3734 187.959 84.6194C187.671 85.0027 188.054 85.6097 188.502 85.5778C194.699 85.2903 200.514 82.99 205.594 79.4439C209.619 76.6325 213.9 73.0225 216.52 68.8054C219.459 64.0453 220.034 57.9114 217.606 52.7998C214.858 47.0174 209.076 44.4296 203.549 41.9377C196.808 38.9027 191.249 34.2065 184.892 30.5325C178.342 26.7628 171.41 24.4306 164.062 22.8652C156.714 21.2998 149.175 20.2136 141.667 20.9164C135.118 21.5234 127.898 23.3124 123.106 28.1045C117.834 33.3758 117.962 40.8515 120.582 47.4007C122.115 51.2344 124.224 54.7806 126.556 58.135C127.674 59.7324 128.824 61.2659 130.006 62.7993C131.22 64.3328 132.977 65.8024 133.968 67.4636C134.351 68.1984 135.437 67.5595 135.022 66.8566Z" fill="#E1E1E1"/>
<path d="M115.215 59.7963C115.183 58.9976 114.991 58.1989 114.927 57.4322C114.735 55.6751 114.671 53.886 114.735 52.097C114.895 47.6563 115.981 42.9281 119.336 39.7653C119.943 39.1903 119.048 38.2957 118.441 38.8708C114.991 42.0975 113.745 46.8576 113.489 51.3941C113.394 53.279 113.425 55.1959 113.617 57.0808C113.713 57.9114 113.937 59.1573 113.937 59.7643C113.969 60.6269 115.246 60.6269 115.215 59.7963Z" fill="#E1E1E1"/>
<path d="M133.648 66.8567C134.415 68.6138 134.99 70.5306 135.15 72.4794C135.182 73.0225 135.214 73.5656 135.182 74.1087C135.182 74.2045 135.15 74.3004 135.15 74.3962C135.15 74.556 135.182 74.2365 135.15 74.3643C135.15 74.3962 135.15 74.4282 135.15 74.4601C135.086 74.7477 135.118 74.524 135.245 74.3962C134.638 74.9393 135.533 75.8658 136.14 75.2908C136.396 75.0671 136.396 74.5879 136.428 74.3004C136.491 73.7253 136.459 73.1503 136.428 72.5752C136.268 70.3709 135.597 68.2623 134.734 66.2177C134.607 65.8982 134.127 65.8343 133.872 65.9941C133.552 66.1858 133.52 66.5372 133.648 66.8567Z" fill="#E1E1E1"/>
<path d="M114.767 102.35C114.32 103.085 115.055 105.034 115.182 105.768C115.63 108.484 115.981 111.2 116.205 113.947C116.748 120.464 117.003 128.068 113.745 133.978C113.361 134.681 114.448 135.352 114.831 134.617C118.026 128.866 117.994 121.614 117.578 115.225C117.387 112.35 117.035 109.474 116.588 106.631C116.428 105.705 116.301 104.778 116.109 103.82C116.077 103.532 116.045 103.181 115.949 102.893C115.821 102.606 116.045 102.574 115.821 102.925C116.301 102.286 115.214 101.647 114.767 102.35Z" fill="#E1E1E1"/>
<path d="M147.641 114.394C147.226 114.33 146.811 114.266 146.395 114.234C146.491 115.129 146.331 116.119 146.3 116.982C146.172 119.25 145.98 121.518 145.756 123.787C145.149 129.569 144.319 135.575 142.178 141.038C141.316 143.275 140.102 145.83 137.865 147.012C137.131 147.396 137.77 148.482 138.504 148.099C142.817 145.83 144.255 139.441 145.245 135.128C146.491 129.569 147.13 123.851 147.482 118.132C147.545 116.886 147.801 115.448 147.673 114.203C147.609 113.564 146.587 113.276 146.427 114.043C146.268 114.873 147.482 115.225 147.641 114.394Z" fill="#E1E1E1"/>
<path d="M146.874 164.392C157.928 166.085 169.046 164.424 178.119 157.491C183.103 153.69 187.224 148.546 191.537 144.041C193.294 142.22 195.019 140.368 196.776 138.547C197.351 137.94 196.457 137.045 195.882 137.652C192.24 141.454 188.63 145.287 184.988 149.089C183.646 150.495 182.368 151.9 180.994 153.274C176.937 157.395 171.857 160.43 166.33 162.156C160.037 164.136 153.647 164.168 147.194 163.178C146.395 163.05 146.044 164.264 146.874 164.392Z" fill="#E1E1E1"/>
<path d="M59.4021 92.8299C58.6034 93.2133 58.6993 92.5104 58.9549 93.0216C59.0507 93.2452 59.3063 93.4688 59.4341 93.6605C59.9772 94.3953 60.5203 95.162 61.0314 95.8968C62.5969 98.1331 64.1303 100.401 65.6319 102.67C68.9544 107.59 72.213 112.509 75.5994 117.397C76.1425 118.164 76.6856 118.963 77.2607 119.698C77.4843 120.017 77.8038 120.592 78.2191 120.752C78.9539 121.071 79.6248 119.985 78.8581 119.666C79.0178 119.73 78.8261 119.602 78.6983 119.474C78.5386 119.282 78.3788 119.059 78.2191 118.867C77.676 118.132 77.1329 117.333 76.5898 116.567C74.9605 114.203 73.3631 111.839 71.7657 109.474C68.4113 104.491 65.0888 99.443 61.6065 94.4912C61.1592 93.8522 59.8174 91.2006 58.7312 91.7117C58.0284 92.0951 58.6673 93.1813 59.4021 92.8299Z" fill="#E1E1E1"/>
<path d="M22.5353 138.61C30.7139 149.217 41.4801 157.236 54.7383 160.143C61.7667 161.676 69.1784 161.517 76.3027 160.878C79.6252 160.59 82.9158 160.079 86.1744 159.568C89.2414 159.089 92.2444 158.45 94.8641 156.724C95.535 156.277 94.896 155.159 94.2251 155.638C91.7013 157.3 88.7941 157.875 85.8549 158.354C82.4046 158.897 78.9863 159.408 75.504 159.696C68.7631 160.239 61.7347 160.398 55.0897 158.961C42.151 156.149 31.6084 148.386 23.6535 138.035C23.1743 137.332 22.0561 137.971 22.5353 138.61Z" fill="#E1E1E1"/>
<path d="M77.5806 138.387C79.6252 142.891 83.7145 146.885 88.283 148.674C90.5512 149.568 93.0112 149.888 95.4072 149.696C96.2059 149.632 96.2379 148.354 95.4072 148.418C88.5705 148.897 82.788 144.84 79.4016 139.122C79.146 138.674 78.8585 138.195 78.6668 137.716C78.3474 137.013 77.2611 137.652 77.5806 138.387Z" fill="#E1E1E1"/>
<path d="M95.8224 133.627C98.0268 134.393 100.327 134.936 102.595 135.32C106.269 135.959 110.454 136.406 114 134.905C114.735 134.585 114.416 133.371 113.649 133.691C110.199 135.128 106.109 134.681 102.499 134.01C100.359 133.627 98.1865 133.084 96.1419 132.381C95.3751 132.125 95.0557 133.371 95.8224 133.627Z" fill="#E1E1E1"/>
<path d="M107.675 133.499C103.426 134.457 99.4643 136.949 97.0363 140.591C94.9917 143.658 93.7138 147.204 93.0748 150.814C92.2442 155.447 92.1803 160.207 95.1834 164.104C97.4516 167.043 101.03 168.896 104.48 170.142C107.675 171.292 111.029 171.931 114.352 172.538C119.048 173.401 123.808 174.168 128.6 174.104C137.961 173.976 151.283 168.992 148.184 157.108C147.865 155.894 147.385 154.712 146.746 153.594C145.021 150.591 142.37 148.195 139.558 146.15C135.788 143.37 131.891 140.591 127.897 138.131C121.923 134.425 114.767 131.933 107.675 133.499Z" fill="white"/>
<path d="M107.515 132.892C96.8131 135.479 91.0306 146.885 92.021 157.427C93.203 169.983 108.186 172.251 118.122 173.848C126.812 175.222 136.907 175.605 144.319 169.919C152.114 163.945 149.558 154.041 143.009 148.131C140.581 145.926 137.801 144.073 135.118 142.156C132.115 140.048 129.048 137.907 125.789 136.15C120.135 133.179 113.841 131.614 107.515 132.892C106.717 133.051 107.036 134.297 107.867 134.106C119.08 131.837 128.824 139.121 137.354 145.319C141.795 148.514 146.491 152.156 147.705 157.811C148.504 161.485 147.577 165.063 144.862 167.714C139.718 172.794 131.476 173.816 124.607 173.305C118.953 172.89 113.106 171.899 107.611 170.43C102.691 169.088 97.0686 166.82 94.6087 162.06C91.989 157.012 93.2669 150.367 95.2477 145.319C97.5159 139.601 101.829 135.543 107.835 134.106C108.666 133.914 108.314 132.7 107.515 132.892Z" fill="#E1E1E1"/>
<path d="M34.7069 132.412C29.5634 134.106 24.7713 136.725 20.2986 139.792C16.0177 142.699 7.83918 146.693 2.21645 139.665C2.21645 139.665 -3.43823 133.243 6.68908 123.403C11.2575 118.963 17.04 115.992 23.2058 114.458C34.9625 111.551 57.8048 108.803 71.1588 120.368C71.1588 120.368 62.9483 129.473 49.6902 129.377C49.6902 129.377 43.1729 129.633 34.7069 132.412Z" fill="white"/>
<path d="M34.5155 131.805C29.6595 133.435 25.123 135.799 20.874 138.61C17.7751 140.655 14.5165 142.668 10.7148 142.923C5.02814 143.275 0.331884 138.642 1.41809 132.988C2.28067 128.515 5.76293 124.809 9.14935 122.03C13.0789 118.803 17.7751 116.535 22.695 115.225C29.5956 113.372 36.8477 112.477 44.0039 112.541C53.4283 112.605 63.332 114.554 70.7118 120.816C70.7118 120.528 70.7118 120.209 70.7118 119.921C67.1337 123.851 61.8624 126.598 56.7828 127.876C53.7159 128.643 50.617 128.579 47.4861 128.93C43.0774 129.409 38.7645 130.432 34.5155 131.805C33.7488 132.061 34.0683 133.275 34.8669 133.019C39.2437 131.614 43.7483 130.528 48.3168 130.08C51.7032 129.761 54.9618 129.761 58.2524 128.771C63.1084 127.333 68.1561 124.585 71.6064 120.784C71.83 120.56 71.8939 120.113 71.6064 119.889C58.6038 108.867 38.5728 109.89 23.0145 113.819C17.839 115.129 12.9511 117.397 8.76598 120.688C5.18788 123.531 1.60978 127.269 0.363831 131.805C-0.946009 136.725 1.3542 141.517 6.0824 143.466C10.0119 145.096 14.3568 143.85 17.9349 141.933C20.3629 140.655 22.5672 138.962 24.9633 137.556C28.1261 135.735 31.4166 134.202 34.8669 133.019C35.6337 132.764 35.3142 131.55 34.5155 131.805Z" fill="#E1E1E1"/>
<path d="M84.1935 122.413C77.197 118.963 67.8365 119.729 62.661 125.991C60.233 128.898 59.1468 132.508 59.0829 136.246C59.0509 137.748 59.2746 139.217 60.5844 140.144C61.2873 140.623 62.1179 140.879 62.9805 141.038C64.9932 141.39 66.878 141.07 68.8588 140.751C70.9673 140.399 73.0758 140.016 75.1524 139.601C79.7848 138.674 84.4491 137.62 88.9856 136.246C90.9344 135.639 92.8832 135 94.6722 134.106C95.4709 133.69 97.2599 132.86 97.1002 131.71C97.1002 131.614 97.0683 131.518 97.0044 131.422C96.8766 131.135 96.621 130.879 96.3654 130.655C92.6915 127.365 88.5703 124.585 84.1935 122.413Z" fill="white"/>
<path d="M84.5128 121.838C79.4332 119.41 73.4271 118.931 68.1877 121.135C62.3094 123.627 58.7633 129.282 58.4438 135.607C58.284 138.802 59.4661 141.006 62.7886 141.613C66.175 142.22 69.8809 141.198 73.2035 140.559C77.3886 139.76 81.5737 138.866 85.6949 137.748C89.0493 136.853 92.5635 135.927 95.5985 134.202C96.4611 133.722 97.5473 133.051 97.6751 131.965C97.8668 130.528 96.1736 129.569 95.2471 128.802C91.9565 126.119 88.3465 123.787 84.5128 121.838C83.778 121.487 83.1391 122.573 83.8739 122.924C86.4616 124.234 88.9535 125.704 91.3176 127.397C92.5316 128.259 93.7456 129.186 94.8957 130.144C95.1193 130.336 95.5027 130.56 95.6624 130.783C95.8861 131.167 96.0458 132.157 95.7263 132.636C95.5346 132.956 94.7999 133.179 94.4804 133.339C89.0813 136.118 82.596 137.3 76.6857 138.514C73.8105 139.121 70.9032 139.665 67.996 140.144C66.3028 140.399 64.5138 140.655 62.7886 140.272C60.5523 139.792 59.6897 138.355 59.6897 136.182C59.6897 130.592 62.6289 125.32 67.6446 122.732C72.6603 120.145 78.8262 120.496 83.8419 122.892C84.6086 123.308 85.2476 122.189 84.5128 121.838Z" fill="#E1E1E1"/>
<path d="M101.03 82.6068C95.8226 83.1818 90.5833 84.0763 85.3119 83.8208C79.1781 83.5332 73.6192 81.7122 67.8368 79.7954C64.9934 78.8689 62.1182 78.0064 59.1151 77.7188C56.1121 77.4313 53.748 78.1661 51.1603 79.6676L59.0832 92.2868C52.5659 91.6159 46.0806 90.6575 39.7231 89.156C30.3625 86.9836 14.0694 83.5652 14.7403 70.9141C15.3473 59.1894 31.6085 51.6498 36.8159 49.9886C49.9143 45.8035 56.9747 45.7715 74.7693 51.6179C81.5422 53.8542 87.1649 60.5312 94.1294 62.0966C100.934 63.6301 110.007 58.1671 116.588 60.3395C122.531 62.2883 126.716 68.7097 124.352 74.8436C124.352 74.8436 109.081 77.9105 101.19 82.5429C101.03 82.6387 100.87 82.7346 100.711 82.8304L101.03 82.6068Z" fill="white"/>
<path d="M101.03 81.9678C96.4614 82.4789 91.893 83.2137 87.2925 83.2137C82.5324 83.2137 77.932 82.2553 73.3955 80.9135C69.2104 79.6675 65.1211 77.9743 60.8082 77.3034C57.1982 76.7284 54.0673 77.3354 50.9045 79.1244C50.617 79.2842 50.4892 79.6995 50.6809 79.987C53.3325 84.2041 55.9522 88.3892 58.6038 92.6062C58.7955 92.2867 58.9553 91.9673 59.1469 91.6478C50.7129 90.7852 42.3427 89.3156 34.1641 87.1432C28.5414 85.6737 22.088 83.6929 18.1585 79.0925C13.654 73.8212 15.3152 66.665 19.5003 61.777C23.302 57.3364 28.5414 54.1416 33.8447 51.8414C39.2118 49.5093 45.2818 47.9439 51.1601 47.6883C58.7955 47.3688 66.3031 49.5412 73.5232 51.8414C77.6764 53.1832 81.0948 55.5793 84.6729 58.0073C87.6759 60.0519 90.9345 62.1604 94.5765 62.7994C101.892 64.0773 109.304 58.5823 116.492 60.9464C120.901 62.384 124.543 66.633 124.447 71.3932C124.447 72.0002 124.351 72.6391 124.224 73.2461C124.192 73.4378 124 74.4921 124.192 74.2365C124.128 74.3323 123.681 74.3323 123.585 74.3643C122.722 74.6838 121.732 74.7796 120.837 74.9713C113.905 76.6326 106.589 78.5494 100.423 82.2553C99.72 82.6706 100.359 83.7887 101.062 83.3415C107.228 79.6356 114.576 77.7507 121.508 76.0895C122.914 75.77 124.639 75.8978 125.182 74.3962C126.364 70.9459 125.374 67.0803 123.201 64.237C121.125 61.5215 117.93 59.5727 114.512 59.2213C110.614 58.8059 106.653 60.0519 102.883 60.8825C98.2185 61.9048 94.2251 62.0326 89.8803 59.7644C85.8868 57.6878 82.4685 54.6847 78.507 52.5443C74.4178 50.3399 69.6576 49.2217 65.185 48.1036C61.543 47.2091 57.8052 46.5062 54.0354 46.3784C47.582 46.1548 40.8731 47.6563 34.867 49.9885C25.155 53.7902 10.2036 63.5022 14.868 76.0256C17.264 82.5109 24.4841 85.5459 30.618 87.4308C39.8508 90.2741 49.5308 91.8714 59.115 92.8618C59.5942 92.9257 59.9137 92.2867 59.6581 91.9034C57.0065 87.6863 54.3868 83.5012 51.7352 79.2842C51.6713 79.5717 51.5754 79.8592 51.5115 80.1468C55.5369 77.8785 59.3706 78.0382 63.7474 79.1564C67.8686 80.2107 71.7981 81.808 75.9193 82.8623C79.7849 83.8526 83.7144 84.4597 87.6759 84.4277C92.1485 84.3638 96.5892 83.6929 101.03 83.1818C101.829 83.1498 101.829 81.9039 101.03 81.9678Z" fill="#E1E1E1"/>
<path d="M24.9953 85.4181C25.6982 85.7696 26.6885 85.7376 27.4553 85.8015C29.468 85.9612 31.5126 85.9293 33.5572 85.7696C40.0106 85.2584 46.2403 83.2777 51.863 80.019C52.5659 79.6037 51.9269 78.5175 51.2241 78.9328C45.825 82.0637 39.7869 84.0125 33.5572 84.4917C31.7043 84.6514 29.8194 84.6834 27.9664 84.5556C27.3914 84.5236 26.8163 84.4597 26.2732 84.3958C26.1135 84.3639 25.4426 84.2041 25.6662 84.3C24.8995 83.9486 24.2605 85.0667 24.9953 85.4181Z" fill="#E1E1E1"/>
<path d="M99.3044 82.99C98.5696 83.7567 97.8987 84.6193 97.3556 85.5458C94.5123 90.274 95.2151 96.1523 99.2085 99.954C103.074 103.596 108.505 104.043 113.489 102.829C113.553 102.797 113.649 102.797 113.713 102.765C113.713 102.765 119.495 101.519 123.137 102.542C125.597 103.245 128.089 103.788 130.645 103.82C138.536 103.915 152.944 102.51 162.432 92.1908C163.902 90.5934 161.378 85.993 160.483 84.5554C158.439 81.2329 155.212 78.9327 151.634 77.4631C148.471 76.1532 145.117 75.4823 141.73 74.9712C131.124 73.278 120.773 73.4377 110.486 76.7283C106.429 78.0701 102.275 79.8911 99.3044 82.99Z" fill="white"/>
<path d="M98.8573 82.5428C95.4389 86.2806 93.8735 91.4561 95.9181 96.2801C98.0266 101.296 103.17 103.979 108.441 104.075C112.85 104.139 117.003 102.382 121.444 102.893C124.607 103.277 127.546 104.427 130.805 104.459C132.817 104.491 134.83 104.395 136.843 104.203C141.699 103.756 146.523 102.702 151.027 100.785C153.551 99.7304 155.979 98.3886 158.183 96.7593C159.845 95.5453 162.56 93.8202 163.295 91.8394C163.902 90.2421 163.007 88.2294 162.337 86.7918C161.378 84.6832 160.1 82.7345 158.439 81.1051C153.807 76.6006 147.257 75.1629 141.06 74.2365C133.488 73.0864 125.757 72.8947 118.185 74.1726C111.413 75.3866 103.873 77.527 98.8573 82.5428C98.2822 83.1178 99.1767 84.0123 99.7518 83.4373C104.001 79.1564 110.135 77.2076 115.917 75.9616C121.859 74.6518 127.929 74.3323 133.999 74.7476C144.414 75.4505 157.928 77.3354 161.793 88.7406C162.273 90.1143 162.432 91.0408 161.506 92.2228C160.867 93.0534 159.941 93.7563 159.174 94.4272C157.193 96.1204 154.957 97.5261 152.625 98.6762C148.631 100.657 144.286 101.871 139.91 102.574C135.852 103.213 131.444 103.564 127.386 102.893C125.022 102.51 122.818 101.647 120.422 101.519C118.505 101.424 116.556 101.647 114.671 101.935C109.56 102.765 104.512 103.564 100.167 99.9221C94.9277 95.5134 95.375 88.1974 99.7837 83.4053C100.295 82.8622 99.4004 81.9358 98.8573 82.5428Z" fill="#E1E1E1"/>
<path d="M201.856 67.879C197.415 72.2238 193.358 76.952 189.716 81.9677C187.831 84.5555 186.074 87.2391 184.444 89.9865C183.326 91.8395 182.368 93.948 181.026 95.6731C180.515 96.3121 181.633 96.951 182.112 96.3121C183.326 94.7147 184.253 92.7659 185.275 91.0408C186.904 88.2933 188.661 85.6097 190.514 82.9901C194.156 77.9104 198.246 73.1183 202.718 68.7416C203.357 68.1984 202.431 67.3039 201.856 67.879Z" fill="#E1E1E1"/>
</svg>
