<svg width="252" height="187" viewBox="0 0 252 187" fill="none" xmlns="http://www.w3.org/2000/svg">
<path d="M98.0643 117.827C101.614 109.291 111.921 105.749 119.363 112.023C126.206 117.742 126.035 129.18 124.666 137.161C121.458 155.77 103.667 169.683 86.7735 175.829C69.6663 182.06 50.549 181.292 34.3398 172.842C18.3018 164.476 6.15567 149.41 2.99083 131.442C2.13547 126.491 1.66502 121.071 2.73423 116.12C3.67512 111.681 4.70156 108.053 3.80343 103.444C2.86253 98.6211 1.36565 94.3531 1.70779 89.3168C1.9644 85.6464 2.73423 81.9759 3.8462 78.4761C7.78086 65.7575 16.0779 54.7034 25.5296 45.4845C31.7738 39.3813 38.6167 33.8756 45.9728 29.1808C55.8522 22.9068 66.8436 17.4865 78.8187 20.3034C93.8303 23.8458 103.581 39.1679 101.913 54.3193C101.058 62.1724 96.6102 69.5133 90.2805 74.2081C89.1258 75.0617 87.971 75.8727 86.7308 76.5129C85.576 77.1104 84.3785 77.5799 83.1382 77.8359C82.3684 78.0067 81.513 78.092 80.7005 78.092C80.4438 78.0493 80.1872 78.0493 79.9306 78.0067C78.4338 78.092 77.9633 77.025 78.5193 74.891C79.3746 74.1655 78.1344 72.9704 77.3218 73.696C74.6702 75.9153 76.5519 79.287 79.6313 79.7565C83.8225 80.3967 87.9283 78.1347 91.1786 75.7446C93.4454 74.0801 95.4127 72.1595 97.1662 69.9828C106.49 58.2458 105.506 41.1738 96.3963 29.5222C86.9874 17.5292 70.8638 15.4378 57.3063 21.0289C48.9665 24.486 40.9261 30.2478 33.9122 35.8815C23.0063 44.6309 13.0413 55.1302 6.58336 67.6354C3.07637 74.3789 0.638592 81.8052 0.0826066 89.4022C-0.0884657 91.8776 -0.0029315 94.3958 0.424749 96.8285C0.895198 99.56 1.9644 102.121 2.39208 104.895C3.29021 110.614 0.595823 115.949 0.553055 121.668C0.381983 141.856 11.3734 160.251 28.0957 171.177C44.5187 181.932 65.0901 184.45 83.8225 178.731C93.6164 175.744 102.683 170.622 110.339 163.836C117.652 157.349 123.896 149.368 126.035 139.637C127.831 131.527 128.259 120.9 123.297 113.73C119.063 107.669 110.681 105.365 104.009 108.736C100.374 110.571 98.0643 113.772 96.5247 117.443C96.0114 118.425 97.6366 118.851 98.0643 117.827Z" fill="#E1E1E1"/>
<path d="M83.9506 70.1535C88.3557 66.9099 91.8627 61.3188 93.9156 56.3679C96.054 51.2037 96.4817 45.4845 94.0011 40.3629C88.6979 29.2235 76.5517 27.9858 65.7742 30.76C53.2004 33.961 42.3373 41.8141 33.6126 51.2037C29.293 55.8984 25.3156 60.9774 21.7658 66.3124C18.7293 70.8791 15.7355 76.0434 15.3078 81.5918C15.094 84.366 15.821 86.628 16.6336 89.2315C17.6173 92.4752 18.0022 95.7615 17.7884 99.1332C17.3179 106.261 15.7783 113.004 16.1204 120.217C16.7192 132.039 20.1406 143.947 29.2075 152.099C38.2743 160.208 50.8909 162.214 62.6521 162.342C75.8247 162.47 89.2111 160.379 101.357 155.087C111.964 150.477 122.228 140.746 119.234 128.113C118.293 124.144 115.941 119.79 111.75 118.595C107.388 117.358 101.528 118.979 99.2616 123.034C98.7056 123.973 100.202 124.869 100.716 123.888C102.982 119.876 109.996 118.595 113.632 121.455C116.754 123.93 118.037 128.497 118.08 132.296C118.251 144.033 107.174 151.203 97.4226 154.831C86.4312 158.928 74.841 160.678 63.1653 160.635C52.3022 160.592 40.4555 159.013 31.7308 151.971C23.2627 145.142 19.3708 134.856 18.2161 124.314C17.5318 117.955 17.8311 111.809 18.772 105.493C19.4991 100.627 20.0123 95.8469 18.9004 90.9814C18.3016 88.3779 17.1041 85.9451 16.9758 83.2563C16.8475 80.3114 17.7884 77.3665 18.9859 74.6776C20.996 70.1962 23.8615 66.099 26.7697 62.1724C33.6981 52.7828 41.9951 44.1615 52.1739 38.2289C61.6257 32.7659 76.7656 27.0895 86.7733 34.3024C92.4187 38.357 95.0703 45.3565 93.4879 52.0573C92.1193 57.9044 87.928 65.1173 83.0525 68.7024C82.2399 69.3426 83.0525 70.7938 83.9506 70.1535Z" fill="#E1E1E1"/>
<path d="M83.9514 53.8496C85.1489 51.5449 86.2181 48.728 85.2345 46.1672C84.208 43.4783 81.3426 42.3687 78.7337 41.8138C71.3348 40.2774 63.2517 42.1553 56.6654 45.5697C49.6514 49.1975 43.6211 54.7032 38.4889 60.6784C33.6989 66.2268 28.3529 72.6714 26.2145 79.7563C25.0597 83.5548 25.8296 86.4144 26.856 90.0849C28.1818 94.9504 27.2837 99.6025 26.5994 104.511C25.4019 113.473 26.6422 122.82 29.9781 131.228C32.8863 138.569 37.8474 144.16 44.9041 147.788C51.9181 151.416 59.7019 152.27 67.4857 152.398C76.6381 152.568 85.876 151.16 94.2585 147.276C99.9039 144.63 110.254 138.783 106.405 131.1C105.934 130.119 104.437 130.972 104.951 131.954C108.671 139.38 95.3705 145.227 90.2383 147.148C83.5665 149.666 76.467 150.69 69.3675 150.733C55.1685 150.818 39.6864 147.404 32.8863 133.533C29.4649 126.576 27.968 118.68 27.9252 110.998C27.8824 103.657 30.5768 96.5295 28.4384 89.2739C27.3692 85.6461 26.9843 82.7439 28.3529 79.0307C29.5076 75.9151 31.3467 73.0556 33.2712 70.3667C37.1203 64.8183 41.4827 59.5687 46.4866 55.0019C52.0892 49.923 58.6755 45.6123 66.1599 43.9051C70.3084 42.9662 75.0984 42.5821 79.2469 43.6918C81.1715 44.2039 83.2671 45.1002 83.8231 47.1915C84.3791 49.1548 83.3954 51.2888 82.5401 52.996C81.9841 53.9349 83.481 54.8312 83.9514 53.8496Z" fill="#E1E1E1"/>
<path d="M93.0173 73.1838C94.8991 75.4032 96.5671 77.7506 98.0639 80.226C99.3042 82.3173 100.373 84.494 101.742 86.5426C103.838 89.701 106.532 92.3044 109.996 93.9263C112.348 95.036 114.701 95.7615 116.754 97.4687C118.079 98.5784 120.175 100.755 119.405 102.718C118.165 105.791 111.707 102.121 109.397 101.865C108.114 101.694 106.618 101.779 105.762 102.889C104.522 104.468 105.377 107.029 105.634 108.822C105.805 109.889 107.43 109.462 107.259 108.352C107.002 106.602 105.891 103.444 108.585 103.487C110.082 103.487 111.621 104.084 112.99 104.639C114.743 105.279 116.497 106.047 118.379 105.535C119.876 105.151 120.988 104.084 121.159 102.505C121.672 98.6211 117.609 95.5481 114.572 94.0116C112.477 92.9873 110.296 92.3471 108.328 91.0667C106.575 89.8717 105.078 88.3352 103.838 86.628C102.255 84.4086 101.058 81.9759 99.6891 79.6285C98.0639 76.9397 96.2249 74.3789 94.2148 71.9461C93.5305 71.1352 92.333 72.3302 93.0173 73.1838Z" fill="#E1E1E1"/>
<path d="M183.13 98.4077C184.541 99.0906 184.926 96.5298 185.482 95.7615C188.262 91.9203 194.036 95.5481 196.816 97.4261C199.852 99.4747 202.204 102.633 204.257 105.578C205.198 106.944 206.096 108.309 206.952 109.761C207.465 110.614 207.935 112.193 208.919 112.663C209.945 113.09 211.143 112.407 212.084 112.108C222.562 108.651 233.425 110.187 241.893 117.571C245.015 120.303 247.154 123.888 248.479 127.814C251.473 136.777 249.335 146.209 244.759 154.233C237.231 167.464 224.572 176.939 210.288 181.975C195.105 187.353 178.939 185.944 165.338 177.152C153.363 169.427 142.714 158.8 137.496 145.356C131.808 130.716 132.835 112.834 143.655 100.712C153.32 89.8717 172.309 87.2682 182.916 98.2797C183.686 99.0906 184.883 97.8529 184.113 97.0846C175.346 87.9938 160.121 87.3963 149.557 93.6702C137.924 100.542 132.107 114.968 132.279 128.028C132.492 143.008 139.677 156.794 150.156 167.25C160.933 177.963 174.619 186.414 190.187 186.969C205.797 187.523 221.664 180.652 233.511 170.75C242.962 162.812 251.174 150.178 251.602 137.545C252.115 121.455 239.242 108.48 222.947 108.48C218.798 108.48 214.778 109.376 210.886 110.7C209.689 111.084 209.732 110.998 208.962 109.761C207.893 108.053 206.909 106.346 205.754 104.724C204.343 102.718 202.846 100.798 201.178 99.0052C197.457 95.036 187.62 88.4633 183.686 95.4628C183.515 95.8042 183.215 96.2737 183.13 96.6578C182.959 97.9809 182.531 96.2737 183.985 96.9993C183.002 96.4444 182.146 97.9382 183.13 98.4077Z" fill="#E1E1E1"/>
<path d="M170.898 130.204C168.887 126.747 167.391 122.522 167.262 118.51C167.177 115.352 168.16 112.279 170.812 110.358C171.625 109.761 172.566 109.249 173.549 109.035C174.918 108.694 176.244 109.078 177.612 109.078C179.537 109.078 181.376 108.523 182.915 107.328C185.952 104.938 187.62 99.4748 183.985 96.8713C183.086 96.2311 182.231 97.7249 183.129 98.3225C185.31 99.8589 184.284 103.401 182.83 105.066C181.205 106.986 178.852 107.541 176.457 107.285C172.908 106.944 169.7 108.31 167.562 111.254C164.311 115.779 165.594 122.01 167.476 126.833C168.032 128.284 168.674 129.735 169.486 131.101C169.957 132.04 171.454 131.143 170.898 130.204Z" fill="#E1E1E1"/>
<path d="M207.721 110.998C209.389 114.071 210.501 117.443 211.228 120.857C211.913 124.016 212.34 127.473 211.699 130.716C211.485 131.783 213.11 132.253 213.324 131.186C214.051 127.771 213.623 124.144 212.939 120.729C212.169 117.059 210.972 113.431 209.175 110.145C208.662 109.206 207.208 110.059 207.721 110.998Z" fill="#E1E1E1"/>
<path d="M211.528 116.803C218.884 113.73 227.181 114.797 233.254 120.046C239.541 125.467 241.551 133.704 239.626 141.6C237.06 152.099 229.405 158.97 220.808 164.69C205.797 174.762 183.814 173.098 168.845 163.793C154.86 155.087 146.178 138.826 147.247 122.351C147.718 115.48 150.156 108.907 155.33 104.169C158.837 100.968 163.157 98.6637 167.904 98.1088C172.865 97.5113 182.232 98.7917 183.344 104.852C183.557 105.919 185.183 105.492 184.969 104.383C184.199 100.243 179.837 98.0662 176.116 97.0418C171.24 95.6761 165.98 96.1029 161.361 98.1515C153.919 101.395 148.317 108.224 146.435 116.077C142.842 131.015 148.616 147.66 159.265 158.416C172.994 172.201 195.404 176.939 213.623 170.238C224.829 166.141 235.82 156.836 240.097 145.612C243.39 136.948 242.492 127.174 235.906 120.302C229.448 113.559 219.568 111.596 211.015 115.181C210.074 115.565 210.544 117.229 211.528 116.803Z" fill="#E1E1E1"/>
<path d="M123.896 20.0472C124.152 19.407 123.169 20.0899 122.698 20.2606C121.8 20.602 120.902 20.9435 120.004 21.3276C117.78 22.2665 115.599 23.3335 113.589 24.6566C111.365 26.1504 109.012 28.0283 107.344 30.205C101.015 38.3569 107.558 48.4294 114.273 53.9351C116.369 55.6423 118.935 57.1787 120.774 59.142C122.271 60.7639 121.928 62.0869 120.389 63.6234C118.635 65.3733 117.053 67.5073 116.454 69.94C115.171 75.0616 118.721 80.3966 122.356 83.683C125.735 86.756 130.054 88.7192 134.545 89.6155C156.528 93.9689 174.49 74.5068 178.938 54.8313C181.932 41.5579 179.537 26.8333 171.71 15.5231C165.894 7.07248 156.656 0.883888 146.221 0.0729687C134.331 -0.86599 121.03 7.32856 123.896 20.5167C124.11 21.5837 125.778 21.1142 125.521 20.0472C122.484 6.13352 138.736 -0.268471 150.027 2.33501C158.538 4.29828 165.68 9.63328 170.513 16.8035C177.399 27.004 179.879 40.1494 177.698 52.1852C174.191 71.2205 158.153 90.8105 136.812 88.2071C132.15 87.6522 127.403 85.817 123.853 82.7014C119.063 78.5614 115.727 71.9887 120.132 66.3976C121.116 65.1599 123.126 63.9649 123.554 62.3003C123.81 61.2333 123.254 59.0567 122.655 58.2457C122.228 57.6909 121.8 57.6909 121.116 57.1787C119.833 56.1544 118.592 55.1301 117.309 54.1485C110.766 48.8988 101.742 38.7837 109.226 30.5891C111.579 27.9857 114.701 25.7663 117.994 24.1018C119.876 23.1628 121.8 22.4373 123.725 21.669C124.409 21.4129 125.264 21.2422 125.564 20.474C125.949 19.4923 124.281 19.0655 123.896 20.0472Z" fill="#E1E1E1"/>
<path d="M129.756 18.8094C128.644 15.4804 131.638 12.1086 134.204 10.3588C139.207 6.94437 146.307 8.26745 151.183 11.2124C160.121 16.59 164.654 27.9002 165.681 37.802C167.263 52.5692 163.029 69.8973 149.258 77.8785C143.826 81.0368 136.47 83.811 130.354 80.9087C127.147 79.3723 124.495 76.47 123.554 73.0129C122.528 69.1717 124.581 66.4402 127.788 64.5196C128.729 63.9648 127.874 62.471 126.933 63.0685C121.972 66.0988 120.218 70.7936 122.913 76.0859C125.736 81.5489 131.809 84.5365 137.839 83.7683C149.985 82.2745 159.651 73.2263 164.312 62.2576C167.221 55.4715 167.948 48.4293 167.648 41.1737C167.178 29.5648 162.516 16.1206 152.038 9.80393C146.564 6.51757 138.737 5.23718 133.177 9.07837C130.098 11.2124 126.762 15.3523 128.088 19.3642C128.473 20.3032 130.141 19.8337 129.756 18.8094Z" fill="#E1E1E1"/>
<path d="M133.348 23.931C132.15 17.8704 140.747 16.0352 144.981 17.2729C148.958 18.4253 152.123 21.4982 154.261 24.9126C158.538 31.7841 160.163 41.6005 159.308 49.5816C158.453 58.0322 152.936 66.0134 145.964 70.7509C142.671 73.0129 138.437 74.6774 134.502 73.1836C132.45 72.4154 130.525 70.7935 129.456 68.873C128.002 66.1841 128.943 64.3062 129.456 61.66C129.67 60.593 128.002 60.1236 127.831 61.1906C127.531 62.727 126.804 64.2208 126.89 65.8C126.975 67.7206 127.788 69.6412 128.985 71.135C130.91 73.6104 133.947 75.2323 137.069 75.4457C144.895 75.9151 151.995 68.8303 156.058 62.8978C161.446 55.0873 161.874 46.2099 160.292 37.1191C158.923 29.3086 155.801 20.7727 148.402 16.8034C144.938 14.9682 140.875 14.456 137.197 15.9498C133.775 17.3583 130.953 20.5166 131.723 24.3578C131.894 25.4674 133.562 24.998 133.348 23.931Z" fill="#E1E1E1"/>
<path d="M178.854 106.602C175.603 102.889 169.958 103.145 165.767 104.938C161.361 106.858 157.854 110.571 155.93 114.968C151.14 125.766 156.315 138.441 163.329 146.977C170.685 155.94 181.377 161.745 193.053 162.044C203.616 162.342 215.463 158.416 222.007 149.752C225.3 145.398 227.267 139.893 226.711 134.387C226.412 131.57 224.145 122.18 219.612 124.997C218.671 125.552 219.526 127.046 220.467 126.448C222.648 125.125 224.487 131.613 224.744 132.722C225.214 134.899 225.214 137.204 224.829 139.423C224.102 143.563 222.007 147.447 219.184 150.52C212.897 157.391 202.633 160.507 193.523 160.336C183.815 160.166 174.705 156.111 167.819 149.325C160.848 142.496 155.331 132.594 155.887 122.607C156.186 117.4 158.41 112.492 162.388 109.078C166.28 105.749 173.679 103.273 177.656 107.84C178.34 108.651 179.581 107.413 178.854 106.602Z" fill="#E1E1E1"/>
</svg>
