<svg width="238" height="120" viewBox="0 0 238 120" fill="none" xmlns="http://www.w3.org/2000/svg">
<path d="M166.911 109.58C161.993 109.58 157.378 109.008 153.1 107.829C145.149 105.673 137.435 101.495 130.799 95.8022C114.325 81.6198 105.735 59.2513 108.43 37.4218C110.182 23.2057 117.121 11.8193 127.969 5.38503C134.976 1.20779 143.128 -0.577649 151.516 0.163475C159.534 0.870912 167.383 3.8691 174.188 8.75378C179.746 12.7289 185.035 18.0178 190.83 25.3617C199.117 35.9059 204.507 45.9784 206.797 55.2762C209.661 66.831 208.347 78.9585 203.193 89.5026C197.668 100.721 188.034 107.458 175.333 109.008C172.436 109.412 169.606 109.58 166.911 109.58ZM147.811 1.34254C140.972 1.34254 134.403 3.12797 128.643 6.5304C118.166 12.7626 111.428 23.8121 109.744 37.5902C107.116 58.9818 115.504 80.8787 131.674 94.7916C138.176 100.384 145.688 104.46 153.437 106.549C159.904 108.3 167.215 108.705 175.165 107.728C187.427 106.212 196.691 99.7099 202.014 88.93C207.067 78.689 208.313 66.831 205.551 55.613C203.294 46.4837 198.005 36.5796 189.819 26.1702C184.126 18.9274 178.938 13.7395 173.447 9.83178C166.81 5.04816 159.197 2.18472 151.415 1.47728C150.203 1.37622 148.99 1.34254 147.811 1.34254Z" fill="#E1E1E1"/>
<path d="M185.035 89.1321C183.048 89.1321 180.892 88.8289 178.399 88.2562C161.555 84.1801 148.114 70.2334 144.981 53.5918C143.566 46.0458 144.206 38.1967 146.868 30.8528C150.236 21.4877 155.188 16.603 161.555 16.3335C169.337 16.0303 175.098 22.8352 179.713 29.539C181.229 31.7287 182.745 34.0531 184.395 36.647C188.337 42.8455 192.48 49.482 196.321 56.0847C201.205 64.5066 202.351 71.4799 199.959 78.1163C197.971 83.5737 194.064 87.4478 189.179 88.6942C187.899 88.9637 186.518 89.1321 185.035 89.1321ZM162.128 17.5799C161.96 17.5799 161.791 17.5799 161.656 17.5799C155.862 17.8157 151.348 22.4309 148.148 31.2234C145.587 38.3651 144.947 45.9785 146.329 53.2887C149.36 69.4586 162.397 82.9673 178.736 86.9424C182.846 87.9194 186.08 88.0541 188.876 87.3467C193.323 86.2013 196.927 82.6641 198.746 77.611C201.003 71.3788 199.892 64.7087 195.209 56.6911C191.402 50.122 187.225 43.4856 183.317 37.3208C181.7 34.7605 180.151 32.4361 178.669 30.2464C174.357 23.9469 169.034 17.5799 162.128 17.5799Z" fill="#E1E1E1"/>
<path d="M177.153 69.7955C171.695 69.7955 166.541 67.6058 163.139 63.4285C162.768 62.9906 162.398 62.519 162.061 62.0136C161.993 61.9126 156.839 53.8276 162.094 47.7975C162.364 47.4943 213.502 24.9237 230.918 31.0886C231.019 31.0886 235.567 32.0992 236.813 40.7569C237.554 45.8437 236.982 50.8968 235.163 55.4109C233.343 59.9587 229.705 65.6182 222.665 66.8646L222.53 66.8983L222.395 66.8646C222.159 66.7973 199.454 61.441 186.316 67.7068C183.351 69.088 180.218 69.7955 177.153 69.7955ZM163.004 48.7408C158.524 53.996 163.071 61.2052 163.139 61.2725C163.442 61.7105 163.779 62.1821 164.149 62.5863C169.101 68.5827 177.995 70.1997 185.81 66.4604C198.949 60.1945 220.509 65.0118 222.631 65.5171C228.998 64.3381 232.333 59.1165 233.983 54.9056C235.702 50.5936 236.241 45.7763 235.533 40.9253C234.421 33.2782 230.615 32.335 230.581 32.335C214.478 26.6755 165.968 47.1575 163.004 48.7408Z" fill="#E1E1E1"/>
<path d="M229.469 62.5864C228.492 62.5864 227.482 62.1147 226.538 61.1715C221.182 55.7815 225.427 43.6203 226.303 41.2622L226.538 40.6221C227.347 38.4325 228.459 35.4006 230.48 34.3563C231.389 33.8846 232.333 33.851 233.276 34.2552C234.522 34.7605 235.6 36.0406 236.072 37.4892L234.825 37.8935C234.489 36.8155 233.646 35.8385 232.771 35.468C232.198 35.2321 231.625 35.2658 231.086 35.5353C229.537 36.3438 228.459 39.1736 227.785 41.0601L227.549 41.7001C225.191 47.8986 223.776 56.4889 227.482 60.2282C228.021 60.7672 229.368 61.8789 230.513 60.8346L231.423 61.8116C230.817 62.3506 230.177 62.5864 229.469 62.5864Z" fill="#E1E1E1"/>
<path d="M39.3372 107.964C31.8923 107.964 24.9527 106.01 19.3606 102.304C10.0965 96.2066 3.22426 85.7298 0.967199 74.3435C-0.211863 68.4145 -0.312925 62.4855 0.664012 56.7586C2.71895 44.9006 7.26675 34.8281 14.2064 26.8104C28.4225 10.4046 53.9913 -3.23878 79.0547 3.2629C82.154 4.0714 85.1859 5.1494 88.0493 6.53059C97.5155 11.011 105.533 18.456 110.687 27.5516C117.021 38.7021 118.604 51.2675 114.966 61.138C112.978 66.4943 109.576 71.7495 104.826 76.7016C97.246 84.6181 87.9146 90.1429 80.6717 94.0506C72.4183 98.4974 62.6153 103.416 52.2058 106.178C49.713 106.852 47.3885 107.29 45.0641 107.593C43.1102 107.862 41.2237 107.964 39.3372 107.964ZM65.9166 2.92603C45.8052 2.92603 26.7381 14.3798 15.217 27.6863C8.41213 35.5018 3.96538 45.3722 1.97782 56.9944C1.00089 62.5528 1.10195 68.3134 2.24732 74.074C4.43701 85.1235 11.1071 95.2634 20.068 101.226C26.8055 105.706 35.6316 107.492 44.862 106.313C47.119 106.01 49.4098 105.572 51.8353 104.932C62.11 102.237 71.8456 97.352 79.998 92.9389C87.1734 89.0649 96.3701 83.6075 103.849 75.8257C108.464 71.0084 111.799 65.9216 113.719 60.7337C117.256 51.2002 115.673 39.0727 109.542 28.259C104.522 19.3992 96.6733 12.1227 87.4766 7.77702C84.6806 6.46321 81.7497 5.38521 78.7179 4.6104C74.4733 3.43134 70.1613 2.92603 65.9166 2.92603Z" fill="#E1E1E1"/>
<path d="M42.167 100.182C36.6423 101.327 29.8374 102.607 24.8517 99.1373C21.9546 97.1161 20.4049 93.6462 19.2259 90.4796C18.0131 87.2456 17.2383 83.8432 16.9014 80.3734C15.655 66.9658 20.7755 53.1202 29.7364 43.1824C38.6299 33.312 51.2963 26.2713 64.4008 23.9806C78.4821 21.4877 94.8206 25.7323 103.613 37.725C108.498 44.3952 111.024 53.9287 107.116 61.6431C103.108 69.5597 94.9553 74.6802 87.9146 79.5986C87.2072 80.1039 87.8809 81.2493 88.5884 80.7439C95.2922 76.0614 102.67 71.3115 107.15 64.2708C111.327 57.7017 111.058 50.021 108.127 43.014C102.198 28.7979 85.7586 21.3193 70.9698 21.8919C41.9649 23.0036 14.2064 48.1008 15.4192 78.0826C15.5876 82.0914 16.2951 86.0666 17.6089 89.8732C18.8216 93.3094 20.3713 97.0824 23.201 99.5079C28.5236 104.056 36.2717 102.742 42.5376 101.462C43.3798 101.293 43.0092 100.013 42.167 100.182Z" fill="#E1E1E1"/>
<path d="M118.267 110.928C116.044 110.928 113.753 110.187 111.462 108.704C107.049 105.875 103.041 101.899 99.537 96.9137C95.0903 90.6141 91.351 82.8997 88.4202 74.0062C86.6684 68.751 86.1631 64.3379 86.9042 60.8681C87.3085 58.9142 88.117 57.2299 89.3297 55.8824C90.913 54.0632 93.3385 52.8842 96.5052 52.3115C101.963 51.3682 107.521 51.8735 112.574 53.8274C121.602 57.2972 129.687 66.4602 133.123 77.1728C135.92 85.8305 134.909 95.8357 130.563 102.607C129.047 104.965 126.487 108.132 122.815 109.883C121.299 110.591 119.817 110.928 118.267 110.928ZM101.794 53.1874C100.11 53.1874 98.3917 53.3221 96.7073 53.6253C93.8439 54.1306 91.6879 55.1749 90.273 56.7582C89.2287 57.9373 88.5212 59.4195 88.1507 61.1376C87.4769 64.3716 87.9822 68.5488 89.6329 73.5683C92.53 82.3607 96.2357 89.9404 100.581 96.1389C104.017 100.99 107.892 104.864 112.17 107.593C115.64 109.816 119.008 110.187 122.209 108.704C125.611 107.087 128.003 104.123 129.418 101.933C133.561 95.4651 134.505 85.9316 131.843 77.6108C128.508 67.2687 120.76 58.4426 112.069 55.1075C108.801 53.8274 105.331 53.1874 101.794 53.1874Z" fill="#E1E1E1"/>
<path d="M98.6273 108.637C96.2018 108.637 93.1362 106.313 92.6646 105.942C87.0051 102.236 84.9165 94.9936 84.8491 94.6904L84.8154 94.5557L84.8491 94.3873C86.2977 86.8413 98.223 73.8716 99.8737 72.2883L100.413 71.783L100.851 72.3557C103.276 75.4886 105.5 78.5541 107.622 81.6871L108.632 83.1693C110.519 85.898 112.641 88.9973 114.124 92.2313C114.46 93.7135 114.629 94.5557 114.629 94.5557L114.764 95.2631L114.022 95.3305C105.735 96.1053 100.817 107.391 100.783 107.525L100.716 107.694C100.177 108.368 99.4358 108.637 98.6273 108.637ZM86.1629 94.4883C86.4998 95.5326 88.5884 101.697 93.4394 104.864C94.6859 105.841 98.3915 108.233 99.6379 106.919C100.177 105.706 104.927 95.4652 113.214 94.1514C113.147 93.7809 113.046 93.3093 112.911 92.7029C111.496 89.7047 109.407 86.6391 107.554 83.9441L106.544 82.4619C104.556 79.5311 102.501 76.7013 100.278 73.7705C96.9766 77.1056 87.5104 88.1888 86.1629 94.4883Z" fill="#E1E1E1"/>
<path d="M110.249 102.91C111.091 103.955 112.338 105.336 113.854 105.268C115.369 105.201 116.077 103.82 116.279 102.472C117.054 97.3855 114.426 92.164 111.866 87.9867C108.969 83.2368 105.667 78.689 102.332 74.2422C99.6374 70.6377 97.0435 66.4941 93.7758 63.3949C93.1357 62.7885 92.1925 63.7654 92.8326 64.3381C95.2917 66.6625 97.313 69.7281 99.3342 72.4568C101.928 75.9266 104.488 79.3964 106.948 82.9673C109.205 86.2687 111.563 89.57 113.18 93.2083C114.19 95.4653 114.932 97.8572 115.033 100.35C115.066 101.63 115.066 104.595 112.809 103.483C112.169 103.18 111.664 102.472 111.226 101.933C110.653 101.26 109.71 102.237 110.249 102.91Z" fill="#E1E1E1"/>
<path d="M70.7339 119.013C68.0052 119.013 65.4786 118.373 63.2216 117.093C55.0692 112.511 52.9469 101.462 52.8458 101.024C52.3405 98.5982 53.9912 90.8838 55.4398 84.8537C56.1135 82.024 54.227 81.1818 50.993 80.0701C47.8938 79.0258 44.4576 77.8467 41.7627 75.6234C35.261 70.1997 37.4843 62.0473 41.6953 56.2194C44.3566 52.5474 48.2306 49.2798 52.5763 47.0901C59.8528 43.3845 70.8349 41.3969 77.943 47.9323C80.2674 50.0546 81.6486 53.7602 79.9306 56.2868C79.8969 56.3541 79.7958 56.4889 79.9306 56.6236C88.8914 64.9107 91.0137 74.7475 91.0811 75.1517C95.0225 91.8607 88.9251 105.538 84.9163 112.208C83.4677 114.633 81.3117 116.486 78.8526 117.43C75.9554 118.474 73.2604 119.013 70.7339 119.013ZM53.1827 48.2691C49.0391 50.3915 45.3335 53.4907 42.7733 56.9942C38.8992 62.3505 36.8106 69.7617 42.6048 74.6127C45.1314 76.7014 48.4328 77.813 51.3299 78.8237C54.227 79.8006 57.7305 80.9797 56.7199 85.1906C54.7323 93.2756 53.7554 99.1035 54.126 100.788C54.1596 100.923 56.2483 111.703 63.8616 115.981C67.8704 118.238 72.7888 118.305 78.3809 116.183C80.5706 115.341 82.4908 113.69 83.8046 111.534C87.6787 105.033 93.6414 91.726 89.801 75.4549C89.7673 75.3539 87.6787 65.6182 79.021 57.6006C78.4483 57.0616 78.3809 56.2194 78.8189 55.5793C80.099 53.6928 78.8862 50.661 77.0334 48.9429C70.4307 42.8455 60.0549 44.7656 53.1827 48.2691Z" fill="#E1E1E1"/>
<path d="M80.7726 116.486L80.0989 115.375C81.6148 114.465 82.558 113.118 82.8949 111.4C83.5687 107.997 81.7495 103.618 79.6946 100.754C76.1911 95.937 70.1947 92.7367 63.7267 92.1303C60.6612 91.8608 58.0336 92.5009 56.3155 93.9495C54.968 95.0949 54.2269 96.7455 54.0921 98.8005L52.7783 98.7331C52.9468 96.3076 53.8226 94.3537 55.4733 92.9725C57.4609 91.2882 60.4254 90.5134 63.8615 90.8502C70.7001 91.4903 77.0333 94.8927 80.7726 100.013C82.8612 102.877 85.0172 107.66 84.2087 111.703C83.7708 113.724 82.6254 115.375 80.7726 116.486Z" fill="#E1E1E1"/>
<path d="M56.8881 83.8769C57.3934 82.1251 57.5955 80.2723 57.764 78.4532C57.8313 77.7458 57.865 77.0383 57.865 76.3309C57.865 75.9266 57.8987 75.4213 57.6966 75.0845C57.2586 74.3433 56.0796 75.0171 56.5512 75.7582C56.5849 75.8256 56.4838 75.5561 56.5175 75.6571C56.5175 75.6908 56.5175 75.7245 56.5175 75.7245C56.5512 75.7582 56.5175 75.5561 56.5175 75.6571C56.5175 75.6908 56.5175 75.7582 56.5175 75.7919C56.5175 76.0277 56.5175 76.2635 56.5175 76.4993C56.5175 77.1731 56.4838 77.8468 56.4165 78.5206C56.2817 80.2049 56.0459 81.8556 55.608 83.4726C55.3721 84.3485 56.6523 84.7191 56.8881 83.8769Z" fill="#E1E1E1"/>
<path d="M81.6489 58.3416C80.7057 57.331 79.594 56.4551 78.4486 55.6466C78.0107 55.3434 77.5728 55.0402 77.1348 54.7707C76.8653 54.6023 76.5284 54.3665 76.1579 54.3665C75.282 54.3665 75.282 55.714 76.1579 55.714C76.0568 55.714 75.9558 55.6803 76.0905 55.714C75.821 55.6129 76.0568 55.6803 76.1242 55.7476C76.2589 55.815 76.4274 55.9161 76.5621 55.9835C77.0001 56.253 77.438 56.5561 77.8423 56.8256C78.8529 57.5331 79.8298 58.3079 80.7057 59.2511C80.9415 59.5206 81.4131 59.487 81.6489 59.2511C81.9184 59.049 81.9184 58.6111 81.6489 58.3416Z" fill="#E1E1E1"/>
</svg>
