<svg width="174" height="174" viewBox="0 0 174 174" fill="none" xmlns="http://www.w3.org/2000/svg">
<g clip-path="url(#clip0_652_22609)">
<path d="M309.82 0.807803C309.552 0.609202 309.191 0.683677 309.017 0.969167C291.367 28.5996 258.686 30.0643 233.981 22.2196C228.346 20.4321 222.722 18.2475 217.285 16.125C214.712 15.1195 212.058 14.0893 209.427 13.1087C205.131 11.5075 200.52 9.80695 195.537 8.25537C188.307 6.05834 182.02 4.70536 175.757 4.01026C167.467 3.24068 159.282 3.81166 151.447 5.7232C145.498 7.17547 140.165 9.57111 134.775 12.1157C129.175 14.7472 124.006 18.0613 119.395 21.9341C116.95 23.9946 114.412 26.2909 111.432 29.1582C106.064 34.3467 100.534 40.1061 93.4906 47.8392C92.4311 49.006 91.3716 50.2472 90.3587 51.4513C89.6136 52.3201 88.8685 53.2139 88.1001 54.0827C86.6331 51.2154 84.3978 49.4528 82.5699 49.4528C81.1611 49.4528 79.8455 49.9617 78.6347 50.9423C75.9802 47.1068 72.1964 41.8439 69.2974 37.996C62.8824 29.4809 54.8258 22.7905 46.0124 18.6447C38.8406 15.2809 30.9004 13.5431 23.0301 13.63C14.9618 13.7169 7.11479 15.7278 0.327209 19.4391C0.036146 19.6005 -0.0686366 19.9729 0.0710735 20.2708C0.222426 20.5811 0.571701 20.6928 0.851122 20.5439C14.2516 13.208 30.9586 12.9225 45.5467 19.7743C54.1971 23.8332 62.0907 30.3995 68.3893 38.7656C71.2999 42.6259 75.1187 47.9261 77.7615 51.7492C77.2027 52.345 76.6788 53.0525 76.1898 53.8717C75.1187 55.6591 74.4783 57.5459 74.2804 58.4023C74.1058 58.4396 73.9195 58.4768 73.7332 58.514C70.5315 59.0974 67.4463 60.227 64.5589 61.8779C61.3107 63.7273 58.2487 66.2471 55.4312 69.3999C51.9152 73.3347 49.0162 77.7412 46.8157 82.5076C45.2091 85.9831 44.0099 89.1235 43.1367 92.115C41.7047 97.0552 40.8082 102.169 40.1912 106.067C38.7708 114.942 37.0011 124.202 32.2975 131.24C31.5641 132.332 30.6792 133.337 29.8177 134.305C28.8048 135.447 27.7686 136.627 26.9303 137.98C25.021 141.108 24.2293 144.521 24.7066 147.599C25.0908 150.094 25.9174 151.931 27.1515 153.073C31.1915 156.81 41.728 158.485 43.8236 158.796C52.9863 160.397 61.8462 161.477 70.6712 162.048C72.1266 163.5 73.4305 165.188 74.6181 167.199C76.6439 170.55 79.1354 174.696 83.2452 174.696C83.3732 174.696 83.5013 174.696 83.641 174.684C83.6526 174.684 83.6526 174.684 83.6643 174.684C86.5633 174.398 88.3679 171.692 89.6718 169.706C89.6718 169.694 89.6835 169.694 89.6835 169.681C90.2074 168.825 90.6964 167.968 91.1621 167.137C92.1284 165.436 93.0598 163.798 94.2124 162.308C100.581 161.998 106.519 161.365 112.34 160.397C117.509 159.54 122.411 158.436 127.766 156.909C130.793 156.052 134.158 154.823 136.184 152.266C138.128 149.809 139.036 146.457 138.675 143.081C138.326 139.966 136.614 137.806 134.728 135.696C131.305 131.86 128.814 127.752 127.126 123.134C125.228 117.97 123.994 112.31 123.016 107.767C119.744 92.686 115.204 80.9436 109.511 72.8506C105.052 66.5078 100.884 63.7522 97.7517 62.064C95.1089 60.6366 92.2797 59.5567 89.5321 58.8988C89.5205 58.6133 89.4972 58.3278 89.439 58.0299C89.2527 57.0493 88.9849 56.1308 88.6589 55.2868C89.5321 54.2937 90.3937 53.2883 91.2319 52.2953C92.2448 51.1037 93.2926 49.8624 94.3405 48.7081C101.361 40.9874 106.879 35.2528 112.235 30.1016C115.192 27.2467 117.707 24.9752 120.14 22.9271C124.669 19.1164 129.757 15.8643 135.264 13.2701C140.596 10.7627 145.87 8.3795 151.715 6.95205C159.434 5.06533 167.502 4.50676 175.652 5.26393C181.846 5.94663 188.063 7.28719 195.223 9.45939C200.183 11.011 204.77 12.6991 209.054 14.2879C211.674 15.2685 214.328 16.2987 216.89 17.3042C222.338 19.4267 227.973 21.6238 233.643 23.4236C240.629 25.6454 247.672 26.9984 254.576 27.4825C261.899 27.9914 268.932 27.4825 275.475 25.9682C282.495 24.3545 288.91 21.5865 294.545 17.7386C300.622 13.6052 305.803 8.19331 309.971 1.67669C310.158 1.37878 310.088 0.993993 309.82 0.807803ZM87.7624 56.2549C87.972 56.8756 88.1583 57.5459 88.2864 58.2658C88.3096 58.3899 88.3213 58.514 88.3329 58.6382C87.483 58.4644 86.6448 58.3403 85.8181 58.2658C86.4818 57.6079 87.1338 56.9376 87.7624 56.2549ZM82.5699 50.6941C83.8971 50.6941 85.9462 52.2084 87.2618 55.0261C86.5167 55.8453 85.7483 56.6521 84.9682 57.4093C84.5375 56.0315 83.8855 54.8275 83.0938 53.9834C82.8377 53.7104 82.4768 53.5986 82.1275 53.5986C81.8946 53.5986 81.6734 53.6483 81.4871 53.7476C81.4639 53.76 81.4406 53.7724 81.4289 53.7848C81.2077 53.9462 81.0098 54.1076 80.8119 54.2937C80.4742 53.7104 80.1133 53.1145 79.6593 52.4443C79.5545 52.2829 79.4381 52.1215 79.3216 51.9478C80.2414 51.1906 81.3241 50.6941 82.5699 50.6941ZM81.4522 55.3488C81.6268 55.1626 81.8248 54.9889 82.0343 54.8399C82.1042 54.8151 82.2439 54.8275 82.2788 54.8523C83.0123 55.6343 83.5944 56.7887 83.9786 58.1417C83.8622 58.1417 83.7574 58.1417 83.641 58.1417C83.6061 58.1292 83.5595 58.092 83.5362 58.0796L83.5246 58.0672C82.5932 57.1362 82.011 56.2798 81.4522 55.3488ZM81.8364 57.9803C81.1844 57.9182 80.5325 57.8934 79.8688 57.881C80.1133 57.3473 80.3811 56.8259 80.6838 56.3542C81.0214 56.9004 81.3824 57.4341 81.8364 57.9803ZM78.4601 52.767C78.5532 52.9035 78.6347 53.0277 78.7279 53.1518C79.2285 53.8965 79.6243 54.5668 80.0085 55.2123C80.0085 55.2123 80.0085 55.2247 80.0202 55.2247C79.4264 56.0563 78.984 56.9997 78.5765 57.8934C77.5985 57.9182 76.3994 58.0175 75.5844 58.1044C75.9569 56.8632 76.9 54.4923 78.4601 52.767ZM44.0099 157.567H43.9983C42.7642 157.393 31.7969 155.717 27.92 152.142C26.6509 150.963 26.1037 148.915 25.8592 147.413C25.4285 144.645 26.1503 141.542 27.9083 138.675C28.6884 137.409 29.643 136.316 30.6676 135.174C31.5524 134.169 32.4722 133.139 33.2522 131.972C38.0955 124.723 39.9001 115.314 41.3438 106.29C41.9608 102.43 42.8457 97.3779 44.2544 92.4998C45.1043 89.5704 46.2802 86.4921 47.8636 83.0786C50.0174 78.4239 52.8466 74.1167 56.2811 70.2688C59.0055 67.2153 61.9743 64.77 65.1061 62.9826C67.8887 61.4062 70.8575 60.3139 73.9311 59.7553H73.9428C75.9104 59.3457 77.8081 59.1471 79.636 59.1471C81.2659 59.1471 82.861 59.3084 84.421 59.6312C85.6784 59.9167 86.8078 60.3635 87.972 60.8476C87.4015 62.2626 86.2606 63.5536 85.2127 64.7328L84.9566 65.0182C84.0834 65.763 83.2452 66.545 82.4302 67.3642C79.5079 68.6055 76.8418 70.6908 74.2106 73.7443C72.6388 75.569 68.7619 80.6209 66.7477 88.1429C64.4192 96.6952 64.0816 105.446 63.7556 113.899C63.6741 116.084 63.581 118.33 63.4645 120.552C63.4645 120.565 63.4645 120.565 63.4645 120.577C63.2666 132.27 60.8333 138.091 59.867 139.966C51.9268 140.201 44.1496 140.301 36.4772 139.171C36.1396 139.122 35.7437 139.059 35.278 138.985C35.1732 138.973 35.0801 138.985 34.987 139.022C34.824 139.097 34.6959 139.258 34.6493 139.469C34.626 139.618 34.6377 139.755 34.7075 139.879C34.7774 140.003 34.9055 140.102 35.0452 140.152C44.9995 143.106 55.8503 145.129 68.203 146.358C79.0189 147.289 90.2772 147.289 102.642 146.358C106.647 146.06 110.71 145.502 114.703 144.72C116.694 144.322 118.732 143.863 120.734 143.342C121.631 143.106 122.504 142.758 123.33 142.411C124.157 142.076 125.007 141.728 125.88 141.505C126.532 141.393 127.161 141.281 127.754 141.381C128.744 141.616 129.315 142.187 129.559 143.168V143.18C129.908 144.422 129.536 146.159 127.906 147.066C126.835 147.649 125.566 147.997 124.343 148.319C124.145 148.369 123.947 148.431 123.761 148.481C122.143 148.928 120.536 149.362 119.034 149.759L118.056 150.02C115.274 150.765 112.386 151.547 109.557 152.353C106.553 153.21 102.874 154.426 99.3817 156.437C97.3675 156.549 95.7492 156.611 94.6897 156.648L94.1891 156.661C83.478 156.661 59.3664 154.538 56.479 154.004C56.4674 154.004 56.4557 154.004 56.4441 153.992C56.1298 153.942 55.827 154.166 55.7805 154.501C55.7223 154.836 55.9318 155.159 56.2578 155.221C56.2695 155.221 56.2811 155.221 56.2927 155.233C57.4337 155.457 64.6986 157.765 66.3286 158.696C67.3415 159.292 68.2962 159.95 69.181 160.682C60.9148 160.111 52.5904 159.069 44.0099 157.567ZM85.8298 67.5628C88.2398 67.0539 90.6847 67.178 93.2344 67.9476C89.5438 68.469 86.3537 69.884 83.7109 72.1803C75.8172 79.0693 70.4384 94.6347 67.9818 117.524C68.0517 110.026 68.6454 101.201 70.5665 92.0405C72.5923 82.8924 76.9815 74.6256 83.0938 68.4069C83.9786 68.0469 84.8868 67.7614 85.8298 67.5628ZM90.1841 166.504C89.7184 167.323 89.241 168.167 88.7288 169.011C87.2036 171.32 85.7599 173.244 83.5828 173.455C79.927 173.678 77.6335 169.88 75.6193 166.541C74.6413 164.89 73.5935 163.45 72.4525 162.159C75.5495 162.346 78.658 162.457 81.7549 162.519C85.5737 162.569 89.2061 162.519 92.6989 162.383C91.7791 163.686 90.9874 165.076 90.1841 166.504ZM93.6652 161.104C89.8814 161.278 85.9346 161.328 81.7666 161.278C78.2272 161.204 74.6996 161.067 71.1602 160.831C69.8679 159.602 68.4592 158.535 66.8874 157.629C66.1656 157.219 64.5473 156.599 62.7776 155.978C71.4862 156.797 86.4003 157.927 94.2008 157.927C94.2124 157.927 94.2124 157.927 94.224 157.927L94.7247 157.914C95.3766 157.889 96.2266 157.865 97.2511 157.815C96.9717 158.014 96.6923 158.212 96.4245 158.411C95.365 159.242 94.4569 160.136 93.6652 161.104ZM97.2162 63.1688C101.396 65.4279 114.133 72.3169 121.875 108.053C122.865 112.645 124.11 118.343 126.043 123.593C127.801 128.36 130.362 132.605 133.89 136.565C135.706 138.6 137.22 140.499 137.523 143.243C137.849 146.284 137.034 149.287 135.299 151.485C133.483 153.781 130.327 154.923 127.475 155.73C122.154 157.244 117.288 158.336 112.165 159.193C106.74 160.099 101.221 160.707 95.3417 161.03C95.8773 160.471 96.4594 159.937 97.1114 159.441C97.9613 158.808 98.8345 158.225 99.7193 157.703C105.704 157.356 115.006 156.487 123.808 154.079C126.8 153.26 130.886 152.142 133.331 149.362C135.427 146.979 135.846 144.298 134.565 141.616C133.797 140.003 132.411 138.265 131.073 136.589C130.106 135.373 129.198 134.231 128.569 133.213C126.125 129.229 123.423 124.437 121.887 119.013C120.361 113.626 118.964 108.102 117.73 103.224C116.089 96.7076 113.632 89.769 110.221 82.0111C108.463 77.9894 103.794 67.3394 89.5554 60.1897C92.1284 60.8104 94.748 61.8282 97.2162 63.1688ZM89.0664 61.2945C102.921 68.2455 107.462 78.6101 109.173 82.52C112.549 90.2159 114.983 97.0924 116.613 103.535C117.847 108.425 119.255 113.961 120.781 119.361C122.364 124.934 125.112 129.824 127.603 133.871C128.267 134.963 129.21 136.13 130.199 137.371C131.492 138.997 132.831 140.673 133.541 142.15C134.6 144.36 134.239 146.495 132.493 148.493C130.281 151.013 126.381 152.08 123.54 152.862C116.1 154.898 108.288 155.829 102.467 156.263C105.075 155.047 107.671 154.215 109.895 153.582C112.712 152.775 115.588 152.006 118.371 151.261L119.349 151C120.85 150.591 122.457 150.169 124.075 149.722C124.262 149.672 124.46 149.623 124.658 149.561C125.938 149.213 127.265 148.853 128.465 148.208C130.374 147.165 131.294 144.968 130.712 142.883C130.351 141.443 129.443 140.549 128.022 140.214C128.011 140.214 127.999 140.214 127.987 140.201C127.196 140.065 126.439 140.189 125.705 140.326C125.694 140.326 125.682 140.326 125.67 140.338C124.727 140.574 123.819 140.946 122.958 141.294C122.119 141.641 121.328 141.964 120.501 142.175C118.522 142.684 116.508 143.143 114.54 143.54C110.582 144.322 106.565 144.869 102.607 145.166C90.3122 146.097 79.1004 146.097 68.3544 145.166C59.2849 144.273 51.0303 142.932 43.3579 141.12C48.9347 141.468 54.5697 141.368 60.2861 141.194C60.484 141.194 60.6703 141.07 60.7751 140.897C61.6367 139.345 64.4891 133.312 64.6986 120.614C64.8151 118.392 64.9082 116.133 64.9897 113.961C65.3157 105.57 65.6417 96.9062 67.9353 88.4905C69.8912 81.2291 73.6284 76.351 75.142 74.5884C76.7137 72.7637 78.2854 71.3114 79.927 70.1943C78.1923 72.2548 76.6322 74.4891 75.2468 76.8847C72.6155 81.4277 70.6712 86.4424 69.4954 91.7798C66.4799 106.178 66.7011 119.745 67.1319 128.695C67.1319 128.757 67.1436 128.807 67.1552 128.856C67.2018 128.956 67.2716 129.03 67.3531 129.092C67.4463 129.154 67.5511 129.191 67.6675 129.191C67.9702 129.191 68.2263 128.943 68.2496 128.608C68.2496 128.596 68.2496 128.583 68.2496 128.571C70.0076 99.9846 75.6193 80.7823 84.4793 73.074C87.5878 70.3681 91.3716 69.0027 96.0403 68.891C96.3197 68.891 96.5525 68.68 96.5991 68.3945C96.6457 68.109 96.506 67.8235 96.2615 67.7118C92.5475 66.0113 89.0664 65.552 85.6202 66.2843C85.4689 66.3216 85.3292 66.3464 85.1778 66.3836C85.3641 66.2099 85.562 66.0485 85.7483 65.8871C85.7716 65.8747 85.7949 65.8499 85.8065 65.8251L86.0859 65.5148C87.157 64.3356 88.4028 62.9329 89.0664 61.2945Z" fill="#E1E1E1"/>
</g>
<defs>
<clipPath id="clip0_652_22609">
<rect width="174" height="174" fill="white"/>
</clipPath>
</defs>
</svg>
