<svg width="439" height="239" viewBox="0 0 439 239" fill="none" xmlns="http://www.w3.org/2000/svg">
<path d="M0.263672 237.93C27.8988 237.917 55.5339 237.904 82.7874 237.694C83.4586 235.597 82.5835 232.825 84.3074 231.442C84.7351 231.095 85.2746 230.911 85.8141 230.8C88.7092 230.21 92.2426 231.029 94.8285 232.458C95.9339 233.067 97.0393 233.677 98.1513 234.286C99.0658 234.791 100.125 235.774 99.5856 236.665C99.3685 237.019 98.9606 237.196 98.5658 237.327C94.7824 238.631 85.0443 237.923 84.439 237.452C83.1691 236.462 83.3336 234.542 83.5704 232.956C84.9785 223.414 83.8007 211.389 86.4458 197.411C86.0839 187.24 85.6365 179.665 86.5774 168.459C88.9856 168.623 91.3872 168.78 93.7954 168.944C94.5784 159.179 94.1771 151.119 94.9601 141.348C95.0982 139.624 95.2364 137.894 95.572 136.203C95.9141 134.487 96.4603 132.802 96.6774 131.066C96.9735 128.726 96.6642 126.354 96.3615 124.014C95.9536 120.921 96.7366 116.118 95.5522 112.402C92.8085 112.756 89.9199 113.175 87.7552 114.892C86.1168 116.19 85.0969 118.097 84.2547 120.01C82.5177 123.969 81.3991 128.156 80.2871 132.33C79.3988 135.653 78.5106 138.989 78.0237 142.396C77.642 145.07 77.5104 147.77 77.3854 150.47C77.1288 155.765 76.8788 161.067 76.6222 166.362C78.55 166.637 80.4582 167.089 82.9059 168.177C83.452 170.844 82.0637 176.663 81.2017 175.916C79.8989 174.776 81.9715 169.258 81.5044 170.923C81.0109 172.679 80.728 176.598 78.3724 178.04C77.2867 178.708 75.6484 178.95 74.9114 177.915C74.4048 177.207 75.7536 174.802 75.9445 173.95C76.6156 170.923 76.0958 169.337 76.7669 166.309C78.4711 166.598 80.1818 166.892 81.886 167.181C82.0834 167.214 82.3071 167.24 82.465 167.128C82.6164 167.017 82.669 166.814 82.7019 166.63C84.0902 159.776 85.018 152.829 85.8668 145.267C87.5512 138.799 90.42 115.987 90.42 122.671C90.42 128.962 87.5841 137.789 86.7485 143.91C86.4326 146.217 86.2287 148.53 86.0247 150.85C85.5115 156.682 84.9983 162.521 84.4784 168.354C86.2089 168.681 87.9657 168.845 89.7225 168.845C90.2094 168.845 90.7227 168.826 91.1504 168.583C91.6702 168.288 91.9597 167.712 92.1965 167.161C93.598 163.95 94.335 160.457 94.585 156.401C99.533 156.768 104.52 156.591 109.916 155.175C109.561 148.891 106.968 142.862 106.606 136.57C106.554 135.594 106.494 134.618 106.613 133.648C106.758 132.475 107.159 131.347 107.389 130.188C108.231 126.02 106.205 118.523 105.35 118.844C105.185 118.274 105.185 117.651 105.363 117.074C104.672 118.234 103.185 118.857 101.869 118.542C102.928 115.43 104.356 113.169 103.007 108.824C101.803 109.093 100.487 108.87 99.4409 108.214C100.579 108.568 101.75 108.922 102.948 108.863C104.139 108.804 105.382 108.247 105.922 107.186C106.238 106.57 106.29 105.855 106.317 105.167C106.435 102.362 106.258 99.551 105.429 96.8904C103.941 95.2062 102.132 93.3844 99.8817 93.4827C99.3356 95.1472 98.2171 96.5496 97.3025 98.0372C96.3879 99.5313 95.6444 101.275 95.9865 102.991C96.276 102.212 96.0391 101.261 95.4075 100.711C94.7758 100.16 93.802 100.049 93.0651 100.436C92.894 100.527 92.7361 100.645 92.6374 100.809C92.4597 101.111 92.5453 101.491 92.6637 101.818C93.0914 102.946 93.9731 103.889 95.6575 104.813C96.0786 106.773 96.3615 108.758 96.4997 110.757C96.526 111.124 96.5392 111.524 96.3352 111.832C96.1181 112.166 95.697 112.31 95.3088 112.409C94.2034 112.697 93.0651 112.854 91.9268 112.867C92.5453 112.363 92.9137 111.563 92.8874 110.764C92.9401 111.943 92.032 112.998 90.9595 113.496C89.887 113.994 88.6632 114.053 87.4788 114.099C89.104 112.52 89.7752 110.2 90.0055 107.952C90.2358 105.705 90.1042 103.424 90.42 101.189C90.8937 97.8275 92.4137 94.6229 94.7232 92.1261C95.5128 91.2742 96.6248 90.442 97.7302 90.7893C97.9868 90.8679 98.2236 91.0055 98.4868 91.0383C98.9869 91.0973 99.4343 90.7631 99.8752 90.514C102.343 89.1247 105.659 90.4747 107.271 92.8011C108.883 95.121 109.166 98.1027 109.14 100.921C109.113 103.739 108.83 106.615 109.501 109.355C110.166 112.068 110.284 115.456 109.199 117.782C107.797 118.051 106.284 117.69 105.146 116.825C104.007 115.96 103.27 114.597 103.158 113.182C102.441 114.171 101.56 115.043 100.553 115.751C99.0132 114.578 97.4275 113.457 95.8023 112.395C95.6444 114.381 96.3287 116.419 97.6446 117.92C97.7828 118.077 97.9407 118.241 98.1513 118.267C98.3618 118.3 98.5658 118.195 98.75 118.084C99.612 117.573 100.402 116.937 101.086 116.203C101.152 116.131 101.244 116.059 101.329 116.098C101.415 116.137 101.31 116.308 101.336 116.157C102.119 117.002 103.033 117.894 104.192 117.939C105.225 117.979 106.159 117.297 106.784 116.478C107.402 115.659 107.791 114.683 108.31 113.798C108.639 113.241 109.074 112.671 109.705 112.526C110.502 112.336 111.271 112.874 111.903 113.392C115.226 116.124 118.174 119.303 120.884 123.235C121.766 123.936 122.523 124.788 123.122 125.738C122.885 125.744 122.641 125.751 122.404 125.758C122.168 125.266 122.575 124.722 122.957 124.335C127.056 120.122 131.412 116.15 135.992 112.461C135.834 114.512 136.064 116.596 136.597 119.027C133.629 123.49 130.155 127.619 126.26 131.308C125.497 132.029 124.648 132.77 123.602 132.874C122.411 132.999 121.325 132.278 120.351 131.59C118.167 130.043 115.989 128.503 113.068 127.37C113.212 140.096 113.706 152.816 114.535 165.516C113.14 166.145 111.745 166.113 110.35 166.742C110.317 162.947 109.712 152.259 110.251 156.014C111.817 166.879 114.667 189.999 112.877 197.45C109.955 209.62 110.469 215.852 107.021 230.223C104.968 230.001 102.935 229.594 99.5067 228.172C100.27 215.983 101.5 207.759 103.191 195.334C102.277 189.278 101.356 179.285 100.441 173.229C100.165 171.381 100 169.193 101.415 167.967C100.165 173.177 99.3225 178.479 98.4934 183.774C97.3025 191.362 96.1313 198.951 94.9601 206.54C93.8415 213.781 92.7229 221.023 91.6044 228.264C91.3675 229.778 91.1964 231.508 92.1965 232.668C90.8411 232.982 89.4659 231.927 88.9461 230.643C88.4263 229.358 88.5513 227.91 88.7027 226.534C89.637 218.041 91.3412 209.626 93.7823 201.435C94.6377 198.564 95.5917 195.707 96.0457 192.745C96.5787 189.298 96.4339 185.779 96.8156 182.306C97.2959 177.869 98.6316 173.524 100.737 169.579C103.303 172.037 102.632 176.205 103.487 179.645C104.349 183.125 106.909 186.113 107.225 189.685C107.429 191.978 106.666 194.233 106.034 196.454C104.369 202.293 103.527 208.362 103.507 213.44C102.751 219.279 101.303 225.033 99.2172 230.538C98.9277 231.305 98.6184 232.137 98.829 232.93C98.9737 233.474 99.3554 233.926 99.7699 234.306C101.632 236.003 104.29 236.475 106.804 236.704C109.087 236.908 111.377 236.973 113.666 236.895C114.357 236.868 115.239 236.672 115.344 235.99C115.403 235.597 115.153 235.23 114.897 234.929C112.89 232.543 109.83 231.35 106.902 230.282C105.192 230.551 103.553 231.233 102.152 232.248C102.461 234.188 104.053 235.728 105.856 236.521C107.659 237.307 109.672 237.465 111.64 237.576C120.707 238.081 136.163 238.192 150.421 237.478C183.833 238.992 217.331 238.769 250.717 236.822C253.717 236.646 256.922 236.383 259.297 234.548C262.251 232.268 263.1 228.172 263.047 224.45C262.995 220.728 264.232 43.9661 264.758 40.814C264.883 36.692 264.745 32.5634 264.357 28.4545C264.186 26.6917 263.955 24.883 263.074 23.3495C261.304 20.2826 257.409 19.1292 253.855 18.9981C250.302 18.8671 161.159 20.7872 157.672 19.8763C153.652 20.2302 149.651 20.9052 145.736 21.8881C144.605 22.1699 143.447 22.5042 142.552 23.2447C141.308 24.2735 140.788 25.9184 140.433 27.4912C139.005 33.7823 139.887 105.187 140.315 111.943C140.255 113.077 140.459 114.217 140.42 115.351C140.387 116.491 140.065 117.697 139.196 118.431C138.327 119.165 136.801 119.178 136.169 118.228C135.834 117.717 135.814 117.074 135.801 116.465C135.781 115.253 135.761 114.04 135.742 112.828C135.735 112.415 135.728 111.989 135.853 111.589C136.005 111.098 136.334 110.685 136.623 110.259C137.288 109.27 137.722 108.129 137.887 106.95C137.972 106.34 137.998 105.698 138.308 105.174C138.617 104.649 139.347 104.289 139.861 104.623C140.249 112.54 140.558 216.796 140.973 226.711C140.729 230.499 141.025 235.23 144.506 236.763C145.736 237.307 147.138 237.294 148.487 237.275C179.991 236.816 211.488 236.357 242.992 235.898C247.315 235.833 254.487 235.715 258.224 233.546C261.962 231.377 264.442 226.429 262.389 222.635C235.149 221.671 197.447 223.768 142.183 222.792C142.223 182.502 141.604 76.0313 141.756 34.5818C181.794 34.0969 221.825 33.612 263.251 34.0248C263.172 43.4025 262.442 89.4786 262.324 99.8656C260.646 102.264 259.915 105.678 261.356 108.228C262.646 110.508 277.957 102.428 283.293 99.2495C278.661 99.3741 302.368 108.542 308.599 124.63C300.69 125.017 293.19 131.459 285.642 129.08C283.215 128.313 281.155 126.701 278.852 125.633C276.161 124.381 273.128 123.89 270.173 124.218C268.805 124.368 267.226 124.912 266.877 126.236C266.489 127.724 267.91 129.015 269.173 129.906C277.924 136.059 285.642 144.284 294.315 147.298C302.033 149.978 310.665 145.267 318.765 146.354C324.18 147.082 329.253 149.415 335.563 153.93C340.531 138.766 347.881 124.381 357.27 111.458C362.758 113.228 367.989 115.783 372.752 119.027C365.89 132.213 359.033 145.398 352.171 158.583C351.756 159.382 351.296 160.228 350.506 160.673C349.591 161.191 348.46 161.053 347.42 160.896C344.966 160.529 342.512 160.156 340.057 159.789C338.952 159.625 337.774 159.422 336.965 158.662C335.379 157.174 336.05 154.572 336.86 152.56C341.88 140.103 348.058 128.117 355.303 116.799C355.783 116.052 356.283 115.233 356.23 114.348C356.152 113.031 354.908 112.133 353.809 111.399C344.88 105.449 337.195 97.6637 331.379 88.6791C329.47 85.7301 327.661 82.5518 324.753 80.5727C319.982 77.3288 313.639 78.1415 307.941 79.0786C304.54 79.6422 301.138 80.1992 297.736 80.7628C302.355 82.8008 307.454 79.8256 312.435 80.6448C320.64 81.9948 302.599 79.4718 297.716 80.2057C285.182 82.0996 272.72 87.86 264.844 98.1355C264.159 100.534 263.712 103.634 265.778 105.036C267.41 106.144 269.607 105.436 271.437 104.695C274.766 103.352 278.095 102.002 281.418 100.659C279.944 104.04 276.569 106.904 276.944 110.574C277.273 113.85 279.135 116.649 281.991 118.313C285.142 120.148 297.197 126.17 300.783 125.856C303.638 125.607 308.376 125.993 307.349 123.326C306.606 121.393 305.704 117.271 303.724 116.635C300.032 115.456 293.051 114.276 289.36 113.097C292.209 114.027 295.598 111.504 295.111 108.509C292.801 105.2 289.643 101.491 285.629 102.028C284.379 102.199 283.208 102.795 282.254 103.614C280.971 104.715 280.076 106.196 278.905 107.415C276.444 109.984 272.733 111.314 269.193 110.895C268.061 108.404 266.633 106.045 264.956 103.883C264.107 107.074 263.258 110.266 262.409 113.451C259.343 114.473 256.237 115.364 253.092 116.118C255.724 117.573 258.481 118.818 261.317 119.833C261.014 123.602 260.712 127.376 260.416 131.144C263.001 128.045 264.666 125.463 267.252 122.363C270.298 123.385 274.259 123.89 277.306 124.912C275.714 120.875 275.312 121.321 273.463 117.265C274.713 114.683 276.365 112.291 278.352 110.213C278.352 109.8 277.714 109.833 277.345 110.01C275.575 110.869 273.812 111.727 272.042 112.585C269.607 113.765 266.89 115.305 266.39 117.953C265.719 116.694 264.291 116 262.876 115.816C261.462 115.626 260.027 115.862 258.613 116.032C254.81 116.472 250.947 117.055 246.618 116.609C244.427 116.131 242.236 115.652 240.051 115.174C239.117 112.356 237.978 109.597 236.656 106.937C235.649 109.591 234.741 112.277 233.925 114.991C231.379 115.954 228.773 116.76 226.128 117.402C227.885 118.451 229.708 119.375 231.596 120.168C230.622 123.077 230.175 126.164 230.273 129.231C232.675 127.448 234.866 125.908 236.787 123.615C239.294 125.253 241.15 127.684 243.657 129.323C242.841 126.727 242.815 124.008 241.992 121.413C241.913 121.157 241.828 120.875 241.92 120.62C241.999 120.397 242.196 120.24 242.387 120.096C243.44 119.283 245.67 117.953 246.67 117.317C244.486 117.363 242.301 117.409 240.117 117.455C239.729 117.461 239.334 117.474 238.972 117.618C237.801 118.09 237.531 119.722 236.439 120.351C235.643 119.597 234.846 118.837 234.05 118.084C233.774 117.822 233.484 117.553 233.129 117.422C232.767 117.291 232.372 117.31 231.984 117.33C228.872 117.5 224.779 117.998 220.93 118.365C221.187 117.815 222.43 116.937 222.687 116.386C220.226 116.576 217.68 116.465 215.226 116.183C214.206 113.051 213.66 111.209 212.409 108.162C210.916 111.216 210.205 113.09 208.968 116.255C206.336 116.544 204.889 116.642 202.25 116.93C204.211 118.51 204.915 119.303 206.876 120.882C205.81 123.962 204.987 125.928 204.283 129.113C208.975 126.256 208.771 125.718 211.791 123.307C216.186 126.465 216.989 127.73 219.937 129.427C218.923 122.455 216.969 121.616 217.127 121.124C217.292 120.6 219.654 119.512 220.476 118.634C220.476 118.634 221.016 118.025 220.812 118.025C218.43 118.221 216.048 118.418 213.666 118.614C213.199 119.663 212.534 120.62 211.718 121.432C211.028 120.2 210.225 118.87 208.889 118.398C208.225 118.162 207.501 118.175 206.797 118.189C204.382 118.234 200.382 118.542 197.861 118.647C198.48 118.031 199.092 117.422 199.71 116.806C196.927 116.78 194.006 116.622 191.222 116.596C190.814 113.772 190.203 111.131 189.15 108.483C187.63 111.078 187.051 114.099 186.13 116.963C183.689 117.304 180.853 117.507 178.418 117.848C180.274 119.178 182.024 119.729 183.662 121.321C182.945 123.955 181.55 126.754 181.063 129.434C183.353 127.265 186.557 125.489 188.847 123.32C190.782 125.312 193.492 127.573 195.657 129.316C195.552 126.714 194.92 123.615 193.828 121.249C194.986 120.325 195.749 119.919 196.888 118.981C194.94 119.04 192.992 119.093 191.051 119.152C190.801 119.158 190.532 119.172 190.314 119.296C190.124 119.407 189.985 119.597 189.86 119.781C189.327 120.554 188.801 121.328 188.268 122.094C187.242 121.059 186.209 120.023 185.182 118.988C182.162 119.27 179.135 119.447 176.168 119.774C174.865 119.971 173.529 119.964 172.233 119.755C173.2 119.054 174.168 118.359 175.128 117.658C172.2 117.527 169.279 117.265 166.371 116.884C165.805 114.008 165.12 111.157 164.324 108.332C162.785 111.085 161.488 113.981 160.468 116.963C158.258 117.186 156.067 117.566 153.908 118.084C155.455 119.689 157.258 121.046 159.225 122.094C158.291 124.735 157.633 127.468 157.264 130.24C159.639 128.34 161.903 126.301 164.048 124.145C165.778 126.242 167.858 128.051 170.18 129.473C170.114 126.714 169.792 123.955 169.22 121.255C169.845 121.079 170.417 120.738 170.753 120.515C170.976 120.141 171.2 119.774 171.424 119.401C168.937 119.643 166.45 119.879 163.962 120.122C163.89 121.426 163.245 122.684 162.238 123.516C161.554 122.003 160.745 120.358 159.218 119.683C158.258 119.257 157.165 119.289 156.113 119.335C151.421 119.525 146.73 119.715 141.65 120.345C141.519 110.239 142.519 100.115 144.624 90.2257C145.697 85.1862 147.085 80.1402 149.651 75.6643C151.704 72.0797 154.468 68.9472 157.422 66.0572C178.945 45.0278 210.574 36.8886 240.716 37.6815C247.552 37.8585 256.336 37.4653 260.001 43.5402C264.692 51.2992 262.613 61.4372 262.659 70.4938C262.765 93.7776 262.337 197.673 261.1 220.328C259.363 223.611 258.573 227.884 255.237 229.529C253.665 230.302 251.835 230.295 250.105 230.584C247.486 231.01 244.993 232.15 242.959 233.847C242.558 234.181 242.15 234.575 242.018 235.079C241.808 235.892 242.407 236.737 243.163 237.098C243.92 237.465 244.795 237.465 245.637 237.458C253.197 237.406 430.446 237.884 438 237.576" stroke="#131E29" stroke-miterlimit="10" stroke-linecap="round" stroke-linejoin="round"/>
<path d="M109.5 36.21C122.5 -8.78995 179.5 18.21 200 1.70996" stroke="#009F4D" stroke-width="2"/>
<path d="M-1.5 219.21C71.2744 197.324 27.5 87.21 94.5 52.21" stroke="#FF6A39" stroke-width="2"/>
<path d="M357 85.71C438.5 107.71 350.501 227.21 438.5 227.21" stroke="#A05EB5" stroke-width="2"/>
</svg>
