<svg width="461" height="517" viewBox="0 0 461 517" fill="none" xmlns="http://www.w3.org/2000/svg">
<mask id="mask0_388_5082" style="mask-type:alpha" maskUnits="userSpaceOnUse" x="0" y="0" width="457" height="517">
<rect width="457" height="517" rx="3" fill="#1A2530"/>
</mask>
<g mask="url(#mask0_388_5082)">
<path d="M532.5 505C437.661 458.719 356.5 522.5 235.824 490.345C221.341 490.345 224.705 475.834 227.651 465.466C230.931 453.986 230.181 454.208 240.855 456.404C252.308 458.767 290.864 463.214 296.562 463.048C300.788 462.909 308.905 461.991 315.604 461.741C326.306 461.324 335.257 466.216 343.402 472.86C349.99 478.225 350.379 485.814 341.456 484.896C338.037 484.535 333.923 483.979 331.477 483.284C323.082 480.921 341.401 479.559 341.262 486.286C341.178 490.789 339.483 489.955 334.423 488.482C331.699 487.676 329.559 486.647 327.251 485.869C316.494 482.2 276.548 485.035 261.926 484.312C253.976 483.923 245.053 484.118 240.077 484.118C227.262 484.118 225.149 481.449 229.542 469.608C233.405 459.156 226.734 451.095 217.31 447.509C205.941 443.172 186.649 441.449 182.285 439.42C177.115 437.029 144.841 430.274 137.391 430.191C129.941 430.08 120.407 428.607 114.152 429.107C107.897 429.607 97.4732 432.081 101.031 432.971C103.311 433.527 104.2 431.331 105.479 429.635C107.675 426.661 116.682 427.272 120.101 427.606C128.941 428.523 138.281 427.884 147.148 429.441C151.346 430.163 159.018 433.221 162.104 429.802C167.218 424.131 172.055 403.256 188.901 412.234C195.267 415.598 199.631 418.989 206.97 420.573C214.308 422.158 242.523 419.183 255.811 417.404C269.126 415.625 272.1 414.43 274.88 414.041C277.66 413.652 294.533 408.871 303.873 407.481C313.213 406.091 330.893 403.895 336.842 405.09C342.791 406.285 351.742 411.845 352.131 409.26C352.52 406.675 339.816 406.48 333.172 406.285C312.324 405.674 293.699 413.151 273.407 416.126C269.348 416.709 263.566 417.627 260.397 418.21C257.228 418.794 234.99 421.991 231.599 422.686C223.621 424.326 223.871 431.664 224.038 438.975C224.343 452.095 219.757 446.286 209.833 443.256C197.268 439.42 184.954 440.615 170.804 434.611C163.132 431.359 167.246 422.741 172.417 417.988C178.782 412.178 193.098 415.069 199.186 420.017C202.855 422.992 201.771 423.492 209.027 424.381C217.588 425.438 225.038 420.406 223.231 430.052C222.648 433.221 221.341 440.17 221.953 443.061C223.398 450.038 227.234 450.956 233.127 452.262C240.16 453.791 251.863 455.931 260.23 457.432C280.662 461.046 300.704 459.267 321.442 459.656C344.292 460.101 426.157 455.153 408.811 412.79C403.446 399.67 394.106 394.722 381.791 391.33C369.477 387.967 343.263 389.746 324.805 391.914C289.863 396.056 301.149 406.007 283.553 368.37C275.186 350.496 277.465 356.917 263.65 359.141C250.029 361.309 194.182 365.006 177.67 354.165C170.248 349.301 175.169 340.517 173.862 331.733C171.749 317.362 164.828 311.469 184.981 311.469C189.512 311.469 212.835 309.328 229.986 309.634C242.245 309.857 263.427 315.444 272.545 308.884C287.195 298.348 282.552 253.873 278.077 238.251C275.519 229.244 273.129 218.542 271.739 214.567C264.178 192.58 257.701 181.016 274.908 181.989C281.857 182.378 306.681 186.742 315.02 200.863C323.36 214.956 323.165 236.805 322.164 243.171C314.548 291.927 345.96 350.997 392.076 370.455C407.56 376.987 414.398 373.679 428.297 378.321C432.383 379.683 436.136 381.018 437.554 381.073C451.369 381.601 439.111 387.717 434.274 388.023C427.908 388.412 427.435 388.606 425.128 387.022C422.849 385.437 421.348 379.767 423.433 381.852C425.517 383.936 429.187 388.495 424.628 389.885C420.069 391.275 416.177 391.164 412.619 389.301C409.033 387.411 404.085 382.852 408.255 384.048C412.425 385.243 411.618 389.996 410.34 392.581C409.061 395.166 407.254 401.31 409.951 405.479C412.619 409.649 410.951 408.954 414.815 409.955C418.679 410.955 420.681 409.065 421.765 410.65C422.849 412.234 429.715 412.623 431.689 410.955C433.662 409.288 435.052 410.066 436.553 411.261C438.054 412.456 442.113 412.651 443.697 411.15C445.282 409.649 446.477 410.26 448.062 411.456C449.646 412.651 451.342 410.955 452.537 408.982C453.315 407.703 454.65 402.894 455.4 398.975C456.957 390.83 450.786 386.883 448.479 396.89C447.895 399.419 447.45 402.005 447.45 403.144C447.45 404.923 447.144 408.898 448.645 408.009C450.146 407.119 448.145 405.118 447.144 399.364C446.143 393.61 447.339 389.635 445.059 388.94C442.78 388.245 441.001 388.44 440.501 393.61C440 398.78 438.221 404.034 437.415 405.424C436.609 406.814 435.219 409.399 437.415 407.898C439.611 406.397 436.22 405.118 436.22 400.837C436.22 396.556 438.11 395.166 436.525 392.609C434.941 390.024 430.855 389.718 430.16 392.998C429.465 396.278 428.575 399.864 425.99 402.227C423.405 404.618 420.736 407.981 423.016 407.203C425.295 406.424 423.405 402.449 425.406 398.975C427.38 395.5 429.187 393.804 427.602 392.609C426.018 391.414 422.543 390.636 420.458 395C418.373 399.364 415.482 402.95 412.925 403.533C410.34 404.117 410.256 409.899 399.804 404.34C395.134 401.838 391.465 398.725 388.629 395.945C374.897 382.435 359.33 381.74 340.817 374.263C324.166 367.536 304.818 350.496 301.094 331.872C294.756 300.239 290.086 286.507 288.473 252.538C288.084 244.199 292.838 233.581 294.227 236.944C295.617 240.308 288.779 250.148 285.499 248.869C282.219 247.591 281.913 244.505 281.135 242.615C280.328 240.725 271.211 203.587 269.821 195.054C267.514 180.96 250.89 160.363 256.506 188.493C257.117 191.523 259.23 208.785 258.424 221.211C256.645 248.814 187.761 258.376 182.229 221.044C181.423 215.679 187.594 191.245 189.763 183.323C192.431 173.566 199.075 173.288 199.408 157.194C199.547 150.55 198.658 144.462 197.296 142.016C195.322 138.43 194.127 132.287 192.737 129.897C191.347 127.506 193.543 124.838 193.821 126.922C194.127 129.007 193.126 130.008 190.736 129.313C181.896 126.728 178.282 96.7345 187.289 105.268C189.679 107.52 191.792 110.994 189.929 111.133C187.15 111.328 189.929 101.404 189.929 98.6247C189.929 96.3453 192.709 83.9755 198.964 77.1652C206.719 68.687 228.04 69.0205 237.603 73.2179C245.748 76.8038 252.113 85.7267 253.698 92.4815C257.784 109.855 260.647 106.686 261.398 92.2869C261.982 81.0012 258.618 63.878 244.969 55.3443C228.346 44.9481 218.812 49.0621 213.085 50.6743C203.912 53.2595 206.469 39.3608 212.001 39.5554C217.95 39.75 229.875 39.5554 235.435 41.1398C247.61 44.6145 249 36.1919 241.244 32.0223C238.214 30.3823 233.6 29.0202 227.095 28.2141C212.891 26.4629 197.796 35.9973 221.147 37.137C229.097 37.5262 231.682 38.1377 236.046 38.916C245.776 40.6951 245.692 53.3707 238.326 49.5346C236.046 48.3393 231.487 46.9495 227.79 46.9495C211.64 46.9495 194.238 56.4562 188.567 72.5786C186.177 79.3334 183.897 93.232 185.287 95.9006C186.677 98.5691 187.872 97.4016 189.151 92.5371C190.43 87.6725 191.236 69.7989 218.839 68.409C246.443 67.0191 254.977 86.8664 255.977 92.0367C256.978 97.207 259.841 114.275 257.479 112.69C255.088 111.106 259.174 105.129 262.343 104.462C265.512 103.795 264.817 109.132 263.427 114.58C262.037 120.029 258.757 122.53 256.978 127.2C255.199 131.87 251.224 128.785 252.92 128.396C254.615 128.006 253.809 129.202 252.725 134.344C248.333 155.081 225.566 170.814 207.442 155.081C204.468 152.496 197.351 144.157 200.882 145.352C203.161 146.13 203.828 151.523 203.05 157.583C201.994 165.811 196.351 180.516 186.788 180.516C182.618 180.516 180.033 184.296 179.255 186.464C178.477 188.632 169.331 218.626 168.719 220.627C168.108 222.629 162.965 240.891 161.965 246.256C161.27 249.953 160.325 256.93 158.74 259.96C154.153 268.8 146.592 230.189 152.43 233.942C156.071 236.277 154.932 255.235 153.292 270.551C149.956 301.378 139.393 333.651 124.632 360.225C122.658 363.811 107.342 381.073 95.444 389.023C83.5186 396.973 76.3746 400.948 72.594 403.728C68.8135 406.508 62.6701 410.483 56.499 415.848C50.3556 421.213 47.548 421.602 44.0733 426.883C40.5985 432.137 36.5122 431.442 34.7332 429.969C32.9541 428.468 32.1479 429.163 28.8678 430.275C25.5876 431.359 21.5291 430.858 20.1392 428.579C18.7493 426.299 18.4435 424.798 16.0807 426.105C13.6901 427.384 11.2161 424.215 7.7413 424.02C4.26655 423.826 2.57087 426.216 1.48675 422.936C0.736206 420.712 1.01419 414.208 1.26437 409.482C1.68134 401.337 7.93589 394.638 9.1312 407.203C9.46478 410.705 9.46478 414.708 9.32579 415.987C9.1312 417.96 10.5211 423.325 8.63084 420.657C6.74057 417.988 10.7157 416.181 10.7157 412.206C10.7157 408.231 12.1056 403.061 14.3016 400.003C19.3887 392.831 18.9439 406.869 18.6659 409.538C18.2767 413.513 17.276 417.293 17.276 419.378C17.276 421.463 17.3872 424.354 16.2753 422.547C15.1634 420.74 20.1392 417.377 20.2504 413.818C20.306 411.845 20.7508 409.732 21.3067 407.87C24.0309 398.613 29.0902 403.367 28.6176 409.816C28.3396 413.624 27.6169 418.127 28.006 420.851C28.5064 424.437 28.8122 429.885 27.6169 428.301C26.4216 426.716 32.6761 427.3 33.1765 424.715C33.6768 422.13 30.2855 419.85 31.0916 415.181C31.8978 410.511 35.6505 411.9 37.3462 416.181C39.0418 420.462 42.2108 428.495 40.4317 426.911C38.6527 425.327 39.9314 420.073 42.7112 416.682C45.491 413.318 46.8809 402.477 48.2708 405.062C49.6607 407.647 44.796 409.121 40.4317 409.538C36.0675 409.927 31.9812 408.259 30.3967 404.757C28.8122 401.282 25.7266 400.087 23.5584 400.003C18.9439 399.781 17.6096 388.384 30.3967 392.748C34.1772 394.027 39.7368 393.749 42.0996 395.528C44.4625 397.307 47.3534 393.332 48.7433 392.164C50.1332 390.969 70.676 370.121 71.4821 367.731C72.0937 365.924 86.6598 348.745 95.9165 337.348C109.065 321.17 122.575 279.835 118.544 261.1C115.375 246.395 118.933 207.09 132.443 196.749C145.953 186.436 166.801 184.435 170.777 185.241C180.395 187.159 162.91 224.658 161.631 233.886C154.876 283.366 167.385 273.664 167.385 302.212C167.385 308.772 171.166 308.967 175.919 308.355C180.673 307.772 229.542 308.55 235.879 308.161C242.217 307.772 253.559 307.577 257.534 307.577C261.509 307.577 273.824 303.991 273.018 318.307C272.211 332.595 269.654 339.544 271.433 346.299C273.212 353.054 269.042 354.638 263.483 355.833C257.923 357.029 250.779 359.419 242.44 359.419C234.1 359.419 228.152 359.225 219.395 359.808C210.667 360.392 203.495 358.808 195.962 357.223C188.428 355.639 183.953 351.858 179.867 352.053C169.359 352.581 168.636 355.722 164.55 364.117C160.547 372.289 155.21 384.576 153.848 391.581C151.874 401.893 148.677 404.089 142.534 404.089C136.39 404.089 106.396 406.285 92.8866 407.87C73.7893 410.121 45.4632 416.515 39.4588 438.836C38.0689 444.006 39.848 460.296 51.9679 468.218C64.0878 476.168 79.9605 477.141 87.5216 478.753C95.0548 480.337 139.949 486.898 154.654 486.898C166.718 486.898 198.38 485.563 211.389 485.174C222.147 484.868 226.317 492.568 216.004 494.32C201.271 496.821 180.228 495.821 164.911 495.709C114.291 495.292 1.70914 494.014 1.70914 494.014" stroke="#131E29" stroke-width="1.5" stroke-miterlimit="2.6131"/>
</g>
</svg>
