<svg width="199" height="196" viewBox="0 0 199 196" fill="none" xmlns="http://www.w3.org/2000/svg">
<g clip-path="url(#clip0_524_18958)">
<path d="M198.988 195.465C158.546 194.117 138.47 193.582 98.0159 193.582C91.9768 193.582 93.3794 187.513 94.6081 183.176C95.9759 178.374 95.6629 178.467 100.114 179.386C104.89 180.374 120.967 182.234 123.343 182.165C125.105 182.106 128.49 181.723 131.283 181.618C135.746 181.444 139.478 183.49 142.874 186.269C145.622 188.513 145.784 191.687 142.063 191.303C140.637 191.152 138.922 190.919 137.902 190.629C134.401 189.64 142.04 189.071 141.982 191.884C141.947 193.768 141.24 193.419 139.13 192.803C137.994 192.466 137.102 192.035 136.14 191.71C131.654 190.175 114.997 191.361 108.9 191.059C105.585 190.896 101.864 190.977 99.7894 190.977C94.4458 190.977 93.5649 189.861 95.3963 184.908C97.0075 180.537 94.2256 177.165 90.2961 175.665C85.5553 173.852 77.5109 173.131 75.691 172.282C73.535 171.282 60.0775 168.457 56.971 168.422C53.8646 168.375 49.8887 167.759 47.2807 167.969C44.6726 168.178 40.3259 169.213 41.8096 169.585C42.7601 169.817 43.131 168.899 43.6642 168.189C44.5799 166.945 48.3355 167.201 49.7612 167.341C53.4473 167.724 57.3419 167.457 61.0396 168.108C62.7899 168.41 65.9891 169.689 67.2757 168.259C69.4085 165.887 71.4254 157.156 78.4498 160.911C81.1042 162.318 82.924 163.736 85.9841 164.399C89.0442 165.062 100.809 163.818 106.35 163.074C111.902 162.33 113.143 161.83 114.302 161.667C115.461 161.504 122.497 159.504 126.392 158.923C130.286 158.342 137.658 157.423 140.139 157.923C142.619 158.423 146.352 160.748 146.514 159.667C146.676 158.586 141.379 158.505 138.609 158.423C129.915 158.167 122.149 161.295 113.687 162.539C111.995 162.783 109.584 163.167 108.263 163.411C106.941 163.655 97.6682 164.992 96.2541 165.283C92.9273 165.969 93.0317 169.038 93.1012 172.096C93.2287 177.584 91.3161 175.154 87.178 173.886C81.9388 172.282 76.8038 172.782 70.9038 170.271C67.7046 168.91 69.4201 165.306 71.5761 163.318C74.2305 160.888 80.2001 162.097 82.7386 164.167C84.2686 165.411 83.8166 165.62 86.8419 165.992C90.412 166.434 93.5185 164.329 92.7651 168.364C92.5216 169.689 91.9769 172.596 92.2319 173.805C92.8346 176.723 94.4342 177.107 96.8916 177.653C99.8242 178.293 104.704 179.188 108.193 179.816C116.713 181.327 125.07 180.583 133.717 180.746C143.245 180.932 177.382 178.863 170.149 161.144C167.912 155.656 164.017 153.587 158.882 152.168C153.747 150.761 142.816 151.505 135.12 152.412C120.549 154.145 125.256 158.307 117.918 142.565C114.429 135.089 115.38 137.774 109.619 138.705C103.939 139.611 80.6521 141.158 73.7669 136.623C70.672 134.589 72.7237 130.915 72.1789 127.241C71.2979 121.23 68.4117 118.765 76.8154 118.765C78.7048 118.765 88.4299 117.87 95.5818 117.998C100.694 118.091 109.526 120.428 113.328 117.684C119.437 113.277 117.501 94.6749 115.635 88.1408C114.568 84.3738 113.572 79.8976 112.992 78.235C109.839 69.0384 107.138 64.2018 114.313 64.6087C117.211 64.7715 127.562 66.5968 131.04 72.5031C134.517 78.3977 134.436 87.5362 134.019 90.1987C130.843 110.592 143.941 135.298 163.171 143.437C169.627 146.169 172.479 144.785 178.274 146.727C179.978 147.297 181.543 147.855 182.134 147.878C187.895 148.099 182.783 150.657 180.766 150.785C178.112 150.947 177.915 151.029 176.953 150.366C176.002 149.703 175.376 147.331 176.246 148.203C177.115 149.075 178.645 150.982 176.744 151.563C174.843 152.145 173.221 152.098 171.737 151.319C170.242 150.529 168.178 148.622 169.917 149.122C171.656 149.622 171.32 151.61 170.786 152.691C170.253 153.773 169.5 156.342 170.624 158.086C171.737 159.83 171.041 159.539 172.653 159.958C174.264 160.376 175.098 159.586 175.55 160.249C176.002 160.911 178.865 161.074 179.688 160.376C180.511 159.679 181.091 160.004 181.717 160.504C182.343 161.004 184.035 161.086 184.696 160.458C185.357 159.83 185.855 160.086 186.516 160.586C187.176 161.086 187.884 160.376 188.382 159.551C188.707 159.016 189.263 157.005 189.576 155.365C190.225 151.959 187.652 150.308 186.69 154.493C186.446 155.551 186.261 156.633 186.261 157.109C186.261 157.853 186.133 159.516 186.759 159.144C187.385 158.772 186.551 157.935 186.133 155.528C185.716 153.121 186.214 151.459 185.264 151.168C184.313 150.878 183.572 150.959 183.363 153.121C183.154 155.284 182.412 157.481 182.076 158.063C181.74 158.644 181.161 159.725 182.076 159.097C182.992 158.47 181.578 157.935 181.578 156.144C181.578 154.354 182.366 153.773 181.705 152.703C181.045 151.622 179.341 151.494 179.051 152.866C178.761 154.238 178.39 155.737 177.312 156.726C176.234 157.726 175.121 159.132 176.072 158.807C177.022 158.481 176.234 156.819 177.069 155.365C177.892 153.912 178.645 153.203 177.985 152.703C177.324 152.203 175.875 151.877 175.006 153.703C174.136 155.528 172.931 157.028 171.864 157.272C170.786 157.516 170.752 159.935 166.393 157.609C164.446 156.563 162.916 155.261 161.734 154.098C156.007 148.448 149.516 148.157 141.796 145.029C134.853 142.216 126.786 135.089 125.232 127.299C122.59 114.068 120.642 108.324 119.97 94.1168C119.808 90.6289 121.79 86.1875 122.369 87.5943C122.949 89.0011 120.097 93.1169 118.73 92.5821C117.362 92.0473 117.234 90.7567 116.91 89.9661C116.574 89.1755 112.772 73.6425 112.192 70.0732C111.23 64.1785 104.298 55.5632 106.64 67.3293C106.895 68.5966 107.776 75.8167 107.44 81.0137C106.698 92.5589 77.9745 96.5584 75.6678 80.944C75.3317 78.7 77.905 68.4803 78.8091 65.1668C79.9219 61.0859 82.6922 60.9696 82.8313 54.2378C82.8892 51.4591 82.5183 48.9129 81.9503 47.8897C81.1274 46.3899 80.6289 43.8205 80.0494 42.8206C79.4698 41.8207 80.3855 40.7045 80.5014 41.5765C80.6289 42.4485 80.2117 42.8671 79.2148 42.5764C75.5288 41.4952 74.0219 28.9501 77.7775 32.5195C78.7743 33.4612 79.6553 34.9145 78.8786 34.9727C77.7195 35.0541 78.8786 30.9034 78.8786 29.7407C78.8786 28.7874 80.0378 23.6136 82.6458 20.7651C85.8798 17.219 94.7704 17.3585 98.7578 19.1141C102.154 20.6139 104.808 24.346 105.469 27.1713C107.173 34.4379 108.367 33.1124 108.68 27.0899C108.923 22.3695 107.521 15.2076 101.829 11.6382C94.8979 7.28991 90.922 9.01064 88.5342 9.68498C84.7091 10.7662 85.7755 4.95298 88.0822 5.03436C90.5627 5.11575 95.5354 5.03436 97.8537 5.69708C102.931 7.15039 103.51 3.62755 100.276 1.88358C99.0592 1.13948 97.135 0.569778 94.4226 0.232608C88.4994 -0.499863 82.2054 3.48804 91.9421 3.96472C95.2572 4.12749 96.3352 4.38328 98.155 4.70882C102.212 5.45292 102.177 10.7546 99.1055 9.15015C98.155 8.65021 96.2541 8.06889 94.7124 8.06889C87.9778 8.06889 80.7217 12.0452 78.357 18.7885C77.3602 21.6138 76.4097 27.4271 76.9893 28.5432C77.5688 29.6593 78.0673 29.171 78.6005 27.1364C79.1337 25.1018 79.4698 17.6259 90.98 17.0446C102.49 16.4632 106.049 24.7646 106.466 26.9271C106.883 29.0897 108.077 36.2283 107.092 35.5656C106.095 34.9029 107.799 32.4032 109.12 32.1242C110.442 31.8451 110.152 34.0774 109.572 36.3562C108.993 38.635 107.625 39.6814 106.883 41.6347C106.141 43.5879 104.484 42.2974 105.191 42.1346C105.898 41.9718 105.562 42.4718 105.11 44.6227C103.278 53.2961 93.7735 59.8767 86.216 53.3077C84.9757 52.2264 82.0083 48.7385 83.4804 49.2384C84.4309 49.564 84.7091 51.8195 84.3845 54.3541C83.9441 57.7955 81.591 63.946 77.6036 63.946C75.8649 63.946 74.7869 65.5272 74.4624 66.4341C74.1378 67.3409 70.3242 79.8859 70.0692 80.7231C69.8142 81.5602 67.6698 89.1988 67.2525 91.4427C66.9628 92.989 66.5686 95.9073 65.9079 97.1746C63.9954 100.872 60.8425 84.7226 63.2767 86.2922C64.7952 87.2688 64.3199 95.1981 63.636 101.604C62.2451 114.498 57.8404 127.997 51.6854 139.111C50.8624 140.611 44.4756 147.831 39.5145 151.157C34.5418 154.482 31.5628 156.144 29.9864 157.307C28.41 158.47 25.8483 160.132 23.275 162.376C20.7133 164.62 19.5426 164.783 18.0937 166.992C16.6448 169.189 14.9409 168.899 14.199 168.282C13.4572 167.655 13.121 167.945 11.7532 168.41C10.3855 168.864 8.69313 168.654 8.11356 167.701C7.534 166.748 7.40649 166.12 6.42123 166.666C5.42438 167.201 4.39275 165.876 2.94383 165.794C1.49491 165.713 0.787842 166.713 0.33578 165.341C0.0228144 164.411 0.138728 161.69 0.24305 159.714C0.41692 156.307 3.02497 153.505 3.5234 158.76C3.66249 160.225 3.66249 161.899 3.60454 162.434C3.5234 163.26 4.10296 165.504 3.31475 164.388C2.52654 163.271 4.1841 162.516 4.1841 160.853C4.1841 159.19 4.76367 157.028 5.67938 155.749C7.8006 152.749 7.61514 158.621 7.49922 159.737C7.33694 161.4 6.91966 162.981 6.91966 163.853C6.91966 164.725 6.96602 165.934 6.50237 165.178C6.03872 164.422 8.11356 163.016 8.15993 161.527C8.18311 160.702 8.36857 159.818 8.6004 159.039C9.73635 155.168 11.846 157.156 11.6489 159.853C11.533 161.446 11.2316 163.33 11.3939 164.469C11.6026 165.969 11.7301 168.248 11.2316 167.585C10.7332 166.922 13.3413 167.166 13.5499 166.085C13.7585 165.004 12.3444 164.05 12.6805 162.097C13.0167 160.144 14.5815 160.725 15.2886 162.516C15.9957 164.306 17.3171 167.666 16.5752 167.004C15.8334 166.341 16.3666 164.143 17.5257 162.725C18.6849 161.318 19.2644 156.784 19.844 157.865C20.4236 158.946 18.3951 159.563 16.5752 159.737C14.7554 159.9 13.0515 159.202 12.3908 157.737C11.7301 156.284 10.4434 155.784 9.5393 155.749C7.61514 155.656 7.05875 150.889 12.3908 152.715C13.9672 153.249 16.2855 153.133 17.2707 153.877C18.256 154.621 19.4615 152.959 20.041 152.47C20.6206 151.97 29.1866 143.251 29.5228 142.251C29.7778 141.495 35.8516 134.31 39.7115 129.543C45.1942 122.776 50.8276 105.488 49.1469 97.6513C47.8255 91.5009 49.3092 75.0609 54.9425 70.7359C60.5759 66.4224 69.2694 65.5853 70.927 65.9225C74.9376 66.7247 67.6466 82.4089 67.1134 86.2689C64.2968 106.964 69.5129 102.906 69.5129 114.847C69.5129 117.591 71.0893 117.672 73.0714 117.416C75.0535 117.172 95.4311 117.498 98.0739 117.335C100.717 117.172 105.446 117.091 107.104 117.091C108.761 117.091 113.896 115.591 113.56 121.579C113.224 127.555 112.157 130.461 112.899 133.287C113.641 136.112 111.902 136.775 109.584 137.274C107.266 137.774 104.287 138.774 100.809 138.774C97.332 138.774 94.8515 138.693 91.2002 138.937C87.5606 139.181 84.57 138.519 81.4287 137.856C78.2875 137.193 76.4213 135.612 74.7174 135.693C70.3358 135.914 70.0345 137.228 68.3305 140.739C66.6614 144.157 64.4358 149.296 63.8679 152.226C63.0449 156.54 61.7119 157.458 59.1502 157.458C56.5885 157.458 44.0815 158.377 38.4481 159.039C30.4848 159.981 18.6733 162.655 16.1695 171.991C15.59 174.154 16.3318 180.967 21.3856 184.281C26.4395 187.606 33.0581 188.013 36.211 188.687C39.3522 189.35 58.0722 192.094 64.204 192.094C69.2347 192.094 82.4372 191.535 87.8619 191.373C92.3478 191.245 94.0865 194.465 89.7861 195.198C83.6427 196.244 74.868 195.826 68.4812 195.779C47.3734 195.605 0.428511 195.07 0.428511 195.07" stroke="#131E29" stroke-miterlimit="2.6131"/>
</g>
<defs>
<clipPath id="clip0_524_18958">
<rect width="199" height="196" fill="white"/>
</clipPath>
</defs>
</svg>
