<svg width="194" height="60" viewBox="0 0 194 60" fill="none" xmlns="http://www.w3.org/2000/svg">
<path d="M70.8448 27.6857C71.018 27.3429 71.1912 27.1714 71.1912 26.7429C71.1912 25.8 70.4984 25.1143 69.5457 25.1143C69.1127 25.1143 68.6796 25.2857 68.3332 25.8C66.8609 27.2571 65.6484 27.7714 63.31 27.7714C59.2395 27.7714 57.5073 25.6286 57.5073 20.4C57.5073 15.4286 59.2395 13.0286 63.31 13.0286C65.5618 13.0286 66.8609 13.7143 68.0734 15.0857C68.5064 15.5143 68.9395 15.6857 69.2859 15.6857C70.2386 15.6857 70.9314 15 70.9314 14.1429C70.9314 13.7143 70.8448 13.4571 70.585 13.1143C69.3725 11.2286 66.9475 9.85714 63.2234 9.85714C57.1609 9.85714 53.7832 13.3714 53.7832 20.4857C53.7832 27.6 57.2475 30.8571 63.31 30.8571C66.5145 30.8571 69.4591 29.6571 70.8448 27.6857ZM87.3868 30.4286C88.2528 30.4286 88.7725 29.8286 88.7725 29.0571C88.7725 28.2857 88.2528 27.6857 87.3868 27.6857H86.6939V21.5143C86.6939 18.9429 85.7412 16.2857 81.5841 16.2857C79.5055 16.2857 78.293 17.2286 77.7734 18.1714V10.6286C77.7734 9.77143 77.0805 9 76.2145 9H73.7028C73.01 9 72.3171 9.6 72.3171 10.3714C72.3171 11.2286 72.9234 11.7429 73.7028 11.7429H74.3957V27.7714H73.7028C73.01 27.7714 72.3171 28.3714 72.3171 29.1429C72.3171 30 72.9234 30.5143 73.7028 30.5143H78.4662C79.1591 30.5143 79.852 29.9143 79.852 29.1429C79.852 28.3714 79.2457 27.7714 78.4662 27.7714H77.7734V22.6286C77.7734 20.7429 78.4662 19.3714 80.8046 19.3714C82.7966 19.3714 83.4895 20.4857 83.4895 22.2857V27.8571H82.7966C81.9305 27.8571 81.3243 28.4571 81.3243 29.2286C81.3243 30.0857 81.9305 30.6 82.7966 30.6H87.3868V30.4286ZM102.976 30.4286C103.842 30.4286 104.362 29.8286 104.362 29.0571C104.362 28.2857 103.842 27.6857 102.976 27.6857H102.283V21.4286C102.283 18.2571 100.118 16.3714 96.2207 16.3714C93.6225 16.3714 92.1502 17.4 91.1975 18.3429C91.0243 18.6857 90.8511 19.0286 90.8511 19.3714C90.8511 20.0571 91.4573 20.8286 92.2368 20.8286C92.6698 20.8286 92.843 20.7429 93.1895 20.4857C93.8823 19.8857 94.835 19.2857 96.2207 19.2857C97.9528 19.2857 98.9921 20.2286 98.9921 21.5143V22.1143H95.0082C92.3234 22.1143 89.985 23.5714 89.985 26.3143C89.985 29.0571 91.977 30.8571 95.0082 30.8571C96.7403 30.8571 98.1261 30.4286 98.9921 29.1429C98.9921 29.8286 99.685 30.5143 100.551 30.5143H102.976V30.4286ZM93.4493 26.3143C93.4493 25.2 94.1421 24.6 95.5279 24.6H99.0787V25.4571C99.0787 27.1714 97.6064 28.2 95.9609 28.2C94.2287 28.2 93.4493 27.4286 93.4493 26.3143ZM117.266 18.5143C117.439 18.3429 117.786 18.1714 118.132 18.1714C118.998 18.1714 119.605 17.5714 119.605 16.8C119.605 16.0286 118.998 15.4286 118.132 15.4286C116.66 15.4286 115.707 16.0286 115.101 16.8C114.235 16.4571 113.369 16.2857 112.156 16.2857C108.432 16.2857 106.267 18.2571 106.267 21.4286C106.267 22.5429 106.354 23.4857 107.22 24.6857C106.354 25.2 106.181 26.1429 106.181 26.7429C106.181 27.7714 106.787 28.4571 107.653 28.9714C106.267 29.8286 105.747 30.8571 105.747 31.9714C105.747 35.4857 109.298 36.4286 112.589 36.4286C116.4 36.4286 119.345 34.9714 119.345 31.8857C119.345 28.8 116.833 27.7714 113.629 27.7714H110.857C109.472 27.7714 109.125 27.2571 109.125 26.7429C109.125 26.5714 109.212 26.2286 109.472 26.1429C110.164 26.4857 111.204 26.5714 112.243 26.5714C115.967 26.5714 118.132 24.6 118.132 21.4286C118.046 20.4 117.872 19.3714 117.266 18.5143ZM112.156 19.0286C113.889 19.0286 114.928 20.1429 114.928 21.5143C114.928 22.9714 113.889 24 112.156 24C110.424 24 109.385 22.9714 109.385 21.5143C109.298 20.1429 110.338 19.0286 112.156 19.0286ZM112.589 33.7714C110.338 33.7714 109.039 33.2571 109.039 32.1429C109.039 31.4571 109.645 30.7714 110.771 30.5143H113.542C115.014 30.5143 115.967 31.0286 115.967 32.0571C115.967 33.2571 114.322 33.7714 112.589 33.7714ZM133.548 30.4286C134.241 30.4286 134.934 29.8286 134.934 29.0571C134.934 28.2857 134.328 27.6857 133.548 27.6857H132.856V21.4286C132.856 18.2571 130.604 16.3714 126.793 16.3714C124.195 16.3714 122.636 17.4 121.77 18.3429C121.597 18.6857 121.337 19.0286 121.337 19.3714C121.337 20.0571 121.943 20.8286 122.809 20.8286C123.242 20.8286 123.415 20.7429 123.762 20.4857C124.455 19.8857 125.407 19.2857 126.793 19.2857C128.525 19.2857 129.564 20.2286 129.564 21.5143V22.1143H125.581C122.982 22.1143 120.731 23.5714 120.731 26.3143C120.731 29.0571 122.722 30.8571 125.754 30.8571C127.486 30.8571 128.872 30.4286 129.738 29.1429C129.738 29.8286 130.344 30.5143 131.21 30.5143H133.548V30.4286ZM124.022 26.3143C124.022 25.2 124.714 24.6 126.1 24.6H129.651V25.4571C129.651 27.1714 128.092 28.2 126.533 28.2C124.801 28.2 124.022 27.4286 124.022 26.3143ZM152.689 30.4286C153.641 30.4286 154.247 29.8286 154.247 28.8857C154.247 28.0286 153.641 27.3429 152.689 27.3429H151.476L147.839 22.5429C150.783 22.1143 152.515 19.3714 152.515 16.5429C152.515 13.1143 150.264 10.2 146.193 10.2H138.052C137.186 10.2 136.493 10.8857 136.493 11.7429C136.493 12.6857 137.186 13.2857 138.052 13.2857H138.572V27.3429H138.052C137.186 27.3429 136.493 28.0286 136.493 28.8857C136.493 29.8286 137.186 30.4286 138.052 30.4286H142.556C143.508 30.4286 144.114 29.8286 144.114 28.8857C144.114 28.0286 143.508 27.3429 142.556 27.3429H142.036V22.7143H144.028L148.878 29.8286C149.224 30.3429 149.571 30.4286 150.09 30.4286H152.689ZM146.02 13.3714C148.012 13.3714 148.791 14.9143 148.791 16.5429C148.791 18.0857 147.925 19.6286 146.106 19.6286H142.036V13.3714H146.02ZM168.797 23.6571C168.797 18.6857 166.286 16.3714 162.129 16.3714C157.972 16.3714 155.46 18.7714 155.46 23.6571C155.46 28.5429 158.058 30.8571 162.129 30.8571C166.199 30.8571 168.797 28.6286 168.797 23.6571ZM162.129 28.1143C159.964 28.1143 158.838 26.6571 158.838 23.6571C158.838 20.6571 159.964 19.1143 162.129 19.1143C164.294 19.1143 165.42 20.6571 165.42 23.6571C165.42 26.6571 164.294 28.1143 162.129 28.1143ZM184.3 23.6571C184.3 18.6857 181.702 16.3714 177.631 16.3714C173.561 16.3714 170.963 18.7714 170.963 23.6571C170.963 28.5429 173.474 30.8571 177.631 30.8571C181.789 30.8571 184.3 28.6286 184.3 23.6571ZM177.631 28.1143C175.466 28.1143 174.34 26.6571 174.34 23.6571C174.34 20.6571 175.466 19.1143 177.631 19.1143C179.797 19.1143 180.922 20.6571 180.922 23.6571C180.922 26.6571 179.797 28.1143 177.631 28.1143ZM187.938 16.8H187.245C186.552 16.8 185.859 17.4 185.859 18.2571C185.859 18.9429 186.465 19.6286 187.245 19.6286H187.938V26.7429C187.938 29.1429 189.67 30.8571 192.528 30.8571C193.394 30.8571 194 30.2571 194 29.4C194 28.5429 193.394 27.9429 192.528 27.9429C191.922 27.9429 191.142 27.5143 191.142 26.9143V19.6286H192.528C193.394 19.6286 193.914 19.0286 193.914 18.2571C193.914 17.4 193.394 16.8 192.528 16.8H191.142V14.3143C191.142 13.3714 190.449 12.6857 189.583 12.6857C188.631 12.6857 187.938 13.3714 187.938 14.3143V16.8Z" fill="#23242A"/>
<path d="M189.236 46.6286C189.323 45.4286 189.929 44.6572 191.228 44.6572C192.701 44.6572 193.134 45.6858 193.134 46.6286H189.236ZM193.913 46.4572C193.913 45.5143 193.48 43.8 191.228 43.8C189.323 43.8 188.284 44.9143 188.284 47.0572C188.284 49.4572 189.41 50.4858 191.315 50.4858C192.701 50.4858 193.394 49.9715 193.567 49.8C193.653 49.7143 193.653 49.6286 193.653 49.4572C193.653 49.1143 193.48 49.0286 193.22 49.0286H193.134C192.701 49.3715 192.181 49.6286 191.402 49.6286C190.189 49.6286 189.323 48.7715 189.323 47.4H193.48C193.913 47.4 193.913 46.8858 193.913 46.4572Z" fill="#23242A"/>
<path d="M187.158 44.8286C187.505 44.8286 187.591 44.6571 187.591 44.4C187.591 44.0571 187.505 43.9714 187.158 43.9714H185.513C185.34 43.9714 185.08 44.0571 185.08 44.4C185.08 44.5714 185.253 44.8286 185.513 44.8286H185.946L184.214 49.0286L182.568 44.8286H183.001C183.174 44.8286 183.434 44.6571 183.434 44.4C183.434 44.0571 183.261 43.9714 183.001 43.9714H181.269C181.096 43.9714 180.836 44.0571 180.836 44.4C180.836 44.5714 181.009 44.8286 181.269 44.8286H181.615L183.867 50.1429C183.954 50.3143 184.214 50.4857 184.3 50.4857C184.473 50.4857 184.733 50.4 184.733 50.1429L186.985 44.8286H187.158Z" fill="#23242A"/>
<path d="M178.844 42.5999C179.19 42.5999 179.364 42.4285 179.364 41.9999C179.364 41.5713 179.19 41.4856 178.844 41.4856C178.497 41.4856 178.324 41.5713 178.324 41.9999C178.324 42.4285 178.584 42.5999 178.844 42.5999Z" fill="#23242A"/>
<path d="M179.883 50.4C180.23 50.4 180.316 50.2286 180.316 49.9714C180.316 49.6286 180.23 49.4572 179.883 49.4572H179.364V44.4C179.364 44.2286 179.19 43.9714 178.844 43.9714H177.805C177.631 43.9714 177.372 44.0571 177.372 44.4C177.372 44.5714 177.545 44.8286 177.805 44.8286H178.411V49.4572H177.805C177.631 49.4572 177.372 49.6286 177.372 49.9714C177.372 50.1429 177.545 50.4 177.805 50.4H179.883Z" fill="#23242A"/>
<path d="M175.466 50.4C175.639 50.4 175.899 50.2286 175.899 49.9715C175.899 49.6286 175.726 49.4572 175.466 49.4572H174.254V46.8858C174.254 45.5143 174.86 44.6572 176.246 44.6572C176.419 44.6572 176.679 44.4858 176.679 44.2286C176.679 44.0572 176.505 43.8 176.246 43.8C175.206 43.8 174.6 44.3143 174.254 44.9143V44.4C174.254 44.0572 174.08 43.9715 173.734 43.9715H172.695C172.522 43.9715 172.262 44.0572 172.262 44.4C172.262 44.5715 172.435 44.8286 172.695 44.8286H173.301V49.4572H172.695C172.522 49.4572 172.262 49.6286 172.262 49.9715C172.262 50.1429 172.435 50.4 172.695 50.4H175.466Z" fill="#23242A"/>
<path d="M171.049 50.3999C171.222 50.3999 171.482 50.2285 171.482 49.9714C171.482 49.6285 171.309 49.4571 171.049 49.4571H170.443V46.2856C170.443 45.0856 170.01 43.7999 167.845 43.7999C166.892 43.7999 166.199 44.2285 165.853 44.7428V40.7142C165.853 40.5428 165.766 40.2856 165.42 40.2856H164.38C164.207 40.2856 163.947 40.4571 163.947 40.7999C163.947 40.9714 164.12 41.2285 164.38 41.2285H164.987V49.4571H164.38C164.207 49.4571 163.947 49.6285 163.947 49.9714C163.947 50.1428 164.12 50.3999 164.38 50.3999H166.459C166.805 50.3999 166.892 50.2285 166.892 49.9714C166.892 49.6285 166.805 49.4571 166.459 49.4571H165.853V46.5428C165.853 45.4285 166.459 44.5714 167.845 44.5714C169.23 44.5714 169.49 45.2571 169.49 46.4571V49.4571H168.884C168.711 49.4571 168.451 49.6285 168.451 49.9714C168.451 50.1428 168.624 50.3999 168.884 50.3999H171.049Z" fill="#23242A"/>
<path d="M163.081 41.3143C163.081 41.1429 162.908 40.8857 162.648 40.8857H156.499C156.326 40.8857 156.066 41.0572 156.066 41.3143V43.0286C156.066 43.2 156.239 43.4572 156.499 43.4572C156.845 43.4572 156.932 43.2857 156.932 43.0286V41.6572H159.097V49.3715H158.491C158.144 49.3715 158.058 49.5429 158.058 49.8C158.058 50.1429 158.144 50.3143 158.491 50.3143H160.656C160.829 50.3143 161.089 50.1429 161.089 49.8C161.089 49.6286 160.916 49.3715 160.656 49.3715H160.05V41.6572H162.128V43.0286C162.128 43.2 162.302 43.4572 162.648 43.4572C162.821 43.4572 163.081 43.2857 163.081 43.0286V41.3143Z" fill="#23242A"/>
<path d="M151.822 50.3999C152.169 50.3999 152.255 50.2285 152.255 49.9714C152.255 49.6285 152.169 49.4571 151.822 49.4571H151.216V46.2856C151.216 45.0856 150.783 43.7999 148.618 43.7999C147.665 43.7999 147.059 44.2285 146.712 44.7428V40.7142C146.712 40.5428 146.539 40.2856 146.279 40.2856H145.24C145.067 40.2856 144.807 40.4571 144.807 40.7999C144.807 40.9714 144.98 41.2285 145.24 41.2285H145.76V49.4571H145.24C144.894 49.4571 144.807 49.6285 144.807 49.9714C144.807 50.1428 144.894 50.3999 145.24 50.3999H147.319C147.492 50.3999 147.752 50.2285 147.752 49.9714C147.752 49.6285 147.579 49.4571 147.319 49.4571H146.712V46.5428C146.712 45.4285 147.319 44.5714 148.618 44.5714C150.09 44.5714 150.35 45.2571 150.35 46.4571V49.4571H149.744C149.571 49.4571 149.311 49.6285 149.311 49.9714C149.311 50.1428 149.484 50.3999 149.744 50.3999H151.822Z" fill="#23242A"/>
<path d="M141.343 44.6572C142.036 44.6572 142.469 44.8286 142.902 45.2572C142.988 45.3429 143.075 45.3429 143.248 45.3429C143.421 45.3429 143.681 45.1715 143.681 44.9143C143.681 44.8286 143.595 44.7429 143.595 44.7429C143.162 44.1429 142.469 43.8 141.429 43.8C140.304 43.8 139.264 44.3143 139.264 45.4286C139.264 47.8286 142.988 47.1429 142.988 48.6001C142.988 49.2858 142.382 49.6286 141.516 49.6286C140.65 49.6286 140.13 49.2858 139.784 48.9429C139.611 48.8572 139.437 48.8572 139.351 48.8572C139.178 48.8572 139.004 49.0286 139.004 49.2858V49.4572C139.437 49.9715 140.39 50.4858 141.516 50.4858C142.902 50.4858 143.941 49.9715 143.941 48.6001C143.941 46.3715 140.217 46.9715 140.217 45.4286C140.13 44.8286 140.737 44.6572 141.343 44.6572Z" fill="#23242A"/>
<path d="M136.579 42.5999C136.926 42.5999 137.099 42.4285 137.099 41.9999C137.099 41.5713 136.926 41.4856 136.579 41.4856C136.146 41.4856 135.973 41.5713 135.973 41.9999C135.973 42.4285 136.146 42.5999 136.579 42.5999Z" fill="#23242A"/>
<path d="M137.619 50.4C137.792 50.4 138.052 50.2286 138.052 49.9714C138.052 49.6286 137.879 49.4572 137.619 49.4572H137.012V44.4C137.012 44.2286 136.839 43.9714 136.579 43.9714H135.54C135.194 43.9714 135.021 44.0571 135.021 44.4C135.021 44.5714 135.194 44.8286 135.54 44.8286H136.06V49.4572H135.54C135.194 49.4572 135.021 49.6286 135.021 49.9714C135.021 50.1429 135.194 50.4 135.54 50.4H137.619Z" fill="#23242A"/>
<path d="M133.029 50.4C133.202 50.4 133.462 50.2286 133.462 49.9715C133.462 49.6286 133.288 49.4572 133.029 49.4572H131.816V46.8858C131.816 45.5143 132.509 44.6572 133.808 44.6572C134.154 44.6572 134.241 44.4858 134.241 44.2286C134.241 44.0572 134.154 43.8 133.808 43.8C132.855 43.8 132.162 44.3143 131.816 44.9143V44.4C131.816 44.0572 131.729 43.9715 131.383 43.9715H130.344C129.997 43.9715 129.911 44.0572 129.911 44.4C129.911 44.5715 129.997 44.8286 130.344 44.8286H130.95V49.4572H130.344C129.997 49.4572 129.911 49.6286 129.911 49.9715C129.911 50.1429 129.997 50.4 130.344 50.4H133.029Z" fill="#23242A"/>
<path d="M126.36 44.0572C126.187 44.0572 125.927 44.1429 125.927 44.4857C125.927 44.6572 126.1 44.9143 126.36 44.9143H126.966V47.6571C126.966 48.7714 126.36 49.7143 124.974 49.7143C123.762 49.7143 123.415 48.8572 123.415 47.7429V44.3143C123.415 44.1429 123.069 43.9714 122.896 43.9714H121.856C121.683 43.9714 121.423 44.0571 121.423 44.4C121.423 44.5714 121.597 44.8286 121.856 44.8286H122.463V47.9143C122.463 49.1143 122.809 50.4857 124.888 50.4857C125.927 50.4857 126.62 49.9714 126.966 49.4572V49.8857C126.966 50.2286 127.139 50.4 127.486 50.4H128.525C128.698 50.4 128.958 50.2286 128.958 49.9714C128.958 49.6286 128.785 49.4572 128.525 49.4572H127.919V44.3143C127.919 44.1429 127.746 43.9714 127.486 43.9714H126.36V44.0572Z" fill="#23242A"/>
<path d="M117.526 49.7143C116.313 49.7143 115.534 49.0286 115.534 47.1429C115.534 45.4286 116.227 44.6572 117.526 44.6572C118.911 44.6572 119.604 45.3429 119.604 47.1429C119.604 48.9429 118.911 49.7143 117.526 49.7143ZM117.526 43.8C115.794 43.8 114.581 44.8286 114.581 47.0572C114.581 49.2858 115.707 50.4858 117.526 50.4858C119.431 50.4858 120.557 49.4572 120.557 47.0572C120.557 44.7429 119.431 43.8 117.526 43.8Z" fill="#23242A"/>
<path d="M107.133 50.4C107.479 50.4 107.653 50.2286 107.653 49.8857C107.653 49.7143 107.479 49.4572 107.133 49.4572H106.613V42.7715L111.637 50.3143C111.723 50.4 111.81 50.4857 112.07 50.4857C112.416 50.4857 112.589 50.3143 112.589 49.9715V41.7429H113.109C113.282 41.7429 113.542 41.5715 113.542 41.3143C113.542 41.1429 113.369 40.8857 113.109 40.8857H111.03C110.857 40.8857 110.597 41.0572 110.597 41.3143C110.597 41.4857 110.771 41.7429 111.03 41.7429H111.637V48.4286L106.613 41.1429C106.527 41.0572 106.44 40.9715 106.18 40.9715H105.141C104.968 40.9715 104.708 41.1429 104.708 41.4C104.708 41.5715 104.881 41.8286 105.141 41.8286H105.661V49.5429H105.141C104.968 49.5429 104.708 49.7143 104.708 49.9715C104.708 50.3143 104.881 50.4857 105.141 50.4857H107.133V50.4Z" fill="#23242A"/>
<path d="M95.2679 46.6286C95.3545 45.4286 96.134 44.6572 97.3465 44.6572C98.8188 44.6572 99.0786 45.6858 99.0786 46.6286H95.2679ZM100.118 46.4572C100.118 45.5143 99.5983 43.8 97.4331 43.8C95.5277 43.8 94.4019 44.9143 94.4019 47.0572C94.4019 49.4572 95.6144 50.4858 97.5197 50.4858C98.7322 50.4858 99.5117 49.9715 99.6849 49.8C99.7715 49.7143 99.8581 49.6286 99.8581 49.4572C99.8581 49.1143 99.6849 49.0286 99.4251 49.0286H99.0786C98.6456 49.3715 98.2126 49.6286 97.4331 49.6286C96.0474 49.6286 95.2679 48.7715 95.2679 47.4H99.4251C100.118 47.4 100.118 46.8858 100.118 46.4572Z" fill="#23242A"/>
<path d="M90.7644 44.6572C91.4572 44.6572 91.8902 44.8286 92.3233 45.2572C92.4099 45.3429 92.4965 45.3429 92.6697 45.3429C92.8429 45.3429 93.0161 45.1715 93.0161 44.9143V44.7429C92.4965 44.1429 91.8036 43.8 90.851 43.8C89.6385 43.8 88.6858 44.3143 88.6858 45.4286C88.6858 47.8286 92.4099 47.1429 92.4099 48.6001C92.4099 49.2858 91.717 49.6286 90.851 49.6286C90.1581 49.6286 89.4652 49.2858 89.1188 48.9429C89.0322 48.8572 88.9456 48.8572 88.7724 48.8572C88.5992 48.8572 88.3394 49.0286 88.3394 49.2858C88.3394 49.3715 88.3394 49.4572 88.426 49.4572C88.859 49.9715 89.6385 50.4858 90.851 50.4858C92.2367 50.4858 93.3626 49.9715 93.3626 48.6001C93.3626 46.3715 89.6385 46.9715 89.6385 45.4286C89.4652 44.8286 90.0715 44.6572 90.7644 44.6572Z" fill="#23242A"/>
<path d="M82.6231 50.4C82.7963 50.4 83.0562 50.2286 83.0562 49.9715C83.0562 49.6286 82.8829 49.4572 82.6231 49.4572H82.0169V46.5429C82.0169 45.4286 82.5365 44.5715 83.9222 44.5715C85.3079 44.5715 85.5678 45.2572 85.5678 46.4572V49.4572H85.0481C84.7017 49.4572 84.6151 49.6286 84.6151 49.9715C84.6151 50.1429 84.7017 50.4 85.0481 50.4H87.1267C87.2999 50.4 87.5597 50.2286 87.5597 49.9715C87.5597 49.6286 87.3865 49.4572 87.1267 49.4572H86.5204V46.2858C86.5204 45.0858 86.0874 43.8 83.9222 43.8C82.9695 43.8 82.2767 44.2286 82.0169 44.7429V44.4C82.0169 44.0572 81.8436 43.9715 81.5838 43.9715H80.4579C80.2847 43.9715 80.0249 44.0572 80.0249 44.4C80.0249 44.5715 80.1981 44.8286 80.4579 44.8286H81.0642V49.4572H80.4579C80.2847 49.4572 80.0249 49.6286 80.0249 49.9715C80.0249 50.1429 80.1981 50.4 80.4579 50.4H82.6231Z" fill="#23242A"/>
<path d="M77.34 47.9143C77.34 49.1143 76.3873 49.6286 75.4346 49.6286C74.3087 49.6286 73.7891 49.2 73.7891 48.5143C73.7891 47.6572 74.3954 47.3143 75.348 47.3143H77.34V47.9143ZM78.8989 49.4572H78.2927V46.2001C78.2927 44.7429 77.34 43.8 75.6945 43.8C74.5686 43.8 73.7025 44.3143 73.4427 44.9143C73.3561 44.9143 73.3561 45 73.3561 45.0858C73.3561 45.2572 73.5293 45.5143 73.7891 45.5143C73.8757 45.5143 73.9623 45.4286 74.1355 45.3429C74.6552 44.8286 75.0882 44.6572 75.7811 44.6572C76.8204 44.6572 77.4266 45.2572 77.4266 46.2001V46.6286H75.348C73.7891 46.6286 72.8364 47.3143 72.8364 48.6001C72.8364 49.8001 73.7891 50.5715 75.348 50.5715C76.2141 50.5715 77.0802 50.2286 77.4266 49.6286V50.0572C77.4266 50.2286 77.5132 50.4858 77.773 50.4858H78.8989C79.0721 50.4858 79.332 50.3143 79.332 50.0572C79.332 49.7143 79.0721 49.4572 78.8989 49.4572Z" fill="#23242A"/>
<path d="M67.0337 46.6286C67.1203 45.4286 67.8998 44.6572 69.1123 44.6572C70.5846 44.6572 70.8444 45.6858 70.8444 46.6286H67.0337ZM71.7971 46.4572C71.7971 45.5143 71.2775 43.8 69.1123 43.8C67.2069 43.8 66.0811 44.9143 66.0811 47.0572C66.0811 49.4572 67.2936 50.4858 69.1989 50.4858C70.4114 50.4858 71.1909 49.9715 71.3641 49.8C71.4507 49.7143 71.5373 49.6286 71.5373 49.4572C71.5373 49.1143 71.3641 49.0286 71.1043 49.0286H70.7578C70.3248 49.3715 69.8918 49.6286 69.1123 49.6286C67.7266 49.6286 66.9471 48.7715 66.9471 47.4H71.1043C71.7971 47.4 71.7971 46.8858 71.7971 46.4572Z" fill="#23242A"/>
<path d="M64.8688 50.4857C65.042 50.4857 65.3018 50.3142 65.3018 50.0571C65.3018 49.7142 65.1286 49.6285 64.8688 49.6285H64.5224C64.0893 49.6285 64.0027 49.2857 64.0027 48.7714V40.7142C64.0027 40.3714 63.8295 40.2 63.5697 40.2H62.4438C62.2706 40.2 62.0107 40.3714 62.0107 40.7142C62.0107 40.8857 62.184 41.1428 62.4438 41.1428H63.05V48.8571C63.05 49.8857 63.5697 50.4857 64.4357 50.4857H64.8688Z" fill="#23242A"/>
<path d="M58.2 50.5715C59.5857 50.5715 60.7982 49.9715 61.4045 49.0287C61.4911 49.0287 61.4911 48.8573 61.4911 48.7715C61.4911 48.6001 61.3178 48.343 61.058 48.343C60.8848 48.343 60.7116 48.4287 60.625 48.5144C60.1053 49.3715 59.0661 49.6287 58.1134 49.6287C55.9482 49.6287 54.6491 48.5144 54.6491 45.6001C54.6491 42.6858 55.8616 41.4858 58.1134 41.4858C59.1527 41.4858 60.1053 42.0001 60.625 42.6858C60.7116 42.7715 60.7982 42.8573 61.058 42.8573C61.2312 42.8573 61.4911 42.6858 61.4911 42.343C61.4911 42.2573 61.4911 42.1715 61.4045 42.0001C60.7982 41.0573 59.4991 40.543 58.2 40.543C55.5152 40.543 53.8696 42.0858 53.8696 45.5144C53.8696 48.943 55.5152 50.5715 58.2 50.5715Z" fill="#23242A"/>
<path fill-rule="evenodd" clip-rule="evenodd" d="M23.9036 0C16.7152 0 11.2589 4.71428 6.92857 9.77143C2.59821 14.9143 0 22.0286 0 29.8286C0 37.6286 2.59821 44.6571 6.92857 49.7143C10.9125 54.8571 16.7152 59.5714 23.9036 59.5714C31.092 59.5714 36.808 54.8571 40.7054 49.7143C45.0357 44.6571 47.6339 37.5429 47.6339 29.8286C47.6339 22.1143 45.0357 14.9143 40.7054 9.77143C36.4616 4.71428 31.0054 0 23.9036 0ZM23.9036 58.7143C9.52679 58.7143 2.68482 41.7429 2.68482 29.8286C2.68482 17.9143 9.61339 0.942857 23.9036 0.942857C38.1938 0.942857 45.0357 17.8286 45.0357 29.8286C45.0357 41.8286 38.1071 58.7143 23.9036 58.7143Z" fill="#23242A"/>
<path fill-rule="evenodd" clip-rule="evenodd" d="M23.9035 11.3143C25.116 10.6286 25.982 9.17144 25.982 7.62858C25.982 6.08573 25.3758 3.94287 23.9035 3.94287C22.3445 3.94287 21.7383 6.08573 21.7383 7.62858C21.7383 9.17144 22.5177 10.6286 23.9035 11.3143Z" fill="#32954A"/>
<path fill-rule="evenodd" clip-rule="evenodd" d="M36.4616 12.2571C35.5089 11.1428 33.4304 11.9142 32.2179 12.9428C31.0054 13.9713 30.4857 15.5999 30.6589 17.0571C32.1313 17.5713 33.7768 17.3999 34.9893 16.3713C36.2884 15.3428 37.4143 13.3713 36.4616 12.2571Z" fill="#32954A"/>
<path fill-rule="evenodd" clip-rule="evenodd" d="M26.5885 11.1429C27.5412 11.4857 27.6278 12.8571 27.2814 13.8857C26.9349 14.9143 26.1555 15.6 25.2028 15.8571C24.5099 15.1714 24.1635 14.1429 24.5099 13.1143C24.8564 12 25.6358 10.8 26.5885 11.1429Z" fill="#975EA3"/>
<path fill-rule="evenodd" clip-rule="evenodd" d="M29.4463 6.17143C28.5802 5.82857 27.7141 6.85714 27.3677 7.71429C27.0213 8.65714 27.2811 9.6 27.8007 10.2857C28.7534 10.2 29.4463 9.6 29.7927 8.65715C30.1391 7.8 30.2257 6.51429 29.4463 6.17143Z" fill="#EC6442"/>
<path fill-rule="evenodd" clip-rule="evenodd" d="M33.2574 9.25706C32.7377 8.82849 31.8716 9.34278 31.352 9.85706C30.8324 10.4571 30.7457 11.2285 30.919 11.8285C31.6118 11.9142 32.3047 11.7428 32.8243 11.2285C33.344 10.7142 33.777 9.77135 33.2574 9.25706Z" fill="#975EA3"/>
<path fill-rule="evenodd" clip-rule="evenodd" d="M29.7062 17.4858C29.2731 16.9715 28.4937 17.4001 27.974 17.9144C27.541 18.343 27.3678 19.0287 27.541 19.6287C28.0606 19.7144 28.7535 19.6287 29.2731 19.2001C29.7062 18.6858 30.2258 17.9144 29.7062 17.4858Z" fill="#975EA3"/>
<path fill-rule="evenodd" clip-rule="evenodd" d="M41.2252 20.5715C41.052 19.5429 39.2332 19.3715 38.1073 19.6286C36.8948 19.8001 36.0287 20.7429 35.5957 21.7715C36.4618 22.6286 37.5877 22.9715 38.8002 22.8001C40.0127 22.5429 41.485 21.6858 41.2252 20.5715Z" fill="#EC6442"/>
<path fill-rule="evenodd" clip-rule="evenodd" d="M34.1231 21.5144C33.9499 20.9144 32.9972 20.8287 32.2177 20.9144C31.6115 21.0858 31.0919 21.6001 30.832 22.1144C31.2651 22.6287 31.9579 22.8001 32.5642 22.7144C33.3436 22.543 34.2097 22.1144 34.1231 21.5144Z" fill="#32954A"/>
<path fill-rule="evenodd" clip-rule="evenodd" d="M42.6975 25.5429C42.6109 25.1143 41.8314 25.1143 41.3117 25.2001C40.7921 25.3715 40.3591 25.7143 40.2725 26.2286C40.7055 26.5715 41.2251 26.7429 41.7448 26.5715C42.1778 26.4001 42.7841 26.0572 42.6975 25.5429Z" fill="#32954A"/>
<path fill-rule="evenodd" clip-rule="evenodd" d="M34.2098 27.343C34.0366 28.2858 32.5643 28.3715 31.6116 28.2001C30.5723 28.0287 29.8795 27.2573 29.6196 26.3144C30.2259 25.6287 31.1786 25.2858 32.2178 25.4573C33.1705 25.7144 34.383 26.4001 34.2098 27.343Z" fill="#975EA3"/>
<path fill-rule="evenodd" clip-rule="evenodd" d="M39.0598 26.8286C39.0598 27.4286 38.1071 27.7715 37.4143 27.7715C36.7214 27.7715 35.942 27.3429 35.6821 26.8286C36.0286 26.2286 36.7214 25.8 37.4143 25.8C38.1071 25.8 39.0598 26.1429 39.0598 26.8286Z" fill="#EC6442"/>
<path fill-rule="evenodd" clip-rule="evenodd" d="M38.9732 14.8287C38.8 14.4858 38.2803 14.743 37.8473 14.9144C37.5009 15.0858 37.3276 15.5144 37.3276 15.943C37.7607 16.1144 38.1937 16.1144 38.5401 15.8572C38.8866 15.6001 39.3196 15.0858 38.9732 14.8287Z" fill="#EC6442"/>
<path fill-rule="evenodd" clip-rule="evenodd" d="M39.9259 17.4C39.7527 16.8857 38.8866 16.8857 38.2804 16.9714C37.6741 17.1429 37.2411 17.6572 37.0679 18.1714C37.5009 18.6 38.1072 18.7714 38.7134 18.6C39.3197 18.5143 40.0991 18 39.9259 17.4Z" fill="#32954A"/>
<path fill-rule="evenodd" clip-rule="evenodd" d="M11.259 12.2571C12.2983 11.1428 14.3768 11.9142 15.5893 12.9428C16.8018 13.9713 17.3215 15.5999 17.0617 17.0571C15.5893 17.5713 14.0304 17.3999 12.8179 16.3713C11.5188 15.3428 10.3063 13.3713 11.259 12.2571Z" fill="#32954A"/>
<path fill-rule="evenodd" clip-rule="evenodd" d="M21.1323 11.1429C20.1796 11.4857 20.1796 12.8571 20.5261 13.8857C20.8725 14.9143 21.5654 15.6 22.6046 15.8571C23.2109 15.1714 23.5573 14.1429 23.2109 13.1143C22.8645 12 21.9984 10.8 21.1323 11.1429Z" fill="#975EA3"/>
<path fill-rule="evenodd" clip-rule="evenodd" d="M18.3608 6.17143C19.2269 5.82857 20.0063 6.85714 20.3528 7.71429C20.7858 8.65714 20.526 9.6 19.9197 10.2857C19.0537 10.2 18.2742 9.6 17.9278 8.65715C17.5813 7.8 17.5813 6.51429 18.3608 6.17143Z" fill="#EC6442"/>
<path fill-rule="evenodd" clip-rule="evenodd" d="M14.4636 9.25706C14.9832 8.82849 15.9359 9.34278 16.3689 9.85706C16.8886 10.4571 16.9752 11.2285 16.802 11.8285C16.1957 11.9142 15.4163 11.7428 14.8966 11.2285C14.4636 10.7142 13.9439 9.77135 14.4636 9.25706Z" fill="#975EA3"/>
<path fill-rule="evenodd" clip-rule="evenodd" d="M18.0142 17.4858C18.4472 16.9715 19.2267 17.4001 19.7463 17.9144C20.266 18.343 20.3526 19.0287 20.266 19.6287C19.6597 19.7144 18.8802 19.6287 18.5338 19.2001C18.0142 18.6858 17.5811 17.9144 18.0142 17.4858Z" fill="#975EA3"/>
<path fill-rule="evenodd" clip-rule="evenodd" d="M6.40899 20.5715C6.75541 19.5429 8.40095 19.3715 9.61345 19.6286C10.7393 19.8001 11.692 20.7429 12.0384 21.7715C11.3456 22.6286 10.0465 22.9715 8.92059 22.8001C7.70809 22.5429 6.23577 21.6858 6.40899 20.5715Z" fill="#EC6442"/>
<path fill-rule="evenodd" clip-rule="evenodd" d="M13.684 21.5144C13.7706 20.9144 14.7233 20.8287 15.4162 20.9144C16.0224 21.0858 16.5421 21.6001 16.8019 22.1144C16.3689 22.6287 15.676 22.8001 15.0697 22.7144C14.3769 22.543 13.5108 22.1144 13.684 21.5144Z" fill="#32954A"/>
<path fill-rule="evenodd" clip-rule="evenodd" d="M5.02322 25.5429C5.19644 25.1143 5.9759 25.1143 6.49554 25.2001C7.01519 25.3715 7.36161 25.7143 7.44822 26.2286C7.10179 26.5715 6.58215 26.7429 6.06251 26.5715C5.54286 26.4001 4.85001 26.0572 5.02322 25.5429Z" fill="#32954A"/>
<path fill-rule="evenodd" clip-rule="evenodd" d="M13.5106 27.343C13.6838 28.2858 15.1561 28.3715 16.1088 28.2001C17.1481 28.0287 17.8409 27.2573 18.1873 26.3144C17.5811 25.6287 16.5418 25.2858 15.5891 25.4573C14.5498 25.7144 13.424 26.4001 13.5106 27.343Z" fill="#975EA3"/>
<path fill-rule="evenodd" clip-rule="evenodd" d="M8.66064 26.8286C8.66064 27.4286 9.69993 27.7715 10.3928 27.7715C11.0856 27.7715 11.7785 27.3429 12.0383 26.8286C11.6919 26.2286 11.0856 25.8 10.3928 25.8C9.69993 25.8 8.66064 26.1429 8.66064 26.8286Z" fill="#EC6442"/>
<path fill-rule="evenodd" clip-rule="evenodd" d="M8.74721 14.8287C8.92043 14.4858 9.61328 14.743 9.8731 14.9144C10.3061 15.0858 10.3927 15.5144 10.3927 15.943C10.0463 16.1144 9.52668 16.1144 9.26685 15.8572C8.83382 15.6001 8.48739 15.0858 8.74721 14.8287Z" fill="#EC6442"/>
<path fill-rule="evenodd" clip-rule="evenodd" d="M7.79448 17.4C7.9677 16.8857 8.83377 16.8857 9.44002 16.9714C10.0463 17.1429 10.5659 17.6572 10.6525 18.1714C10.2195 18.6 9.61323 18.7714 9.00698 18.6C8.40073 18.5143 7.70788 18 7.79448 17.4Z" fill="#32954A"/>
<path fill-rule="evenodd" clip-rule="evenodd" d="M34.0368 39.8571C31.8716 40.1999 28.4939 40.7142 27.368 38.6571C26.8484 37.7142 26.5886 36.1714 26.4153 34.7142C26.3287 33.9428 26.3287 33.2571 26.3287 32.5714C26.3287 32.2285 26.3287 31.8857 26.3287 31.5428C26.3287 31.4571 26.3287 31.3714 26.3287 31.1999C26.3287 31.1142 26.3287 31.0285 26.3287 30.8571C26.3287 30.5999 26.3287 30.3428 26.3287 30.0856C26.502 27.6856 27.368 25.7142 30.0528 24.7714C32.0448 24.2571 34.3832 25.1142 36.4618 24.9428C37.9341 24.9428 40.7921 24.0857 42.1778 23.5714C40.2725 23.6571 38.7136 24.1714 36.4618 24.1714C33.3439 23.8285 31.0921 22.1142 27.9743 23.6571C28.4939 22.1999 29.1868 21.2571 30.5725 20.4857C32.3046 19.5428 33.5171 19.4571 35.0761 18.0857C35.6823 17.4857 36.5484 16.7142 37.1546 16.1142C36.202 16.6285 35.5957 17.1428 34.7296 17.6571C33.1707 18.6857 31.785 18.6857 30.0528 19.1999C28.1475 19.7999 26.935 21.0857 25.8957 22.7999C25.8091 21.5999 25.8957 20.6571 26.2421 19.2857C26.6752 18.0857 27.2814 17.1428 27.8877 16.0285C29.36 13.7999 30.5725 11.9999 30.1395 9.25708C30.2261 11.9142 28.6671 13.4571 27.0216 15.4285C26.0689 16.5428 25.3761 17.4857 24.7698 18.8571C24.077 20.3999 23.8171 21.5999 23.8171 23.1428C23.8171 21.5999 23.4707 20.3999 22.7778 18.8571C22.1716 17.4857 21.3921 16.6285 20.5261 15.4285C18.8805 13.7142 17.3216 12.1714 17.4948 9.42851C17.0618 12.1714 18.3609 13.9714 19.7466 16.1999C20.4395 17.3142 20.9591 18.2571 21.3921 19.4571C21.8252 20.8285 21.8252 21.6856 21.7386 22.9714C20.7859 21.2571 19.4868 19.9714 17.5814 19.3714C15.9359 18.8571 14.4636 18.8571 12.9912 17.8285C12.1252 17.3142 11.4323 16.7999 10.5662 16.2857C11.1725 16.8857 11.952 17.6571 12.6448 18.2571C14.1171 19.6285 15.3296 19.7142 16.9752 20.6571C18.3609 21.5142 19.0537 22.3714 19.66 23.8285C16.4555 22.2857 14.1171 23.9999 10.9993 24.3428C8.74749 24.3428 7.18856 23.8285 5.2832 23.7428C6.75552 24.2571 9.52695 25.1142 10.9993 25.1142C13.1645 25.1999 15.5028 24.4285 17.5814 24.9428C20.6127 25.9714 21.2189 28.6285 21.2189 31.5428C21.2189 33.5142 21.1323 36.8571 20.1796 38.6571C19.0537 40.7142 15.6761 40.1999 13.5109 39.8571C10.7395 39.6856 8.66088 40.7999 5.80285 41.0571C6.58231 41.5714 11.2591 40.7999 12.7314 40.7999C13.8573 40.7999 14.377 41.1428 15.4162 41.3999C14.0305 41.9142 12.9046 42.3428 12.385 42.7714C11.8653 43.1142 10.5662 44.6571 9.78678 44.3142C10.0466 45.0857 12.2118 43.9714 12.6448 43.6285C14.8966 42.1714 15.7627 42.8571 17.4948 42.3428C16.0225 45.3428 10.9127 45.7714 9.35374 48.0856C9.18053 48.4285 9.00731 49.1142 9.18053 49.4571C9.61356 47.7428 11.7787 47.2285 12.6448 46.9714C14.4636 46.4571 16.9752 45.2571 18.2743 44.2285C19.227 43.4571 19.8332 42.6856 20.6127 41.6571C20.6993 43.2856 19.9198 43.9714 18.8805 45.3428C16.9752 47.3999 18.7073 49.2856 16.0225 52.2856C19.4868 50.3999 18.8805 47.5714 20.093 46.0285C20.6127 45.2571 21.1323 44.8285 21.5653 44.0571C20.6993 46.6285 20.8725 48.3428 22.7778 50.3999C22.8645 50.4856 23.0377 50.7428 23.3841 51.0856C22.3448 52.7999 21.4787 54.8571 22.085 56.8285C21.9984 54.8571 23.0377 52.9714 23.9037 51.7714C24.7698 52.9714 25.8091 54.8571 25.7225 56.7428C26.2421 54.7714 25.3761 52.7999 24.4234 51.0856C24.6832 50.7428 24.943 50.4856 25.0296 50.4856C26.935 48.5142 27.1948 46.7142 26.2421 44.1428C26.6752 44.8285 27.1948 45.3428 27.7145 46.1142C29.0136 47.6571 28.4073 50.5714 31.785 52.4571C29.0136 49.3714 30.7457 47.5714 28.927 45.5142C27.8877 44.1428 27.1082 43.4571 27.1948 41.8285C27.9743 42.9428 28.5805 43.7142 29.5332 44.3999C30.8323 45.4285 33.2573 46.6285 35.1627 47.1428C36.0287 47.4856 38.1939 47.9999 38.627 49.6285C38.7136 49.2857 38.627 48.5999 38.4537 48.2571C36.8948 45.9428 31.785 45.5142 30.3127 42.5142C32.0448 43.0285 32.9109 42.4285 35.1627 43.7999C35.5957 44.1428 37.7609 45.1714 38.0207 44.4857C37.2412 44.8285 35.9421 43.2856 35.4225 42.9428C34.9028 42.5142 33.6903 42.0857 32.3912 41.5714C33.4305 41.3999 33.8636 40.9714 35.0761 40.9714C36.5484 40.9714 41.1386 41.7428 42.0046 41.2285C38.9734 40.7999 36.8948 39.6856 34.0368 39.8571ZM24.6832 48.5999C24.5966 48.6856 24.5966 48.8571 24.51 48.9428C24.4234 49.1142 24.3368 49.1999 24.2502 49.3714C24.077 49.6285 23.9037 49.7999 23.7305 50.0571C23.5573 49.7999 23.3841 49.4571 23.2109 49.2856C23.1243 49.1142 23.0377 49.0285 22.9511 48.8571C22.8645 48.7714 22.8645 48.5999 22.7778 48.5142C22.518 47.9142 22.4314 47.3142 22.4314 46.7142C22.4314 46.5428 22.4314 46.4571 22.4314 46.3714C22.518 45.3428 22.9511 44.2285 23.5573 43.0285C24.2502 44.3142 24.6832 45.3428 24.7698 46.4571C24.7698 46.5428 24.7698 46.7142 24.7698 46.7999C25.0296 47.3142 24.943 47.9142 24.6832 48.5999Z" fill="#23242A"/>
</svg>
