<svg width="224" height="70" viewBox="0 0 224 70" fill="none" xmlns="http://www.w3.org/2000/svg">
<path d="M81.8399 32.28C82.0799 31.92 82.1999 31.6801 82.1999 31.2001C82.1999 30.1201 81.3599 29.2801 80.2799 29.2801C79.7999 29.2801 79.3199 29.5201 78.8399 30.1201C77.1599 31.8001 75.7199 32.4001 73.0799 32.4001C68.3999 32.4001 66.3599 29.8801 66.3599 23.7601C66.3599 18.0001 68.3999 15.1201 73.0799 15.1201C75.7199 15.1201 77.1599 15.9601 78.5999 17.5201C79.0799 18.0001 79.5599 18.2401 80.0399 18.2401C81.1199 18.2401 81.9599 17.4001 81.9599 16.4401C81.9599 15.9601 81.8399 15.6001 81.5999 15.2401C80.1599 13.0801 77.3999 11.4001 73.0799 11.4001C66.1199 11.4001 62.1599 15.4801 62.1599 23.7601C62.1599 32.0401 66.1199 36.0001 73.0799 36.0001C76.7999 36.0001 80.1599 34.5601 81.8399 32.28ZM100.92 35.5201C101.88 35.5201 102.48 34.8001 102.48 33.9601C102.48 33.1201 101.88 32.4001 100.92 32.4001L100.08 32.4001L100.08 25.2001C100.08 22.2001 98.9999 19.0801 94.1999 19.0801C91.7999 19.0801 90.3599 20.1601 89.7599 21.2401L89.7599 12.4801C89.7599 11.5201 88.9199 10.5601 87.9599 10.5601L85.0799 10.5601C84.2399 10.5601 83.5199 11.2801 83.5199 12.1201C83.5199 13.0801 84.2399 13.6801 85.0799 13.6801L85.9199 13.6801L85.9199 32.4001L85.0799 32.4001C84.2399 32.4001 83.5199 33.1201 83.5199 33.9601C83.5199 34.92 84.2399 35.5201 85.0799 35.5201L90.5999 35.5201C91.4399 35.5201 92.1599 34.8001 92.1599 33.9601C92.1599 33.1201 91.4399 32.4001 90.5999 32.4001L89.7599 32.4001L89.7599 26.4001C89.7599 24.2401 90.5999 22.5601 93.2399 22.5601C95.5199 22.5601 96.3599 23.8801 96.3599 25.9201L96.3599 32.4001L95.5199 32.4001C94.5599 32.4001 93.8399 33.1201 93.8399 33.9601C93.8399 34.92 94.5599 35.5201 95.5199 35.5201L100.92 35.5201ZM118.92 35.5201C119.88 35.5201 120.48 34.8001 120.48 33.9601C120.48 33.1201 119.88 32.4001 118.92 32.4001L118.08 32.4001L118.08 24.9601C118.08 21.2401 115.56 19.0801 111.12 19.0801C108.12 19.0801 106.44 20.2801 105.36 21.3601C105.12 21.7201 105 22.2001 105 22.5601C105 23.4001 105.72 24.2401 106.56 24.2401C107.04 24.2401 107.28 24.1201 107.64 23.8801C108.48 23.1601 109.56 22.4401 111.12 22.4401C113.16 22.4401 114.36 23.5201 114.36 25.0801L114.36 25.8001L109.8 25.8001C106.68 25.8001 104.04 27.4801 104.04 30.7201C104.04 33.9601 106.32 36.0001 109.8 36.0001C111.84 36.0001 113.4 35.5201 114.36 33.9601C114.36 34.8001 115.2 35.5201 116.16 35.5201L118.92 35.5201ZM107.88 30.7201C107.88 29.4001 108.72 28.6801 110.28 28.6801L114.36 28.6801L114.36 29.6401C114.36 31.6801 112.68 32.8801 110.76 32.8801C108.84 32.8801 107.88 32.0401 107.88 30.7201ZM135.36 21.6001C135.6 21.3601 135.96 21.2401 136.32 21.2401C137.28 21.2401 138 20.5201 138 19.6801C138 18.8401 137.28 18.1201 136.32 18.1201C134.64 18.1201 133.56 18.8401 132.84 19.6801C131.88 19.3201 130.8 19.0801 129.48 19.0801C125.16 19.0801 122.64 21.3601 122.64 25.0801C122.64 26.4001 122.76 27.4801 123.72 28.9201C122.76 29.5201 122.52 30.6001 122.52 31.3201C122.52 32.5201 123.24 33.3601 124.2 33.9601C122.64 34.9201 122.04 36.1201 122.04 37.4401C122.04 41.5201 126.12 42.6001 129.96 42.6001C134.4 42.6001 137.76 40.9201 137.76 37.3201C137.76 33.7201 134.88 32.5201 131.16 32.5201L127.92 32.5201C126.36 32.5201 125.88 31.9201 125.88 31.3201C125.88 31.0801 126 30.7201 126.24 30.6001C127.08 30.9601 128.28 31.0801 129.48 31.0801C133.8 31.0801 136.32 28.8001 136.32 25.0801C136.32 23.7601 136.08 22.5601 135.36 21.6001ZM129.48 22.2001C131.52 22.2001 132.72 23.5201 132.72 25.0801C132.72 26.7601 131.52 27.9601 129.48 27.9601C127.44 27.9601 126.24 26.7601 126.24 25.0801C126.24 23.5201 127.44 22.2001 129.48 22.2001ZM129.96 39.3601C127.32 39.3601 125.88 38.7601 125.88 37.4401C125.88 36.6001 126.6 35.8801 127.92 35.5201L131.16 35.5201C132.84 35.5201 133.92 36.1201 133.92 37.3201C133.92 38.7601 132 39.3601 129.96 39.3601ZM154.2 35.5201C155.04 35.5201 155.76 34.8001 155.76 33.9601C155.76 33.1201 155.04 32.4001 154.2 32.4001L153.36 32.4001L153.36 24.9601C153.36 21.2401 150.72 19.0801 146.4 19.0801C143.4 19.0801 141.6 20.2801 140.64 21.3601C140.4 21.7201 140.16 22.2001 140.16 22.5601C140.16 23.4001 140.88 24.2401 141.84 24.2401C142.32 24.2401 142.56 24.1201 142.92 23.8801C143.76 23.1601 144.84 22.4401 146.4 22.4401C148.44 22.4401 149.64 23.5201 149.64 25.0801L149.64 25.8001L144.96 25.8001C141.96 25.8001 139.32 27.4801 139.32 30.7201C139.32 33.9601 141.6 36.0001 145.08 36.0001C147.12 36.0001 148.68 35.5201 149.64 33.9601C149.64 34.8001 150.36 35.5201 151.32 35.5201L154.2 35.5201ZM143.16 30.7201C143.16 29.4001 144 28.6801 145.56 28.6801L149.64 28.6801L149.64 29.6401C149.64 31.6801 147.84 32.8801 146.04 32.8801C144.12 32.8801 143.16 32.0401 143.16 30.7201ZM176.28 35.5201C177.36 35.5201 178.08 34.8001 178.08 33.7201C178.08 32.7601 177.36 31.9201 176.28 31.9201L174.84 31.9201L170.64 26.2801C174 25.8001 176.04 22.5601 176.04 19.3201C176.04 15.3601 173.4 11.8801 168.72 11.8801L159.36 11.8801C158.4 11.8801 157.56 12.7201 157.56 13.6801C157.56 14.7601 158.4 15.4801 159.36 15.4801L159.96 15.4801L159.96 31.9201L159.36 31.9201C158.4 31.9201 157.56 32.7601 157.56 33.7201C157.56 34.8001 158.4 35.5201 159.36 35.5201L164.52 35.5201C165.6 35.5201 166.32 34.8001 166.32 33.7201C166.32 32.7601 165.6 31.9201 164.52 31.9201L164.04 31.9201L164.04 26.5201L166.32 26.5201L171.96 34.8001C172.32 35.4001 172.8 35.5201 173.4 35.5201L176.28 35.5201ZM168.6 15.6001C170.88 15.6001 171.84 17.4001 171.84 19.3201C171.84 21.1201 170.88 22.9201 168.72 22.9201L164.04 22.9201L164.04 15.6001L168.6 15.6001ZM194.88 27.6001C194.88 21.8401 192 19.0801 187.2 19.0801C182.4 19.0801 179.52 21.8401 179.52 27.6001C179.52 33.3601 182.52 36.0001 187.2 36.0001C191.88 36.0001 194.88 33.3601 194.88 27.6001ZM187.2 32.7601C184.68 32.7601 183.36 31.0801 183.36 27.6001C183.36 24.1201 184.68 22.3201 187.2 22.3201C189.72 22.3201 191.04 24.1201 191.04 27.6001C191.04 31.0801 189.72 32.7601 187.2 32.7601ZM212.76 27.6001C212.76 21.8401 209.76 19.0801 205.08 19.0801C200.4 19.0801 197.4 21.8401 197.4 27.6001C197.4 33.3601 200.28 36.0001 205.08 36.0001C209.88 36.0001 212.76 33.3601 212.76 27.6001ZM205.08 32.7601C202.56 32.7601 201.24 31.0801 201.24 27.6001C201.24 24.1201 202.56 22.3201 205.08 22.3201C207.6 22.3201 208.92 24.1201 208.92 27.6001C208.92 31.0801 207.6 32.7601 205.08 32.7601ZM216.96 19.5601L216.12 19.5601C215.28 19.5601 214.56 20.2801 214.56 21.2401C214.56 22.0801 215.28 22.8001 216.12 22.8001L216.96 22.8001L216.96 31.0801C216.96 33.8401 219 35.8801 222.24 35.8801C223.2 35.8801 223.92 35.1601 223.92 34.2001C223.92 33.2401 223.2 32.5201 222.24 32.5201C221.52 32.5201 220.68 32.0401 220.68 31.3201L220.68 22.8001L222.24 22.8001C223.2 22.8001 223.8 22.0801 223.8 21.2401C223.8 20.2801 223.2 19.5601 222.24 19.5601L220.68 19.5601L220.68 16.6801C220.68 15.6001 219.84 14.7601 218.88 14.7601C217.8 14.7601 216.96 15.6001 216.96 16.6801L216.96 19.5601Z" fill="white"/>
<path d="M218.52 54.3601C218.64 52.9201 219.36 52.0801 220.8 52.0801C222.48 52.0801 222.96 53.2801 222.96 54.3601L218.52 54.3601ZM223.92 54.2401C223.92 53.1601 223.44 51.1201 220.8 51.1201C218.64 51.1201 217.44 52.4401 217.44 54.9601C217.44 57.7201 218.76 58.9201 220.92 58.9201C222.48 58.9201 223.32 58.3201 223.56 58.0801C223.68 57.9601 223.68 57.8401 223.68 57.7201C223.68 57.3601 223.44 57.2401 223.2 57.2401L222.96 57.2401C222.48 57.6001 221.88 57.9601 220.92 57.9601C219.48 57.9601 218.52 57.0001 218.52 55.3201L223.32 55.3201C223.92 55.3201 223.92 54.7201 223.92 54.2401Z" fill="white"/>
<path d="M216.12 52.3199C216.48 52.3199 216.6 52.0799 216.6 51.8399C216.6 51.4799 216.48 51.3599 216.12 51.3599L214.2 51.3599C213.96 51.3599 213.72 51.4799 213.72 51.8399C213.72 52.0799 213.96 52.3199 214.2 52.3199L214.68 52.3199L212.64 57.2399L210.72 52.3199L211.2 52.3199C211.44 52.3199 211.68 52.0799 211.68 51.8399C211.68 51.4799 211.44 51.3599 211.2 51.3599L209.16 51.3599C208.92 51.3599 208.68 51.4799 208.68 51.8399C208.68 52.0799 208.92 52.3199 209.16 52.3199L209.52 52.3199L212.16 58.5599C212.28 58.7999 212.52 58.9199 212.64 58.9199C212.88 58.9199 213.12 58.7999 213.12 58.5599L215.76 52.3199L216.12 52.3199Z" fill="white"/>
<path d="M206.52 49.6801C206.88 49.6801 207.12 49.4401 207.12 48.9601C207.12 48.4801 206.88 48.3601 206.52 48.3601C206.16 48.3601 205.92 48.4801 205.92 48.9601C205.92 49.4401 206.16 49.6801 206.52 49.6801Z" fill="white"/>
<path d="M207.72 58.7999C208.08 58.7999 208.2 58.5599 208.2 58.3199C208.2 57.9599 208.08 57.7199 207.72 57.7199L207.12 57.7199L207.12 51.8399C207.12 51.5999 206.88 51.3599 206.52 51.3599L205.32 51.3599C205.08 51.3599 204.84 51.4799 204.84 51.8399C204.84 52.0799 205.08 52.3199 205.32 52.3199L206.04 52.3199L206.04 57.7199L205.32 57.7199C205.08 57.7199 204.84 57.9599 204.84 58.3199C204.84 58.5599 205.08 58.7999 205.32 58.7999L207.72 58.7999Z" fill="white"/>
<path d="M202.56 58.8001C202.8 58.8001 203.04 58.5601 203.04 58.3201C203.04 57.9601 202.8 57.7201 202.56 57.7201L201.12 57.7201L201.12 54.7201C201.12 53.1601 201.84 52.0801 203.4 52.0801C203.64 52.0801 203.88 51.8401 203.88 51.6001C203.88 51.3601 203.64 51.1201 203.4 51.1201C202.2 51.1201 201.48 51.7201 201.12 52.4401L201.12 51.8401C201.12 51.4801 200.88 51.3601 200.52 51.3601L199.32 51.3601C199.08 51.3601 198.84 51.4801 198.84 51.8401C198.84 52.0801 199.08 52.3201 199.32 52.3201L200.04 52.3201L200.04 57.7201L199.32 57.7201C199.08 57.7201 198.84 57.9601 198.84 58.3201C198.84 58.5601 199.08 58.8001 199.32 58.8001L202.56 58.8001Z" fill="white"/>
<path d="M197.52 58.8C197.76 58.8 198 58.56 198 58.32C198 57.96 197.76 57.72 197.52 57.72L196.8 57.72L196.8 54C196.8 52.56 196.32 51.12 193.8 51.12C192.72 51.12 191.88 51.6 191.52 52.2L191.52 47.52C191.52 47.28 191.4 47.04 191.04 47.04L189.84 47.04C189.6 47.04 189.36 47.28 189.36 47.64C189.36 47.88 189.6 48.12 189.84 48.12L190.56 48.12L190.56 57.72L189.84 57.72C189.6 57.72 189.36 57.96 189.36 58.32C189.36 58.56 189.6 58.8 189.84 58.8L192.24 58.8C192.6 58.8 192.72 58.56 192.72 58.32C192.72 57.96 192.6 57.72 192.24 57.72L191.52 57.72L191.52 54.36C191.52 53.04 192.24 52.08 193.8 52.08C195.36 52.08 195.72 52.92 195.72 54.24L195.72 57.72L195 57.72C194.76 57.72 194.52 57.96 194.52 58.32C194.52 58.56 194.76 58.8 195 58.8L197.52 58.8Z" fill="white"/>
<path d="M188.28 48.2398C188.28 47.9998 188.04 47.7598 187.8 47.7598L180.72 47.7598C180.48 47.7598 180.24 47.9998 180.24 48.2398L180.24 50.2798C180.24 50.5198 180.48 50.7598 180.72 50.7598C181.08 50.7598 181.2 50.5198 181.2 50.2798L181.2 48.7198L183.72 48.7198L183.72 57.7198L183 57.7198C182.64 57.7198 182.52 57.9598 182.52 58.1998C182.52 58.5598 182.64 58.7998 183 58.7998L185.52 58.7998C185.76 58.7998 186 58.5598 186 58.1998C186 57.9598 185.76 57.7198 185.52 57.7198L184.8 57.7198L184.8 48.7198L187.2 48.7198L187.2 50.2798C187.2 50.5198 187.44 50.7598 187.8 50.7598C188.04 50.7598 188.28 50.5198 188.28 50.2798L188.28 48.2398Z" fill="white"/>
<path d="M175.32 58.8C175.68 58.8 175.8 58.56 175.8 58.32C175.8 57.96 175.68 57.72 175.32 57.72L174.6 57.72L174.6 54C174.6 52.56 174.12 51.12 171.6 51.12C170.52 51.12 169.8 51.6 169.44 52.2L169.44 47.52C169.44 47.28 169.2 47.04 168.96 47.04L167.76 47.04C167.52 47.04 167.28 47.28 167.28 47.64C167.28 47.88 167.52 48.12 167.76 48.12L168.36 48.12L168.36 57.72L167.76 57.72C167.4 57.72 167.28 57.96 167.28 58.32C167.28 58.56 167.4 58.8 167.76 58.8L170.16 58.8C170.4 58.8 170.64 58.56 170.64 58.32C170.64 57.96 170.4 57.72 170.16 57.72L169.44 57.72L169.44 54.36C169.44 53.04 170.16 52.08 171.6 52.08C173.28 52.08 173.64 52.92 173.64 54.24L173.64 57.72L172.92 57.72C172.68 57.72 172.44 57.96 172.44 58.32C172.44 58.56 172.68 58.8 172.92 58.8L175.32 58.8Z" fill="white"/>
<path d="M163.2 52.0801C164.04 52.0801 164.52 52.3201 165 52.8001C165.12 52.9201 165.24 52.9201 165.36 52.9201C165.6 52.9201 165.84 52.6801 165.84 52.4401C165.84 52.3201 165.72 52.2001 165.72 52.2001C165.24 51.4801 164.4 51.1201 163.2 51.1201C161.88 51.1201 160.68 51.7201 160.68 53.0401C160.68 55.8001 165 55.0801 165 56.7601C165 57.6001 164.28 57.9601 163.32 57.9601C162.36 57.9601 161.76 57.6001 161.28 57.1201C161.04 57.0001 160.92 57.0001 160.8 57.0001C160.56 57.0001 160.44 57.2401 160.44 57.4801L160.44 57.7201C160.92 58.3201 162 58.9201 163.32 58.9201C164.88 58.9201 166.08 58.3201 166.08 56.7601C166.08 54.1201 161.76 54.8401 161.76 53.0401C161.76 52.3201 162.48 52.0801 163.2 52.0801Z" fill="white"/>
<path d="M157.68 49.6801C158.04 49.6801 158.28 49.4401 158.28 48.9601C158.28 48.4801 158.04 48.3601 157.68 48.3601C157.2 48.3601 156.96 48.4801 156.96 48.9601C156.96 49.4401 157.2 49.6801 157.68 49.6801Z" fill="white"/>
<path d="M158.88 58.8001C159.12 58.8001 159.36 58.5601 159.36 58.3201C159.36 57.9601 159.12 57.7201 158.88 57.7201L158.16 57.7201L158.16 51.8401C158.16 51.6001 157.92 51.3601 157.68 51.3601L156.48 51.3601C156.12 51.3601 155.88 51.4801 155.88 51.8401C155.88 52.0801 156.12 52.3201 156.48 52.3201L157.08 52.3201L157.08 57.7201L156.48 57.7201C156.12 57.7201 155.88 57.9601 155.88 58.3201C155.88 58.5601 156.12 58.8001 156.48 58.8001L158.88 58.8001Z" fill="white"/>
<path d="M153.6 58.8001C153.84 58.8001 154.08 58.5601 154.08 58.3201C154.08 57.9601 153.84 57.7201 153.6 57.7201L152.16 57.7201L152.16 54.7201C152.16 53.1601 153 52.0801 154.44 52.0801C154.8 52.0801 154.92 51.8401 154.92 51.6001C154.92 51.3601 154.8 51.1201 154.44 51.1201C153.36 51.1201 152.52 51.7201 152.16 52.4401L152.16 51.8401C152.16 51.4801 152.04 51.3601 151.68 51.3601L150.48 51.3601C150.12 51.3601 150 51.4801 150 51.8401C150 52.0801 150.12 52.3201 150.48 52.3201L151.2 52.3201L151.2 57.7201L150.48 57.7201C150.12 57.7201 150 57.9601 150 58.3201C150 58.5601 150.12 58.8001 150.48 58.8001L153.6 58.8001Z" fill="white"/>
<path d="M145.92 51.3601C145.68 51.3601 145.44 51.4801 145.44 51.8401C145.44 52.0801 145.68 52.3201 145.92 52.3201L146.64 52.3201L146.64 55.5601C146.64 56.8801 145.92 57.9601 144.36 57.9601C142.92 57.9601 142.56 57.0001 142.56 55.6801L142.56 51.7201C142.56 51.4801 142.2 51.3601 141.96 51.3601L140.76 51.3601C140.52 51.3601 140.28 51.4801 140.28 51.8401C140.28 52.0801 140.52 52.3201 140.76 52.3201L141.48 52.3201L141.48 55.9201C141.48 57.3601 141.84 58.9201 144.24 58.9201C145.44 58.9201 146.28 58.3201 146.64 57.7201L146.64 58.2001C146.64 58.5601 146.88 58.8001 147.24 58.8001L148.44 58.8001C148.68 58.8001 148.92 58.5601 148.92 58.3201C148.92 57.9601 148.68 57.7201 148.44 57.7201L147.72 57.7201L147.72 51.7201C147.72 51.4801 147.48 51.3601 147.24 51.3601L145.92 51.3601Z" fill="white"/>
<path d="M135.72 57.9601C134.28 57.9601 133.44 57.1201 133.44 54.9601C133.44 52.9201 134.28 52.0801 135.72 52.0801C137.28 52.0801 138.12 52.9201 138.12 54.9601C138.12 57.1201 137.28 57.9601 135.72 57.9601ZM135.72 51.1201C133.68 51.1201 132.36 52.3201 132.36 54.9601C132.36 57.6001 133.68 58.9201 135.72 58.9201C137.88 58.9201 139.2 57.7201 139.2 54.9601C139.2 52.2001 137.88 51.1201 135.72 51.1201Z" fill="white"/>
<path d="M123.72 58.8C124.08 58.8 124.32 58.56 124.32 58.2C124.32 57.96 124.08 57.72 123.72 57.72L123.12 57.72L123.12 49.92L128.88 58.68C129 58.8 129.12 58.92 129.36 58.92C129.72 58.92 129.96 58.68 129.96 58.32L129.96 48.72L130.56 48.72C130.8 48.72 131.04 48.48 131.04 48.24C131.04 48 130.8 47.76 130.56 47.76L128.16 47.76C127.92 47.76 127.68 48 127.68 48.24C127.68 48.48 127.92 48.72 128.16 48.72L128.88 48.72L128.88 56.52L123.12 48C123 47.88 122.88 47.76 122.64 47.76L121.44 47.76C121.2 47.76 120.96 48 120.96 48.24C120.96 48.48 121.2 48.72 121.44 48.72L122.04 48.72L122.04 57.72L121.44 57.72C121.2 57.72 120.96 57.96 120.96 58.2C120.96 58.56 121.2 58.8 121.44 58.8L123.72 58.8Z" fill="white"/>
<path d="M110.04 54.3599C110.16 52.9199 111 52.0799 112.44 52.0799C114.12 52.0799 114.48 53.2799 114.48 54.3599L110.04 54.3599ZM115.56 54.2399C115.56 53.1599 114.96 51.1199 112.44 51.1199C110.28 51.1199 108.96 52.4399 108.96 54.9599C108.96 57.7199 110.4 58.9199 112.56 58.9199C114 58.9199 114.84 58.3199 115.08 58.0799C115.2 57.9599 115.32 57.8399 115.32 57.7199C115.32 57.3599 115.08 57.2399 114.84 57.2399L114.48 57.2399C114 57.5999 113.52 57.9599 112.56 57.9599C111 57.9599 110.04 56.9999 110.04 55.3199L114.84 55.3199C115.56 55.3199 115.56 54.7199 115.56 54.2399Z" fill="white"/>
<path d="M104.76 52.0799C105.6 52.0799 106.08 52.3199 106.56 52.7999C106.68 52.9199 106.8 52.9199 106.92 52.9199C107.16 52.9199 107.28 52.6799 107.28 52.4399L107.28 52.1999C106.68 51.4799 105.84 51.1199 104.76 51.1199C103.32 51.1199 102.24 51.7199 102.24 53.0399C102.24 55.7999 106.56 55.0799 106.56 56.7599C106.56 57.5999 105.72 57.9599 104.76 57.9599C103.92 57.9599 103.2 57.5999 102.72 57.1199C102.6 56.9999 102.48 56.9999 102.36 56.9999C102.12 56.9999 101.88 57.2399 101.88 57.4799C101.88 57.5599 101.92 57.6399 102 57.7199C102.48 58.3199 103.44 58.9199 104.76 58.9199C106.32 58.9199 107.64 58.3199 107.64 56.7599C107.64 54.1199 103.32 54.8399 103.32 53.0399C103.32 52.3199 104.04 52.0799 104.76 52.0799Z" fill="white"/>
<path d="M95.4 58.7999C95.64 58.7999 95.88 58.5599 95.88 58.3199C95.88 57.9599 95.64 57.7199 95.4 57.7199L94.68 57.7199L94.68 54.3599C94.68 53.0399 95.28 52.0799 96.84 52.0799C98.4 52.0799 98.76 52.9199 98.76 54.2399L98.76 57.7199L98.16 57.7199C97.8 57.7199 97.68 57.9599 97.68 58.3199C97.68 58.5599 97.8 58.7999 98.16 58.7999L100.56 58.7999C100.8 58.7999 101.04 58.5599 101.04 58.3199C101.04 57.9599 100.8 57.7199 100.56 57.7199L99.84 57.7199L99.84 53.9999C99.84 52.5599 99.36 51.1199 96.84 51.1199C95.76 51.1199 94.92 51.5999 94.68 52.1999L94.68 51.8399C94.68 51.4799 94.44 51.3599 94.2 51.3599L92.88 51.3599C92.64 51.3599 92.4 51.4799 92.4 51.8399C92.4 52.0799 92.64 52.3199 92.88 52.3199L93.6 52.3199L93.6 57.7199L92.88 57.7199C92.64 57.7199 92.4 57.9599 92.4 58.3199C92.4 58.5599 92.64 58.7999 92.88 58.7999L95.4 58.7999Z" fill="white"/>
<path d="M89.2796 55.9201C89.2796 57.3601 88.1996 57.9601 87.1196 57.9601C85.7996 57.9601 85.1996 57.4801 85.1996 56.6401C85.1996 55.6801 85.9196 55.2001 86.9996 55.2001L89.2796 55.2001L89.2796 55.9201ZM91.0796 57.7201L90.3596 57.7201L90.3596 53.8801C90.3596 52.2001 89.2796 51.1201 87.3596 51.1201C86.0396 51.1201 85.0796 51.7201 84.7196 52.4401C84.5996 52.4401 84.5996 52.5601 84.5996 52.6801C84.5996 52.9201 84.8396 53.1601 85.0796 53.1601C85.1996 53.1601 85.3196 53.0401 85.4396 52.9201C86.0396 52.3201 86.5196 52.0801 87.3596 52.0801C88.5596 52.0801 89.2796 52.8001 89.2796 53.8801L89.2796 54.3601L86.9996 54.3601C85.1996 54.3601 84.1196 55.2001 84.1196 56.6401C84.1196 58.0801 85.1996 58.9201 86.9996 58.9201C87.9596 58.9201 89.0396 58.5601 89.3996 57.8401L89.3996 58.3201C89.3996 58.5601 89.5196 58.8001 89.7596 58.8001L91.0796 58.8001C91.3196 58.8001 91.5596 58.5601 91.5596 58.3201C91.5596 57.9601 91.3196 57.7201 91.0796 57.7201Z" fill="white"/>
<path d="M77.3999 54.3599C77.5199 52.9199 78.3599 52.0799 79.7999 52.0799C81.4799 52.0799 81.8399 53.2799 81.8399 54.3599L77.3999 54.3599ZM82.9199 54.2399C82.9199 53.1599 82.3199 51.1199 79.7999 51.1199C77.6399 51.1199 76.3199 52.4399 76.3199 54.9599C76.3199 57.7199 77.7599 58.9199 79.9199 58.9199C81.3599 58.9199 82.1999 58.3199 82.4399 58.0799C82.5599 57.9599 82.6799 57.8399 82.6799 57.7199C82.6799 57.3599 82.4399 57.2399 82.1999 57.2399L81.8399 57.2399C81.3599 57.5999 80.8799 57.9599 79.9199 57.9599C78.3599 57.9599 77.3999 56.9999 77.3999 55.3199L82.1999 55.3199C82.9199 55.3199 82.9199 54.7199 82.9199 54.2399Z" fill="white"/>
<path d="M74.8804 58.92C75.1204 58.92 75.3604 58.68 75.3604 58.44C75.3604 58.08 75.1204 57.96 74.8804 57.96L74.5204 57.96C74.0404 57.96 73.9203 57.6 73.9203 57L73.9203 47.64C73.9203 47.28 73.6804 47.04 73.4404 47.04L72.1203 47.04C71.8803 47.04 71.6404 47.28 71.6404 47.64C71.6404 47.88 71.8803 48.12 72.1203 48.12L72.8403 48.12L72.8403 57C72.8403 58.2 73.4403 58.92 74.4003 58.92L74.8804 58.92Z" fill="white"/>
<path d="M67.2 59.04C68.76 59.04 70.2 58.32 70.92 57.24C71 57.16 71.04 57.04 71.04 56.88C71.04 56.64 70.8 56.4 70.56 56.4C70.32 56.4 70.2 56.52 70.08 56.64C69.48 57.6 68.28 57.96 67.2 57.96C64.68 57.96 63.2401 56.64 63.2401 53.28C63.2401 49.92 64.68 48.48 67.2 48.48C68.4 48.48 69.48 49.08 70.08 49.92C70.2 50.04 70.32 50.16 70.56 50.16C70.8 50.16 71.04 49.92 71.04 49.56C71.04 49.44 71.04 49.32 70.92 49.2C70.2 48.12 68.76 47.52 67.2 47.52C64.08 47.52 62.16 49.32 62.16 53.28C62.16 57.24 64.08 59.04 67.2 59.04Z" fill="white"/>
<path fill-rule="evenodd" clip-rule="evenodd" d="M27.6001 -1.20119e-06C19.3201 -1.56312e-06 12.9601 5.52 8.04007 11.4C3.00007 17.4 7.51714e-05 25.68 7.47728e-05 34.8C7.43741e-05 43.92 3.00007 52.08 8.04007 57.96C12.6001 63.96 19.3201 69.48 27.6001 69.48C35.8801 69.48 42.4801 63.96 47.0401 57.96C52.0801 52.08 55.0801 43.8 55.0801 34.8C55.0801 25.8 52.0801 17.4 47.0401 11.4C42.1201 5.52 35.7601 -8.44505e-07 27.6001 -1.20119e-06V-1.20119e-06ZM27.6001 68.52C11.0401 68.52 3.12007 48.72 3.12007 34.8C3.12007 20.88 11.1601 1.08 27.6001 1.08C44.0401 1.08 51.9601 20.76 51.9601 34.8C51.9601 48.84 44.0401 68.52 27.6001 68.52Z" fill="white"/>
<path fill-rule="evenodd" clip-rule="evenodd" d="M27.6 13.2001C29.04 12.3601 30 10.6801 30 8.88006C30 7.08006 29.28 4.56006 27.6 4.56006C25.8 4.56006 25.08 7.08006 25.08 8.88006C25.08 10.6801 26.04 12.3601 27.6 13.2001Z" fill="#32954A"/>
<path fill-rule="evenodd" clip-rule="evenodd" d="M42.1198 14.2799C41.0398 12.9599 38.6398 13.9199 37.1998 15.1199C35.7598 16.3199 35.1598 18.2399 35.3998 19.9199C37.0798 20.5199 38.9998 20.2799 40.4398 19.0799C41.8798 17.8799 43.1998 15.5999 42.1198 14.2799Z" fill="#32954A"/>
<path fill-rule="evenodd" clip-rule="evenodd" d="M30.7198 12.96C31.7998 13.32 31.9198 15 31.5598 16.2C31.1998 17.4 30.2398 18.24 29.1598 18.48C28.3198 17.64 27.9598 16.44 28.3197 15.24C28.6797 14.04 29.6398 12.6 30.7198 12.96Z" fill="#975EA3"/>
<path fill-rule="evenodd" clip-rule="evenodd" d="M33.9598 7.19991C32.9998 6.83991 31.9198 8.03991 31.5598 8.99991C31.1998 10.0799 31.4398 11.1599 32.0398 11.9999C33.1198 11.8799 33.9598 11.1599 34.3198 10.0799C34.7998 9.11991 34.9198 7.55991 33.9598 7.19991Z" fill="#EC6442"/>
<path fill-rule="evenodd" clip-rule="evenodd" d="M38.4 10.7999C37.8 10.3199 36.8401 10.9199 36.2401 11.5199C35.6401 12.2399 35.5201 13.0799 35.7601 13.7999C36.6001 13.9199 37.3201 13.6799 37.9201 13.0799C38.5201 12.4799 39 11.3999 38.4 10.7999Z" fill="#975EA3"/>
<path fill-rule="evenodd" clip-rule="evenodd" d="M34.3196 20.3998C33.8396 19.7998 32.8797 20.2798 32.2797 20.8798C31.7997 21.3598 31.5597 22.1998 31.7997 22.9198C32.3997 23.0398 33.2397 22.9198 33.8397 22.4398C34.3197 21.8398 34.9196 20.8798 34.3196 20.3998Z" fill="#975EA3"/>
<path fill-rule="evenodd" clip-rule="evenodd" d="M47.64 24C47.4 22.8 45.36 22.56 44.04 22.92C42.6 23.16 41.64 24.24 41.16 25.44C42.12 26.4 43.44 26.88 44.88 26.64C46.2 26.28 47.88 25.32 47.64 24Z" fill="#EC6442"/>
<path fill-rule="evenodd" clip-rule="evenodd" d="M39.3599 25.0799C39.1199 24.3599 38.0399 24.2399 37.1999 24.3599C36.4799 24.5999 35.8799 25.1999 35.6399 25.7999C36.1199 26.3999 36.9599 26.6399 37.6799 26.5199C38.5199 26.2799 39.4799 25.7999 39.3599 25.0799Z" fill="#32954A"/>
<path fill-rule="evenodd" clip-rule="evenodd" d="M49.3197 29.7599C49.1997 29.2799 48.3597 29.2799 47.7597 29.3999C47.1597 29.6399 46.6797 29.9999 46.5597 30.5999C47.0397 30.9599 47.6397 31.1999 48.2397 30.9599C48.7197 30.8399 49.4397 30.3599 49.3197 29.7599Z" fill="#32954A"/>
<path fill-rule="evenodd" clip-rule="evenodd" d="M39.4803 31.92C39.2403 33 37.5603 33.12 36.4803 32.88C35.2803 32.64 34.4403 31.8 34.2003 30.72C34.9203 29.88 36.0003 29.52 37.2003 29.76C38.2803 30 39.7203 30.84 39.4803 31.92Z" fill="#975EA3"/>
<path fill-rule="evenodd" clip-rule="evenodd" d="M45.1201 31.3199C45.1201 32.0399 44.0401 32.3999 43.2001 32.3999C42.3601 32.3999 41.5201 31.9199 41.1601 31.3199C41.5201 30.5999 42.3601 30.1199 43.2001 30.1199C44.0401 30.1199 45.1201 30.4799 45.1201 31.3199Z" fill="#EC6442"/>
<path fill-rule="evenodd" clip-rule="evenodd" d="M44.9995 17.2798C44.7595 16.9198 44.1594 17.1598 43.6794 17.3998C43.3194 17.6398 43.0795 18.1198 43.0795 18.5998C43.5595 18.8398 44.0395 18.8398 44.5195 18.4798C44.8795 18.2398 45.3595 17.6398 44.9995 17.2798Z" fill="#EC6442"/>
<path fill-rule="evenodd" clip-rule="evenodd" d="M46.0796 20.28C45.8396 19.68 44.8796 19.68 44.1596 19.8C43.4396 20.04 42.9596 20.64 42.7196 21.24C43.1996 21.72 43.9196 21.96 44.6396 21.72C45.3596 21.6 46.3196 21 46.0796 20.28Z" fill="#32954A"/>
<path fill-rule="evenodd" clip-rule="evenodd" d="M12.9602 14.2799C14.1602 12.9599 16.5602 13.9199 18.0002 15.1199C19.4402 16.3199 20.0402 18.2399 19.6802 19.9199C18.0002 20.5199 16.2002 20.2799 14.7602 19.0799C13.3202 17.8799 11.8802 15.5999 12.9602 14.2799Z" fill="#32954A"/>
<path fill-rule="evenodd" clip-rule="evenodd" d="M24.3601 12.96C23.2801 13.32 23.2801 15 23.6401 16.2C24.0001 17.4 24.8401 18.24 26.0401 18.48C26.7601 17.64 27.1201 16.44 26.7601 15.24C26.4001 14.04 25.4401 12.6 24.3601 12.96Z" fill="#975EA3"/>
<path fill-rule="evenodd" clip-rule="evenodd" d="M21.2398 7.19991C22.1998 6.83991 23.1598 8.03991 23.5198 8.99991C23.9998 10.0799 23.7598 11.1599 23.0398 11.9999C22.0798 11.8799 21.1198 11.1599 20.7598 10.0799C20.2798 9.11991 20.2798 7.55991 21.2398 7.19991Z" fill="#EC6442"/>
<path fill-rule="evenodd" clip-rule="evenodd" d="M16.6797 10.7999C17.2797 10.3199 18.3597 10.9199 18.8397 11.5199C19.4397 12.2399 19.5597 13.0799 19.3197 13.7999C18.5997 13.9199 17.7597 13.6799 17.1597 13.0799C16.6797 12.4799 16.0797 11.3999 16.6797 10.7999Z" fill="#975EA3"/>
<path fill-rule="evenodd" clip-rule="evenodd" d="M20.7596 20.4002C21.2396 19.8002 22.1996 20.2802 22.7996 20.8802C23.3996 21.3602 23.5196 22.2002 23.3996 22.9202C22.6796 23.0402 21.8396 22.9202 21.3596 22.4402C20.7596 21.8402 20.2796 20.8802 20.7596 20.4002Z" fill="#975EA3"/>
<path fill-rule="evenodd" clip-rule="evenodd" d="M7.43993 24C7.79993 22.8 9.71993 22.56 11.1599 22.92C12.4799 23.16 13.5599 24.24 13.9199 25.44C13.0799 26.4 11.6399 26.88 10.3199 26.64C8.87992 26.28 7.19993 25.32 7.43993 24Z" fill="#EC6442"/>
<path fill-rule="evenodd" clip-rule="evenodd" d="M15.8394 25.0801C15.9594 24.3601 17.0395 24.2401 17.8795 24.3601C18.5995 24.6001 19.1995 25.2001 19.4395 25.8001C18.9595 26.4001 18.1194 26.6401 17.3994 26.5201C16.5594 26.2801 15.5994 25.8001 15.8394 25.0801Z" fill="#32954A"/>
<path fill-rule="evenodd" clip-rule="evenodd" d="M5.75952 29.7599C5.99952 29.2799 6.83953 29.2799 7.43953 29.3999C8.03953 29.6399 8.39953 29.9999 8.51953 30.5999C8.15953 30.9599 7.55952 31.1999 6.95952 30.9599C6.35952 30.8399 5.63952 30.3599 5.75952 29.7599Z" fill="#32954A"/>
<path fill-rule="evenodd" clip-rule="evenodd" d="M15.6 31.92C15.84 33 17.52 33.12 18.6 32.88C19.8 32.64 20.64 31.8 21 30.72C20.28 29.88 19.08 29.52 18 29.76C16.8 30 15.48 30.84 15.6 31.92Z" fill="#975EA3"/>
<path fill-rule="evenodd" clip-rule="evenodd" d="M9.95992 31.3199C9.95992 32.0399 11.1599 32.3999 11.9999 32.3999C12.8399 32.3999 13.5599 31.9199 13.9199 31.3199C13.5599 30.5999 12.8399 30.1199 11.9999 30.1199C11.1599 30.1199 9.95992 30.4799 9.95992 31.3199Z" fill="#EC6442"/>
<path fill-rule="evenodd" clip-rule="evenodd" d="M10.08 17.28C10.32 16.92 11.04 17.16 11.4 17.4C11.88 17.64 12 18.12 12 18.6C11.64 18.84 11.04 18.84 10.68 18.48C10.2 18.24 9.84 17.64 10.08 17.28Z" fill="#EC6442"/>
<path fill-rule="evenodd" clip-rule="evenodd" d="M9.00035 20.28C9.24035 19.68 10.2003 19.68 10.9203 19.8C11.6403 20.04 12.2404 20.64 12.3604 21.24C11.8804 21.72 11.1604 21.96 10.4404 21.72C9.72035 21.6 8.88035 21 9.00035 20.28Z" fill="#32954A"/>
<path fill-rule="evenodd" clip-rule="evenodd" d="M27.5998 27.24C27.5998 25.44 27.8398 24 28.6798 22.2C29.3998 20.64 30.2398 19.56 31.3198 18.24C33.2398 15.96 35.0398 14.16 34.9198 11.04C35.3998 14.28 33.9598 16.32 32.2798 18.96C31.5598 20.28 30.8398 21.36 30.3598 22.8C29.9998 24.36 29.8798 25.44 29.9998 26.88C31.1998 24.84 32.6399 23.4 34.7998 22.68C36.8398 22.08 38.3998 22.08 40.1998 20.88C41.1598 20.28 41.8798 19.68 42.9598 19.08C42.2398 19.8 41.2798 20.64 40.5598 21.36C38.7598 22.92 37.4398 23.04 35.3998 24.12C33.8398 25.08 32.9998 26.16 32.3998 27.84C35.9998 26.04 38.6399 28.08 42.2399 28.44C44.8799 28.44 46.6798 27.84 48.8398 27.72C47.2798 28.32 43.9199 29.28 42.2399 29.28C39.8399 29.4 37.0798 28.44 34.7998 29.04C31.1998 30.24 30.4798 33.36 30.4798 36.72C30.4798 39 30.5998 42.96 31.6798 45C32.9998 47.4 36.9598 46.8 39.3598 46.44C42.5998 46.2 45.1199 47.52 48.2399 47.88C46.7999 48 45.3598 47.76 44.0398 47.64C44.9998 48.24 45.5998 48.72 46.7998 49.08C46.9198 49.2 47.1598 49.2 47.3998 49.2L46.7998 49.2C44.5198 48.84 43.5598 47.28 40.9198 47.52C39.7198 47.52 38.5198 48 37.1998 48.24C38.8798 48.84 43.5598 48.84 43.3198 51C43.3198 49.56 41.1598 49.56 40.0798 49.56C40.4398 49.68 40.5598 49.68 41.0398 50.16C41.6398 50.52 42.4798 51.6 43.1998 52.2C43.7998 52.8 44.8798 53.64 45.7198 53.04C44.9998 53.76 43.7998 53.04 43.0798 52.56C42.3598 52.2 41.2798 51.24 40.6798 50.88C37.6798 49.32 36.9598 50.04 34.7998 49.32C36.4798 52.8 41.8798 53.64 44.1598 56.52C44.3998 56.76 44.6398 57.12 44.6398 57.48C44.5198 56.16 41.3998 55.08 40.4398 54.72C40.6798 55.2 40.7998 55.68 40.9198 56.16C41.0398 56.88 41.0398 57.96 41.6398 58.44C41.0398 58.08 40.7998 57 40.5598 56.28C40.3198 55.8 40.1998 55.44 39.9598 55.08C39.5998 54.6 39.3598 54.36 38.9998 54.12C37.3198 53.52 35.5198 52.68 34.1998 51.36C35.2798 53.04 37.6798 56.04 37.3198 58.08C37.4398 54.96 32.1598 51.72 31.3198 48.48C31.3198 50.4 32.2798 51.24 32.9998 52.8C33.5998 54.24 33.8398 55.32 33.8398 56.88C33.7198 58.08 33.5998 58.92 34.0798 60.12C34.7998 61.44 35.8798 62.52 36.3598 63.36C35.2798 62.16 34.0798 61.2 33.3598 59.64C33.1198 60.96 32.7598 62.28 32.2798 63.72C32.7598 61.44 33.2398 59.28 32.9998 56.88C32.8798 55.56 32.6398 54.72 31.9198 53.52C31.4398 52.8 30.7199 52.08 30.2399 51.24C31.0799 54.12 30.4798 56.4 28.5598 58.68C28.4398 58.92 28.1998 59.16 28.0798 59.28C29.5198 61.44 30.4798 62.88 29.6398 66C30.1198 63.12 29.1598 61.68 27.5998 59.88C26.0398 61.68 24.9598 63.12 25.5598 66C24.5998 62.88 25.5598 61.44 26.9998 59.28C26.8798 59.16 26.7598 58.92 26.5198 58.68C24.5998 56.4 24.1198 54.12 24.8398 51.24C24.3598 52.08 23.7598 52.8 23.1598 53.52C22.5598 54.72 22.3198 55.56 22.1998 56.88C21.9598 59.28 22.3198 61.44 22.9198 63.72C22.4398 62.28 21.9598 60.96 21.7198 59.64C21.1198 61.2 19.7998 62.16 18.7198 63.36C19.1998 62.52 20.2798 61.44 20.9998 60.12C21.4798 58.92 21.3598 58.08 21.3598 56.88C21.3598 55.32 21.4798 54.24 22.0798 52.8C22.7998 51.24 23.8798 50.4 23.7598 48.48C22.9198 51.72 17.7598 54.96 17.7598 58.08C17.5198 56.04 19.7999 53.04 20.8799 51.36C19.6798 52.68 17.8798 53.52 16.1998 54.12C15.7198 54.36 15.4799 54.6 15.2399 55.08C14.8799 55.44 14.7598 55.8 14.6398 56.28C14.3998 57 14.1598 58.08 13.4398 58.44C14.0398 57.96 14.1598 56.88 14.2798 56.16C14.3998 55.68 14.5198 55.2 14.6398 54.72C13.6798 55.08 10.6798 56.16 10.5598 57.48C10.4398 57.12 10.6798 56.76 10.9198 56.52C13.1998 53.64 18.5998 52.8 20.2798 49.32C18.2398 50.04 17.3998 49.32 14.3998 50.88C13.9198 51.24 12.7198 52.2 12.1198 52.56C11.3998 53.04 10.1998 53.76 9.35985 53.04C10.1998 53.64 11.2799 52.8 11.8799 52.2C12.5999 51.6 13.4398 50.52 14.0398 50.16C14.6398 49.68 14.7598 49.68 14.9998 49.56C13.9198 49.56 11.7598 49.56 11.7598 51C11.5198 48.84 16.3198 48.84 17.8799 48.24C16.6798 48 15.4798 47.52 14.1598 47.52C11.5199 47.28 10.6798 48.84 8.39984 49.2L7.79985 49.2C7.91985 49.2 8.15984 49.2 8.39984 49.08C9.47984 48.72 10.0798 48.24 11.1598 47.64C9.71985 47.76 8.27984 48 6.83984 47.88C10.0798 47.52 12.4798 46.2 15.7198 46.44C18.2398 46.8 22.0798 47.4 23.3998 45C24.4798 42.96 24.5998 39 24.5998 36.72C24.5998 33.36 23.8798 30.24 20.3998 29.04C17.9998 28.44 15.3598 29.4 12.8398 29.28C11.1598 29.28 7.91985 28.32 6.23985 27.72C8.39985 27.84 10.1998 28.44 12.8398 28.44C16.4398 28.08 19.0799 26.04 22.7998 27.84C22.0799 26.16 21.2398 25.08 19.6798 24.12C17.7598 23.04 16.3198 22.92 14.6398 21.36C13.7998 20.64 12.9599 19.8 12.2399 19.08C13.1999 19.68 14.0398 20.28 14.9998 20.88C16.6798 22.08 18.3598 22.08 20.2798 22.68C22.4398 23.4 23.9998 24.84 25.0798 26.88C25.1998 25.44 25.1998 24.36 24.7198 22.8C24.2398 21.36 23.6399 20.28 22.7999 18.96C21.1198 16.32 19.6799 14.28 20.1599 11.04C20.0399 14.16 21.8398 15.96 23.7598 18.24C24.8398 19.56 25.6798 20.64 26.3998 22.2C27.2398 24 27.5998 25.44 27.5998 27.24ZM27.5998 58.56C29.7598 55.44 29.1598 53.16 27.5998 49.92C25.9198 53.16 25.4398 55.44 27.5998 58.56Z" fill="white"/>
</svg>
