<svg width="1170" height="359" viewBox="0 0 1170 359" fill="none" xmlns="http://www.w3.org/2000/svg">
<path d="M426.938 166.845C427.982 164.778 429.026 163.745 429.026 161.162C429.026 155.48 424.85 151.348 419.109 151.348C416.499 151.348 413.89 152.381 411.802 155.48C402.929 164.262 395.622 167.361 381.53 167.361C357 167.361 346.561 154.447 346.561 122.938C346.561 92.9783 357 78.515 381.53 78.515C395.1 78.515 402.929 82.6474 410.236 90.9121C412.846 93.4949 415.455 94.528 417.543 94.528C423.284 94.528 427.46 90.3956 427.46 85.2301C427.46 82.6474 426.938 81.0977 425.372 79.0316C418.065 67.6675 403.451 59.4028 381.008 59.4028C344.473 59.4028 324.118 80.5812 324.118 123.455C324.118 166.328 344.995 185.957 381.53 185.957C400.842 185.957 418.587 178.725 426.938 166.845ZM526.626 183.374C531.845 183.374 534.977 179.758 534.977 175.109C534.977 170.46 531.845 166.845 526.626 166.845H522.451V129.653C522.451 114.157 516.709 98.1438 491.657 98.1438C479.131 98.1438 471.824 103.826 468.692 109.508V64.0517C468.692 58.8862 464.517 54.2373 459.297 54.2373H444.161C439.986 54.2373 435.811 57.8531 435.811 62.5021C435.811 67.6675 439.464 70.7668 444.161 70.7668H448.337V167.361H444.161C439.986 167.361 435.811 170.977 435.811 175.626C435.811 180.791 439.464 183.891 444.161 183.891H472.868C477.043 183.891 481.218 180.275 481.218 175.626C481.218 170.977 477.565 167.361 472.868 167.361H468.692V136.368C468.692 125.004 472.868 116.739 486.96 116.739C498.964 116.739 503.139 123.455 503.139 134.302V167.878H498.964C493.745 167.878 490.091 171.493 490.091 176.142C490.091 181.308 493.745 184.407 498.964 184.407H526.626V183.374ZM620.573 183.374C625.792 183.374 628.924 179.758 628.924 175.109C628.924 170.46 625.792 166.845 620.573 166.845H616.398V129.137C616.398 110.024 603.349 98.6603 579.863 98.6603C564.205 98.6603 555.332 104.859 549.591 110.541C548.547 112.607 547.503 114.673 547.503 116.739C547.503 120.872 551.157 125.521 555.854 125.521C558.464 125.521 559.507 125.004 561.595 123.455C565.771 119.839 571.512 116.223 579.863 116.223C590.301 116.223 596.564 121.905 596.564 129.653V133.269H572.556C556.376 133.269 542.284 142.05 542.284 158.58C542.284 175.109 554.288 185.957 572.556 185.957C582.994 185.957 591.345 183.374 596.564 175.626C596.564 179.758 600.74 183.891 605.959 183.891H620.573V183.374ZM563.161 158.58C563.161 151.865 567.336 148.249 575.687 148.249H597.086V153.414C597.086 163.745 588.214 169.944 578.297 169.944C567.858 169.944 563.161 165.295 563.161 158.58ZM706.691 111.574C707.735 110.541 709.823 109.508 711.91 109.508C717.13 109.508 720.783 105.892 720.783 101.243C720.783 96.5941 717.13 92.9783 711.91 92.9783C703.038 92.9783 697.296 96.5941 693.643 101.243C688.424 99.1769 683.204 98.1438 675.897 98.1438C653.454 98.1438 640.406 110.024 640.406 129.137C640.406 135.852 640.928 141.534 646.147 148.765C640.928 151.865 639.884 157.547 639.884 161.162C639.884 167.361 643.538 171.493 648.757 174.593C640.406 179.758 637.275 185.957 637.275 192.672C637.275 213.85 658.674 219.532 678.507 219.532C701.472 219.532 719.217 210.751 719.217 192.155C719.217 173.56 704.081 167.361 684.77 167.361H668.068C659.718 167.361 657.63 164.262 657.63 161.162C657.63 160.129 658.152 158.063 659.718 157.547C663.893 159.613 670.156 160.129 676.419 160.129C698.862 160.129 711.91 148.249 711.91 129.137C711.388 122.938 710.344 116.739 706.691 111.574ZM675.897 114.673C686.336 114.673 692.599 121.388 692.599 129.653C692.599 138.434 686.336 144.633 675.897 144.633C665.459 144.633 659.196 138.434 659.196 129.653C658.674 121.388 664.937 114.673 675.897 114.673ZM678.507 203.519C664.937 203.519 657.108 200.42 657.108 193.705C657.108 189.573 660.761 185.44 667.546 183.891H684.248C693.121 183.891 698.862 186.99 698.862 193.188C698.862 200.42 688.945 203.519 678.507 203.519ZM804.813 183.374C808.989 183.374 813.164 179.758 813.164 175.109C813.164 170.46 809.511 166.845 804.813 166.845H800.638V129.137C800.638 110.024 787.068 98.6603 764.103 98.6603C748.445 98.6603 739.051 104.859 733.831 110.541C732.787 112.607 731.222 114.673 731.222 116.739C731.222 120.872 734.875 125.521 740.094 125.521C742.704 125.521 743.748 125.004 745.836 123.455C750.011 119.839 755.752 116.223 764.103 116.223C774.542 116.223 780.805 121.905 780.805 129.653V133.269H756.796C741.138 133.269 727.568 142.05 727.568 158.58C727.568 175.109 739.572 185.957 757.84 185.957C768.278 185.957 776.629 183.374 781.849 175.626C781.849 179.758 785.502 183.891 790.721 183.891H804.813V183.374ZM747.401 158.58C747.401 151.865 751.577 148.249 759.928 148.249H781.327V153.414C781.327 163.745 771.932 169.944 762.537 169.944C752.099 169.944 747.401 165.295 747.401 158.58ZM920.159 183.374C925.901 183.374 929.554 179.758 929.554 174.076C929.554 168.911 925.901 164.778 920.159 164.778H912.852L890.931 135.852C908.677 133.269 919.116 116.739 919.116 99.6934C919.116 79.0315 905.545 61.469 881.015 61.469H831.954C826.734 61.469 822.559 65.6013 822.559 70.7668C822.559 76.4488 826.734 80.0646 831.954 80.0646H835.085V164.778H831.954C826.734 164.778 822.559 168.911 822.559 174.076C822.559 179.758 826.734 183.374 831.954 183.374H859.094C864.835 183.374 868.489 179.758 868.489 174.076C868.489 168.911 864.835 164.778 859.094 164.778H855.962V136.885H867.967L897.195 179.758C899.282 182.857 901.37 183.374 904.502 183.374H920.159ZM879.971 80.5812C891.975 80.5812 896.673 89.879 896.673 99.6934C896.673 108.991 891.453 118.289 880.493 118.289H855.962V80.5812H879.971ZM1017.24 142.567C1017.24 112.607 1002.1 98.6603 977.049 98.6603C951.997 98.6603 936.861 113.124 936.861 142.567C936.861 172.01 952.519 185.957 977.049 185.957C1001.58 185.957 1017.24 172.527 1017.24 142.567ZM977.049 169.427C964.001 169.427 957.216 160.646 957.216 142.567C957.216 124.488 964.001 115.19 977.049 115.19C990.098 115.19 996.883 124.488 996.883 142.567C996.883 160.646 990.098 169.427 977.049 169.427ZM1110.66 142.567C1110.66 112.607 1095.01 98.6603 1070.47 98.6603C1045.94 98.6603 1030.29 113.124 1030.29 142.567C1030.29 172.01 1045.42 185.957 1070.47 185.957C1095.53 185.957 1110.66 172.527 1110.66 142.567ZM1070.47 169.427C1057.43 169.427 1050.64 160.646 1050.64 142.567C1050.64 124.488 1057.43 115.19 1070.47 115.19C1083.52 115.19 1090.31 124.488 1090.31 142.567C1090.31 160.646 1083.52 169.427 1070.47 169.427ZM1132.58 101.243H1128.41C1124.23 101.243 1120.06 104.859 1120.06 110.024C1120.06 114.157 1123.71 118.289 1128.41 118.289H1132.58V161.162C1132.58 175.626 1143.02 185.957 1160.25 185.957C1165.47 185.957 1169.12 182.341 1169.12 177.175C1169.12 172.01 1165.47 168.394 1160.25 168.394C1156.59 168.394 1151.9 165.811 1151.9 162.196V118.289H1160.25C1165.47 118.289 1168.6 114.673 1168.6 110.024C1168.6 104.859 1165.47 101.243 1160.25 101.243H1151.9V86.2632C1151.9 80.5812 1147.72 76.4488 1142.5 76.4488C1136.76 76.4488 1132.58 80.5812 1132.58 86.2632V101.243Z" fill="#F9F9F9"/>
<path d="M1140.41 281.002C1140.94 273.77 1144.59 269.121 1152.42 269.121C1161.29 269.121 1163.9 275.32 1163.9 281.002H1140.41ZM1168.6 279.969C1168.6 274.287 1165.99 263.956 1152.42 263.956C1140.94 263.956 1134.67 270.671 1134.67 283.585C1134.67 298.048 1141.46 304.246 1152.94 304.246C1161.29 304.246 1165.47 301.147 1166.51 300.114C1167.03 299.598 1167.03 299.081 1167.03 298.048C1167.03 295.982 1165.99 295.465 1164.42 295.465H1163.9C1161.29 297.531 1158.16 299.081 1153.46 299.081C1146.15 299.081 1140.94 293.916 1140.94 285.651H1165.99C1168.6 285.651 1168.6 282.552 1168.6 279.969Z" fill="#F9F9F9"/>
<path d="M1127.89 270.154C1129.97 270.154 1130.5 269.121 1130.5 267.571C1130.5 265.505 1129.97 264.989 1127.89 264.989H1117.97C1116.93 264.989 1115.36 265.505 1115.36 267.571C1115.36 268.604 1116.4 270.154 1117.97 270.154H1120.58L1110.14 295.465L1100.22 270.154H1102.83C1103.88 270.154 1105.44 269.121 1105.44 267.571C1105.44 265.505 1104.4 264.989 1102.83 264.989H1092.39C1091.35 264.989 1089.79 265.505 1089.79 267.571C1089.79 268.604 1090.83 270.154 1092.39 270.154H1094.48L1108.05 302.18C1108.57 303.213 1110.14 304.246 1110.66 304.246C1111.71 304.246 1113.27 303.73 1113.27 302.18L1126.84 270.154H1127.89Z" fill="#F9F9F9"/>
<path d="M1077.78 256.724C1079.87 256.724 1080.91 255.691 1080.91 253.108C1080.91 250.525 1079.87 250.009 1077.78 250.009C1075.69 250.009 1074.65 250.525 1074.65 253.108C1074.65 255.691 1076.21 256.724 1077.78 256.724Z" fill="#F9F9F9"/>
<path d="M1084.04 303.73C1086.13 303.73 1086.65 302.696 1086.65 301.147C1086.65 299.081 1086.13 298.048 1084.04 298.048H1080.91V267.571C1080.91 266.538 1079.87 264.989 1077.78 264.989H1071.52C1070.47 264.989 1068.91 265.505 1068.91 267.571C1068.91 268.604 1069.95 270.154 1071.52 270.154H1075.17V298.048H1071.52C1070.47 298.048 1068.91 299.081 1068.91 301.147C1068.91 302.18 1069.95 303.73 1071.52 303.73H1084.04Z" fill="#F9F9F9"/>
<path d="M1057.43 303.73C1058.47 303.73 1060.04 302.697 1060.04 301.147C1060.04 299.081 1058.99 298.048 1057.43 298.048H1050.12V282.552C1050.12 274.287 1053.77 269.121 1062.12 269.121C1063.17 269.121 1064.73 268.088 1064.73 266.539C1064.73 265.505 1063.69 263.956 1062.12 263.956C1055.86 263.956 1052.21 267.055 1050.12 270.671V267.572C1050.12 265.505 1049.07 264.989 1046.99 264.989H1040.72C1039.68 264.989 1038.11 265.505 1038.11 267.572C1038.11 268.605 1039.16 270.154 1040.72 270.154H1044.38V298.048H1040.72C1039.68 298.048 1038.11 299.081 1038.11 301.147C1038.11 302.18 1039.16 303.73 1040.72 303.73H1057.43Z" fill="#F9F9F9"/>
<path d="M1030.81 303.73C1031.85 303.73 1033.42 302.697 1033.42 301.147C1033.42 299.081 1032.37 298.048 1030.81 298.048H1027.15V278.936C1027.15 271.704 1024.54 263.956 1011.49 263.956C1005.75 263.956 1001.58 266.538 999.49 269.638V245.36C999.49 244.327 998.968 242.777 996.881 242.777H990.617C989.574 242.777 988.008 243.81 988.008 245.877C988.008 246.91 989.052 248.459 990.617 248.459H994.271V298.048H990.617C989.574 298.048 988.008 299.081 988.008 301.147C988.008 302.18 989.052 303.73 990.617 303.73H1003.14C1005.23 303.73 1005.75 302.697 1005.75 301.147C1005.75 299.081 1005.23 298.048 1003.14 298.048H999.49V280.485C999.49 273.77 1003.14 268.605 1011.49 268.605C1019.85 268.605 1021.41 272.737 1021.41 279.969V298.048H1017.76C1016.71 298.048 1015.15 299.081 1015.15 301.147C1015.15 302.18 1016.19 303.73 1017.76 303.73H1030.81Z" fill="#F9F9F9"/>
<path d="M982.791 248.976C982.791 247.943 981.747 246.393 980.181 246.393H943.124C942.08 246.393 940.515 247.426 940.515 248.976V259.307C940.515 260.34 941.559 261.889 943.124 261.889C945.212 261.889 945.734 260.856 945.734 259.307V251.042H958.782V297.531H955.129C953.041 297.531 952.519 298.564 952.519 300.114C952.519 302.18 953.041 303.213 955.129 303.213H968.177C969.221 303.213 970.786 302.18 970.786 300.114C970.786 299.081 969.743 297.531 968.177 297.531H964.523V251.042H977.05V259.307C977.05 260.34 978.093 261.889 980.181 261.889C981.225 261.889 982.791 260.856 982.791 259.307V248.976Z" fill="#F9F9F9"/>
<path d="M914.941 303.73C917.029 303.73 917.551 302.697 917.551 301.147C917.551 299.081 917.029 298.048 914.941 298.048H911.288V278.936C911.288 271.704 908.678 263.956 895.63 263.956C889.889 263.956 886.235 266.538 884.147 269.638V245.36C884.147 244.327 883.104 242.777 881.538 242.777H875.275C874.231 242.777 872.665 243.81 872.665 245.877C872.665 246.91 873.709 248.459 875.275 248.459H878.406V298.048H875.275C873.187 298.048 872.665 299.081 872.665 301.147C872.665 302.18 873.187 303.73 875.275 303.73H887.801C888.845 303.73 890.411 302.697 890.411 301.147C890.411 299.081 889.367 298.048 887.801 298.048H884.147V280.485C884.147 273.77 887.801 268.605 895.63 268.605C904.503 268.605 906.068 272.737 906.068 279.969V298.048H902.415C901.371 298.048 899.805 299.081 899.805 301.147C899.805 302.18 900.849 303.73 902.415 303.73H914.941Z" fill="#F9F9F9"/>
<path d="M851.788 269.121C855.964 269.121 858.573 270.154 861.183 272.737C861.705 273.254 862.227 273.254 863.271 273.254C864.315 273.254 865.88 272.221 865.88 270.671C865.88 270.154 865.358 269.638 865.358 269.638C862.749 266.022 858.573 263.956 852.31 263.956C845.525 263.956 839.262 267.055 839.262 273.77C839.262 288.234 861.705 284.101 861.705 292.882C861.705 297.015 858.051 299.081 852.832 299.081C847.613 299.081 844.481 297.015 842.394 294.949C841.35 294.432 840.306 294.432 839.784 294.432C838.74 294.432 837.696 295.465 837.696 297.015V298.048C840.306 301.147 846.047 304.246 852.832 304.246C861.183 304.246 867.446 301.147 867.446 292.882C867.446 279.452 845.003 283.068 845.003 273.77C844.481 270.154 848.135 269.121 851.788 269.121Z" fill="#F9F9F9"/>
<path d="M823.083 256.724C825.171 256.724 826.215 255.691 826.215 253.108C826.215 250.525 825.171 250.009 823.083 250.009C820.474 250.009 819.43 250.525 819.43 253.108C819.43 255.691 820.474 256.724 823.083 256.724Z" fill="#F9F9F9"/>
<path d="M829.342 303.73C830.386 303.73 831.952 302.696 831.952 301.147C831.952 299.081 830.908 298.048 829.342 298.048H825.689V267.571C825.689 266.538 824.645 264.989 823.079 264.989H816.816C814.728 264.989 813.685 265.505 813.685 267.571C813.685 268.604 814.728 270.154 816.816 270.154H819.948V298.048H816.816C814.728 298.048 813.685 299.081 813.685 301.147C813.685 302.18 814.728 303.73 816.816 303.73H829.342Z" fill="#F9F9F9"/>
<path d="M801.683 303.73C802.727 303.73 804.293 302.697 804.293 301.147C804.293 299.081 803.249 298.048 801.683 298.048H794.376V282.552C794.376 274.287 798.551 269.121 806.38 269.121C808.468 269.121 808.99 268.088 808.99 266.539C808.99 265.505 808.468 263.956 806.38 263.956C800.639 263.956 796.464 267.055 794.376 270.671V267.572C794.376 265.505 793.854 264.989 791.766 264.989H785.503C783.415 264.989 782.894 265.505 782.894 267.572C782.894 268.605 783.415 270.154 785.503 270.154H789.157V298.048H785.503C783.415 298.048 782.894 299.081 782.894 301.147C782.894 302.18 783.415 303.73 785.503 303.73H801.683Z" fill="#F9F9F9"/>
<path d="M761.489 265.505C760.445 265.505 758.879 266.022 758.879 268.088C758.879 269.121 759.923 270.671 761.489 270.671H765.143V287.2C765.143 293.915 761.489 299.597 753.138 299.597C745.831 299.597 743.744 294.432 743.744 287.717V267.055C743.744 266.022 741.656 264.989 740.612 264.989H734.349C733.305 264.989 731.739 265.505 731.739 267.571C731.739 268.604 732.783 270.154 734.349 270.154H738.002V288.75C738.002 295.981 740.09 304.246 752.616 304.246C758.879 304.246 763.055 301.147 765.143 298.048V300.63C765.143 302.696 766.186 303.73 768.274 303.73H774.537C775.581 303.73 777.147 302.696 777.147 301.147C777.147 299.081 776.103 298.048 774.537 298.048H770.884V267.055C770.884 266.022 769.84 264.989 768.274 264.989H761.489V265.505Z" fill="#F9F9F9"/>
<path d="M708.253 299.598C700.946 299.598 696.249 295.465 696.249 284.101C696.249 273.77 700.424 269.121 708.253 269.121C716.604 269.121 720.78 273.254 720.78 284.101C720.78 294.949 716.604 299.598 708.253 299.598ZM708.253 263.956C697.815 263.956 690.508 270.154 690.508 283.585C690.508 297.015 697.293 304.246 708.253 304.246C719.736 304.246 726.521 298.048 726.521 283.585C726.521 269.638 719.736 263.956 708.253 263.956Z" fill="#F9F9F9"/>
<path d="M645.624 303.73C647.711 303.73 648.755 302.697 648.755 300.63C648.755 299.597 647.711 298.048 645.624 298.048H642.492V257.757L672.764 303.213C673.286 303.73 673.808 304.246 675.374 304.246C677.461 304.246 678.505 303.213 678.505 301.147V251.559H681.637C682.681 251.559 684.246 250.525 684.246 248.976C684.246 247.943 683.203 246.393 681.637 246.393H669.11C668.067 246.393 666.501 247.426 666.501 248.976C666.501 250.009 667.545 251.559 669.11 251.559H672.764V291.849L642.492 247.943C641.97 247.426 641.448 246.91 639.883 246.91H633.619C632.576 246.91 631.01 247.943 631.01 249.492C631.01 250.525 632.054 252.075 633.619 252.075H636.751V298.564H633.619C632.576 298.564 631.01 299.597 631.01 301.147C631.01 303.213 632.054 304.246 633.619 304.246H645.624V303.73Z" fill="#F9F9F9"/>
<path d="M574.118 281.002C574.64 273.77 579.337 269.121 586.644 269.121C595.517 269.121 597.083 275.32 597.083 281.002H574.118ZM603.346 279.969C603.346 274.287 600.214 263.956 587.166 263.956C575.683 263.956 568.898 270.671 568.898 283.585C568.898 298.048 576.205 304.246 587.688 304.246C594.995 304.246 599.692 301.147 600.736 300.114C601.258 299.598 601.78 299.081 601.78 298.048C601.78 295.982 600.736 295.465 599.17 295.465H597.083C594.473 297.531 591.863 299.081 587.166 299.081C578.815 299.081 574.118 293.916 574.118 285.651H599.17C603.346 285.651 603.346 282.552 603.346 279.969Z" fill="#F9F9F9"/>
<path d="M546.977 269.121C551.153 269.121 553.762 270.154 556.372 272.737C556.894 273.254 557.416 273.254 558.46 273.254C559.504 273.254 560.547 272.221 560.547 270.671V269.638C557.416 266.022 553.24 263.956 547.499 263.956C540.192 263.956 534.451 267.055 534.451 273.77C534.451 288.234 556.894 284.101 556.894 292.882C556.894 297.015 552.718 299.081 547.499 299.081C543.324 299.081 539.148 297.015 537.061 294.949C536.539 294.432 536.017 294.432 534.973 294.432C533.929 294.432 532.363 295.465 532.363 297.015C532.363 297.531 532.363 298.048 532.885 298.048C535.495 301.147 540.192 304.246 547.499 304.246C555.85 304.246 562.635 301.147 562.635 292.882C562.635 279.452 540.192 283.068 540.192 273.77C539.148 270.154 542.802 269.121 546.977 269.121Z" fill="#F9F9F9"/>
<path d="M497.921 303.73C498.964 303.73 500.53 302.697 500.53 301.147C500.53 299.081 499.486 298.048 497.921 298.048H494.267V280.485C494.267 273.77 497.399 268.605 505.749 268.605C514.1 268.605 515.666 272.737 515.666 279.969V298.048H512.534C510.447 298.048 509.925 299.081 509.925 301.147C509.925 302.18 510.447 303.73 512.534 303.73H525.061C526.105 303.73 527.67 302.697 527.67 301.147C527.67 299.081 526.627 298.048 525.061 298.048H521.407V278.936C521.407 271.704 518.798 263.956 505.749 263.956C500.008 263.956 495.833 266.539 494.267 269.638V267.572C494.267 265.505 493.223 264.989 491.657 264.989H484.872C483.828 264.989 482.263 265.505 482.263 267.572C482.263 268.605 483.307 270.154 484.872 270.154H488.526V298.048H484.872C483.828 298.048 482.263 299.081 482.263 301.147C482.263 302.18 483.307 303.73 484.872 303.73H497.921Z" fill="#F9F9F9"/>
<path d="M466.084 288.75C466.084 295.982 460.342 299.081 454.601 299.081C447.816 299.081 444.685 296.498 444.685 292.366C444.685 287.2 448.338 285.134 454.079 285.134H466.084V288.75ZM475.478 298.048H471.825V278.419C471.825 269.638 466.084 263.956 456.167 263.956C449.382 263.956 444.163 267.055 442.597 270.671C442.075 270.671 442.075 271.187 442.075 271.704C442.075 272.737 443.119 274.287 444.685 274.287C445.206 274.287 445.728 273.77 446.772 273.254C449.904 270.154 452.513 269.121 456.689 269.121C462.952 269.121 466.606 272.737 466.606 278.419V281.002H454.079C444.685 281.002 438.943 285.134 438.943 292.882C438.943 300.114 444.685 304.763 454.079 304.763C459.299 304.763 464.518 302.697 466.606 299.081V301.664C466.606 302.697 467.127 304.246 468.693 304.246H475.478C476.522 304.246 478.088 303.213 478.088 301.664C478.088 299.598 476.522 298.048 475.478 298.048Z" fill="#F9F9F9"/>
<path d="M403.971 281.002C404.493 273.77 409.19 269.121 416.497 269.121C425.37 269.121 426.936 275.32 426.936 281.002H403.971ZM432.677 279.969C432.677 274.287 429.545 263.956 416.497 263.956C405.015 263.956 398.229 270.671 398.229 283.585C398.229 298.048 405.536 304.246 417.019 304.246C424.326 304.246 429.023 301.147 430.067 300.114C430.589 299.598 431.111 299.081 431.111 298.048C431.111 295.982 430.067 295.465 428.501 295.465H426.414C423.804 297.531 421.194 299.081 416.497 299.081C408.146 299.081 403.449 293.916 403.449 285.651H428.501C432.677 285.651 432.677 282.552 432.677 279.969Z" fill="#F9F9F9"/>
<path d="M390.923 304.246C391.967 304.246 393.532 303.213 393.532 301.663C393.532 299.597 392.489 299.08 390.923 299.08H388.835C386.225 299.08 385.704 297.014 385.704 293.915V245.359C385.704 243.293 384.66 242.26 383.094 242.26H376.309C375.265 242.26 373.699 243.293 373.699 245.359C373.699 246.392 374.743 247.942 376.309 247.942H379.962V294.431C379.962 300.63 383.094 304.246 388.313 304.246H390.923Z" fill="#F9F9F9"/>
<path d="M350.738 304.763C359.089 304.763 366.396 301.147 370.049 295.465C370.571 295.465 370.571 294.432 370.571 293.915C370.571 292.882 369.527 291.332 367.962 291.332C366.918 291.332 365.874 291.849 365.352 292.365C362.22 297.531 355.957 299.081 350.216 299.081C337.168 299.081 329.339 292.365 329.339 274.803C329.339 257.24 336.646 250.009 350.216 250.009C356.479 250.009 362.22 253.108 365.352 257.24C365.874 257.757 366.396 258.273 367.962 258.273C369.005 258.273 370.571 257.24 370.571 255.174C370.571 254.657 370.571 254.141 370.049 253.108C366.396 247.426 358.567 244.327 350.738 244.327C334.558 244.327 324.642 253.624 324.642 274.286C324.642 294.948 334.558 304.763 350.738 304.763Z" fill="#F9F9F9"/>
<path fill-rule="evenodd" clip-rule="evenodd" d="M144.052 0C100.732 0 67.8506 28.4101 41.7542 58.8863C15.6578 89.8791 0 132.753 0 179.758C0 226.764 15.6578 269.121 41.7542 299.597C65.7629 330.59 100.732 359 144.052 359C187.372 359 221.819 330.59 245.306 299.597C271.402 269.121 287.06 226.247 287.06 179.758C287.06 133.269 271.402 89.8791 245.306 58.8863C219.731 28.4101 186.85 0 144.052 0ZM144.052 353.835C57.412 353.835 16.1798 251.558 16.1798 179.758C16.1798 107.958 57.934 5.68201 144.052 5.68201C230.17 5.68201 271.402 107.442 271.402 179.758C271.402 252.075 229.648 353.835 144.052 353.835Z" fill="#F9F9F9"/>
<path fill-rule="evenodd" clip-rule="evenodd" d="M144.052 68.1843C151.359 64.0519 156.578 55.2706 156.578 45.9727C156.578 36.6749 152.925 23.7612 144.052 23.7612C134.657 23.7612 131.004 36.6749 131.004 45.9727C131.004 55.2706 135.701 64.0519 144.052 68.1843Z" fill="#F9F9F9"/>
<path fill-rule="evenodd" clip-rule="evenodd" d="M219.729 73.8664C213.988 67.1513 201.462 71.8002 194.155 77.9988C186.848 84.1974 183.716 94.0118 184.76 102.793C193.633 105.892 203.55 104.859 210.857 98.6607C218.685 92.4621 225.471 80.5815 219.729 73.8664Z" fill="#F9F9F9"/>
<path fill-rule="evenodd" clip-rule="evenodd" d="M160.232 67.151C165.973 69.2172 166.495 77.482 164.407 83.6805C162.32 89.8791 157.622 94.0115 151.881 95.5611C147.706 91.4287 145.618 85.2302 147.706 79.0316C149.793 72.3165 154.491 65.0849 160.232 67.151Z" fill="#F9F9F9"/>
<path fill-rule="evenodd" clip-rule="evenodd" d="M177.455 37.1914C172.236 35.1252 167.017 41.3238 164.929 46.4892C162.841 52.1712 164.407 57.8533 167.539 61.9856C173.28 61.4691 177.455 57.8533 179.543 52.1712C181.631 47.0058 182.153 39.2576 177.455 37.1914Z" fill="#F9F9F9"/>
<path fill-rule="evenodd" clip-rule="evenodd" d="M200.421 55.7873C197.29 53.2046 192.071 56.3039 188.939 59.4031C185.807 63.019 185.286 67.6679 186.329 71.2837C190.505 71.8003 194.68 70.7672 197.812 67.6679C200.943 64.5686 203.553 58.8866 200.421 55.7873Z" fill="#F9F9F9"/>
<path fill-rule="evenodd" clip-rule="evenodd" d="M179.02 105.375C176.411 102.276 171.713 104.859 168.582 107.958C165.972 110.541 164.928 114.673 165.972 118.289C169.104 118.806 173.279 118.289 176.411 115.706C179.02 112.607 182.152 107.958 179.02 105.375Z" fill="#F9F9F9"/>
<path fill-rule="evenodd" clip-rule="evenodd" d="M248.438 123.972C247.394 117.773 236.434 116.74 229.649 118.29C222.342 119.323 217.122 125.005 214.513 131.203C219.732 136.369 226.517 138.435 233.824 137.402C241.131 135.852 250.004 130.687 248.438 123.972Z" fill="#F9F9F9"/>
<path fill-rule="evenodd" clip-rule="evenodd" d="M205.638 129.653C204.594 126.037 198.853 125.521 194.156 126.037C190.502 127.07 187.37 130.17 185.805 133.269C188.414 136.368 192.59 137.401 196.243 136.885C200.941 135.852 206.16 133.269 205.638 129.653Z" fill="#F9F9F9"/>
<path fill-rule="evenodd" clip-rule="evenodd" d="M257.311 153.931C256.789 151.348 252.092 151.348 248.96 151.864C245.829 152.897 243.219 154.964 242.697 158.063C245.307 160.129 248.438 161.162 251.57 160.129C254.18 159.096 257.833 157.03 257.311 153.931Z" fill="#F9F9F9"/>
<path fill-rule="evenodd" clip-rule="evenodd" d="M206.165 164.778C205.121 170.46 196.248 170.977 190.507 169.944C184.244 168.911 180.069 164.262 178.503 158.58C182.156 154.447 187.898 152.381 194.161 153.414C199.902 154.964 207.209 159.096 206.165 164.778Z" fill="#F9F9F9"/>
<path fill-rule="evenodd" clip-rule="evenodd" d="M235.392 161.679C235.392 165.295 229.651 167.361 225.476 167.361C221.3 167.361 216.603 164.779 215.037 161.679C217.125 158.064 221.3 155.481 225.476 155.481C229.651 155.481 235.392 157.547 235.392 161.679Z" fill="#F9F9F9"/>
<path fill-rule="evenodd" clip-rule="evenodd" d="M234.871 89.3624C233.827 87.2963 230.695 88.8459 228.086 89.879C225.998 90.9121 224.954 93.4948 224.954 96.0776C227.564 97.1107 230.173 97.1106 232.261 95.561C234.349 94.0114 236.958 90.9121 234.871 89.3624Z" fill="#F9F9F9"/>
<path fill-rule="evenodd" clip-rule="evenodd" d="M240.605 104.859C239.562 101.76 234.342 101.76 230.689 102.276C227.035 103.31 224.426 106.409 223.382 109.508C225.991 112.091 229.645 113.124 233.298 112.091C236.952 111.574 241.649 108.475 240.605 104.859Z" fill="#F9F9F9"/>
<path fill-rule="evenodd" clip-rule="evenodd" d="M67.851 73.8664C74.1141 67.1513 86.6404 71.8002 93.9474 77.9988C101.254 84.1974 104.386 94.0118 102.82 102.793C93.9474 105.892 84.5527 104.859 77.2457 98.6607C69.4168 92.4621 62.1098 80.5815 67.851 73.8664Z" fill="#F9F9F9"/>
<path fill-rule="evenodd" clip-rule="evenodd" d="M127.352 67.151C121.61 69.2172 121.61 77.482 123.698 83.6805C125.786 89.8791 129.961 94.0115 136.224 95.5611C139.878 91.4287 141.966 85.2302 139.878 79.0316C137.79 72.3165 132.571 65.0849 127.352 67.151Z" fill="#F9F9F9"/>
<path fill-rule="evenodd" clip-rule="evenodd" d="M110.649 37.1914C115.868 35.1252 120.566 41.3238 122.653 46.4892C125.263 52.1712 123.697 57.8533 120.044 61.9856C114.824 61.4691 110.127 57.8533 108.039 52.1712C105.952 47.0058 105.952 39.2576 110.649 37.1914Z" fill="#F9F9F9"/>
<path fill-rule="evenodd" clip-rule="evenodd" d="M87.1622 55.7873C90.2937 53.2046 96.0349 56.3039 98.6446 59.4031C101.776 63.019 102.298 67.6679 101.254 71.2837C97.6007 71.8003 92.9034 70.7672 89.7718 67.6679C87.1622 64.5686 84.0306 58.8866 87.1622 55.7873Z" fill="#F9F9F9"/>
<path fill-rule="evenodd" clip-rule="evenodd" d="M108.56 105.375C111.17 102.276 115.867 104.859 118.999 107.958C122.131 110.541 122.652 114.673 122.131 118.289C118.477 118.806 113.78 118.289 111.692 115.706C108.56 112.607 105.951 107.958 108.56 105.375Z" fill="#F9F9F9"/>
<path fill-rule="evenodd" clip-rule="evenodd" d="M38.6193 123.972C40.707 117.773 50.6237 116.74 57.9306 118.29C64.7157 119.323 70.4569 125.005 72.5446 131.203C68.3692 136.369 60.5403 138.435 53.7552 137.402C46.4482 135.852 37.5755 130.687 38.6193 123.972Z" fill="#F9F9F9"/>
<path fill-rule="evenodd" clip-rule="evenodd" d="M82.4612 129.653C82.9832 126.037 88.7243 125.521 92.8998 126.037C96.5533 127.07 99.6848 130.17 101.251 133.269C98.641 136.368 94.4656 137.401 90.8121 136.885C86.6366 135.852 81.4174 133.269 82.4612 129.653Z" fill="#F9F9F9"/>
<path fill-rule="evenodd" clip-rule="evenodd" d="M30.2719 153.931C31.3157 151.348 36.0131 151.348 39.1446 151.864C42.2762 152.897 44.3639 154.964 44.8859 158.063C42.7981 160.129 39.6666 161.162 36.535 160.129C33.4034 159.096 29.228 157.03 30.2719 153.931Z" fill="#F9F9F9"/>
<path fill-rule="evenodd" clip-rule="evenodd" d="M81.4199 164.778C82.4638 170.46 91.3366 170.977 97.0778 169.944C103.341 168.911 107.516 164.262 109.604 158.58C105.951 154.447 99.6874 152.381 93.9462 153.414C87.6831 154.964 80.898 159.096 81.4199 164.778Z" fill="#F9F9F9"/>
<path fill-rule="evenodd" clip-rule="evenodd" d="M52.1953 161.679C52.1953 165.295 58.4584 167.361 62.6339 167.361C66.8093 167.361 70.9847 164.779 72.5505 161.679C70.4628 158.064 66.8093 155.481 62.6339 155.481C58.4584 155.481 52.1953 157.547 52.1953 161.679Z" fill="#F9F9F9"/>
<path fill-rule="evenodd" clip-rule="evenodd" d="M52.7171 89.3624C53.7609 87.2963 57.9364 88.8459 59.5021 89.879C62.1118 90.9121 62.6337 93.4948 62.6337 96.0776C60.546 97.1107 57.4144 97.1106 55.8486 95.561C53.239 94.0114 51.1513 90.9121 52.7171 89.3624Z" fill="#F9F9F9"/>
<path fill-rule="evenodd" clip-rule="evenodd" d="M46.9731 104.859C48.017 101.76 53.2363 101.76 56.8898 102.276C60.5433 103.31 63.6748 106.409 64.1968 109.508C61.5871 112.091 57.9336 113.124 54.2801 112.091C50.6266 111.574 46.4512 108.475 46.9731 104.859Z" fill="#F9F9F9"/>
<path fill-rule="evenodd" clip-rule="evenodd" d="M205.118 240.195C192.07 242.261 171.714 245.36 164.929 232.963C161.798 227.281 160.232 217.983 159.188 209.202C158.666 204.553 158.666 200.42 158.666 196.288C158.666 194.222 158.666 192.156 158.666 190.09C158.666 189.573 158.666 189.056 158.666 188.023C158.666 187.507 158.666 186.99 158.666 185.957C158.666 184.408 158.666 182.858 158.666 181.308C159.71 166.845 164.929 154.964 181.109 149.282C193.113 146.183 207.206 151.349 219.732 150.315C228.605 150.315 245.828 145.15 254.179 142.051C242.697 142.567 233.302 145.666 219.732 145.666C200.942 143.6 187.372 133.269 168.583 142.567C171.714 133.786 175.89 128.104 184.241 123.455C194.679 117.773 201.986 117.256 211.381 108.992C215.034 105.376 220.254 100.727 223.907 97.1111C218.166 100.21 214.513 103.31 209.293 106.409C199.899 112.607 191.548 112.607 181.109 115.707C169.627 119.323 162.32 127.071 156.057 137.402C155.535 130.17 156.057 124.488 158.144 116.223C160.754 108.992 164.407 103.31 168.061 96.5946C176.934 83.1643 184.241 72.3169 181.631 55.7874C182.153 71.8003 172.758 81.0981 162.842 92.9787C157.1 99.6938 152.925 105.376 149.272 113.641C145.096 122.938 143.53 130.17 143.53 139.468C143.53 130.17 141.443 122.938 137.267 113.641C133.614 105.376 128.916 100.21 123.697 92.9787C113.781 82.6478 104.386 73.3499 105.43 56.8204C102.82 73.3499 110.649 84.1974 119 97.6276C123.175 104.343 126.307 110.025 128.916 117.256C131.526 125.521 131.526 130.687 131.004 138.435C125.263 128.104 117.434 120.356 105.952 116.74C96.035 113.641 87.1622 113.641 78.2894 107.442C73.0702 104.343 68.8947 101.243 63.6755 98.1442C67.329 101.76 72.0263 106.409 76.2017 110.025C85.0745 118.29 92.3815 118.806 102.298 124.488C110.649 129.654 114.824 134.819 118.478 143.6C99.1665 134.302 85.0745 144.633 66.2851 146.7C52.715 146.7 43.3203 143.6 31.8379 143.084C40.7107 146.183 57.4123 151.349 66.2851 151.349C79.3333 151.865 93.4253 147.216 105.952 150.315C124.219 156.514 127.873 172.527 127.873 190.09C127.873 201.97 127.351 222.115 121.609 232.963C114.824 245.36 94.4692 242.261 81.421 240.195C64.7193 239.161 52.1931 245.877 34.9695 247.426C39.6668 250.525 67.8509 245.877 76.7237 245.877C83.5087 245.877 86.6403 247.943 92.9034 249.492C84.5526 252.592 77.7675 255.174 74.6359 257.757C71.5044 259.823 63.6755 269.121 58.9781 267.055C60.5439 271.704 73.5921 264.989 76.2017 262.923C89.7718 254.141 94.9911 258.274 105.43 255.174C96.5569 273.254 65.7632 275.836 56.3685 289.783C55.3246 291.849 54.2808 295.982 55.3246 298.048C57.9343 287.717 70.9825 284.618 76.2017 283.068C87.1622 279.969 102.298 272.737 110.127 266.538C115.868 261.89 119.522 257.241 124.219 251.042C124.741 260.856 120.044 264.989 113.781 273.254C102.298 285.651 112.737 297.015 96.5569 315.094C117.434 303.73 113.781 286.684 121.087 277.386C124.219 272.737 127.351 270.154 129.96 265.505C124.741 281.002 125.785 291.333 137.267 303.73C137.789 304.246 138.833 305.796 140.921 307.862C134.658 318.193 129.438 330.59 133.092 342.471C132.57 330.59 138.833 319.226 144.052 311.995C149.272 319.226 155.535 330.59 155.013 341.954C158.144 330.074 152.925 318.193 147.184 307.862C148.75 305.796 150.315 304.246 150.837 304.246C162.32 292.366 163.886 281.518 158.144 266.022C160.754 270.154 163.886 273.254 167.017 277.902C174.846 287.2 171.193 304.763 191.548 316.127C174.846 297.531 185.285 286.684 174.324 274.287C168.061 266.022 163.364 261.89 163.886 252.075C168.583 258.79 172.236 263.439 177.978 267.572C185.806 273.77 200.42 281.002 211.903 284.101C217.122 286.167 230.17 289.267 232.78 299.081C233.302 297.015 232.78 292.882 231.736 290.816C222.341 276.869 191.548 274.287 182.675 256.208C193.113 259.307 198.333 255.691 211.903 263.956C214.513 266.022 227.561 272.22 229.126 268.088C224.429 270.154 216.6 260.856 213.469 258.79C210.337 256.208 203.03 253.625 195.201 250.525C201.464 249.492 204.074 246.91 211.381 246.91C220.254 246.91 247.916 251.559 253.135 248.459C234.868 245.877 222.341 239.161 205.118 240.195ZM148.75 292.882C148.228 293.399 148.228 294.432 147.706 294.949C147.184 295.982 146.662 296.498 146.14 297.531C145.096 299.081 144.052 300.114 143.008 301.664C141.965 300.114 140.921 298.048 139.877 297.015C139.355 295.982 138.833 295.465 138.311 294.432C137.789 293.915 137.789 292.882 137.267 292.366C135.701 288.75 135.18 285.134 135.18 281.518C135.18 280.485 135.18 279.969 135.18 279.452C135.701 273.254 138.311 266.538 141.965 259.307C146.14 267.055 148.75 273.254 149.272 279.969C149.272 280.485 149.272 281.518 149.272 282.035C150.837 285.134 150.315 288.75 148.75 292.882Z" fill="#F9F9F9"/>
</svg>
