<svg width="144" height="111" viewBox="0 0 144 111" fill="none" xmlns="http://www.w3.org/2000/svg">
<path d="M-9.9357 84.7881C-6.38595 78.6456 3.92116 76.0965 11.3628 80.6112C18.2057 84.7267 18.0346 92.9576 16.6661 98.7008C13.4585 112.091 -4.33308 122.104 -21.2265 126.526C-38.3337 131.01 -57.451 130.458 -73.6602 124.376C-89.6982 118.357 -101.844 107.515 -105.009 94.5854C-105.865 91.0227 -106.335 87.1223 -105.266 83.5596C-104.325 80.3655 -103.298 77.755 -104.197 74.438C-105.137 70.9675 -106.634 67.8963 -106.292 64.2722C-106.036 61.6309 -105.266 58.9897 -104.154 56.4712C-100.219 47.3189 -91.9221 39.3644 -82.4704 32.7305C-76.2262 28.3387 -69.3833 24.3767 -62.0272 20.9984C-52.1478 16.4837 -41.1564 12.5832 -29.1813 14.6102C-14.1697 17.1593 -4.41861 28.1851 -6.08657 39.088C-6.94193 44.7391 -11.3898 50.0216 -17.7195 53.4C-18.8742 54.0142 -20.029 54.5978 -21.2692 55.0585C-22.424 55.4884 -23.6215 55.8263 -24.8618 56.0106C-25.6316 56.1334 -26.487 56.1948 -27.2995 56.1948C-27.5562 56.1641 -27.8128 56.1641 -28.0694 56.1334C-29.5662 56.1948 -30.0367 55.427 -29.4807 53.8914C-28.6254 53.3693 -29.8656 52.5093 -30.6782 53.0315C-33.3298 54.6285 -31.4481 57.0548 -28.3687 57.3926C-24.1775 57.8533 -20.0717 56.2255 -16.8214 54.5056C-14.5546 53.3079 -12.5873 51.9258 -10.8338 50.3595C-1.51038 41.9135 -2.49405 29.6286 -11.6037 21.2441C-21.0126 12.6139 -37.1362 11.109 -50.6937 15.1323C-59.0335 17.62 -67.0739 21.7662 -74.0878 25.8202C-84.9937 32.1163 -94.9587 39.6715 -101.417 48.6703C-104.924 53.5229 -107.361 58.8668 -107.917 64.3336C-108.088 66.115 -108.003 67.927 -107.575 69.6776C-107.105 71.6432 -106.036 73.4859 -105.608 75.4822C-104.71 79.5977 -107.404 83.4368 -107.447 87.5522C-107.618 102.079 -96.6266 115.316 -79.9043 123.179C-63.4813 130.918 -42.9099 132.73 -24.1775 128.615C-14.3836 126.465 -5.31673 122.779 2.33875 117.896C9.65209 113.228 15.8962 107.485 18.0346 100.482C19.8309 94.6468 20.2586 86.9994 15.2975 81.8397C11.0634 77.4786 2.68089 75.8201 -3.99094 78.2464C-7.62622 79.567 -9.9357 81.8704 -11.4753 84.5117C-11.9886 85.2181 -10.3634 85.5252 -9.9357 84.7881Z" fill="#E1E1E1"/>
<path d="M-24.0495 50.4823C-19.6444 48.1482 -16.1374 44.1249 -14.0845 40.5622C-11.9461 36.846 -11.5185 32.7305 -13.999 29.045C-19.3023 21.0291 -31.4484 20.1384 -42.2259 22.1347C-54.7998 24.4382 -65.6629 30.0893 -74.3875 36.846C-78.7071 40.2244 -82.6846 43.8792 -86.2343 47.7182C-89.2708 51.0044 -92.2646 54.7206 -92.6923 58.7133C-92.9061 60.7096 -92.1791 62.3373 -91.3665 64.2108C-90.3828 66.5449 -89.9979 68.9098 -90.2117 71.3361C-90.6822 76.465 -92.2218 81.3176 -91.8797 86.508C-91.2809 95.0154 -87.8595 103.584 -78.7927 109.45C-69.7258 115.286 -57.1092 116.729 -45.348 116.821C-32.1754 116.913 -18.789 115.408 -6.64289 111.6C3.96359 108.283 14.2279 101.281 11.2342 92.1898C10.2933 89.3336 7.94102 86.2009 3.74975 85.3409C-0.612595 84.4503 -6.47183 85.6173 -8.73854 88.535C-9.29453 89.2107 -7.79763 89.8557 -7.28442 89.1493C-5.01771 86.2623 1.99625 85.3409 5.63154 87.3987C8.75361 89.18 10.0367 92.4662 10.0794 95.1996C10.2505 103.646 -0.826439 108.805 -10.5776 111.416C-21.569 114.364 -33.1591 115.623 -44.8348 115.593C-55.6979 115.562 -67.5447 114.426 -76.2693 109.358C-84.7374 104.444 -88.6293 97.0424 -89.7841 89.4564C-90.4683 84.8802 -90.169 80.4577 -89.2281 75.9122C-88.501 72.411 -87.9878 68.9712 -89.0998 65.47C-89.6985 63.5965 -90.896 61.8459 -91.0243 59.911C-91.1526 57.7919 -90.2117 55.6727 -89.0142 53.7378C-87.0041 50.513 -84.1387 47.5646 -81.2304 44.7391C-74.302 37.9824 -66.005 31.7785 -55.8262 27.5094C-46.3745 23.5782 -31.2345 19.4935 -21.2268 24.6839C-15.5814 27.6016 -12.9298 32.6384 -14.5122 37.4603C-15.8808 41.6679 -20.0721 46.8583 -24.9476 49.4381C-25.7602 49.8988 -24.9476 50.943 -24.0495 50.4823Z" fill="#E1E1E1"/>
<path d="M-24.0487 38.7501C-22.8512 37.0916 -21.782 35.0646 -22.7657 33.2218C-23.7921 31.2869 -26.6576 30.4884 -29.2664 30.0892C-36.6653 28.9835 -44.7485 30.3349 -51.3348 32.7919C-58.3487 35.4024 -64.379 39.3643 -69.5112 43.6641C-74.3012 47.6567 -79.6472 52.2942 -81.7856 57.3925C-82.9404 60.1259 -82.1705 62.1837 -81.1441 64.8249C-79.8183 68.3261 -80.7164 71.6738 -81.4007 75.2057C-82.5982 81.6553 -81.358 88.3814 -78.022 94.4317C-75.1138 99.7142 -70.1527 103.738 -63.096 106.348C-56.082 108.959 -48.2982 109.573 -40.5144 109.665C-31.3621 109.788 -22.1241 108.774 -13.7416 105.98C-8.09621 104.075 2.25366 99.8678 -1.59547 94.3396C-2.06592 93.6332 -3.5628 94.2474 -3.04958 94.9538C0.671249 100.298 -12.6296 104.505 -17.7618 105.887C-24.4336 107.699 -31.5331 108.437 -38.6326 108.467C-52.8316 108.529 -68.3137 106.072 -75.1138 96.0902C-78.5353 91.0841 -80.0321 85.4023 -80.0749 79.874C-80.1177 74.5915 -77.4233 69.4625 -79.5617 64.2414C-80.6309 61.6308 -81.0158 59.5424 -79.6472 56.8704C-78.4925 54.6284 -76.6535 52.5707 -74.7289 50.6358C-70.8798 46.6432 -66.5174 42.8655 -61.5136 39.5793C-55.9109 35.9245 -49.3247 32.8226 -41.8402 31.5941C-37.6917 30.9184 -32.9017 30.642 -28.7532 31.4405C-26.8286 31.8091 -24.733 32.454 -24.177 33.9589C-23.621 35.3717 -24.6047 36.9073 -25.4601 38.1358C-26.016 38.8115 -24.5192 39.4565 -24.0487 38.7501Z" fill="#E1E1E1"/>
<path d="M-14.9826 52.663C-13.1008 54.26 -11.4328 55.9492 -9.93594 57.7305C-8.69566 59.2354 -7.62646 60.8017 -6.25788 62.2759C-4.16224 64.5487 -1.46786 66.4221 1.99636 67.5892C4.3486 68.3877 6.70086 68.9098 8.75373 70.1383C10.0795 70.9368 12.1752 72.5032 11.4053 73.916C10.1651 76.1273 3.70708 73.486 1.39761 73.3017C0.114565 73.1789 -1.38232 73.2403 -2.23768 74.0388C-3.47796 75.1752 -2.62259 77.0179 -2.36598 78.3078C-2.19491 79.0756 -0.569725 78.7685 -0.740797 77.97C-0.997406 76.7108 -2.10937 74.4381 0.585016 74.4688C2.0819 74.4688 3.62155 74.8988 4.99013 75.298C6.74362 75.7587 8.49711 76.3115 10.3789 75.943C11.8758 75.6666 12.9878 74.8988 13.1588 73.7624C13.6721 70.9676 9.60909 68.7563 6.57255 67.6506C4.47691 66.9135 2.29574 66.4528 0.328405 65.5315C-1.42509 64.6715 -2.92197 63.5659 -4.16225 62.3374C-5.74467 60.7403 -6.94218 58.9897 -8.31076 57.3005C-9.93594 55.3656 -11.775 53.5229 -13.7851 51.7723C-14.4694 51.1888 -15.6669 52.0487 -14.9826 52.663Z" fill="#E1E1E1"/>
<path d="M75.1298 70.8141C76.5412 71.3055 76.9261 69.4628 77.4821 68.91C80.262 66.1459 86.0357 68.7564 88.8156 70.1078C91.8522 71.582 94.2044 73.8547 96.2573 75.9738C97.1982 76.9566 98.0963 77.9394 98.9516 78.9837C99.4649 79.5979 99.9353 80.7343 100.919 81.0721C101.945 81.3792 103.143 80.8878 104.084 80.6728C114.562 78.1851 125.425 79.2908 133.893 84.604C137.015 86.5696 139.154 89.1495 140.479 91.975C143.473 98.4246 141.335 105.212 136.759 110.986C129.231 120.507 116.572 127.325 102.288 130.949C87.1049 134.819 70.9385 133.805 57.3383 127.479C45.3632 121.92 34.714 114.272 29.4963 104.598C23.8081 94.0635 24.8346 81.1949 35.6549 72.4726C45.3205 64.6717 64.3095 62.7982 74.916 70.722C75.6858 71.3055 76.8833 70.4149 76.1135 69.8621C67.346 63.3203 52.1206 62.8903 41.5569 67.4051C29.924 72.3498 24.1075 82.7306 24.2786 92.1286C24.4924 102.909 31.6774 112.829 42.1556 120.353C52.9332 128.062 66.619 134.143 82.1866 134.542C97.7969 134.942 113.664 129.997 125.511 122.872C134.962 117.159 143.174 108.068 143.602 98.9774C144.115 87.3989 131.242 78.0623 114.947 78.0623C110.798 78.0623 106.778 78.7072 102.886 79.6593C101.689 79.9357 101.732 79.8743 100.962 78.9837C99.8925 77.7552 98.9089 76.5267 97.7541 75.3596C96.3428 73.9161 94.8459 72.534 93.1779 71.2441C89.4571 68.3879 79.6205 63.6581 75.6858 68.695C75.5147 68.9407 75.2154 69.2785 75.1298 69.5549C74.9588 70.507 74.5311 69.2785 75.9852 69.8006C75.0015 69.4014 74.1462 70.4763 75.1298 70.8141Z" fill="#E1E1E1"/>
<path d="M62.8976 93.6948C60.8875 91.2071 59.3906 88.1665 59.2623 85.2796C59.1767 83.0068 60.1604 80.7955 62.812 79.4135C63.6246 78.9835 64.5655 78.615 65.5492 78.4614C66.9178 78.2157 68.2436 78.4921 69.6121 78.4921C71.5367 78.4921 73.3757 78.0928 74.9154 77.2329C77.9519 75.513 79.6199 71.5818 75.9846 69.7084C75.0865 69.2477 74.2311 70.3226 75.1292 70.7526C77.3104 71.8582 76.284 74.4074 74.8299 75.6051C73.2047 76.9872 70.8524 77.3865 68.4574 77.2022C64.9077 76.9565 61.7 77.9393 59.5616 80.0584C56.3113 83.314 57.5943 87.798 59.4761 91.2685C60.0321 92.3127 60.6736 93.3569 61.4862 94.3397C61.9567 95.0154 63.4535 94.3704 62.8976 93.6948Z" fill="#E1E1E1"/>
<path d="M99.7213 79.874C101.389 82.0853 102.501 84.5116 103.228 86.9686C103.913 89.2413 104.34 91.729 103.699 94.0632C103.485 94.831 105.11 95.1688 105.324 94.401C106.051 91.944 105.623 89.3335 104.939 86.8765C104.169 84.2352 102.972 81.6247 101.175 79.2598C100.662 78.5841 99.2081 79.1984 99.7213 79.874Z" fill="#E1E1E1"/>
<path d="M103.528 84.051C110.884 81.8397 119.181 82.6075 125.254 86.3852C131.541 90.2856 133.551 96.2131 131.626 101.895C129.06 109.45 121.405 114.395 112.808 118.51C97.7969 125.758 75.814 124.561 60.8452 117.865C46.86 111.6 38.1781 99.8986 39.2473 88.0436C39.7178 83.0989 42.1556 78.3692 47.3305 74.9601C50.8375 72.6567 55.1571 70.9982 59.9043 70.599C64.8654 70.169 74.2316 71.0904 75.3436 75.4515C75.5574 76.2193 77.1826 75.9122 76.9688 75.1137C76.199 72.1346 71.8366 70.5683 68.1158 69.8312C63.2402 68.8484 57.9798 69.1555 53.3608 70.6297C45.9192 72.9638 40.3165 77.8778 38.4347 83.5289C34.8422 94.2783 40.6159 106.256 51.2652 113.996C64.9937 123.916 87.4042 127.325 105.623 122.503C116.829 119.555 127.82 112.859 132.097 104.782C135.39 98.5473 134.492 91.5141 127.906 86.5694C121.448 81.7169 111.568 80.3041 103.015 82.8839C102.074 83.1604 102.544 84.3581 103.528 84.051Z" fill="#E1E1E1"/>
<path d="M15.8957 14.4259C16.1523 13.9652 15.1687 14.4566 14.6982 14.5795C13.8001 14.8252 12.902 15.0709 12.0038 15.3473C9.77988 16.023 7.59871 16.7908 5.58861 17.7429C3.36467 18.8178 1.01243 20.1692 -0.655521 21.7355C-6.9852 27.6016 -0.441689 34.8497 6.2729 38.8116C8.36854 40.0401 10.9346 41.1457 12.7737 42.5585C14.2705 43.7256 13.9284 44.6777 12.3887 45.7833C10.6353 47.0425 9.05283 48.5782 8.45408 50.3288C7.17103 54.0143 10.7208 57.8533 14.3561 60.2182C17.7347 62.4295 22.0543 63.8422 26.545 64.4872C48.5278 67.6199 66.4904 53.615 70.9383 39.4566C73.932 29.905 71.537 19.3092 63.7104 11.1704C57.894 5.08935 48.6561 0.636044 38.2207 0.0525082C26.3311 -0.623165 13.0303 5.27362 15.8957 14.7638C16.1096 15.5316 17.7775 15.1937 17.5209 14.4259C14.4844 4.41367 30.7362 -0.193191 42.027 1.68027C50.5379 3.09304 57.6801 6.93209 62.5129 12.0918C69.3986 19.4321 71.8792 28.8915 69.698 37.5524C66.191 51.2501 50.153 65.3471 28.8117 63.4737C24.15 63.0744 19.4027 61.7538 15.853 59.5118C11.0629 56.5327 7.72702 51.803 12.1321 47.7796C13.1158 46.889 15.1259 46.029 15.5536 44.8312C15.8102 44.0634 15.2542 42.4971 14.6554 41.9136C14.2278 41.5143 13.8001 41.5143 13.1158 41.1457C11.8328 40.4086 10.5925 39.6716 9.30944 38.9652C2.76592 35.1875 -6.25814 27.9087 1.22627 22.0119C3.57852 20.1384 6.70059 18.5414 9.99373 17.3436C11.8755 16.6679 13.8001 16.1458 15.7247 15.593C16.4089 15.4087 17.2643 15.2859 17.5637 14.7331C17.9486 14.0267 16.2806 13.7195 15.8957 14.4259Z" fill="#E1E1E1"/>
<path d="M21.7557 13.5352C20.6438 11.1396 23.6375 8.71336 26.2036 7.45415C31.2075 4.99716 38.307 5.94924 43.1826 8.0684C52.1211 11.9382 56.6545 20.077 57.6809 27.2022C59.2634 37.8288 55.0293 50.298 41.258 56.0412C35.8264 58.3139 28.4703 60.3103 22.3545 58.2218C19.1469 57.1162 16.4953 55.0277 15.5544 52.54C14.5279 49.7759 16.5808 47.8103 19.7884 46.4282C20.7293 46.029 19.8739 44.954 18.933 45.384C13.9719 47.5646 12.2185 50.943 14.9128 54.7513C17.7355 58.6825 23.8086 60.8324 29.8389 60.2795C41.985 59.2046 51.6506 52.6936 56.3123 44.8005C59.2206 39.9172 59.9476 34.8496 59.6483 29.6285C59.1778 21.2747 54.5161 11.6003 44.0379 7.05489C38.5636 4.69003 30.737 3.76866 25.1772 6.53278C22.0979 8.0684 18.762 11.0475 20.0878 13.9345C20.4727 14.6102 22.1406 14.2723 21.7557 13.5352Z" fill="#E1E1E1"/>
<path d="M25.3477 17.2206C24.1502 12.8594 32.7466 11.5388 36.9807 12.4295C40.9581 13.2587 44.1229 15.47 46.2613 17.927C50.5381 22.8717 52.1633 29.9355 51.308 35.6788C50.4526 41.7598 44.9355 47.5031 37.9643 50.9121C34.6712 52.5399 30.4372 53.7377 26.5025 52.6628C24.4496 52.1099 22.525 50.9429 21.4558 49.5608C20.0017 47.6259 20.9426 46.2746 21.4558 44.3704C21.6697 43.6026 20.0017 43.2647 19.8307 44.0326C19.5313 45.1382 18.8042 46.2131 18.8898 47.3495C18.9753 48.7316 19.7879 50.1136 20.9854 51.1886C22.91 52.9699 25.9465 54.137 29.0686 54.2905C36.8951 54.6283 43.9946 49.5301 48.0576 45.2611C53.4464 39.6407 53.8741 33.2525 52.2916 26.7107C50.9231 21.0904 47.801 14.9479 40.4021 12.0916C36.9379 10.771 32.8749 10.4024 29.1969 11.4774C25.7754 12.4909 22.9527 14.7636 23.7226 17.5277C23.8936 18.3262 25.5616 17.9884 25.3477 17.2206Z" fill="#E1E1E1"/>
<path d="M70.8536 76.7107C67.6032 74.0387 61.9578 74.223 57.7665 75.5129C53.3614 76.895 49.8544 79.567 47.9299 82.7303C43.1398 90.5006 48.3148 99.6222 55.3287 105.765C62.6849 112.214 73.3769 116.391 85.0526 116.606C95.6163 116.821 107.463 113.996 114.007 107.761C117.3 104.628 119.267 100.666 118.711 96.7045C118.412 94.6775 116.145 87.9207 111.612 89.9478C110.671 90.347 111.526 91.422 112.467 90.992C114.648 90.0399 116.487 94.7082 116.744 95.5067C117.214 97.0731 117.214 98.7315 116.829 100.329C116.102 103.308 114.007 106.103 111.184 108.314C104.897 113.259 94.6326 115.501 85.523 115.378C75.8147 115.255 66.7051 112.337 59.8194 107.454C52.8482 102.54 47.3311 95.4146 47.8871 88.2279C48.1865 84.481 50.4104 80.949 54.3878 78.492C58.2797 76.0965 65.6786 74.3151 69.6561 77.6014C70.3403 78.1849 71.5806 77.2942 70.8536 76.7107Z" fill="#E1E1E1"/>
</svg>
