<svg width="720" height="422" viewBox="0 0 720 422" fill="none" xmlns="http://www.w3.org/2000/svg">
<g clip-path="url(#clip0_388_5198)">
<path d="M719.263 390.701C719.693 390.701 720 391.008 720 391.437C720 391.867 719.693 392.174 719.263 392.174C718.956 392.174 667.808 391.867 618.441 391.621C618.441 392.603 618.441 393.278 618.441 393.647C618.441 395.795 617.213 400.275 614.389 403.589C612.485 405.859 609.845 407.639 606.406 407.885C601.371 408.253 575.89 408.928 556.241 408.56C544.39 408.314 534.627 407.701 532.663 406.35C530.575 404.939 529.101 402.484 528.119 399.968C526.584 396.101 526.215 391.928 526.768 391.008C527.198 390.271 571.162 390.148 616.968 390.21C616.968 383.459 616.783 368.362 616.415 356.885C616.231 351.546 615.985 347.004 615.678 344.549C613.836 345.102 611.933 345.715 610.029 346.329C599.407 349.705 588.661 353.141 587.74 350.011C587.433 349.091 587.802 348.232 588.661 347.434C589.828 346.329 592.038 345.286 594.679 344.304C597.258 343.383 600.389 342.586 603.398 341.972C609.599 340.683 615.555 340.376 616.476 341.726C616.599 341.91 616.722 342.217 616.783 342.647C623.66 340.56 629.371 339.21 630.722 340.744C631.704 341.849 631.52 342.77 630.599 343.629C629.432 344.672 626.976 345.47 624.643 346.206C623.108 346.697 621.696 347.127 620.775 347.618C620.345 347.863 620.099 347.986 620.099 347.986C620.161 348.109 620.468 348.17 620.897 348.17C621.941 348.232 623.538 347.986 625.318 347.495C627.099 347.004 629.064 346.206 630.844 345.347C633.423 343.997 635.45 342.401 635.572 340.99C635.695 339.149 633.73 338.29 630.292 338.044C625.38 337.737 617.643 338.658 608.556 339.824C604.135 340.376 599.345 340.99 594.31 341.481C579.267 343.015 562.75 344.243 549.487 343.813C548.32 343.752 547.215 343.752 546.11 343.69L546.171 344.734C546.601 355.842 546.846 364.188 542.548 367.564C537.943 371.123 532.417 372.228 526.522 371.982C526.338 381.986 525.908 390.578 524.803 391.437C523.514 392.419 448.787 392.665 382.412 392.787C382.719 397.697 383.087 402.3 383.333 405.491C383.456 407.516 383.579 408.989 383.64 409.726C383.701 411.812 378.298 414.574 369.886 416.845C361.781 419.054 350.851 421.018 339.553 421.693C337.895 421.816 336.238 421.877 334.518 421.877C321.624 422.184 308.545 421.018 298.66 419.054C288.712 417.029 281.897 414.022 281.406 410.646C280.914 407.394 280.485 402.423 280.3 398.495C280.116 394.813 280.3 391.867 280.976 391.56C281.344 391.376 306.458 391.376 340.413 391.314C352.939 391.314 366.693 391.314 380.815 391.253C380.079 379.592 379.465 366.582 380.324 365.416C380.447 365.293 380.631 365.17 380.877 365.047C380.877 363.575 380.938 362.224 380.631 361.549C380.447 361.181 380.14 361.058 379.342 361.365C377.623 362.102 368.228 365.968 354.658 367.564C345.755 368.607 335.439 369.712 325.308 370.448C315.115 371.185 305.107 371.614 296.756 371.307C291.414 371.123 286.748 370.448 283.186 369.589C281.774 369.221 280.485 368.852 279.441 368.423C279.195 368.484 279.134 368.484 279.072 368.546V368.668C278.949 370.141 278.827 371.86 278.765 373.639C288.405 374.867 299.212 377.444 305.045 378.795C306.949 379.224 308.361 379.592 308.914 379.654C310.572 379.961 311.677 380.82 312.168 381.863C312.414 382.354 312.536 382.907 312.475 383.398C312.414 383.95 312.229 384.441 311.922 384.932C311.247 385.852 309.958 386.466 307.993 386.527C305.905 386.527 300.317 385.177 294.116 383.643C288.774 382.293 282.941 380.881 278.704 380.083C278.704 380.39 278.704 380.697 278.765 381.004C278.827 381.495 278.827 381.986 278.888 382.477C279.993 382.784 280.914 382.968 281.406 383.213C282.204 383.52 282.879 384.073 283.248 384.686C283.493 385.055 283.555 385.423 283.555 385.791C283.493 386.221 283.309 386.589 282.941 386.896C282.511 387.264 281.713 387.509 280.546 387.632C278.888 387.755 278.028 386.159 277.537 383.766C275.204 383.152 272.502 382.416 271.52 381.372C271.397 382.661 271.274 383.888 271.09 385.055C272.011 385.3 272.932 385.546 273.792 385.73C275.327 386.098 276.555 386.343 277.23 386.466C277.599 386.527 277.783 386.589 277.906 386.589C278.397 386.773 278.827 387.571 279.011 388.43C279.072 388.737 279.134 389.044 279.134 389.351C279.134 389.657 279.134 389.964 279.011 390.271C278.888 390.701 278.581 391.008 278.151 391.069C278.028 391.13 274.651 391.13 269.125 391.13C268.204 392.419 266.976 393.278 265.134 393.462C256.047 394.567 1.53517 392.358 0.798348 392.358C0.368533 392.358 0.0615234 392.051 0.0615234 391.621C0.0615234 391.192 0.368533 390.885 0.798348 390.885C1.53517 390.885 255.924 393.094 264.95 391.99C265.809 391.867 266.546 391.56 267.099 391.069C251.38 391.069 222.03 390.823 199.25 390.332C181.627 389.964 167.873 389.351 167.198 388.307C164.496 384.441 166.215 381.004 169.101 378.672C167.689 377.322 166.645 375.542 166.277 373.394C166.031 371.86 165.294 364.925 165.908 355.228C166.277 349.766 167.075 343.445 168.733 336.694C170.329 330.188 170.821 322.885 171.373 315.521C172.049 306.07 172.785 296.496 175.733 287.965C176.04 287.167 176.285 286.308 176.592 285.449C171.312 283.73 166.215 281.214 162.04 278.514C157.005 275.2 153.321 271.64 152.4 268.878C152.154 268.081 151.909 267.344 151.786 266.608C151.724 266.608 151.725 266.608 151.663 266.608C150.619 266.915 149.391 266.853 148.102 266.362C144.418 265.012 144.54 262.925 144.663 259.918C144.786 257.586 144.909 254.579 142.698 250.897C139.69 245.864 141.9 239.482 144.049 233.344C145.523 229.11 146.935 225.059 146.444 221.929C145.769 217.572 148.654 213.521 151.602 209.532C154.242 205.911 156.821 202.29 156.698 198.67C156.637 197.074 157.742 194.128 159.277 190.2C160.444 187.254 161.794 183.695 163.022 179.706C167.873 164.117 172.356 152.58 177.084 144.11C181.873 135.58 186.908 130.179 192.802 127.11C204.899 120.728 218.407 122.323 229.582 123.674C238.424 124.717 245.792 125.576 249.477 122.139C250.275 121.403 251.073 121.587 251.871 122.446C252.731 123.367 253.652 125.208 254.88 127.663C259.792 137.421 269.616 156.876 294.484 158.778C298.66 159.085 301.484 159.024 303.449 158.717C305.352 158.471 306.396 158.042 307.01 157.735C307.072 157.673 307.194 157.796 307.133 157.735C306.887 157.182 305.537 156.2 303.51 154.85C287.73 157.305 268.266 155.832 255.31 125.085C253.345 120.36 257.029 118.703 262.064 116.432C263.415 115.818 264.827 115.204 266.301 114.407C269.678 112.627 272.993 108.208 275.757 102.93C276.862 100.782 277.906 98.5113 278.827 96.1792C278.765 96.1179 278.642 96.1179 278.581 96.0565C277.783 95.6269 276.985 94.8291 276.309 93.7857C274.099 90.4717 272.625 84.3345 273.792 79.2407C274.713 75.1288 276.248 72.8581 277.906 71.9375C278.704 71.5079 279.564 71.3852 280.362 71.6307C281.16 71.8148 281.835 72.3671 282.449 73.1036C283.984 75.0061 284.844 78.5656 284.046 83.1685C283.432 86.6667 282.327 90.7785 280.853 94.8291C281.713 94.2767 282.572 92.8038 283.248 90.0421C284.046 86.9121 286.318 84.3345 289.572 82.1252C289.511 81.9411 289.449 81.8183 289.388 81.6342C288.958 80.4068 288.467 78.9952 287.73 77.3382C286.072 73.7173 283.923 71.8148 282.081 70.2191C279.748 68.1939 277.906 66.5982 277.906 62.8545C277.906 58.7427 280.362 46.7139 288.098 38.1219C292.765 32.9053 299.335 28.9775 308.484 28.8548C309.282 28.8548 310.019 28.8548 310.756 28.7934C319.966 28.6707 326.29 28.5479 335.071 30.6959C335.501 30.8187 335.869 30.88 336.299 31.0028C346.369 33.7645 354.842 39.9016 359.877 49.046C364.912 58.1903 366.509 70.3419 362.886 85.1937C362.702 85.9302 362.518 86.6667 362.272 87.4645C360.983 92.1901 359.816 93.7857 358.527 93.4175C357.237 93.0493 356.377 90.5331 355.272 87.3417C353.614 82.4934 351.342 76.0494 347.351 74.822C344.343 73.9014 342.378 70.526 341.088 66.3527C339.676 67.887 337.834 69.0531 335.501 69.7895C332.431 70.7101 328.194 71.6307 323.466 72.6126C312.721 74.8833 299.274 77.7678 291.291 82.6775C291.537 83.3526 291.783 83.9049 292.09 84.2732C293.011 85.5006 294.791 84.7028 300.317 80.5295C306.151 76.1108 317.756 73.7787 328.685 74.3924C338.264 74.9447 347.413 77.8292 351.895 83.6595C355.641 88.5078 355.272 94.9518 353.062 101.396C349.623 111.583 341.518 121.894 337.711 126.067C336.299 127.663 334.825 129.934 333.167 132.45C327.703 140.796 320.519 151.843 307.133 151.229C293.256 150.554 283.739 130.118 279.932 121.587C280.362 123.428 281.037 125.822 282.081 128.399C283.37 131.652 285.028 134.843 286.993 137.789C288.774 140.489 290.8 143.006 293.011 145.031C296.94 148.713 300.87 151.352 303.694 153.316L303.756 153.377C306.765 152.886 309.65 152.273 312.291 151.72C318.247 150.432 323.098 149.388 326.229 150.554C328.01 151.229 331.141 153.071 334.887 155.464C338.571 157.858 342.992 160.803 347.536 163.872C352.878 167.493 358.281 171.421 362.518 176.208C366.816 181.056 369.886 186.702 370.5 193.76C370.807 197.503 371.114 200.94 371.421 204.377C373.57 227.575 375.965 253.413 370.193 266.546C367.184 273.42 368.044 274.034 370.009 275.322C372.526 276.979 376.394 279.496 378.605 291.034C378.973 292.875 379.894 295.084 380.877 297.232C383.087 302.264 385.298 307.297 381 309.997C380.938 310.059 380.877 310.059 380.815 310.12C381.245 311.409 381.675 312.759 382.043 314.232C383.579 319.878 384.561 326.322 384.254 330.127C383.456 340.253 385.666 340.867 391.008 342.34C393.034 342.892 395.491 343.567 398.376 344.856C406.236 348.354 406.727 356.701 406.052 365.293L406.113 365.232C406.727 364.741 407.28 364.004 407.71 363.206C409.245 360.322 409.429 355.658 405.622 349.889C403.964 347.434 400.71 345.163 396.903 342.524C394.877 341.113 392.727 339.64 390.578 337.983C386.157 334.607 385.421 323.744 384.622 312.145C383.886 301.283 383.026 289.683 379.28 283.239C373.57 273.604 375.228 254.088 376.579 238.622C377.131 232.178 377.623 226.409 377.5 222.482C377.377 218.799 385.85 211.742 395.245 207.507C398.376 206.095 401.569 204.991 404.578 204.377C404.762 204.316 405.008 204.316 405.192 204.254C409.859 196.399 414.525 187.316 414.218 179.89C413.788 169.886 417.227 155.28 420.604 140.674C420.911 139.262 421.279 137.85 421.586 136.439C423.367 128.767 428.648 121.955 433.99 117.23C436.691 114.836 439.393 112.934 441.603 111.768C443.998 110.479 445.902 109.988 446.945 110.417C447.007 110.417 447.007 110.479 447.068 110.479C449.893 108.454 453.147 107.165 456.586 107.717C459.778 108.208 461.375 109.129 461.989 110.233C466.594 108.699 472.734 108.024 479.181 110.172C496.62 116.064 502.637 141.84 514.119 191.489C515.04 195.417 515.961 199.467 517.067 204.193C518.11 208.734 519.952 213.583 521.979 218.37C525.294 220.825 528.487 223.648 531.25 226.9C534.628 230.828 537.452 235.308 539.294 240.157C541.934 247.03 544.329 260.777 545.618 277.102C546.724 291.279 547.031 307.42 545.803 322.701C545.68 324.297 545.618 325.831 545.557 327.365C547.031 327.181 548.627 326.997 550.224 326.874C577.486 324.235 615.924 325.156 618.441 330.311C618.564 330.557 618.625 330.802 618.687 331.109C618.871 332.705 617.459 334.055 614.696 335.098C612.24 336.08 608.678 336.878 604.38 337.614C591.731 339.701 572.39 340.622 555.75 340.499C552.188 340.499 548.75 340.315 545.618 340.192C545.618 340.928 545.68 341.665 545.68 342.401C546.785 342.463 547.952 342.524 549.18 342.524C562.381 342.954 578.837 341.726 593.819 340.192C598.67 339.701 603.521 339.087 608.064 338.535C617.213 337.369 625.011 336.387 630.108 336.755C634.467 337.062 636.923 338.351 636.739 341.235C636.616 343.261 634.222 345.224 631.213 346.759C629.371 347.679 627.345 348.477 625.441 349.03C623.538 349.582 621.757 349.889 620.529 349.766C619.546 349.705 618.871 349.398 618.503 348.784C618.011 347.802 618.625 347.066 619.792 346.452C620.836 345.9 622.31 345.47 623.906 344.979C626.116 344.304 628.45 343.567 629.371 342.708C629.616 342.463 629.678 342.217 629.432 341.91C628.573 340.928 623.292 342.34 616.845 344.304C617.213 347.004 617.459 351.607 617.643 357.008C618.073 368.484 618.196 383.582 618.196 390.394C667.87 390.332 718.956 390.701 719.263 390.701ZM616.968 391.621C571.592 391.437 528.242 391.376 527.996 391.805C527.628 392.419 528.057 395.979 529.47 399.477C530.391 401.748 531.68 403.957 533.522 405.184C535.242 406.35 544.697 406.903 556.241 407.148C575.767 407.516 601.249 406.841 606.284 406.473C609.292 406.228 611.564 404.693 613.222 402.668C615.801 399.6 616.906 395.61 616.906 393.647C616.968 393.278 616.968 392.603 616.968 391.621ZM615.433 343.138C615.371 342.892 615.31 342.708 615.248 342.586C614.696 341.726 609.415 342.279 603.705 343.445C600.757 344.058 597.749 344.856 595.231 345.715C592.714 346.575 590.688 347.557 589.705 348.477C589.275 348.907 589.091 349.275 589.152 349.52C589.705 351.239 599.714 348.048 609.599 344.856C611.564 344.365 613.529 343.69 615.433 343.138ZM544.513 343.629C537.145 343.138 531.005 341.972 527.198 339.885C526.768 340.069 526.522 340.315 526.522 340.622C526.461 342.279 526.522 345.593 526.522 349.766C526.522 355.719 526.522 363.39 526.461 370.51C532.049 370.755 537.268 369.773 541.566 366.398C545.311 363.452 545.004 355.474 544.636 344.795L544.513 343.629ZM525.786 339.087C524.558 338.228 523.637 337.185 523.084 336.08C522.531 334.791 522.961 333.625 524.312 332.582C526.093 331.232 529.531 330.066 534.075 329.145C537.022 328.531 540.461 327.979 544.268 327.488C544.329 325.892 544.39 324.235 544.575 322.517C545.741 307.297 545.496 291.279 544.39 277.164C543.101 260.962 540.706 247.398 538.127 240.586C536.347 235.861 533.584 231.565 530.329 227.76C528.18 225.243 525.786 223.034 523.33 221.009C523.882 222.298 524.435 223.586 524.987 224.814C528.794 233.344 532.049 240.832 530.882 244.821C529.961 247.889 526.707 248.933 519.645 246.846C509.391 243.839 502.514 228.005 498.339 211.067C498.277 212.417 498.216 213.706 498.155 214.994C497.848 220.088 497.479 224.323 497.049 227.023C496.067 233.344 496.497 239.359 497.725 245.128C498.953 250.897 500.979 256.481 503.251 261.759C504.049 263.601 503.927 264.951 503.128 265.871C502.207 266.976 500.427 267.344 498.216 267.099C496.128 266.853 493.672 266.055 491.155 264.828C484.83 261.698 478.199 255.684 477.462 248.012C475.436 248.994 473.103 249.792 470.401 250.467C467.822 251.081 465.366 251.51 462.971 251.694C452.165 252.492 443.077 248.994 436.261 243.778C429.446 238.5 424.902 231.38 423.306 224.998C422.999 223.77 422.814 222.604 422.692 221.438C422.323 216.59 423.06 213.153 424.288 210.637C425.271 208.734 426.499 207.384 427.788 206.525C429.077 205.666 430.428 205.298 431.472 205.175C432.27 205.114 432.946 205.236 433.376 205.482C445.472 211.496 455.112 208.059 461.928 202.843C465.243 200.265 467.883 197.319 469.787 194.803C470.217 194.251 470.585 193.698 470.954 193.207L470.892 193.269C466.287 197.81 457.875 206.095 449.831 207.2C439.516 208.55 436.2 204.07 432.762 199.529C432.332 198.976 431.963 198.424 431.534 197.933C429.2 194.926 425.025 187.93 422.569 179.89C420.972 174.551 420.113 168.72 421.157 163.197C421.832 159.637 422.262 155.71 422.63 151.904C423.797 141.226 424.841 131.468 430.797 130.977C443.2 129.934 459.84 150.432 470.892 164.056C473.594 167.37 475.927 170.255 477.769 172.28C479.304 164.854 482.006 160.006 486.611 159.821C489.129 159.76 490.664 161.11 491.4 163.135C491.953 164.731 491.953 166.695 491.523 168.659C491.093 170.623 490.234 172.587 489.006 174.121C486.98 176.637 484.094 178.049 480.532 176.637C480.041 176.453 479.366 175.962 478.567 175.226C477.155 184.431 477.278 196.951 477.708 209.103C477.892 213.767 478.076 218.431 478.322 222.85C478.752 232.424 479.181 240.709 478.813 245.435C478.813 245.496 478.813 245.496 478.813 245.557C487.225 240.341 487.839 232.178 488.33 224.998C488.699 219.597 489.067 214.749 492.444 211.803C493.181 211.128 494.041 210.637 495.023 210.269C495.576 210.023 496.19 209.9 496.865 209.778C496.927 208.366 496.988 206.955 497.049 205.482C495.883 200.02 495.023 194.619 494.409 189.587C493.611 183.388 493.243 177.742 493.12 173.323C493.058 168.843 493.304 165.652 493.857 164.363C494.164 163.749 494.593 163.442 495.085 163.442C495.146 163.442 495.146 163.442 495.207 163.442C497.295 163.749 498.278 171.912 498.585 182.467C498.769 189.525 498.707 197.749 498.462 205.359C498.769 206.709 499.076 208.059 499.383 209.471C503.128 209.348 507.672 210.453 512.4 212.539C514.856 213.644 517.374 215.056 519.891 216.651C518.233 212.539 516.698 208.366 515.777 204.377C514.795 200.327 513.812 195.908 512.83 191.673C501.409 142.576 495.514 117.046 478.813 111.461C472.611 109.374 466.717 110.111 462.357 111.583C462.296 111.952 462.235 112.259 462.05 112.627C461.743 113.363 461.129 114.038 460.454 114.652C458.612 116.248 455.787 117.291 454.498 116.739C454.068 116.555 453.822 116.186 453.822 115.757C453.822 115.266 454.191 114.652 454.866 114.038C455.419 113.486 456.217 112.934 457.261 112.32C458.182 111.768 459.349 111.215 460.638 110.663C460.147 109.988 458.857 109.435 456.463 109.067C453.454 108.638 450.568 109.742 447.989 111.583C448.051 112.013 448.051 112.443 447.989 112.934C447.621 114.898 445.902 117.843 443.937 120.482C441.972 123.06 439.823 125.453 438.533 126.19C438.104 126.497 437.674 126.619 437.305 126.558C436.753 126.435 436.507 126.067 436.507 125.453C436.507 124.962 436.753 124.103 437.182 123.06C437.612 122.078 438.165 120.912 438.963 119.684C440.56 117.046 442.831 114.038 445.595 111.645C444.858 111.768 443.753 112.259 442.402 112.934C440.253 114.1 437.674 115.879 435.095 118.212C429.998 122.753 424.841 129.32 423.183 136.684C422.876 138.096 422.507 139.507 422.2 140.919C418.823 155.403 415.446 169.948 415.876 179.767C416.183 187.316 411.823 196.153 407.218 203.947C409.367 203.702 411.394 203.825 413.174 204.316C416.736 205.298 419.315 207.814 419.99 212.539C420.297 214.749 420.42 217.879 419.867 220.456C419.56 221.991 419.069 223.341 418.271 224.323C417.411 225.366 416.244 226.041 414.771 225.918C413.973 225.857 413.051 225.612 412.069 225.059C410.473 224.2 409.306 222.911 408.508 221.377C407.587 222.236 406.604 223.095 405.56 223.832C401.815 226.655 397.885 228.373 396.043 227.207C394.078 225.98 394.447 221.929 399.789 213.153C400.464 212.048 401.14 210.944 401.876 209.839C402.675 208.612 403.473 207.262 404.332 205.911C401.631 206.525 398.745 207.568 395.982 208.796C387.078 212.846 378.973 219.29 379.096 222.42C379.219 226.471 378.728 232.24 378.175 238.684C376.886 253.904 375.228 273.174 380.693 282.38C384.684 289.131 385.482 300.853 386.28 311.9C387.078 323.192 387.815 333.687 391.684 336.694C393.833 338.351 395.982 339.824 397.947 341.174C401.938 343.874 405.315 346.206 407.096 348.907C411.271 355.228 411.025 360.445 409.245 363.697C408.692 364.741 408.017 365.538 407.28 366.214C406.911 366.52 406.482 366.827 406.113 367.011C405.99 368.116 405.867 369.282 405.745 370.387C405.069 376.585 404.455 382.293 406.42 385.361C409.122 389.657 413.973 388.737 423.306 387.018C430.981 385.607 441.603 383.704 456.401 383.643C465.305 383.582 473.717 384.073 481.331 384.502C501.962 385.668 516.944 386.466 520.812 376.217C521.242 375.112 521.487 373.517 521.672 371.491C513.996 370.264 506.014 367.257 499.26 364.679C494.471 362.838 490.234 361.242 487.225 360.69C486.98 360.629 485.813 360.445 484.708 360.26C478.076 359.094 471.445 357.928 468.129 355.596C465.612 353.816 464.813 351.484 467.085 348.232C467.884 347.066 468.743 346.084 469.541 345.347C467.699 344.12 465.612 342.217 463.401 340.192C457.936 335.282 451.366 329.452 446.27 329.882C441.296 330.25 436.323 330.311 431.718 329.452C427.051 328.531 422.814 326.629 419.56 323.192C419.007 322.578 418.762 322.026 418.762 321.474C417.227 321.228 415.569 320.921 413.973 320.676C407.28 319.633 400.771 318.589 398.561 316.564C397.333 315.459 397.271 314.109 398.745 312.514C399.727 311.47 403.166 310.059 407.832 308.831C410.78 308.033 414.28 307.358 417.964 306.806C418.639 305.885 419.376 305.026 420.174 304.167C422.692 301.589 425.7 299.626 428.034 299.626C433.621 299.626 438.595 301.221 443.875 302.94C448.419 304.412 453.27 306.008 459.103 306.683H459.287C463.217 307.174 466.901 307.604 468.129 308.893C468.989 309.813 468.866 310.979 467.269 312.391C465.734 313.802 457.568 314.662 448.296 315.643C441.358 316.38 433.867 317.178 428.341 318.282C429.016 318.405 429.814 318.589 430.551 318.835C432.27 319.387 434.051 320.124 435.586 321.044C435.586 320.983 435.586 320.983 435.586 320.921C435.77 319.939 436.507 318.896 437.612 318.282C438.533 317.791 439.7 317.485 441.051 317.73C442.156 317.914 443.323 318.344 444.489 318.835C444.551 318.405 444.674 317.976 444.858 317.669C445.288 316.932 446.024 316.38 447.007 316.196C447.866 316.012 448.91 316.012 450.016 316.257C451.366 316.564 452.901 317.178 454.375 318.221C454.682 317.607 455.173 317.055 455.787 316.564C456.647 315.889 457.691 315.337 458.857 314.968C461.498 314.109 464.629 314.048 466.533 315.091C468.068 315.95 469.112 317.055 470.155 318.16C471.752 319.817 473.225 321.412 476.296 321.351C477.646 321.351 478.813 321.658 479.734 322.272C480.594 322.824 481.269 323.56 481.76 324.481C485.015 323.315 492.076 326.261 499.076 329.084C505.769 331.846 512.461 334.546 514.979 333.625C516.268 333.134 517.251 328.9 517.926 322.763C517.619 320.124 517.251 317.423 516.944 314.846C515.224 300.792 513.567 287.535 513.137 279.066C512.83 272.868 513.321 269.001 515.04 268.94C515.9 268.878 516.575 269.431 517.189 270.535C518.417 272.868 519.338 278.023 519.83 284.528C520.321 290.911 520.505 298.644 520.382 306.07C520.259 311.9 519.891 317.607 519.338 322.394C521.61 340.928 523.698 359.708 523.207 370.203C523.821 370.264 524.373 370.325 524.926 370.387C524.987 363.329 524.987 355.658 524.987 349.766C524.987 345.593 524.987 342.217 524.987 340.56C525.049 339.947 525.294 339.456 525.786 339.087ZM524.496 335.466C524.987 336.632 526.031 337.614 527.382 338.412C528.794 338.044 530.882 337.921 533.399 337.983C535.671 338.044 538.25 338.167 541.198 338.351C542.18 338.412 543.224 338.474 544.329 338.535C544.268 335.466 544.206 332.275 544.329 328.961C540.706 329.452 537.329 329.943 534.505 330.557C530.145 331.477 526.891 332.521 525.294 333.748C524.496 334.3 524.251 334.853 524.496 335.466ZM529.593 339.517C533.215 340.928 538.312 341.788 544.39 342.217C544.39 341.481 544.329 340.744 544.329 340.008C543.224 339.947 542.119 339.885 541.075 339.824C538.127 339.64 535.487 339.517 533.338 339.456C531.926 339.456 530.636 339.456 529.593 339.517ZM550.653 328.225C548.996 328.409 547.399 328.531 545.803 328.716C545.68 332.152 545.741 335.405 545.803 338.535C548.996 338.719 552.434 338.842 555.995 338.842C572.574 338.965 591.793 338.044 604.38 335.957C608.556 335.282 611.994 334.484 614.389 333.564C616.476 332.766 617.582 331.907 617.459 331.109C617.459 330.986 617.397 330.925 617.336 330.802C615.126 326.199 577.486 325.647 550.653 328.225ZM523.759 390.21C524.496 389.657 524.803 381.495 524.926 371.86C524.312 371.798 523.698 371.737 523.084 371.676C522.9 373.762 522.593 375.481 522.163 376.708C517.926 388 502.514 387.141 481.208 385.975C473.594 385.545 465.182 385.116 456.34 385.116C441.665 385.177 431.104 387.08 423.49 388.491C413.543 390.332 408.385 391.253 405.131 386.159C402.92 382.661 403.534 376.708 404.271 370.264C404.394 369.343 404.455 368.484 404.578 367.564C403.227 367.748 402.061 367.318 401.324 366.091C400.894 365.416 400.771 364.434 400.648 363.39C400.525 365.477 398.745 367.38 396.35 368.975C394.017 370.448 391.008 371.676 388.307 372.228C386.833 372.535 385.482 372.657 384.315 372.596C382.535 372.473 381.675 371.491 381.245 370.141C381.245 374.928 381.736 383.398 382.289 391.253C448.358 391.192 522.777 390.946 523.759 390.21ZM380.815 392.726C366.632 392.726 352.878 392.787 340.29 392.787C306.519 392.849 281.528 392.849 281.467 392.91C281.406 392.91 281.528 395.304 281.651 398.434C281.835 402.361 282.265 407.21 282.695 410.462C283.063 413.163 289.449 415.802 298.782 417.643C308.545 419.607 321.501 420.773 334.273 420.466C335.931 420.404 337.588 420.343 339.246 420.282C350.483 419.607 361.29 417.643 369.272 415.495C376.947 413.347 381.982 411.199 381.921 409.849C381.859 409.235 381.798 407.701 381.614 405.614C381.491 402.361 381.184 397.697 380.815 392.726ZM382.289 364.679C382.719 364.618 383.149 364.495 383.64 364.434C385.912 364.004 388.921 363.513 389.228 362.777C389.412 362.286 388.184 361.488 384.131 359.954C383.517 359.708 383.087 359.34 382.78 358.91C382.535 358.542 382.35 358.174 382.289 357.806C382.228 357.376 382.228 357.008 382.351 356.701C382.412 356.455 382.596 356.271 382.78 356.087C383.333 355.658 384.07 355.412 384.929 355.228C387.017 354.798 389.964 354.983 392.727 355.78C395.491 356.578 398.131 357.99 399.543 359.954C400.034 360.629 400.403 361.365 400.587 362.163C400.464 360.874 400.341 359.463 399.727 358.481C399.052 357.253 397.824 356.394 396.227 355.658C394.631 354.921 392.666 354.492 390.517 354.185C386.833 353.632 383.886 352.773 381.491 351.668C381.552 352.282 381.491 352.835 381.245 353.264C380.877 353.939 380.263 354.307 379.28 354.185H379.096C374.614 353.694 362.333 352.405 357.913 346.882C356.746 345.409 354.781 343.874 352.632 342.217C347.72 338.351 342.009 333.809 341.702 327.12C340.413 327.365 338.939 326.752 337.159 324.972C334.027 321.842 335.378 318.098 336.545 315.091C337.22 313.373 337.711 311.961 337.036 311.47C335.378 310.427 333.72 308.156 332.676 305.456C331.755 303.062 331.264 300.301 331.632 297.723C331.878 295.943 331.08 294.225 330.159 292.261C329.668 291.218 329.115 290.052 328.685 288.824C328.317 289.07 327.948 289.315 327.641 289.561C325.308 291.095 323.466 292.322 324.817 296.25C326.659 301.589 330.097 315.705 331.694 327.672C332.738 335.773 332.922 342.954 331.203 345.961C329.176 349.52 319.72 350.625 309.098 351.914C300.01 353.019 290.063 354.185 283.309 356.946C283.432 357.376 283.862 357.867 284.476 358.358C294.791 355.412 312.659 353.387 330.097 352.589C351.834 351.546 372.895 352.405 378.052 355.474C379.526 356.333 379.956 357.437 379.219 358.665C378.175 360.445 370.807 362.163 360.369 363.575C349.071 365.109 334.089 366.398 319.843 367.073C312.475 367.441 305.659 367.564 299.765 367.686C299.826 368.361 299.396 368.791 298.353 369.037C298.23 369.037 298.046 369.098 297.923 369.098C295.774 369.405 292.704 368.852 289.756 367.871C287.177 367.932 284.967 367.993 283.248 368.055L283.432 368.116C286.932 368.975 291.475 369.589 296.695 369.834C304.984 370.141 314.992 369.773 325.124 368.975C335.255 368.239 345.571 367.134 354.413 366.091C367.798 364.556 377.009 360.69 378.728 360.015C380.447 359.279 381.429 359.77 381.921 360.997C382.289 361.918 382.289 363.206 382.289 364.679ZM383.886 365.845C383.272 365.968 382.658 366.029 382.228 366.152C382.228 368.607 382.351 371.062 384.315 371.123C385.359 371.185 386.649 371.062 387.938 370.755C390.517 370.203 393.28 369.098 395.491 367.686C397.578 366.336 399.052 364.802 399.175 363.206C399.175 362.961 399.175 362.777 399.113 362.531C398.99 361.918 398.683 361.304 398.315 360.751C397.087 359.033 394.754 357.806 392.298 357.069C389.78 356.333 387.14 356.149 385.236 356.578C384.622 356.701 384.07 356.885 383.701 357.192C383.701 357.253 383.701 357.315 383.701 357.437C383.763 357.621 383.824 357.806 383.947 357.99C384.131 358.235 384.315 358.419 384.622 358.542C389.657 360.445 391.07 361.979 390.578 363.268C389.964 364.802 386.526 365.416 383.886 365.845ZM278.028 367.748C276.862 367.134 276.125 366.52 275.757 365.845C275.265 364.986 275.204 364.188 275.511 363.452C273.853 366.398 272.993 369.65 272.441 372.964C273.976 373.087 275.572 373.21 277.23 373.394C277.353 371.614 277.476 369.896 277.537 368.484V368.362C277.537 368.116 277.721 367.932 278.028 367.748ZM276.985 365.17C277.353 365.845 278.397 366.459 280.055 367.134C281.59 366.889 283.739 366.704 286.441 366.582C283.616 365.17 281.221 363.329 280.423 361.304C279.932 361.549 279.502 361.733 279.072 361.979C277.23 363.022 276.371 364.066 276.985 365.17ZM276.064 362.47C276.616 361.856 277.414 361.242 278.397 360.69C278.888 360.383 279.441 360.138 280.116 359.892C279.993 359.585 279.871 359.217 279.686 358.849C278.581 359.585 277.66 360.383 276.985 361.242C276.616 361.672 276.309 362.04 276.064 362.47ZM281.467 359.34C281.897 359.156 282.388 359.033 282.941 358.849C282.511 358.419 282.204 357.99 282.02 357.56C281.651 357.744 281.283 357.928 280.976 358.112C281.099 358.542 281.344 358.972 281.467 359.34ZM330.159 354.062C313.396 354.86 296.265 356.701 286.011 359.463C287.976 360.69 290.616 362.04 293.011 363.206C295.282 364.372 297.431 365.354 298.66 366.275C304.8 366.152 311.984 365.968 319.843 365.661C334.027 364.986 349.009 363.697 360.246 362.163C370.254 360.813 377.193 359.279 377.991 357.99C378.237 357.56 377.991 357.192 377.316 356.762C372.403 353.816 351.649 353.019 330.159 354.062ZM284.23 359.954C283.37 360.199 282.572 360.506 281.835 360.751C282.511 362.593 285.09 364.372 288.037 365.661C288.651 365.968 289.326 366.213 290.002 366.459C291.844 366.398 293.809 366.398 295.958 366.336H296.019C294.975 365.784 293.747 365.17 292.397 364.495C289.511 363.084 286.318 361.488 284.23 359.954ZM298.291 367.748C298.353 367.871 298.353 367.993 298.353 367.871C298.353 367.809 298.291 367.809 298.291 367.748ZM278.581 374.928C278.52 376.156 278.52 377.383 278.52 378.549C283.002 379.286 288.897 380.759 294.3 382.109C300.379 383.643 305.905 384.993 307.808 384.993C309.282 384.993 310.203 384.564 310.633 384.011C310.817 383.766 310.879 383.52 310.94 383.275C310.94 383.029 310.879 382.722 310.756 382.477C310.449 381.863 309.712 381.249 308.545 381.065C307.931 380.943 306.58 380.636 304.616 380.206C298.844 378.795 288.037 376.278 278.581 374.928ZM277.169 381.004C277.169 380.574 277.107 380.206 277.107 379.777C274.836 379.47 273.239 379.408 272.686 379.777C272.502 379.961 272.441 380.022 272.441 380.083C272.993 380.759 275.143 381.434 277.23 381.986C277.23 381.679 277.169 381.311 277.169 381.004ZM277.046 378.365C277.046 377.199 277.046 375.972 277.107 374.744C275.388 374.499 273.73 374.315 272.134 374.253C271.888 375.787 271.765 377.26 271.643 378.733C271.704 378.733 271.704 378.672 271.765 378.672C272.564 377.997 274.467 377.997 277.046 378.365ZM279.011 383.95C279.318 385.239 279.748 385.975 280.362 385.975C281.221 385.914 281.713 385.791 281.958 385.607C282.02 385.546 282.02 385.546 282.02 385.546C282.02 385.484 282.02 385.423 281.958 385.361C281.774 385.055 281.344 384.748 280.792 384.502C280.423 384.318 279.809 384.134 279.011 383.95ZM270.722 374.13C265.502 373.885 261.696 374.437 261.204 376.524C260.283 380.39 265.011 382.907 269.555 384.379C269.739 382.907 269.923 381.372 270.108 379.654C270.292 377.935 270.476 376.033 270.722 374.13ZM259.792 376.156C260.406 373.455 264.888 372.658 270.906 372.842C271.643 368.423 272.932 363.943 275.757 360.26C276.555 359.217 277.66 358.297 278.888 357.499C276.678 353.816 271.888 347.741 267.652 342.34C263.538 337.123 259.915 332.521 259.362 330.864C258.625 331.355 257.889 331.784 257.152 331.968C255.494 332.336 253.959 331.6 253.161 327.979C253.099 327.672 252.976 327.059 252.792 326.445C251.933 322.701 250.705 317.485 250.091 311.47C249.784 308.402 248.924 305.517 247.941 303.062C247.512 306.008 247.573 309.506 247.634 312.82C247.696 315.828 247.696 318.651 247.389 320.737C247.205 322.026 246.345 322.885 245.24 323.376C244.687 323.622 244.073 323.806 243.398 323.867C242.722 323.929 242.108 323.929 241.433 323.806C239.652 323.56 237.994 322.64 237.38 321.29C236.152 318.528 235.047 314.723 234.249 311.102C233.389 312.636 232.1 313.618 230.319 313.557C228.416 313.495 226.758 312.329 225.407 310.672C224.363 309.384 223.503 307.849 222.889 306.254C222.46 306.499 221.907 306.745 221.354 306.806C218.223 307.174 216.995 302.571 215.828 298.337C215.091 295.636 214.416 293.059 213.495 292.506C212.328 291.831 211.223 290.297 210.363 288.701C210.118 288.21 209.872 287.719 209.688 287.229C209.504 287.351 209.258 287.413 209.013 287.474C207.662 287.965 201.46 288.64 193.846 288.21C188.996 287.965 183.592 287.228 178.434 285.817C178.25 285.756 178.127 285.694 177.943 285.694C177.636 286.553 177.391 287.351 177.084 288.21C174.198 296.557 173.522 306.07 172.847 315.398C172.294 322.824 171.803 330.127 170.145 336.755C168.549 343.383 167.75 349.643 167.382 355.044C166.768 364.556 167.505 371.369 167.75 372.903C168.057 374.805 169.04 376.34 170.329 377.506C171.742 376.585 173.338 375.91 174.812 375.542C176.47 375.112 178.005 375.051 178.987 375.481C180.215 376.033 180.706 377.076 179.908 378.795C179.478 379.777 178.741 380.39 177.82 380.82C176.715 381.25 175.364 381.311 173.952 381.004C172.724 380.697 171.435 380.145 170.329 379.347C167.812 381.249 166.277 384.073 168.426 387.203C168.794 387.755 182.119 388.184 199.311 388.614C222.705 389.105 253.038 389.351 268.266 389.351C268.818 388.369 269.187 387.141 269.432 385.73C264.152 384.134 258.625 381.188 259.792 376.156ZM273.362 386.957C272.564 386.773 271.704 386.527 270.783 386.282C270.537 387.448 270.23 388.491 269.862 389.412C274.099 389.412 276.862 389.412 277.599 389.412C277.599 389.351 277.599 389.289 277.599 389.166C277.599 388.982 277.537 388.737 277.537 388.553C277.414 388.123 277.353 387.755 277.353 387.755C277.353 387.755 277.169 387.755 276.923 387.694C276.186 387.571 274.836 387.325 273.362 386.957ZM175.119 377.076C173.952 377.383 172.724 377.874 171.557 378.549C172.417 379.102 173.338 379.47 174.198 379.654C175.303 379.899 176.408 379.899 177.206 379.531C177.82 379.286 178.25 378.856 178.557 378.304C178.926 377.567 178.741 377.076 178.373 376.892C177.698 376.647 176.47 376.708 175.119 377.076ZM177.022 283.976C178.127 280.723 179.233 277.348 180.276 274.156C184.636 261.023 188.259 249.976 190.838 247.889C191.267 247.583 191.636 247.153 192.004 246.723C191.083 245.803 190.162 244.944 189.303 244.207C186.846 245.066 184.759 244.514 183.408 243.532C182.855 243.102 182.426 242.673 182.119 242.182C181.811 241.63 181.627 241.077 181.627 240.586C181.689 239.85 182.057 239.297 182.855 239.052C184.206 238.622 186.601 239.972 189.487 242.366L189.61 242.489C189.732 242.427 189.794 242.366 189.917 242.305C192.311 241.016 192.987 235.983 193.723 230.521C194.583 224.261 195.504 217.572 199.311 214.687C199.802 214.319 200.293 213.828 200.785 213.276C201.89 206.157 202.872 200.02 204.162 197.135C204.714 195.908 205.144 195.233 205.574 194.987C206.556 194.312 207.171 194.864 207.355 196.276C207.478 197.012 207.416 198.117 207.293 199.467C206.802 203.579 205.144 210.023 202.197 213.89L202.074 214.626C200.294 226.225 198.206 239.972 193.969 246.539C195.873 248.442 197.837 250.59 199.802 252.861C201.644 254.947 205.758 255.499 210.609 256.113C216.504 256.85 223.381 257.77 228.723 261.821C230.565 263.232 232.407 264.337 234.433 265.564C236.828 266.976 239.468 268.572 242.538 270.904C244.749 272.499 246.652 273.604 248.31 274.463C252.055 276.488 254.573 277.9 256.047 283.117C260.406 298.705 260.774 320.492 260.836 327.979C261.757 327.365 262.494 327.12 263.231 327.672C264.213 328.531 271.029 337.492 276.432 345.347C279.318 349.459 281.774 353.326 282.818 355.535C289.756 352.712 299.826 351.484 308.914 350.441C319.168 349.214 328.255 348.109 329.913 345.224C331.448 342.524 331.264 335.651 330.22 327.856C328.685 316.012 325.247 302.019 323.405 296.741C321.685 291.709 323.957 290.236 326.843 288.333C327.273 288.026 327.764 287.719 328.255 287.351C327.58 284.712 327.457 281.582 328.747 277.47C329.975 273.727 331.08 271.333 331.878 270.351C332.431 269.676 332.983 269.492 333.536 269.615C334.027 269.799 334.396 270.29 334.58 271.088C334.948 272.561 334.887 275.507 334.273 279.741C333.72 283.976 331.878 286.308 329.913 287.904C330.343 289.315 330.957 290.543 331.448 291.647C332.492 293.857 333.352 295.759 333.045 297.907C332.676 300.239 333.106 302.694 333.966 304.842C334.887 307.236 336.36 309.261 337.711 310.12C339.43 311.225 338.694 313.127 337.834 315.459C336.852 318.037 335.624 321.29 338.141 323.806C339.615 325.279 340.781 325.647 341.702 325.402C341.702 325.156 341.764 324.911 341.764 324.665C342.501 319.694 344.158 316.932 345.509 315.766C346.123 315.275 346.676 315.091 347.167 315.091C347.843 315.091 348.334 315.459 348.518 316.134C348.764 316.81 348.579 317.976 347.781 319.326C347.474 319.878 347.167 320.369 346.922 320.86C345.939 322.701 344.957 324.481 343.79 325.647C343.544 325.892 343.237 326.138 342.992 326.322C342.93 332.705 348.579 337.123 353.369 340.928C355.579 342.647 357.544 344.243 358.834 345.838C362.886 350.871 374.675 352.159 379.035 352.589H379.219C379.526 352.65 379.71 352.589 379.71 352.466C379.894 352.159 379.833 351.546 379.587 350.809V350.748C377.684 349.766 376.333 348.661 375.351 347.618C374.552 346.759 374.061 345.961 373.754 345.286C373.447 344.488 373.386 343.752 373.631 343.261C373.816 342.831 374.123 342.586 374.552 342.463C375.842 342.095 378.175 344.549 379.649 347.311C380.079 348.109 380.508 348.968 380.754 349.766C383.149 350.932 386.28 352.037 390.394 352.65C392.605 352.957 394.692 353.51 396.473 354.246C398.315 355.044 399.727 356.149 400.648 357.622C401.447 359.033 401.631 360.813 401.754 362.408C401.876 363.575 401.938 364.679 402.245 365.232C402.675 365.907 403.411 366.152 404.271 365.968C404.332 365.968 404.394 365.968 404.455 365.907C405.192 357.499 405.008 349.214 397.762 346.022C394.999 344.795 392.605 344.12 390.64 343.567C384.5 341.849 381.921 341.174 382.842 329.82C383.149 326.199 382.166 319.939 380.631 314.416C380.263 313.066 379.894 311.777 379.465 310.55C377.93 310.979 376.517 310.611 375.412 309.752C374.737 309.199 374.123 308.524 373.754 307.727C373.386 306.929 373.202 306.131 373.202 305.333C373.263 304.106 373.877 303.062 375.228 302.694C375.412 302.633 375.596 302.633 375.842 302.633C377.07 302.755 378.237 304.167 379.342 306.315C379.649 306.99 379.956 307.727 380.263 308.463C383.333 306.438 381.368 302.019 379.465 297.6C378.482 295.33 377.5 293.12 377.07 291.095C374.982 280.232 371.36 277.839 369.088 276.366C366.325 274.586 365.158 273.788 368.719 265.749C374.307 252.983 371.974 227.33 369.824 204.316C369.456 200.511 369.149 196.828 368.842 193.698C368.289 187.009 365.342 181.608 361.228 177.005C357.114 172.341 351.772 168.475 346.492 164.915C342.071 161.908 337.65 158.901 333.904 156.507C330.22 154.114 327.211 152.395 325.492 151.72C322.729 150.677 318.063 151.72 312.352 152.948C310.142 153.439 307.686 153.93 305.23 154.421C306.765 155.525 307.747 156.323 308.115 157.06C308.484 157.919 308.238 158.533 307.256 159.024C306.519 159.33 305.352 159.821 303.265 160.128C301.238 160.374 298.291 160.496 293.993 160.19C268.266 158.226 258.196 138.219 253.161 128.215C251.994 125.883 251.073 124.103 250.398 123.305C250.213 123.121 250.091 122.999 250.091 123.06C245.854 126.926 238.24 126.006 229.03 124.962C218.039 123.674 204.776 122.139 193.048 128.276C187.399 131.222 182.548 136.439 177.943 144.724C173.277 153.071 168.794 164.547 164.005 180.013C162.777 184.002 161.365 187.623 160.198 190.63C158.724 194.374 157.68 197.197 157.742 198.485C157.926 202.659 155.163 206.525 152.4 210.33C149.637 214.135 146.935 217.879 147.488 221.684C148.04 225.182 146.567 229.417 145.032 233.774C143.005 239.604 140.918 245.68 143.558 250.099C146.014 254.149 145.891 257.402 145.769 259.918C145.646 262.25 145.584 263.907 148.286 264.889C149.268 265.258 150.189 265.319 150.926 265.073C150.988 265.073 151.049 265.012 151.11 265.012C150.435 260.777 151.172 257.402 152.216 255.499C152.584 254.824 153.014 254.272 153.444 253.904C153.996 253.474 154.549 253.29 155.102 253.413C155.716 253.536 156.207 254.088 156.452 255.009C156.944 256.727 156.698 259.243 155.9 261.514C155.47 262.619 154.856 263.723 154.119 264.582C153.689 265.073 153.26 265.503 152.707 265.81C152.891 266.608 153.075 267.406 153.382 268.203C154.181 270.658 157.681 273.972 162.47 277.102C166.829 279.864 171.803 282.319 177.022 283.976ZM181.689 274.647C180.645 277.777 179.601 281.03 178.434 284.467C178.557 284.528 178.741 284.528 178.864 284.59C183.899 286.001 189.18 286.676 193.969 286.983C201.399 287.413 207.355 286.799 208.521 286.308C208.767 286.185 209.013 286.124 209.258 286.001C209.197 285.817 209.135 285.571 209.135 285.387C208.89 284.16 208.951 283.055 209.381 282.319C209.565 282.012 209.811 281.766 210.179 281.582C211.039 281.153 211.837 281.214 212.39 281.644C212.697 281.889 212.942 282.257 213.065 282.687C213.188 283.055 213.188 283.546 213.065 283.976C212.881 284.835 212.267 285.817 211.039 286.615C211.223 287.167 211.469 287.658 211.714 288.149C212.451 289.561 213.434 290.849 214.293 291.402C215.705 292.261 216.442 295.084 217.302 298.091C218.284 301.774 219.39 305.701 221.232 305.456C221.723 305.394 222.153 305.21 222.46 304.903C222.03 303.431 221.784 302.019 221.784 300.914C221.784 299.932 222.091 299.135 222.582 298.705C223.135 298.275 223.688 298.214 224.179 298.459C224.67 298.766 225.039 299.38 225.223 300.239C225.346 300.914 225.346 301.774 225.223 302.633C225.039 303.553 224.732 304.535 224.179 305.272C224.732 306.867 225.591 308.524 226.635 309.813C227.74 311.163 229.03 312.145 230.442 312.145C232.161 312.207 233.266 310.55 233.819 308.586C233.696 307.788 233.573 307.051 233.451 306.376C233.205 304.658 233.021 303.124 233.021 302.019C233.021 300.607 233.266 299.687 233.88 299.441C234.003 299.441 234.065 299.38 234.187 299.38C234.986 299.38 235.6 300.546 235.784 302.326C235.845 303.124 235.907 304.044 235.845 305.026C235.784 306.008 235.661 307.051 235.477 308.033C235.415 308.218 235.415 308.463 235.354 308.647C236.152 312.82 237.442 317.546 238.854 320.799C239.222 321.658 240.45 322.272 241.74 322.456C242.292 322.517 242.845 322.578 243.336 322.517C243.828 322.456 244.319 322.333 244.749 322.149C245.424 321.842 245.915 321.351 246.038 320.615C246.345 318.651 246.284 315.889 246.284 312.943C246.222 309.568 246.222 305.885 246.652 302.878C246.775 301.958 246.836 301.098 246.898 300.362C246.099 298.705 245.424 297.539 244.994 296.864C244.38 295.882 244.319 295.084 244.503 294.532C244.687 293.918 245.24 293.55 245.854 293.673C246.284 293.734 246.775 294.041 247.205 294.654C247.819 295.575 248.433 297.232 248.371 300.055C248.617 300.546 248.862 301.098 249.108 301.712C250.213 304.412 251.319 307.727 251.687 311.347C252.301 317.239 253.529 322.394 254.389 326.138C254.511 326.629 254.573 327.059 254.757 327.672C255.31 330.127 256.108 330.741 257.029 330.557C257.766 330.373 258.687 329.759 259.485 329.084C259.424 322.885 259.239 299.748 254.757 283.485C253.468 278.821 251.134 277.593 247.757 275.691C246.038 274.77 244.073 273.665 241.801 272.008C238.731 269.738 236.152 268.142 233.758 266.73C231.67 265.442 229.766 264.337 227.863 262.864C222.828 259.059 216.197 258.2 210.486 257.463C205.39 256.788 200.969 256.236 198.758 253.72C196.855 251.572 194.952 249.485 193.171 247.644C192.741 248.135 192.373 248.564 191.881 248.933C189.548 250.835 185.925 261.759 181.689 274.647ZM192.802 245.496C196.548 239.482 198.574 226.778 200.294 215.731C200.232 215.792 200.171 215.854 200.109 215.854C196.794 218.37 195.934 224.752 195.074 230.705C194.276 236.413 193.601 241.691 190.653 243.471C191.39 244.146 192.127 244.821 192.802 245.496ZM205.39 197.749C204.346 200.02 203.548 204.623 202.688 210.146C204.346 206.709 205.39 202.352 205.758 199.283C205.881 198.301 205.881 197.442 205.881 196.828C205.697 197.074 205.574 197.381 205.39 197.749ZM184.206 242.305C185.066 242.918 186.355 243.348 187.89 243.041C185.68 241.261 183.961 240.218 183.224 240.463C183.101 240.525 183.04 240.586 183.04 240.648C183.04 240.832 183.101 241.077 183.285 241.384C183.531 241.691 183.838 241.998 184.206 242.305ZM260.774 329.882C260.774 330.188 260.774 330.434 260.774 330.557C260.774 331.355 264.52 336.08 268.818 341.481C273.055 346.82 277.783 352.835 280.178 356.762C280.607 356.517 280.976 356.333 281.467 356.149C280.485 354.123 278.028 350.38 275.204 346.206C269.862 338.474 263.108 329.636 262.248 328.838C262.125 328.838 261.511 329.268 260.774 329.882ZM246.161 296.189C246.222 296.311 246.284 296.434 246.406 296.557C246.284 296.127 246.099 295.82 245.915 295.575C245.854 295.514 245.854 295.452 245.792 295.452C245.854 295.636 245.977 295.882 246.161 296.189ZM223.258 300.976C223.258 301.589 223.319 302.387 223.503 303.308C223.626 303.001 223.688 302.755 223.688 302.449C223.81 301.774 223.81 301.098 223.688 300.546C223.626 300.116 223.503 299.871 223.442 299.81C223.381 299.81 223.503 299.871 223.503 299.871C223.319 299.994 223.258 300.423 223.258 300.976ZM210.486 285.019V285.081C211.1 284.59 211.407 284.037 211.53 283.546C211.591 283.301 211.591 283.117 211.53 282.994C211.469 282.871 211.469 282.81 211.346 282.748C211.223 282.626 210.977 282.687 210.67 282.81C210.609 282.871 210.548 282.932 210.486 282.994C210.302 283.423 210.302 284.16 210.486 285.019ZM153.812 256.297C152.891 257.954 152.277 260.777 152.768 264.337C152.953 264.153 153.137 263.969 153.321 263.785C153.935 263.048 154.426 262.128 154.795 261.146C155.531 259.12 155.716 256.911 155.347 255.499C155.224 255.131 155.163 254.947 155.04 254.947C154.979 254.947 154.795 255.008 154.61 255.131C154.426 255.377 154.119 255.745 153.812 256.297ZM301.73 153.746C299.028 151.843 295.589 149.388 292.09 146.197C289.818 144.049 287.669 141.471 285.827 138.648C283.862 135.641 282.142 132.327 280.792 129.013C279.379 125.576 278.581 122.446 278.274 120.421C278.151 119.623 278.09 118.948 278.028 118.457C278.028 117.659 278.213 117.168 278.642 116.984C278.704 116.984 278.765 116.923 278.827 116.923C279.502 116.8 279.993 117.966 280.853 119.869C284.107 127.356 293.625 149.143 307.256 149.818C319.782 150.432 326.782 139.753 332.001 131.713C333.72 129.136 335.194 126.804 336.729 125.147C340.474 121.035 348.395 110.908 351.772 101.028C353.86 95.0132 354.167 88.9988 350.851 84.6414C346.676 79.1793 337.957 76.479 328.747 75.988C318.124 75.3743 306.949 77.5837 301.361 81.8183C294.914 86.6667 292.704 87.3417 291.107 85.2551C290.8 84.8255 290.493 84.2732 290.247 83.5981C287.484 85.562 285.519 87.8327 284.844 90.4717C283.984 93.9085 282.756 95.7496 281.467 96.3633C281.099 96.5475 280.73 96.6088 280.423 96.6702C279.502 99.1251 278.397 101.519 277.23 103.789C274.344 109.313 270.844 113.977 267.16 115.879C265.687 116.677 264.213 117.352 262.801 117.966C258.503 119.869 255.371 121.342 256.783 124.717C268.695 153.316 286.686 155.71 301.73 153.746ZM290.861 81.2046L290.923 81.3887C299.212 76.4176 312.536 73.5332 323.282 71.2624C328.01 70.2805 332.185 69.3599 335.194 68.4393C337.588 67.7029 339.369 66.4141 340.72 64.6957C339.922 61.3816 339.553 57.7607 339.492 54.4467C339.431 52.1145 339.553 49.9665 339.737 48.1868C339.922 46.3456 340.29 44.8727 340.659 44.0135C341.027 43.1543 341.58 42.7247 342.255 42.9088C343.176 43.0929 344.036 44.3817 344.588 46.2843C345.018 47.7572 345.386 49.5983 345.448 51.6236C345.571 53.6488 345.448 55.8582 345.079 58.0676C344.588 60.5838 343.729 63.0387 342.255 65.0639C343.299 69.2372 345.079 72.6126 347.843 73.4718C352.509 74.8833 354.904 81.7569 356.684 86.9121C357.667 89.6739 358.404 91.8832 358.956 92.0673C359.325 92.1901 359.877 90.8399 360.86 87.1576C361.044 86.4212 361.228 85.6847 361.412 84.9483C364.912 70.526 363.377 58.6813 358.527 49.8438C353.676 41.0063 345.571 35.1147 335.869 32.4757C335.501 32.3529 335.071 32.2916 334.641 32.1688C326.045 30.0822 319.843 30.2049 310.694 30.3277C309.957 30.3277 309.159 30.3277 308.422 30.3891C299.826 30.5118 293.563 34.2555 289.142 39.1652C281.774 47.4503 279.379 59.0495 279.379 62.9159C279.379 65.9845 280.976 67.396 283.063 69.1758C285.028 70.8942 287.362 72.8581 289.142 76.7859C289.879 78.4429 290.432 79.9158 290.861 81.2046ZM340.966 54.3853C341.027 57.2084 341.273 60.2156 341.825 63.0387C342.746 61.443 343.299 59.6632 343.667 57.8221C344.036 55.7355 344.158 53.6488 344.036 51.7463C343.913 49.8438 343.606 48.064 343.176 46.7139C342.746 45.3023 342.316 44.3817 341.948 44.3204C341.887 44.3204 342.009 44.4431 341.948 44.6272C341.58 45.3637 341.334 46.6525 341.15 48.3095C340.966 50.0893 340.904 52.1759 340.966 54.3853ZM279.256 94.8291C279.256 94.8291 279.318 94.8291 279.318 94.8904C280.853 90.7785 282.02 86.6053 282.572 82.9844C283.248 78.8111 282.572 75.6812 281.283 74.0855C280.853 73.5945 280.423 73.2263 279.932 73.1036C279.502 72.9808 279.011 73.0422 278.52 73.2877C277.23 73.9628 275.941 75.988 275.143 79.6089C274.099 84.3345 275.45 89.9807 277.476 93.0493C278.09 93.8471 278.704 94.5222 279.256 94.8291ZM376.517 308.77C377.193 309.322 378.114 309.568 379.158 309.322C378.851 308.524 378.544 307.849 378.237 307.174C377.377 305.456 376.579 304.351 375.965 304.29C375.903 304.29 375.903 304.29 375.842 304.29C375.228 304.474 374.921 304.965 374.921 305.579C374.921 306.07 375.044 306.683 375.289 307.236C375.596 307.849 376.026 308.34 376.517 308.77ZM521.794 370.019C522.224 360.69 520.566 344.488 518.54 327.856C517.742 331.968 516.76 334.669 515.47 335.16C512.4 336.264 505.523 333.441 498.523 330.557C491.708 327.734 484.83 324.972 482.313 325.892C482.497 326.568 482.62 327.243 482.62 327.918C482.62 329.391 482.252 330.925 481.453 332.214C480.839 333.196 480.225 333.625 479.611 333.625C478.997 333.687 478.506 333.38 478.199 332.827C477.953 332.398 477.831 331.846 477.769 331.17C477.708 329.513 478.445 327.12 480.471 325.34C480.103 324.604 479.611 324.051 478.936 323.622C478.26 323.192 477.339 322.947 476.296 322.947C472.611 323.008 470.892 321.228 469.05 319.264C468.068 318.282 467.085 317.239 465.734 316.503C464.199 315.643 461.559 315.766 459.226 316.503C458.243 316.81 457.322 317.3 456.586 317.853C456.094 318.282 455.664 318.712 455.48 319.203C456.217 319.755 456.893 320.43 457.568 321.167C459.287 323.069 460.147 324.358 460.392 325.095C460.638 325.831 460.454 326.261 459.901 326.506C459.533 326.629 459.103 326.568 458.612 326.322C457.691 325.831 456.217 324.42 454.682 322.333C454.068 321.474 453.822 320.615 453.822 319.878C452.349 318.835 450.875 318.16 449.524 317.853C448.603 317.669 447.805 317.607 447.191 317.791C446.638 317.914 446.209 318.221 446.024 318.589C445.84 318.896 445.779 319.264 445.779 319.755C446.393 320.062 447.007 320.43 447.559 320.737C450.077 322.272 451.98 324.113 451.98 325.156C451.98 325.77 451.673 326.199 451.244 326.445C450.875 326.629 450.384 326.69 449.831 326.629C449.401 326.568 448.849 326.383 448.358 326.077C446.761 325.217 445.042 323.315 444.489 320.737C443.2 320.124 441.849 319.633 440.682 319.449C439.761 319.264 438.902 319.448 438.226 319.817C437.49 320.246 436.998 320.799 436.937 321.412C436.875 321.658 436.875 321.903 436.875 322.149C438.411 323.254 439.516 324.481 439.7 325.647C439.884 326.629 439.761 327.304 439.516 327.672C439.147 328.225 438.656 328.286 438.042 327.979C437.735 327.795 437.367 327.488 436.998 327.059C436.261 326.138 435.525 324.542 435.402 322.824C433.867 321.842 431.841 320.983 429.998 320.369C428.955 320.062 427.911 319.817 427.051 319.755C426.253 319.694 425.578 319.694 425.148 319.939C424.902 320.062 424.779 320.246 424.779 320.492C424.779 320.799 424.841 321.106 424.963 321.351C428.648 322.333 431.227 323.622 431.472 325.524C431.534 326.138 431.288 326.506 430.797 326.752C430.428 326.936 429.998 326.936 429.446 326.813C429.016 326.752 428.525 326.568 427.972 326.322C426.499 325.586 424.718 324.235 423.92 322.517C422.814 322.272 421.525 322.026 420.236 321.781C420.297 321.903 420.358 322.026 420.481 322.21C423.49 325.463 427.42 327.181 431.841 328.04C436.261 328.9 441.174 328.838 446.024 328.47C451.735 328.04 458.55 334.055 464.261 339.149C466.655 341.297 468.866 343.261 470.585 344.427C471.813 343.567 472.918 343.138 473.778 343.015C474.515 342.892 475.068 343.015 475.497 343.261C476.05 343.567 476.357 344.12 476.173 344.795C476.05 345.409 475.436 346.145 474.269 346.759C473.348 347.25 472.12 347.004 470.708 346.206C469.91 346.881 469.05 347.863 468.191 349.091C466.533 351.484 467.024 353.141 468.866 354.369C471.936 356.517 478.383 357.621 484.892 358.788C485.444 358.91 485.997 358.972 487.409 359.217C490.602 359.831 494.9 361.427 499.751 363.268C506.444 365.845 514.303 368.852 521.794 370.019ZM518.417 314.723L518.54 315.705C518.724 312.636 518.847 309.384 518.909 306.07C519.093 298.705 518.909 291.034 518.356 284.651C517.865 278.391 517.005 273.359 515.9 271.272C515.593 270.72 515.347 270.413 515.102 270.474C514.426 270.535 514.303 273.788 514.549 279.066C515.04 287.474 516.698 300.669 518.417 314.723ZM481.085 326.874C479.734 328.286 479.243 329.943 479.304 331.17C479.304 331.6 479.427 331.907 479.55 332.091C479.611 332.152 479.55 332.214 479.611 332.214C479.734 332.214 479.98 331.968 480.287 331.477C480.901 330.434 481.269 329.207 481.208 327.979C481.146 327.611 481.146 327.243 481.085 326.874ZM456.401 321.965C457.015 322.763 457.568 323.438 458.121 323.929C457.752 323.438 457.261 322.885 456.647 322.21C456.524 322.087 456.463 322.026 456.401 321.965ZM446.516 321.658C447.13 323.131 448.296 324.174 449.279 324.788C449.647 324.972 450.016 325.156 450.261 325.156C450.445 325.217 450.63 325.217 450.691 325.156C450.691 325.156 450.691 325.156 450.691 325.095C450.691 324.604 449.094 323.254 447.007 321.965C446.823 321.903 446.7 321.781 446.516 321.658ZM437.305 324.113C437.551 324.972 437.919 325.647 438.349 326.138C438.411 326.199 438.472 326.261 438.533 326.322C438.533 326.199 438.472 326.015 438.472 325.831C438.288 325.279 437.919 324.726 437.305 324.113ZM423.49 320.492C423.49 320.124 423.551 319.817 423.674 319.571C422.753 319.878 421.955 320.185 421.402 320.492C422.139 320.615 422.876 320.799 423.551 320.921C423.49 320.799 423.49 320.676 423.49 320.492ZM426.13 323.069C426.867 323.867 427.849 324.542 428.709 324.972C429.139 325.156 429.507 325.279 429.876 325.34C429.937 325.34 429.998 325.34 430.06 325.402C429.753 324.481 428.279 323.744 426.13 323.069ZM414.218 319.264C415.999 319.571 417.718 319.817 419.437 320.124C419.499 320.062 419.56 320.001 419.622 319.939C422.692 317.116 436.323 315.643 448.235 314.355C457.2 313.373 465.182 312.514 466.348 311.47C467.147 310.734 467.331 310.243 467.085 309.997C466.226 309.077 462.787 308.647 459.103 308.218H458.919C453.024 307.542 448.051 305.947 443.446 304.413C438.288 302.755 433.437 301.16 428.034 301.16C426.13 301.16 423.49 303.001 421.218 305.272C420.788 305.701 420.42 306.131 420.051 306.561C420.727 306.499 421.341 306.438 422.016 306.376C426.192 305.947 430.428 305.885 434.235 305.885C440.498 305.947 445.472 306.376 446.638 306.561C447.928 306.745 448.849 307.481 449.34 308.34C449.524 308.647 449.647 309.015 449.709 309.322C449.77 309.69 449.77 309.997 449.709 310.366C449.586 311.041 449.217 311.593 448.665 311.961C446.577 313.189 437.981 314.784 430.183 315.582C423.92 316.196 418.086 316.257 416.367 315.03C415.815 314.662 415.508 314.109 415.385 313.495C415.139 312.268 415.569 310.672 416.551 309.015C416.674 308.831 416.736 308.647 416.858 308.463C413.727 308.954 410.78 309.568 408.201 310.243C403.841 311.409 400.648 312.636 399.85 313.495C399.052 314.293 399.052 314.968 399.604 315.459C401.447 317.239 407.771 318.221 414.218 319.264ZM422.139 307.849C421.034 307.972 419.867 308.095 418.762 308.218C418.393 308.708 418.086 309.261 417.779 309.752C417.043 311.163 416.613 312.391 416.797 313.25C416.858 313.495 416.981 313.741 417.227 313.864C418.639 314.846 424.042 314.723 430.06 314.109C437.674 313.373 446.024 311.777 447.928 310.672C448.112 310.55 448.235 310.366 448.296 310.12C448.296 309.936 448.296 309.813 448.296 309.629C448.235 309.445 448.173 309.261 448.051 309.077C447.744 308.586 447.191 308.156 446.393 307.972C445.288 307.788 440.437 307.358 434.235 307.297C430.49 307.358 426.253 307.481 422.139 307.849ZM472.12 345.224C472.796 345.531 473.348 345.593 473.717 345.409C474.392 345.04 474.761 344.734 474.883 344.488C474.761 344.427 474.454 344.427 474.147 344.427C473.532 344.549 472.857 344.795 472.12 345.224ZM520.996 219.229C517.988 217.081 514.917 215.301 511.909 213.951C507.549 211.987 503.312 210.944 499.874 210.944C503.926 227.391 510.496 242.55 520.137 245.435C526.215 247.214 528.917 246.601 529.593 244.391C530.636 240.954 527.443 233.713 523.759 225.427C522.838 223.402 521.917 221.316 520.996 219.229ZM496.865 211.312C496.435 211.435 496.006 211.558 495.637 211.68C494.839 211.987 494.102 212.417 493.488 212.969C490.541 215.485 490.234 220.088 489.865 225.121C489.313 232.915 488.699 241.814 478.874 247.276C479.304 254.64 485.69 260.471 491.83 263.478C494.225 264.644 496.558 265.38 498.462 265.626C500.181 265.81 501.532 265.626 502.084 264.951C502.514 264.46 502.514 263.6 501.962 262.312C499.628 256.911 497.602 251.326 496.313 245.435C495.085 239.543 494.655 233.344 495.637 226.778C496.067 224.139 496.435 219.904 496.681 214.872C496.804 213.706 496.865 212.539 496.865 211.312ZM470.094 249.055C472.98 248.319 475.375 247.46 477.401 246.355C477.401 245.987 477.401 245.619 477.462 245.312C477.831 240.648 477.462 232.424 476.971 222.911C476.787 218.554 476.541 213.89 476.357 209.164C475.927 196.583 475.866 183.572 477.524 174.06C475.497 171.912 472.918 168.72 469.848 164.977C458.98 151.598 442.647 131.468 430.981 132.45C426.192 132.818 425.209 142.085 424.104 152.089C423.674 155.894 423.244 159.821 422.569 163.504C421.648 168.72 422.446 174.305 423.981 179.522C426.314 187.377 430.428 194.189 432.7 197.074C433.13 197.626 433.56 198.179 433.928 198.731C437.06 202.966 440.13 207.077 449.586 205.85C457.077 204.868 465.305 196.767 469.787 192.348C471.015 191.121 471.997 190.139 472.611 189.709C473.348 189.157 473.901 189.034 474.331 189.587C474.515 189.832 474.515 190.139 474.331 190.569C474.024 191.182 472.857 193.269 470.892 195.846C468.927 198.424 466.226 201.493 462.787 204.132C455.665 209.655 445.41 213.276 432.7 206.955C432.455 206.832 432.086 206.771 431.595 206.832C430.735 206.893 429.691 207.2 428.586 207.937C427.481 208.673 426.437 209.778 425.578 211.435C424.472 213.706 423.797 216.897 424.104 221.438C424.165 222.482 424.349 223.648 424.656 224.752C426.192 230.828 430.49 237.64 437.06 242.673C443.63 247.767 452.41 251.081 462.787 250.344C465.182 250.037 467.576 249.669 470.094 249.055ZM478.997 173.507C479.98 174.489 480.717 175.103 481.208 175.348C484.032 176.453 486.366 175.287 488.023 173.262C489.129 171.912 489.865 170.193 490.234 168.413C490.602 166.695 490.602 164.977 490.172 163.626C489.681 162.154 488.576 161.233 486.795 161.294C482.681 161.478 480.287 166.265 478.997 173.507ZM497.295 198.608C497.356 193.146 497.356 187.561 497.234 182.59C496.988 173.262 496.374 165.959 495.269 165.038C494.778 166.081 494.532 169.088 494.655 173.323C494.716 177.619 495.146 183.204 495.944 189.402C496.251 192.41 496.742 195.478 497.295 198.608ZM495.146 164.977C495.146 164.977 495.085 164.977 495.146 164.977C495.023 164.977 495.085 164.977 495.146 164.977ZM460.699 112.197C459.717 112.627 458.857 113.056 458.121 113.486C457.2 114.038 456.463 114.529 456.033 115.02C455.849 115.143 455.726 115.327 455.664 115.388C456.647 115.388 458.366 114.529 459.656 113.425C460.024 113.118 460.454 112.627 460.699 112.197ZM446.577 112.75C443.937 115.02 441.788 117.905 440.253 120.482C439.516 121.71 438.963 122.814 438.595 123.674C438.411 124.042 438.288 124.41 438.226 124.717C439.393 123.858 441.174 121.832 442.831 119.623C444.674 117.168 446.27 114.468 446.577 112.75ZM406.297 205.482C405.253 207.262 404.148 208.98 403.166 210.576C402.429 211.742 401.692 212.908 401.078 213.89C396.289 221.745 395.552 225.182 396.841 225.918C398.131 226.716 401.385 225.121 404.701 222.604C405.806 221.807 406.85 220.825 407.894 219.904C407.28 218.124 407.034 216.222 407.157 214.381C407.218 213.153 407.403 212.048 407.71 211.067C408.017 210.023 408.446 209.164 408.999 208.612C409.797 207.752 410.718 207.384 411.762 207.814C414.709 208.98 415.139 211.373 414.034 214.074C413.236 216.038 411.578 218.247 409.613 220.272C410.288 221.745 411.271 222.973 412.745 223.709C413.543 224.139 414.28 224.323 414.894 224.384C415.876 224.446 416.613 224.077 417.165 223.341C417.779 222.543 418.209 221.377 418.455 220.088C418.946 217.633 418.885 214.749 418.578 212.662C417.964 208.612 415.815 206.402 412.806 205.605C410.902 205.114 408.692 205.114 406.297 205.482ZM409.06 218.738C410.718 217.02 412.008 215.178 412.683 213.521C413.481 211.619 413.236 209.962 411.209 209.164C410.841 208.98 410.411 209.164 410.104 209.594C409.736 210.023 409.367 210.698 409.122 211.558C408.876 212.417 408.692 213.46 408.631 214.565C408.569 215.854 408.692 217.326 409.06 218.738ZM376.702 346.82C377.254 347.434 377.991 348.048 378.912 348.661C378.851 348.477 378.728 348.293 378.666 348.17C377.438 345.961 375.842 343.813 375.289 343.997C375.228 344.181 375.289 344.488 375.412 344.918C375.596 345.47 376.026 346.084 376.702 346.82ZM346.615 317.055C345.509 317.976 344.158 320.185 343.483 324.235C344.281 323.254 345.079 321.842 345.878 320.308C346.185 319.755 346.492 319.203 346.737 318.712C347.29 317.73 347.474 317.055 347.351 316.687C347.167 316.687 346.922 316.81 346.615 317.055ZM330.159 277.961C329.054 281.337 329.054 284.099 329.545 286.369C331.08 284.958 332.431 282.994 332.86 279.618C333.413 275.507 333.474 272.745 333.167 271.456C333.106 271.211 333.106 271.088 333.106 271.088C333.045 271.088 333.167 271.211 333.045 271.333C332.308 272.192 331.325 274.34 330.159 277.961Z" fill="white"/>
<path d="M549.875 191.696C561.689 268.445 649.077 255.445 649.077 307.97C648.838 355.877 653.486 377.958 698.903 380.249" stroke="#A05EB5" stroke-width="2"/>
<path d="M-9.87549 363.189C107.482 363.989 129.207 311.562 99.6507 231.202C70.0944 150.843 155.312 74.9723 215.91 65.0957" stroke="#FF6A39" stroke-width="2"/>
<path d="M242.843 36.364C320.499 -54.7704 355.96 57.0147 407.132 41.751C458.304 26.4872 536.409 115.825 524.738 163.413" stroke="#009F4D" stroke-width="2"/>
</g>
<defs>
<clipPath id="clip0_388_5198">
<rect width="720" height="422" fill="white"/>
</clipPath>
</defs>
</svg>
