<svg width="318" height="238" viewBox="0 0 318 238" fill="none" xmlns="http://www.w3.org/2000/svg">
<path d="M178.817 239C170.989 238.901 169.865 216.504 166.316 209.893C165.606 208.551 164.975 208.176 163.555 209.202C160.401 211.471 151.863 215.083 146.381 216.898C140.88 218.733 133.881 218.674 128.162 218.378C122.76 218.102 104.147 211.925 102.076 206.459C100.578 202.493 96.7329 196.553 101.781 195.507C106.611 194.52 119.388 191.777 125.047 190.751C133.131 189.271 147.86 187.929 155.313 187.929C157.009 187.929 162.944 188.284 163.102 186.094C163.24 184.259 163.023 180.608 162.905 179.049C161.682 163.992 161.662 153.217 159.198 137.845C157.719 128.61 154.466 128.037 148.649 120.696C146.165 117.559 141.846 115.013 149.595 114.283C152.139 114.046 157.975 114.026 162.471 114.48C170.062 115.23 183.963 117.48 193.664 119.197C201.985 120.677 210.029 119.137 216.97 119.315C227.44 119.571 240.039 124.288 249.721 123.972C250.746 123.933 256.76 124.465 261.255 124.169C265.731 123.873 269.339 120.538 271.686 119.907C272.396 119.71 273.815 120.025 275.333 120.381C280.381 121.565 280.302 120.42 284.739 120.42C286.987 120.42 287.046 119.019 286.296 117.519C285.882 116.671 285.33 115.644 284.975 114.914C284.443 113.829 284.62 113.257 285.626 113.059C287.539 112.704 286.296 114.243 288.012 114.559C288.406 114.638 288.879 114.658 289.313 114.638C290.575 114.579 290.91 114.303 289.57 113.691C289.155 113.513 288.662 113.336 288.268 113.217C287.105 112.901 286.434 118.151 283.418 110.987C282.668 109.211 281.604 106.626 281.13 104.455C280.756 102.758 280.007 97.1145 279.79 93.5229C279.514 88.7276 281.426 86.3399 282.708 83.9718C283.93 81.7222 281.998 77.9136 280.914 77.6768C279.514 77.3413 280.795 80.2421 278.035 75.6245C276.97 73.8484 275.531 71.4014 274.288 69.2899C271.272 64.1197 267.683 58.3969 263.582 53.6213C258.692 47.9183 252.619 43.1033 245.54 40.4787C240.729 38.7026 236.056 37.7752 231.285 36.2754C229.372 35.6637 223.595 31.6774 220.381 29.5067C213.302 24.7312 218.922 22.2842 212.139 19.7385C210.088 18.9689 207.742 18.89 206.342 20.8436C203.266 25.1653 204.272 33.4535 211.646 31.9734C215.55 31.1841 216.911 29.0331 216.95 32.3089C217.068 45.9252 218.528 193.553 218.528 208.432C218.528 210.8 216.477 211.294 216.437 207.959C216.319 192.468 215.136 48.6682 214.9 34.381C214.88 32.7825 214.643 32.7628 213.697 33.2759C207.703 36.5517 202.951 31.5196 202.458 25.5403C202.201 22.5013 202.675 20.1332 203.01 18.6926C203.739 15.3379 201.176 18.0414 200.19 19.0479C191.298 28.1846 123.332 98.0617 117.298 104.436C116.509 105.284 116.943 107.139 118.501 105.6C126.033 98.1406 195.655 25.3626 201.433 19.3833C202.655 18.1204 203.463 15.1011 205.317 15.0024C207.151 14.9235 208.314 16.7785 208.255 17.8046C208.196 18.8308 206.934 19.5215 206.5 19.7977C206.244 19.9753 205.672 20.5674 205.179 21.3567C203.818 23.5274 203.68 28.4806 205.238 30.3947C206.559 32.0129 206.993 32.4471 209.142 32.7628C210.877 33.0193 212.79 32.5655 214.052 32.1708C216.378 31.4209 216.201 28.8161 218.587 31.1249C219.789 32.2892 221.643 34.3218 223.91 35.8807C226.316 37.5186 230.161 38.6632 233.513 39.5512C238.166 40.7747 242.188 42.8467 246.566 44.682C253.763 47.721 261.137 54.687 265.08 61.3175C274.229 76.7295 260.624 67.2771 265.258 79.9067C268.669 89.221 272.948 101.476 271.567 111.579C271.232 113.987 272.356 114.658 269.911 114.658C259.619 114.737 162.747 113.651 146.914 113.434C140.249 113.355 126.743 113.592 120.256 112.704C118.107 112.408 116.667 111.145 119.566 111.066C126.546 110.849 166.217 110.829 166.217 110.829L212.948 111.974C212.948 111.974 267.861 112.29 269.339 112.507C270.818 112.724 271.489 113.513 271.607 115.23C271.745 116.947 272.829 119.295 274.545 119.69C276.102 120.045 278.173 120.242 280.007 120.242C281.328 120.242 284.187 120.065 285.311 121.17C286.73 122.551 284.995 125.965 282.333 126.084C281.17 126.143 279.474 126.143 278.193 126.143C274.821 126.163 270.976 131.234 269.438 134.49C267.683 138.22 269.556 136.996 270.601 138.733C271.193 139.7 273.362 139.463 274.762 139.66C276.122 139.858 278.626 142.68 274.939 142.542C267.289 142.265 221.623 140.627 213.993 140.351C212.179 140.292 212.297 138.911 212.179 136.76C212.139 135.97 211.626 133.306 211.173 135.714C211.035 136.424 210.818 139.897 210.857 141.732C210.897 143.41 212.001 143.666 211.942 141.772C211.902 140.884 211.843 139.483 211.804 138.615C211.745 137.43 211.745 137.371 213.224 137.588C214.052 137.707 261.019 139.009 269.537 139.7C271.922 139.897 270.996 144.258 269.773 147.672C268.846 150.297 266.894 153.928 265.475 157.144C263.897 160.736 262.774 163.696 265.711 167.031C268.689 170.425 269.911 170.327 267.703 173.583C265.692 176.543 261.472 182.739 258.12 186.666C256.641 188.403 253.763 191.165 250.963 193.297C245.126 197.737 236.313 198.802 229.313 202.493C226.75 203.854 222.294 208.452 219.77 210.722C216.832 213.346 217.364 211.314 214.88 208.965C210.246 204.624 203.621 212.754 204.035 219.168C204.154 221.042 206.066 223.252 207.072 224.693C209.024 227.495 206.106 225.68 204.923 224.417C204.923 224.417 130.391 138.634 118.146 124.386C115.011 120.736 116.726 120.834 119.073 123.696C122.661 128.057 134.137 141.357 134.137 141.357L155.313 165.452L193.546 209.242C193.546 209.242 201.294 218.556 204.232 222.088C205.258 223.331 207.269 226.291 208.787 226.114C209.517 226.015 209.832 225.423 210.088 224.831C211.114 222.542 214.19 223.706 216.319 221.753C217.699 220.49 218.015 218.615 218.528 217.115C219.375 214.708 223.063 211.452 226.178 209.301C230.693 206.163 239.882 202.532 246.152 200.421C252.205 198.388 259.52 192.981 263.68 187.712C267.466 182.917 276.004 169.439 278.291 164.268C278.725 163.301 280.164 160.302 281.229 157.618C284.522 149.251 278.883 153.908 279.218 145.482C279.336 142.482 279.474 138.772 279.454 138.082C279.415 137.075 279.592 136.858 281.505 136.602C283.437 136.345 283.635 135.556 284.265 134.411C284.877 133.267 284.049 132.931 284.739 132.26C285.449 131.609 286.198 130.405 286.336 129.261C286.474 128.116 287.184 127.603 287.617 127.485C288.051 127.366 290.871 125.432 290.536 123.893C290.181 122.354 290.536 121.841 290.851 120.617C291.955 116.197 286.553 119.335 286.612 121.229C286.651 122.551 286.533 123.104 287.578 123.341C288.623 123.558 290.161 122.472 289.195 122.157C288.229 121.841 287.223 124.031 286.533 124.643C285.823 125.255 284.877 126.833 283.082 127.011C281.288 127.189 280.598 126.794 280.421 127.879C280.243 128.965 280.559 129.024 281.86 129.202C283.181 129.379 283.733 129.28 284.443 129.202C285.153 129.123 286.553 128.511 285.409 128.274C284.266 128.057 284.147 129.419 282.294 129.636C280.46 129.853 279.238 129.991 278.409 129.991C276.477 129.991 273.618 133.405 278.015 133.405C279.277 133.405 279.888 133.365 280.953 133.365C281.998 133.365 283.713 133.938 283.28 133.109C282.846 132.28 281.446 133.898 279.869 133.977C278.291 134.056 277.502 133.365 277.108 134.549C276.714 135.733 276.852 136.385 277.759 136.385C278.685 136.385 281.17 136.385 280.874 135.674C280.559 134.964 278.725 136.858 276.497 136.325C276.339 136.286 276.162 136.266 275.945 136.227C273.007 135.872 264.726 136.365 264.726 136.365C250.115 136.7 219.868 135.497 203.68 137.036C193.743 137.983 185.718 140.252 175.248 139.818C169.668 139.601 166.769 139.522 165.152 139.305C162.53 138.97 162.234 134.865 162.569 131.55C163.634 120.736 164.64 135.122 162.077 140.509C161.662 141.397 161.781 141.93 161.524 142.699C161.209 143.647 160.874 142.838 160.854 142.482M160.736 142.502C160.736 142.502 160.696 141.91 160.637 141.022C160.322 136.582 160.065 134.095 157.956 130.721C156.418 128.254 154.426 125.965 152.553 123.656C150.562 121.209 148.748 118.979 146.342 116.848C144.291 115.013 133.289 111.125 136.838 118.012C141.728 127.485 144.429 142.423 130.193 144.357C123.095 145.324 117.338 143.035 113.138 138.674C109.549 134.944 108.287 128.491 107.735 125.334C107.085 121.742 97.8173 121.604 97.2061 126.459C96.8512 129.202 96.2597 134.214 95.9639 137.233C95.609 140.825 94.8597 147.159 93.4992 150.928C93.2035 151.757 92.1387 153.711 91.1134 155.349C88.9051 158.861 88.767 158.703 87.6037 154.855C82.3983 137.687 58.5205 137.154 43.4564 131.293C7.49175 117.302 28.8063 101.357 48.1886 103.528C57.6529 104.594 73.3283 107.376 81.8857 106.409C83.2067 106.271 86.2826 106.231 89.0037 106.212C95.2541 106.172 102.924 103.646 107.893 104.751C113.236 105.935 113.749 102.561 117.693 103.39C121.636 104.219 123.647 104.87 125.56 106.014C127.492 107.159 135.576 108.738 138.81 108.56C143.424 108.303 143.7 107.672 142.931 103.173C142.714 101.91 143.187 101.555 143.858 100.982C144.508 100.41 144.134 98.9694 143.463 99.0089C142.99 99.0287 141.452 99.7391 140.289 99.9561C136.148 100.745 141.649 98.2985 142.596 98.0025C143.562 97.6868 143.956 98.042 144.311 96.2857C145.001 92.8125 141.077 95.4569 146.283 91.1549C147.288 90.3261 146.362 89.3591 146.204 88.925C146.105 88.7079 145.08 87.4647 144.055 86.2017C138.1 78.8016 146.697 70.5134 132.481 61.3372C128.872 59.0087 122.997 56.6603 115.524 57.2721C102.451 58.3574 95.1752 69.2702 95.2935 81.7222C95.3329 85.9452 97.2455 91.0957 100.775 93.5229C108.011 98.4761 104.778 105.245 97.4427 103.863C91.1726 102.679 88.7276 94.0755 90.443 88.4514C91.9416 83.5574 94.1499 86.6161 95.609 88.8263C96.7329 90.5431 100.992 96.1278 102.747 97.075C110.082 101.022 105.862 94.3912 105.586 93.0691C105.448 92.3981 105.349 91.5496 105.33 90.4247C105.251 85.6887 106.73 85.1756 111.363 87.8791C115.997 90.6024 117.397 91.293 117.831 89.2802C119.388 82.0971 121.399 70.5331 129.74 67.9086C134.472 66.4285 135.813 66.3101 135.083 64.5736C134.354 62.837 127.985 59.3639 126.151 59.1073C117.515 57.8641 110.259 56.4827 103.417 63.1922C102.431 64.1592 101.603 65.1656 100.933 66.0733C97.4427 70.7897 94.702 83.143 97.9159 89.1815C98.6849 90.6221 104.659 96.5225 105.547 96.9171C107.025 97.5684 108.82 98.3182 109.884 100.114C111.225 102.383 113.848 104.89 116.017 106.429C117.811 107.692 118.205 109.093 117.338 109.764C116.47 110.415 114.538 110.849 112.96 110.198C111.383 109.547 108.189 108.619 109.332 108.402C110.476 108.185 110.732 109.369 111.265 109.981C111.62 110.395 113.473 110.829 114.912 111.402C118.974 113 117.85 116.217 113.276 114.796C110.969 114.066 111.284 114.342 109.589 114.046C109.411 114.007 109.352 113.809 109.352 113.809M109.273 113.809C109.273 113.809 108.879 112.605 109.214 112.763C109.549 112.921 109.845 114.145 110.437 114.579C110.851 114.895 113.256 115.427 114.893 116.375C116.569 117.342 117.673 119.966 115.149 119.966C114.281 119.966 111.422 118.644 109.589 118.486C107.755 118.308 106.749 118.92 105.606 118.447C104.068 117.795 107.617 118.052 109.293 118.802C110.535 119.354 111.955 120.104 111.62 120.795C111.067 121.861 108.366 122.314 107.065 122.078C105.783 121.861 101.248 122.275 98.6652 121.446C86.6573 117.578 80.6237 119.986 69.1285 120.913C64.8498 121.269 61.419 121.446 59.5852 121.959C57.7515 122.492 53.4531 124.544 51.3631 124.761C49.2533 124.979 44.6591 126.695 41.5241 126.202C38.3693 125.728 35.6088 122.867 37.5411 123.321C38.9805 123.656 40.0058 125.788 41.5635 126.833C42.9831 127.761 48.9378 126.537 53.4334 125.334C58.2839 124.031 61.4781 122.946 65.9737 122.236C67.0187 122.078 68.044 121.94 69.089 121.841C69.2074 121.821 69.3257 121.821 69.444 121.801C70.4101 121.703 75.8324 120.696 79.559 120.262C80.7618 120.124 82.418 120.025 84.0546 120.065C84.8827 120.085 89.3586 120.775 92.4148 121.308C97.1667 122.117 96.8118 122.413 96.3188 126.399C96.0822 128.294 95.747 131.471 95.4513 134.313C95.0766 137.924 94.3274 144.515 93.1838 148.758C92.7303 150.435 91.7049 152.093 90.8571 153.592C88.0966 158.565 90.4825 164.308 91.7444 169.399C92.7302 173.366 93.7753 177.49 94.1893 179.227C95.0766 182.877 96.0428 195.408 100.44 194.954C101.268 194.875 114.183 192.113 114.183 192.113C114.183 192.113 130.115 189.271 130.627 189.271C131.16 189.271 149.26 186.903 150.147 186.863C150.857 186.824 157.581 186.528 160.637 186.508C164.443 186.489 164.068 190.435 164.167 193.159C164.344 197.105 164.6 204.209 164.541 205.255C164.324 208.728 158.587 211.156 153.894 212.971C146.618 215.754 133.9 218.753 124.87 216.997C120.374 216.129 113.631 212.438 108.346 209.695C102.254 206.538 102.845 207.051 101.169 212.675C98.6258 221.121 95.5893 237.658 85.6714 237.836" stroke="#4A5055" stroke-width="1.5" stroke-miterlimit="2.6131"/>
<path d="M0.5 124.5C66 144.5 101.5 182 59.5 230.5" stroke="#FF6A39" stroke-width="2"/>
<path d="M10.5 78C68.5 78 133.5 41 171 1.5" stroke="#009F4D" stroke-width="2"/>
<path d="M271.5 25C326.892 96.5813 335.892 137.447 271.5 213" stroke="#A05EB5" stroke-width="2"/>
</svg>
