<svg width="431" height="224" viewBox="0 0 431 224" fill="none" xmlns="http://www.w3.org/2000/svg">
<path d="M22 219L129.673 175.433C129.673 175.433 146.424 162.869 150.389 166.825C154.353 170.781 151.869 174.835 155.638 173.553C159.407 172.259 169.611 158.51 171.3 161.086C172.989 163.662 174.078 167.619 175.864 166.63C177.638 165.641 200.213 151.757 200.935 152.087C201.657 152.417 201.927 161.257 201.927 161.562C201.927 161.868 182.092 178.926 181.37 177.411C180.648 175.897 198.757 162.185 200.336 161.721C201.914 161.257 205.01 164.163 205.23 166.056C205.45 167.936 203.774 169.084 205.402 169.084C207.041 169.084 218.274 173.419 219.106 172.539C219.95 171.66 220.562 164.578 215.276 163.833C209.99 163.089 203.383 164.993 202.416 164.908C201.449 164.81 202.771 160.158 202.991 159.364C203.211 158.583 209.366 139.132 211.25 127.959C213.135 116.786 218.384 104.319 219.277 97.5915C220.17 90.8635 222.422 91.7427 227.353 92.1456C232.284 92.5486 251.494 92.6707 251.715 92.0602C251.935 91.4374 254.798 84.0379 253.782 83.5739C252.767 83.1099 245.964 80.2526 245.523 80.3381C244.826 80.4724 249.928 82.768 250.405 83.2076C250.883 83.6594 250.307 90.888 250.307 91.2909C250.307 91.6939 231.648 91.7915 228.209 91.1932C224.783 90.5949 221.406 91.5229 220.978 91.5351C220.55 91.5473 222.801 82.3895 223.56 81.9621C224.318 81.5347 242.587 82.5238 245.229 83.4518C245.646 83.5983 249.586 83.8059 252.804 83.8913C256.022 83.9768 257.784 82.8535 257.808 82.0842C257.833 81.3149 257.612 79.6665 254.529 77.3587C251.445 75.051 248.692 74.5015 248.386 74.8922C248.08 75.283 246.135 80.8509 242.55 81.4615C238.952 82.072 231.073 81.6812 227.94 79.4834C224.808 77.2855 224.612 75.6615 223.853 75.6615C223.095 75.6615 221.48 78.0792 221.443 78.7996C221.406 79.52 222.654 81.205 222.96 81.205C223.266 81.205 227.365 80.4114 227.304 80.0573C227.23 79.7154 223.339 76.5406 222.214 72.963C221.088 69.3731 222.74 62.0834 222.385 60.6304C222.03 59.1773 220.537 50.6056 221.859 48.2367C223.18 45.8557 222.458 42.6077 224.832 41.3744C227.218 40.1534 224.502 35.7088 226.729 33.6208C228.956 31.5328 228.381 30.7025 228.209 29.3593C228.026 28.0284 226.9 14.0229 225.848 12.6798C224.783 11.3488 221.467 13.4613 221.076 12.5088C220.684 11.5564 221.7 9.39517 221.541 7.60023C221.382 5.80529 222.997 3.90045 224.795 3.53414C226.606 3.16782 230.681 2.42298 231.073 3.79056C231.464 5.15813 228.576 7.24613 228.662 6.59897C228.748 5.95181 230.497 4.29119 230.73 4.48656C230.95 4.68192 231.244 5.95181 231.109 7.11181C230.975 8.2596 229.372 9.39517 228.466 9.81033C227.549 10.2133 227.255 13.3147 226.313 12.7408C225.371 12.167 226.582 11.6053 223.804 11.5198C221.027 11.4343 220.672 12.5333 220.586 14.0474C220.501 15.5615 218.47 20.8852 218.8 29.7256C219.13 38.5538 220.354 47.8582 220.819 47.6262C221.284 47.3942 222.691 41.3256 224.294 40.2389C225.909 39.1399 224.428 33.8406 226.411 32.4852C228.393 31.1298 231.672 31.0688 236.261 31.4962C240.849 31.9235 245.021 34.329 245.278 35.8797C245.535 37.4305 245.633 38.3218 245.805 38.4317C245.976 38.5416 246.294 34.8785 246.967 34.4145C247.64 33.9505 247.407 28.2848 243.614 26.5875C239.821 24.8903 236.566 25.2444 234.45 27.0882C232.333 28.9319 232.272 30.4949 232.639 30.6292C233.006 30.7635 241.387 30.849 243.492 32.5585C245.597 34.2679 246.27 37.1618 246.221 39.6039C246.172 42.046 245.633 43.2793 246.465 43.7799C247.297 44.2805 249.047 44.0974 249.047 43.6822C249.047 43.2671 248.888 41.4355 248.705 41.057C248.521 40.6784 246.918 39.6894 246.918 39.8359C246.918 39.9824 246.514 42.1681 246.6 43.0961C246.686 44.0241 246.465 44.7079 247.126 44.6468C247.787 44.5858 248.154 44.9155 248.056 48.2123C247.958 51.5091 246.037 57.6144 246.832 61.1066C247.616 64.611 248.154 62.6939 248.545 65.8931C248.949 69.0922 247.689 73.3171 246.367 76.2842C245.046 79.2514 240.555 81.2295 235.233 80.1794C229.91 79.117 223.254 73.5735 222.581 70.5819C221.896 67.5781 223.902 68.3718 223.963 64.379C224.025 60.3862 222.079 49.0182 224.685 45.9167C227.304 42.8153 229.776 40.3732 233.972 41.6309C238.157 42.8763 244.936 47.4919 244.936 46.4418C244.936 45.3917 245.389 37.809 241.791 35.6599C238.182 33.5109 227.414 34.4022 227.218 35.489C227.01 36.5757 225.86 41.8262 227.047 41.6553C228.234 41.4843 230.583 39.2132 236.358 41.753C242.134 44.2927 246.991 47.7117 247.212 48.5298C247.432 49.3357 240.91 48.3466 241.95 49.0548C242.99 49.763 245.389 49.3601 245.254 50.0683C245.132 50.7643 240.874 53.8902 241.669 54.2199C242.464 54.5496 245.915 50.3491 245.964 52.5715C246 54.7816 240.592 56.7108 241.975 58.7866C243.357 60.8624 245.535 60.7036 245.707 62.4131C245.878 64.1226 244.385 74.5137 245.315 74.1474C246.233 73.7933 246.894 70.1912 247.359 71.5465C247.824 72.9019 251.225 74.1596 252.963 75.2097C254.7 76.272 254.749 76.0644 254.945 74.4649C255.141 72.8531 257.172 66.1251 256.792 63.4266C256.413 60.7159 256.952 56.4544 257.784 55.1357C258.616 53.8169 271.525 39.665 274.388 26.2579C277.251 12.8507 277.092 13.8398 275.868 12.692C274.645 11.5442 272.491 12.6676 271.402 11.9227C270.313 11.1779 269.665 10.5185 269.322 9.24865C268.979 7.97875 270.215 4.59645 270.827 4.25456C271.439 3.91266 277.337 4.93834 277.679 5.74424C278.022 6.55013 277.496 8.87012 277.092 8.19854C276.688 7.52697 276.835 6.29371 277.141 6.69665C277.447 7.11181 277.41 10.4575 276.492 11.471C275.575 12.4844 271.867 10.5185 271.476 11.1046C271.084 11.6907 269.971 16.1354 269.86 17.2343C269.75 18.3332 260.512 32.9126 259.68 34.1825C258.848 35.4523 255.275 38.4928 255.055 40.7761C254.835 43.0717 250.43 44.0363 249.549 45.4405C248.668 46.8447 246.906 58.6279 247.836 57.9685C248.766 57.3091 249.818 45.3551 252.02 46.3685C254.223 47.3698 252.804 54.1222 255.055 53.1331C257.306 52.1441 258.212 49.6287 258.297 52.0098C258.383 54.3908 256.107 53.7925 256.046 60.1908C255.985 66.5891 250.895 73.256 253.207 77.6029C255.52 81.9499 256.438 81.0951 255.789 82.4139C255.141 83.7326 252.877 79.7154 252.351 81.5591C251.825 83.4029 250.834 89.3983 251.225 93.8185C251.629 98.2387 248.913 125.798 248.815 131.537C248.717 137.276 248.411 160.61 247.224 164.175C246.037 167.729 245.866 166.678 243.492 166.544C241.106 166.41 238.659 163.052 237.411 166.349C236.163 169.646 235.233 172.283 235.893 173.993C236.554 175.714 253.073 181.71 254.663 181.71C256.254 181.71 265.774 178.022 266.826 180.391C267.89 182.772 274.229 190.684 275.55 190.416C276.872 190.147 285.461 184.555 287.052 186.325C288.643 188.096 299.337 202.419 298.945 202.553C298.554 202.687 261.21 201.564 260.096 199.586C258.983 197.608 183.976 197.4 185.298 195.691C186.619 193.981 199.663 166.349 202.44 169.511C205.218 172.674 230.632 175.25 233.14 177.619C235.649 179.988 249.928 182.1 250.099 181.136C250.271 180.171 249.916 169.621 246.527 168.437C243.137 167.252 239.332 167.472 238.818 166.288C238.316 165.091 233.569 146.47 234.658 136.97C235.747 127.471 235.245 104.124 233.067 106.005C230.889 107.885 230.094 121.036 225.138 125.883C220.183 130.731 215.802 158.925 214.322 160.109C212.841 161.294 205.769 161.66 206.038 161.391C206.295 161.135 215.68 156.214 221.32 160.781C226.961 165.348 218.714 169.707 224.269 174.054C229.824 178.413 235.502 184.933 244.361 184.078C253.22 183.224 252.889 179.854 255.728 183.614C258.579 187.375 263.596 187.046 265.248 185.531C266.899 184.017 285.694 173.272 293.525 181.38C301.356 189.488 319 171.88 319 171.88L430.5 224" stroke="#4A5055" stroke-width="1.5" stroke-miterlimit="10"/>
<path d="M186.5 110.5C200.915 69.1867 218.816 47.2105 195 0.5" stroke="#009F4D" stroke-width="2"/>
<path d="M316 7.5C267.072 73.2921 279 138.5 363 166.5" stroke="#A05EB5" stroke-width="2"/>
<path d="M0.5 193.5C75.2572 170.695 135.76 161.397 182.5 118.5" stroke="#FF6A39" stroke-width="2"/>
</svg>
