<svg width="405" height="219" viewBox="0 0 405 219" fill="none" xmlns="http://www.w3.org/2000/svg">
<mask id="path-1-outside-1_38_1343" maskUnits="userSpaceOnUse" x="113.889" y="9" width="291" height="209" fill="black">
<rect fill="white" x="113.889" y="9" width="291" height="209"/>
<path d="M187.438 24.5994C187.869 25.6602 188.001 26.8205 188.332 28.1133C187.935 29.2735 187.703 30.5664 187.173 31.6603C186.312 33.2515 185.253 34.2791 183.001 33.9476C175.849 32.9531 168.697 33.8813 161.577 34.8758C158.266 35.3399 154.955 35.6714 151.61 35.8703C149.524 36.0029 148.663 35.141 148.597 33.0857C148.498 29.9697 148.796 26.8536 150.154 23.9696C151.081 21.9475 152.505 20.29 154.491 19.3286C162.703 15.3838 171.213 14.3562 179.955 17.3065C183.498 18.4999 186.014 21.0856 187.438 24.5994Z"/>
<path d="M140.054 198.735C138.101 194.16 137.803 189.32 137.405 184.447C138.597 183.95 139.558 183.519 140.518 183.121C142.074 182.491 142.703 182.723 142.968 184.348C143.399 187 143.697 189.651 143.995 192.303L143.995 192.304C144.392 196.016 145.816 199.298 147.703 202.447C148.465 203.674 149.293 204.867 149.789 206.193C150.154 207.088 149.988 208.182 150.054 209.177C149.127 208.878 148.001 208.779 147.273 208.215C144.061 205.696 141.677 202.48 140.054 198.735Z"/>
<path d="M203.763 32.6879C203.862 32.5553 203.961 32.3896 204.061 32.257C204.988 32.6216 206.047 32.8205 206.842 33.3509C208.034 34.1465 209.127 35.141 210.12 36.1355C211.279 37.2957 210.948 38.9201 209.061 40.9422C207.273 38.1576 205.518 35.4062 203.763 32.6879Z"/>
<path d="M191.445 34.6438C194.69 33.5498 197.637 32.5222 200.683 31.4946C198.101 29.4724 192.637 31.1631 191.445 34.6438Z"/>
</mask>
<path d="M192.107 46.7102H191.357V47.3495L191.988 47.4508L192.107 46.7102ZM203.034 31.0636L202.986 30.3151L202.976 30.3158L202.966 30.3167L203.034 31.0636ZM209.458 33.7156L209.989 33.1855L209.984 33.1805L209.979 33.1756L209.458 33.7156ZM210.12 34.246L209.652 34.8314L211.005 35.9154L210.868 34.1867L210.12 34.246ZM209.723 28.7763L210.471 28.7265L210.447 28.3658L210.15 28.1599L209.723 28.7763ZM207.703 27.2845L208.282 26.8081L208.259 26.7801L208.234 26.7545L207.703 27.2845ZM208.597 25.9254L208.391 25.2043L208.384 25.2064L208.376 25.2086L208.597 25.9254ZM210.849 26.0249L211.545 25.7466L211.374 25.3177L210.914 25.2777L210.849 26.0249ZM211.047 26.5221L210.351 26.8004L210.971 28.3531L211.718 26.8572L211.047 26.5221ZM211.644 25.1298L212.383 25.0067L212.381 24.9947L212.379 24.9829L211.644 25.1298ZM210.385 24.4337L210.543 23.7004L210.532 23.698L210.521 23.696L210.385 24.4337ZM207.339 26.2901L208.057 26.5053L208.058 26.5039L207.339 26.2901ZM206.71 29.373L207.431 29.5788L207.435 29.566L206.71 29.373ZM205.849 30.5001L205.902 31.2482L205.913 31.2474L205.924 31.2463L205.849 30.5001ZM204.491 29.8039L203.799 30.0937L203.804 30.1039L203.808 30.114L204.491 29.8039ZM203.63 26.5221L202.884 26.5915L202.884 26.6006L202.885 26.6096L203.63 26.5221ZM203.597 22.1132H204.347V21.4231L203.659 21.3658L203.597 22.1132ZM203.597 22.1132L203.514 22.8586L203.524 22.8597L203.535 22.8606L203.597 22.1132ZM199.193 21.5497L199.314 20.8094L199.313 20.8094L199.193 21.5497ZM196.511 19.5938L195.768 19.6951L195.768 19.6974L196.511 19.5938ZM198.498 16.6104L198.757 17.314L198.764 17.3117L198.498 16.6104ZM202.372 15.7816V15.0316H202.362L202.353 15.0319L202.372 15.7816ZM204.127 17.0745L204.806 16.7564L204.802 16.7478L204.798 16.7393L204.127 17.0745ZM209.293 19.4944L209.202 20.239L209.215 20.2403L209.293 19.4944ZM206.114 17.9695L206.588 17.3883L206.583 17.3841L206.114 17.9695ZM206.312 12.3672L205.896 11.7434L205.89 11.7476L206.312 12.3672ZM210.319 10.5771L210.46 11.3138V11.3138L210.319 10.5771ZM216.677 10.0467L216.738 9.29928L216.736 9.29908L216.677 10.0467ZM223.233 17.406L222.483 17.4245L222.483 17.4337L223.233 17.406ZM223.895 20.0579L223.195 20.3269L223.197 20.3319L223.895 20.0579ZM223.398 25.3619L222.795 24.9161L222.793 24.9187L223.398 25.3619ZM222.107 26.721L222.603 27.2835L222.611 27.277L222.618 27.2703L222.107 26.721ZM220.816 31.1962L221.53 30.9684L221.528 30.96L221.525 30.9516L220.816 31.1962ZM219.392 33.0526L219.32 33.7992L219.33 33.8L219.392 33.0526ZM217.67 34.246L216.944 34.0579L216.942 34.0643L217.67 34.246ZM217.372 35.0416L218.066 35.3269L218.07 35.3158L218.074 35.3047L217.372 35.0416ZM212.504 37.7267L212.682 36.9981L212.082 36.8515L211.823 37.4127L212.504 37.7267ZM210.716 41.7046L210.033 41.3958L209.814 41.8805L210.199 42.2475L210.716 41.7046ZM213.365 41.9035L213.044 41.2259L213.037 41.2293L213.03 41.2329L213.365 41.9035ZM221.478 46.3124L220.737 46.4308L220.738 46.4334L221.478 46.3124ZM219.955 56.6883L219.251 56.4283L219.251 56.4293L219.955 56.6883ZM217.471 62.158L216.8 61.8229L216.8 61.8229L217.471 62.158ZM215.783 64.2464L215.328 63.6501L215.327 63.6509L215.783 64.2464ZM213.862 60.9646L214.54 61.2854L214.544 61.2764L214.548 61.2673L213.862 60.9646ZM217.273 53.3733L217.967 53.6577L217.967 53.656L217.273 53.3733ZM217.703 47.771L216.989 47.9994L216.99 48.0043L217.703 47.771ZM212.736 44.1909L212.645 43.4464L212.643 43.4467L212.736 44.1909ZM211.346 45.4506L210.658 45.1502L210.657 45.1541L211.346 45.4506ZM208.862 51.981L209.592 52.154L209.592 52.1526L208.862 51.981ZM206.677 63.8155L205.938 63.6853L205.937 63.6923L206.677 63.8155ZM206.577 65.1083L205.829 65.0549L205.755 66.0964L206.766 65.8343L206.577 65.1083ZM219.889 69.5504L220.471 69.0777L219.889 69.5504ZM221.743 73.3626L222.462 73.148L222.461 73.1473L221.743 73.3626ZM218.2 77.8378L218.181 78.5875L218.184 78.5876L218.2 77.8378ZM214.326 77.4731L214.44 76.7317L214.426 76.7299L214.326 77.4731ZM207.405 80.9538L206.752 80.5849L206.749 80.5914L207.405 80.9538ZM205.087 84.5671L205.665 85.0453L205.668 85.0418L205.087 84.5671ZM198.266 85.3296L198.767 84.7711L198.764 84.7686L198.266 85.3296ZM194.822 80.5229L194.107 80.7471L194.107 80.7479L194.822 80.5229ZM192.107 68.5559L191.368 68.6803L191.368 68.684L192.107 68.5559ZM191.147 58.9756L191.895 58.9294L191.895 58.9217L191.147 58.9756ZM190.75 49.3622H190V49.3777L190 49.3931L190.75 49.3622ZM190.683 48.434L191.428 48.3411L191.356 47.7716L190.788 47.6914L190.683 48.434ZM168.299 45.2517L168.405 44.5092L168.39 44.507L168.374 44.5054L168.299 45.2517ZM167.306 45.1854L167.251 45.9334L167.278 45.9354H167.306V45.1854ZM162.107 50.2904L162.855 50.2316L162.855 50.2297L162.107 50.2904ZM163.498 62.8541L162.753 62.9427L162.754 62.9465L163.498 62.8541ZM164.193 79.7273L163.452 79.614L163.451 79.6192L164.193 79.7273ZM162.836 84.3682L163.519 84.6783L162.836 84.3682ZM159.193 84.7992L158.621 85.2841L158.627 85.291L159.193 84.7992ZM156.511 81.4511L157.067 80.9477L157.065 80.9452L156.511 81.4511ZM146.114 81.882L145.529 81.4121L145.522 81.4219L146.114 81.882ZM146.312 83.2743L145.936 83.9232L145.94 83.9253L146.312 83.2743ZM147.703 84.0368L147.972 83.3364L147.956 83.3305L147.941 83.3253L147.703 84.0368ZM163.928 93.0203L163.458 93.6042L163.974 94.0202L164.45 93.5592L163.928 93.0203ZM171.114 90.4678L171.15 91.2169L171.864 91.1825V90.4678H171.114ZM171.114 83.0091L170.364 82.9827L170.364 82.9891L171.114 83.0091ZM173.101 69.1194L172.392 68.8737L172.392 68.8747L173.101 69.1194ZM181.312 61.3624L181.431 62.1029L181.433 62.1027L181.312 61.3624ZM189.889 65.937L189.186 66.1987L189.187 66.2008L189.889 65.937ZM307.239 166.414L306.71 165.882L307.239 166.414ZM288.829 185.375L289.37 185.894L289.371 185.894L288.829 185.375ZM248.895 206.027L248.768 205.288L248.767 205.288L248.895 206.027ZM237.968 207.685L237.853 206.944L237.845 206.945L237.968 207.685ZM236.875 208.315L237.546 208.65L237.56 208.622L237.572 208.593L236.875 208.315ZM233.696 210.105L233.732 209.356L233.725 209.355L233.696 210.105ZM228.398 209.773L228.298 210.517L228.3 210.517L228.398 209.773ZM212.306 212.492L212.042 211.79L212.037 211.791L212.306 212.492ZM206.114 214.116L206.019 213.372L206.015 213.373L206.114 214.116ZM202.074 210.403L201.324 210.419L201.324 210.423L202.074 210.403ZM202.008 200.922L202.758 200.93V200.922H202.008ZM202.637 198.933L203.187 199.443L203.187 199.443L202.637 198.933ZM204.359 191.309L203.629 191.481L203.629 191.483L204.359 191.309ZM144.558 212.691L144.449 211.948L144.448 211.949L144.558 212.691ZM150.021 211.53L150.21 212.256L150.213 212.255L150.021 211.53ZM152.306 207.917L151.56 207.996L151.56 207.999L152.306 207.917ZM152.074 201.353L151.334 201.233L151.333 201.238L152.074 201.353ZM154.425 193.596L153.717 193.35L153.714 193.357L154.425 193.596ZM156.18 189.055L155.473 188.804L155.47 188.813L155.467 188.823L156.18 189.055ZM155.816 184.613L156.456 184.223L156.456 184.222L155.816 184.613ZM135.65 184.215L135.283 184.869L135.299 184.878L135.315 184.886L135.65 184.215ZM134.856 180.569L134.156 180.297L134.153 180.305L134.856 180.569ZM139.558 175.961L139.299 175.257L139.297 175.257L139.558 175.961ZM148.73 173.309L148.893 174.041L148.899 174.04L148.73 173.309ZM152.505 170.657L151.818 170.355L151.816 170.36L152.505 170.657ZM153.763 168.237L153.118 167.854L153.115 167.859L153.763 168.237ZM160.154 167.375L159.634 167.916L159.64 167.921L160.154 167.375ZM164.591 175.298L163.875 175.524L164.138 176.355L164.921 175.971L164.591 175.298ZM169.789 172.745L170.115 173.421L170.117 173.42L169.789 172.745ZM182.836 165.287L183.298 165.877L183.3 165.875L182.836 165.287ZM189.359 155.375L188.616 155.272L188.615 155.278L189.359 155.375ZM190.319 145.96L191.066 146.023L191.067 146.021L190.319 145.96ZM192.074 123.916L192.821 123.98L192.821 123.98L192.074 123.916ZM192.935 120.468L192.24 120.185L192.237 120.194L192.935 120.468ZM196.014 120.004L195.399 120.433L195.403 120.438L196.014 120.004ZM198.597 124.91L197.872 125.102L197.875 125.114L198.597 124.91ZM202.571 140.888L201.835 141.034L201.835 141.035L202.571 140.888ZM204.293 153.983L205.042 153.95L205.042 153.949L204.293 153.983ZM204.259 172.215L203.511 172.17L203.511 172.171L204.259 172.215ZM205.65 190.48L204.913 190.618L204.914 190.623L205.65 190.48ZM174.293 137.176L175.039 137.105L175.038 137.091L174.293 137.176ZM173.465 131.938L172.722 132.04L172.723 132.05L173.465 131.938ZM169.557 123.816L168.891 124.159L168.934 124.243L168.996 124.314L169.557 123.816ZM165.915 113.818L165.185 113.646L165.158 113.762L165.168 113.881L165.915 113.818ZM165.12 104.457L164.375 104.543L164.376 104.548L165.12 104.457ZM167.836 97.2966L168.276 97.904L169.149 97.2714L168.252 96.6728L167.836 97.2966ZM163.995 94.8104L164.4 94.1792L163.831 93.8141L163.409 94.3422L163.995 94.8104ZM161.279 98.1917L160.715 97.6981L160.709 97.705L161.279 98.1917ZM153.034 100.346L152.763 101.046L152.766 101.047L153.034 100.346ZM142.769 89.0092L143.475 88.756L143.475 88.7552L142.769 89.0092ZM140.385 72.4675L139.635 72.4708L139.635 72.4719L140.385 72.4675ZM143.001 49.8926L142.284 49.6745L142.283 49.6761L143.001 49.8926ZM149.359 40.3124L149.764 40.9434L149.767 40.9416L149.359 40.3124ZM158.928 37.6604L158.893 36.9112L158.892 36.9113L158.928 37.6604ZM175.716 37.0305L175.761 37.7792L175.761 37.7792L175.716 37.0305ZM182.339 35.7709L182.482 36.5071L183.17 36.3734L183.083 35.6779L182.339 35.7709ZM210.915 43.5942L211.507 44.0547L211.906 43.5415L211.455 43.0735L210.915 43.5942ZM208.432 43.6273L208.931 44.1868L208.941 44.1781L208.432 43.6273ZM220.286 73.4289L219.573 73.6624L219.573 73.6626L220.286 73.4289ZM211.776 66.1691L211.941 65.4375L211.94 65.4373L211.776 66.1691ZM206.942 66.7989L206.559 66.1537L205.822 66.5905L206.353 67.2633L206.942 66.7989ZM208.299 68.5227L207.703 68.978L207.71 68.9872L207.717 68.9962L208.299 68.5227ZM210.485 71.1747L209.874 71.6103L209.876 71.6126L210.485 71.1747ZM210.584 73.8267L210.192 73.1874L210.183 73.1926L210.175 73.198L210.584 73.8267ZM207.836 73.7935L207.505 74.4669L207.512 74.47L207.836 73.7935ZM205.054 69.6829L204.305 69.7239L204.305 69.7261L205.054 69.6829ZM205.451 62.3569L206.197 62.4385L206.198 62.4314L205.451 62.3569ZM206.445 56.4231L205.71 56.2731L205.708 56.2858L206.445 56.4231ZM184.226 90.302L184.395 91.0328L184.396 91.0325L184.226 90.302ZM172.372 97.2303V96.4803H171.622V97.2303H172.372ZM172.339 97.7607H171.589V98.0714L171.809 98.291L172.339 97.7607ZM172.339 97.7607L172.87 97.2307L172.869 97.2304L172.339 97.7607ZM201.346 100.678L201.424 99.932L201.422 99.9318L201.346 100.678ZM213.928 110.855L214.642 110.624L214.64 110.619L213.928 110.855ZM215.65 122.159L216.4 122.147L216.4 122.146L215.65 122.159ZM212.339 152.524L211.597 152.412L211.597 152.412L212.339 152.524ZM210.551 175.662L209.803 175.723L209.803 175.724L210.551 175.662ZM212.372 184.016L211.652 184.227L211.653 184.23L212.372 184.016ZM214.524 187.663L213.884 188.053L215.189 190.195L215.274 187.688L214.524 187.663ZM215.087 170.922L215.837 170.954L215.837 170.952L215.087 170.922ZM216.346 140.756L217.095 140.783L217.095 140.782L216.346 140.756ZM214.789 109.396L214.054 109.544L214.054 109.544L214.789 109.396ZM207.372 93.9485L206.82 94.4567L206.821 94.4572L207.372 93.9485ZM198.531 93.1861L198.995 93.7753L198.996 93.7746L198.531 93.1861ZM190.153 96.932L190.107 96.1834L190.105 96.1835L190.153 96.932ZM179.259 97.1972L179.246 96.4472L179.238 96.4475L179.259 97.1972ZM147.372 176.988L147.217 176.255L147.215 176.255L147.372 176.988ZM154.458 180.005L153.808 180.379L153.811 180.384L154.458 180.005ZM157.074 183.817L156.458 184.245L157.218 185.341L157.76 184.122L157.074 183.817ZM158.299 181.232L157.739 180.733L157.734 180.738L157.73 180.744L158.299 181.232ZM162.604 176.889L162.073 176.359L162.067 176.365L162.604 176.889ZM172.438 153.121L171.84 152.669L171.839 152.67L172.438 153.121ZM165.915 160.148L166.453 160.671L166.453 160.671L165.915 160.148ZM162.107 163.861L162.659 164.37L162.665 164.363L162.107 163.861ZM161.445 165.618L160.746 165.346L160.461 166.08L161.208 166.329L161.445 165.618ZM163.266 166.215L163.245 165.465L163.235 165.465L163.224 165.466L163.266 166.215ZM173.895 160.115L174.51 160.545L174.512 160.541L173.895 160.115ZM205.22 28.3122H204.47V29.0622H205.22V28.3122ZM205.485 28.3122V29.0622H206.089L206.218 28.4713L205.485 28.3122ZM217.968 22.4447L217.996 21.6952L217.991 21.695L217.968 22.4447ZM208.233 22.2458L208.209 22.9954L208.217 22.9957L208.225 22.9958L208.233 22.2458ZM205.22 22.2458V21.4958H204.47V22.2458H205.22ZM216.147 190.812L216.591 190.207L215.469 189.383L215.398 190.773L216.147 190.812ZM215.948 194.259L215.201 194.192L215.201 194.194L215.948 194.259ZM212.372 198.768L212.57 199.491L212.571 199.491L212.372 198.768ZM209.061 199.663L208.823 198.951L208.815 198.954L208.806 198.957L209.061 199.663ZM206.644 200.856L206.189 200.26L206.178 200.268L206.644 200.856ZM207.041 202.381L206.909 203.119L206.922 203.122L207.041 202.381ZM221.942 200.293L222.198 199.588L222.189 199.584L222.179 199.581L221.942 200.293ZM224.16 200.79L223.994 201.521L224.85 201.716L224.908 200.84L224.16 200.79ZM167.074 108.269L166.325 108.301L166.355 109.019H167.074V108.269ZM167.803 108.269V109.019H168.355L168.519 108.491L167.803 108.269ZM166.875 101.241L166.129 101.167L166.129 101.168L166.875 101.241ZM389.402 161.64L389.651 160.932L389.64 160.929L389.63 160.925L389.402 161.64ZM186.284 35.347C189.057 36.3747 190.28 38.0071 190.855 39.9229C191.456 41.9272 191.357 44.2434 191.357 46.7102H192.857C192.857 44.3704 192.973 41.7638 192.292 39.4918C191.583 37.1313 190.025 35.1339 186.805 33.9405L186.284 35.347ZM191.988 47.4508C194.696 47.8852 198.018 47.6219 201.052 46.7869C204.071 45.9561 206.93 44.5244 208.609 42.5175L207.459 41.5548C206.059 43.2275 203.537 44.5472 200.654 45.3407C197.786 46.1301 194.683 46.364 192.226 45.9697L191.988 47.4508ZM201.41 31.1598C201.617 31.3439 201.874 31.5113 202.146 31.6304C202.409 31.7457 202.748 31.8428 203.102 31.8105L202.966 30.3167C202.967 30.3166 202.962 30.3171 202.951 30.3163C202.94 30.3154 202.924 30.3133 202.903 30.3089C202.861 30.3 202.809 30.2832 202.747 30.2564C202.622 30.2015 202.498 30.1203 202.407 30.0392L201.41 31.1598ZM203.082 31.8121C205.389 31.664 207.247 32.6255 208.938 34.2555L209.979 33.1756C208.093 31.3581 205.845 30.1317 202.986 30.3151L203.082 31.8121ZM208.927 34.2456C209.047 34.3654 209.163 34.4564 209.273 34.5404C209.386 34.6266 209.496 34.7065 209.652 34.8314L210.589 33.6606C210.414 33.5202 210.275 33.4178 210.181 33.3466C210.085 33.2731 210.035 33.2315 209.989 33.1855L208.927 34.2456ZM210.868 34.1867C210.703 32.1023 210.571 30.216 210.471 28.7265L208.975 28.8261C209.074 30.32 209.207 32.2128 209.373 34.3052L210.868 34.1867ZM210.15 28.1599C209.741 27.8763 209.251 27.5758 208.982 27.3953C208.662 27.1803 208.444 27.0049 208.282 26.8081L207.124 27.761C207.426 28.1277 207.787 28.3999 208.146 28.6406C208.556 28.916 208.844 29.0795 209.296 29.3927L210.15 28.1599ZM208.234 26.7545C208.368 26.889 208.41 27.0372 208.424 27.1139C208.439 27.1922 208.434 27.2503 208.432 27.2712C208.428 27.3128 208.42 27.3221 208.433 27.2869C208.455 27.2244 208.505 27.1177 208.58 26.9944C208.654 26.8726 208.735 26.7625 208.807 26.6851C208.843 26.6468 208.867 26.6257 208.879 26.6168C208.894 26.6055 208.873 26.6251 208.818 26.6422L208.376 25.2086C208.074 25.3017 207.845 25.5167 207.707 25.665C207.551 25.8342 207.41 26.0307 207.298 26.2156C207.187 26.3989 207.086 26.5988 207.02 26.7829C206.989 26.8709 206.953 26.9886 206.94 27.1158C206.933 27.1796 206.929 27.2749 206.949 27.3839C206.969 27.4912 207.022 27.6636 207.173 27.8146L208.234 26.7545ZM208.803 26.6465C209.01 26.5874 209.267 26.5832 209.617 26.6213C209.791 26.6402 209.967 26.6667 210.166 26.6956C210.358 26.7236 210.57 26.7534 210.784 26.772L210.914 25.2777C210.747 25.2632 210.574 25.2391 210.381 25.2112C210.195 25.1842 209.986 25.1526 209.779 25.1301C209.368 25.0853 208.88 25.0646 208.391 25.2043L208.803 26.6465ZM210.152 26.3031L210.351 26.8004L211.744 26.2438L211.545 25.7466L210.152 26.3031ZM211.718 26.8572C211.763 26.7686 211.82 26.6701 211.893 26.5474C211.961 26.433 212.045 26.2931 212.119 26.1543C212.245 25.9187 212.462 25.4811 212.383 25.0067L210.904 25.253C210.895 25.1981 210.909 25.1817 210.894 25.2298C210.88 25.2765 210.85 25.3463 210.796 25.4479C210.741 25.5494 210.679 25.654 210.603 25.782C210.532 25.9018 210.448 26.0436 210.377 26.187L211.718 26.8572ZM212.379 24.9829C212.315 24.6646 212.116 24.4493 211.973 24.3267C211.821 24.1957 211.647 24.0953 211.49 24.0196C211.175 23.8673 210.818 23.7594 210.543 23.7004L210.228 25.167C210.416 25.2074 210.655 25.2818 210.837 25.3699C210.929 25.4143 210.977 25.4486 210.995 25.4636C211.022 25.4871 210.939 25.4293 210.908 25.2767L212.379 24.9829ZM210.521 23.696C209.604 23.5274 208.75 23.589 208.036 24.0261C207.322 24.4633 206.883 25.1938 206.62 26.0762L208.058 26.5039C208.259 25.8282 208.532 25.4814 208.819 25.3054C209.107 25.1292 209.544 25.0416 210.25 25.1713L210.521 23.696ZM206.62 26.0748C206.456 26.6233 206.359 27.1892 206.272 27.7084C206.183 28.2431 206.106 28.725 205.985 29.1799L207.435 29.566C207.578 29.0265 207.667 28.4642 207.752 27.9547C207.839 27.4296 207.924 26.9514 208.057 26.5053L206.62 26.0748ZM205.989 29.1671C205.947 29.3115 205.854 29.5075 205.744 29.6614C205.69 29.737 205.648 29.7797 205.627 29.797C205.596 29.8223 205.647 29.7665 205.774 29.7538L205.924 31.2463C206.216 31.2171 206.441 31.07 206.582 30.9534C206.733 30.8289 206.86 30.6788 206.964 30.5348C207.168 30.2495 207.34 29.8986 207.431 29.5788L205.989 29.1671ZM205.795 29.752C205.784 29.7528 205.736 29.7521 205.652 29.7305C205.573 29.7099 205.484 29.6763 205.398 29.6326C205.312 29.5886 205.243 29.5418 205.197 29.5024C205.145 29.4576 205.154 29.45 205.174 29.4939L203.808 30.114C203.998 30.5321 204.411 30.8132 204.718 30.9697C205.046 31.1363 205.484 31.278 205.902 31.2482L205.795 29.752ZM205.183 29.5142C204.779 28.5509 204.499 27.4919 204.375 26.4346L202.885 26.6096C203.026 27.8065 203.342 29.0016 203.799 30.0937L205.183 29.5142ZM204.377 26.4527C204.249 25.0721 204.347 23.7417 204.347 22.1132H202.847C202.847 23.6008 202.747 25.1213 202.884 26.5915L204.377 26.4527ZM203.659 21.3658L203.659 21.3658L203.535 22.8606L203.535 22.8606L203.659 21.3658ZM203.68 21.3678C202.186 21.2016 200.716 21.0379 199.314 20.8094L199.073 22.2899C200.519 22.5255 202.028 22.6933 203.514 22.8586L203.68 21.3678ZM199.313 20.8094C198.703 20.7103 198.206 20.5932 197.844 20.3831C197.53 20.2007 197.318 19.9517 197.254 19.4903L195.768 19.6974C195.903 20.6614 196.42 21.2908 197.091 21.6803C197.714 22.0421 198.458 22.1901 199.073 22.29L199.313 20.8094ZM197.254 19.4926C197.117 18.4828 197.724 17.6953 198.757 17.314L198.238 15.9067C196.755 16.4537 195.508 17.7877 195.768 19.6951L197.254 19.4926ZM198.764 17.3117C199.935 16.8681 201.207 16.5618 202.391 16.5314L202.353 15.0319C200.954 15.0678 199.511 15.4244 198.232 15.909L198.764 17.3117ZM202.372 16.5316C202.424 16.5316 202.625 16.5867 202.907 16.8013C203.171 17.0018 203.372 17.2415 203.456 17.4096L204.798 16.7393C204.584 16.3107 204.206 15.904 203.815 15.6072C203.443 15.3246 202.916 15.0316 202.372 15.0316V16.5316ZM203.448 17.3925C203.662 17.8495 203.805 18.3593 203.934 18.9268C204.054 19.4593 204.177 20.1226 204.328 20.7086L205.781 20.3354C205.633 19.7612 205.541 19.2312 205.397 18.5951C205.26 17.9941 205.089 17.3602 204.806 16.7564L203.448 17.3925ZM218.893 19.2754C215.693 19.1419 212.519 19.0767 209.37 18.7484L209.215 20.2403C212.424 20.575 215.674 20.6424 218.831 20.7741L218.893 19.2754ZM209.383 18.7498C208.488 18.6412 207.427 18.0728 206.588 17.3883L205.64 18.5507C206.589 19.3248 207.912 20.0823 209.202 20.2389L209.383 18.7498ZM206.583 17.3841C205.633 16.6234 205.276 15.8194 205.299 15.1313C205.322 14.4452 205.729 13.6728 206.735 12.9868L205.89 11.7476C204.611 12.6197 203.843 13.7865 203.8 15.0811C203.756 16.3737 204.442 17.5919 205.645 18.5549L206.583 17.3841ZM206.729 12.991C207.881 12.2222 209.208 11.5525 210.46 11.3138L210.179 9.8404C208.648 10.1322 207.128 10.921 205.896 11.7434L206.729 12.991ZM210.46 11.3138C212.528 10.9194 214.634 10.6368 216.617 10.7944L216.736 9.29908C214.547 9.12519 212.282 9.43925 210.179 9.8404L210.46 11.3138ZM216.615 10.7942C218.435 10.9448 219.864 11.6978 220.854 12.8381C221.849 13.9844 222.437 15.566 222.483 17.4245L223.983 17.3874C223.929 15.2348 223.243 13.3026 221.986 11.8548C220.725 10.4012 218.925 9.48019 216.738 9.29928L216.615 10.7942ZM222.483 17.4337C222.521 18.4627 222.861 19.4581 223.195 20.3269L224.595 19.789C224.267 18.934 224.011 18.1393 223.982 17.3782L222.483 17.4337ZM223.197 20.3319C223.858 22.0169 223.828 23.5194 222.795 24.9161L224.002 25.8077C225.42 23.8894 225.389 21.8117 224.593 19.7839L223.197 20.3319ZM222.793 24.9187C222.479 25.3484 222.07 25.7315 221.596 26.1717L222.618 27.2703C223.071 26.8486 223.59 26.3698 224.004 25.8051L222.793 24.9187ZM221.611 26.1585C220.845 26.8341 220.267 27.6078 219.987 28.5137C219.705 29.4278 219.749 30.4048 220.107 31.4409L221.525 30.9516C221.253 30.1644 221.247 29.5171 221.421 28.956C221.596 28.3867 221.979 27.8344 222.603 27.2835L221.611 26.1585ZM220.101 31.424C220.218 31.7915 220.269 32.0397 220.277 32.2028C220.286 32.3643 220.25 32.3552 220.291 32.3018C220.335 32.245 220.361 32.2735 220.217 32.3003C220.068 32.3281 219.828 32.3363 219.454 32.3052L219.33 33.8C219.751 33.8351 220.148 33.8392 220.492 33.7748C220.842 33.7095 221.218 33.5577 221.481 33.2149C221.741 32.8757 221.794 32.475 221.775 32.1216C221.756 31.7699 221.661 31.3799 221.53 30.9684L220.101 31.424ZM219.464 32.3061C218.855 32.247 218.271 32.3211 217.791 32.67C217.317 33.0153 217.08 33.5329 216.944 34.0579L218.396 34.434C218.492 34.064 218.602 33.9352 218.674 33.8827C218.742 33.8338 218.903 33.7587 219.32 33.7991L219.464 32.3061ZM216.942 34.0643C216.922 34.1442 216.889 34.2374 216.838 34.3618C216.795 34.4679 216.724 34.6348 216.67 34.7785L218.074 35.3047C218.12 35.1832 218.164 35.0848 218.228 34.9258C218.286 34.7849 218.351 34.6129 218.398 34.4277L216.942 34.0643ZM216.678 34.7563C216.103 36.1557 215.646 36.7659 215.161 37.0319C214.694 37.2879 214.016 37.3237 212.682 36.9981L212.327 38.4553C213.708 38.7927 214.884 38.8948 215.883 38.3469C216.863 37.809 217.482 36.7452 218.066 35.3269L216.678 34.7563ZM211.823 37.4127C211.227 38.7061 210.655 40.0187 210.033 41.3958L211.4 42.0135C212.036 40.6061 212.59 39.3329 213.186 38.0407L211.823 37.4127ZM210.199 42.2475C210.647 42.6749 211.182 42.9569 211.815 43.0113C212.433 43.0643 213.062 42.8939 213.701 42.5742L213.03 41.2329C212.542 41.4767 212.195 41.5384 211.944 41.5168C211.708 41.4966 211.481 41.3974 211.234 41.1618L210.199 42.2475ZM213.687 42.5812C215.381 41.778 216.988 41.8602 218.228 42.5404C219.473 43.2228 220.438 44.5569 220.737 46.4308L222.219 46.1941C221.856 43.9243 220.652 42.1589 218.949 41.2252C217.243 40.2894 215.125 40.239 213.044 41.2259L213.687 42.5812ZM220.738 46.4334C221.302 49.8844 220.463 53.1488 219.251 56.4283L220.658 56.9483C221.897 53.5978 222.846 50.0334 222.218 46.1915L220.738 46.4334ZM219.251 56.4293C218.572 58.2734 217.697 60.0267 216.8 61.8229L218.142 62.4931C219.033 60.7091 219.947 58.8822 220.659 56.9473L219.251 56.4293ZM216.8 61.8229C216.447 62.5308 215.92 63.1985 215.328 63.6501L216.237 64.8427C217.036 64.2335 217.701 63.3763 218.142 62.4931L216.8 61.8229ZM215.327 63.6509C214.951 63.9385 214.665 63.9038 214.514 63.8251C214.355 63.7427 214.148 63.5107 214.148 63.0199H212.648C212.648 63.9545 213.071 64.7667 213.823 65.1566C214.582 65.5504 215.488 65.4162 216.239 64.8419L215.327 63.6509ZM214.148 63.0199C214.148 62.4359 214.289 61.8161 214.54 61.2854L213.184 60.6438C212.839 61.3728 212.648 62.2115 212.648 63.0199H214.148ZM214.548 61.2673C215.651 58.7679 216.906 56.2455 217.967 53.6577L216.579 53.0889C215.52 55.6725 214.325 58.0562 213.176 60.6619L214.548 61.2673ZM217.967 53.656C218.734 51.7727 219.12 49.6901 218.416 47.5378L216.99 48.0043C217.544 49.6973 217.268 51.3938 216.578 53.0906L217.967 53.656ZM218.418 47.5427C218.082 46.4931 217.098 45.4309 216.073 44.6798C215.545 44.293 214.968 43.9601 214.397 43.7353C213.836 43.5147 213.223 43.3756 212.645 43.4464L212.827 44.9353C213.061 44.9067 213.408 44.9582 213.848 45.1312C214.277 45.3001 214.741 45.5639 215.186 45.8898C216.107 46.5642 216.794 47.3915 216.989 47.9994L218.418 47.5427ZM212.643 43.4467C212.142 43.5093 211.708 43.8214 211.412 44.1034C211.1 44.4008 210.82 44.7791 210.658 45.1502L212.033 45.7509C212.102 45.5916 212.254 45.3732 212.446 45.1899C212.539 45.1013 212.629 45.0339 212.705 44.9893C212.743 44.9675 212.773 44.9534 212.796 44.9449C212.819 44.9364 212.83 44.935 212.829 44.9351L212.643 43.4467ZM210.657 45.1541C209.749 47.2642 208.681 49.4721 208.132 51.8094L209.592 52.1526C210.102 49.9817 211.088 47.9463 212.034 45.747L210.657 45.1541ZM208.132 51.8081C207.198 55.748 206.627 59.7739 205.938 63.6853L207.415 63.9457C208.117 59.9674 208.671 56.0374 209.592 52.154L208.132 51.8081ZM205.937 63.6923C205.863 64.1344 205.857 64.6669 205.829 65.0549L207.325 65.1617C207.364 64.6216 207.358 64.2921 207.416 63.9386L205.937 63.6923ZM206.766 65.8343C209.396 65.152 211.711 65.2102 213.759 65.913C215.81 66.6166 217.653 67.9865 219.306 70.023L220.471 69.0777C218.68 66.871 216.616 65.3072 214.246 64.4942C211.874 63.6804 209.255 63.6391 206.389 64.3823L206.766 65.8343ZM219.306 70.023C220.078 70.9738 220.639 72.2921 221.024 73.5779L222.461 73.1473C222.052 71.781 221.421 70.2485 220.471 69.0777L219.306 70.023ZM221.024 73.5771C221.418 74.897 221.248 75.7407 220.851 76.2383C220.446 76.7452 219.626 77.1186 218.216 77.0879L218.184 78.5876C219.82 78.6232 221.202 78.2011 222.022 77.1747C222.85 76.1392 222.928 74.7121 222.462 73.148L221.024 73.5771ZM218.219 77.088C216.966 77.0558 215.707 76.927 214.44 76.7319L214.211 78.2144C215.527 78.417 216.851 78.5534 218.181 78.5875L218.219 77.088ZM214.426 76.7299C212.555 76.4767 211.096 76.4979 209.846 77.1262C208.598 77.7533 207.695 78.9166 206.752 80.5849L208.058 81.3228C208.97 79.7093 209.689 78.8836 210.519 78.4665C211.347 78.0506 212.421 77.9723 214.225 78.2164L214.426 76.7299ZM206.749 80.5914C206.054 81.8495 205.354 83.0561 204.507 84.0925L205.668 85.0418C206.609 83.8903 207.365 82.5776 208.062 81.3163L206.749 80.5914ZM204.509 84.089C203.641 85.1377 202.652 85.7001 201.695 85.8203C200.751 85.9388 199.737 85.6407 198.767 84.7711L197.765 85.888C199.014 87.0074 200.45 87.4884 201.882 87.3086C203.3 87.1304 204.612 86.3171 205.665 85.0453L204.509 84.089ZM198.764 84.7686C197.352 83.5154 196.042 81.9011 195.538 80.2979L194.107 80.7479C194.729 82.7249 196.267 84.5581 197.768 85.8906L198.764 84.7686ZM195.538 80.2987C194.328 76.4359 193.54 72.4314 192.846 68.4278L191.368 68.684C192.065 72.7025 192.866 76.7865 194.107 80.7471L195.538 80.2987ZM192.847 68.4314C192.324 65.3249 192.094 62.1443 191.895 58.9294L190.398 59.0219C190.597 62.238 190.831 65.4884 191.368 68.6803L192.847 68.4314ZM191.895 58.9217C191.664 55.7197 191.633 52.5792 191.499 49.3313L190 49.3931C190.131 52.5763 190.166 55.8005 190.399 59.0295L191.895 58.9217ZM191.5 49.3622C191.5 48.9852 191.462 48.6184 191.428 48.3411L189.939 48.5269C189.971 48.78 190 49.0762 190 49.3622H191.5ZM190.788 47.6914C183.272 46.6307 175.822 45.57 168.405 44.5092L168.193 45.9941C175.611 47.0549 183.061 48.1158 190.578 49.1767L190.788 47.6914ZM168.374 44.5054C168.049 44.4729 167.681 44.4354 167.306 44.4354V45.9354C167.593 45.9354 167.887 45.9641 168.224 45.9979L168.374 44.5054ZM167.361 44.4374C165.292 44.2858 163.614 44.5143 162.534 45.5576C161.444 46.6103 161.191 48.2689 161.36 50.3511L162.855 50.2297C162.693 48.2345 163.002 47.1914 163.576 46.6363C164.16 46.0719 165.247 45.7865 167.251 45.9334L167.361 44.4374ZM161.359 50.3492C161.692 54.579 162.258 58.7814 162.753 62.9427L164.243 62.7656C163.744 58.5731 163.184 54.4218 162.855 50.2316L161.359 50.3492ZM162.754 62.9465C163.454 68.5886 164.294 74.1046 163.452 79.614L164.935 79.8406C165.815 74.0791 164.933 68.3243 164.242 62.7617L162.754 62.9465ZM163.451 79.6192C163.229 81.1417 162.785 82.6648 162.153 84.0582L163.519 84.6783C164.21 83.1545 164.694 81.4952 164.935 79.8354L163.451 79.6192ZM162.153 84.0582C161.798 84.8395 161.395 85.0634 161.119 85.0937C160.823 85.1262 160.341 84.9774 159.759 84.3074L158.627 85.291C159.37 86.1459 160.295 86.6932 161.283 86.5848C162.289 86.4743 163.046 85.7202 163.519 84.6783L162.153 84.0582ZM159.765 84.3143C159.317 83.7852 158.901 83.232 158.46 82.6568C158.025 82.0885 157.57 81.5032 157.067 80.9478L155.955 81.9544C156.413 82.4598 156.835 83.0015 157.269 83.5686C157.698 84.1288 158.142 84.7193 158.621 85.2841L159.765 84.3143ZM157.065 80.9452C155.63 79.3744 153.365 78.723 151.218 78.8164C149.07 78.9099 146.86 79.756 145.529 81.4122L146.698 82.3519C147.685 81.124 149.433 80.3955 151.283 80.315C153.134 80.2344 154.909 80.8095 155.957 81.957L157.065 80.9452ZM145.522 81.4219C145.254 81.7657 144.992 82.2279 145.059 82.7598C145.132 83.3274 145.537 83.6917 145.936 83.9232L146.689 82.6254C146.58 82.5624 146.538 82.5193 146.527 82.5062C146.521 82.5001 146.541 82.5242 146.547 82.5706C146.553 82.6118 146.54 82.6208 146.557 82.5797C146.575 82.535 146.617 82.4571 146.706 82.3422L145.522 81.4219ZM145.94 83.9253C146.177 84.0607 146.327 84.166 146.609 84.3358C146.854 84.4825 147.14 84.6395 147.466 84.7482L147.941 83.3253C147.77 83.2682 147.593 83.1766 147.382 83.0499C147.209 82.9462 146.912 82.7531 146.685 82.6233L145.94 83.9253ZM147.435 84.7371C153.183 86.9402 158.603 89.6904 163.458 93.6042L164.399 92.4364C159.386 88.3943 153.813 85.5754 147.972 83.3364L147.435 84.7371ZM164.45 93.5592C166.238 91.8287 168.46 91.3467 171.15 91.2169L171.078 89.7187C168.271 89.8541 165.592 90.3665 163.407 92.4814L164.45 93.5592ZM171.864 90.4678C171.864 87.9201 171.798 85.5037 171.864 83.0291L170.364 82.9891C170.298 85.487 170.364 87.9768 170.364 90.4678H171.864ZM171.863 83.0355C172.029 78.3255 172.294 73.7546 173.809 69.3641L172.392 68.8747C170.795 73.501 170.53 78.2782 170.364 82.9827L171.863 83.0355ZM173.809 69.3651C175.147 65.5054 177.464 62.7396 181.431 62.1029L181.194 60.6219C176.485 61.3775 173.835 64.7112 172.392 68.8737L173.809 69.3651ZM181.433 62.1027C183.789 61.7201 185.398 61.9648 186.554 62.6332C187.707 63.3 188.54 64.4631 189.186 66.1987L190.591 65.6754C189.88 63.7645 188.875 62.2425 187.305 61.3347C185.737 60.4285 183.736 60.209 181.192 60.6221L181.433 62.1027ZM189.187 66.2008C190.49 69.6703 190.596 73.3243 190.529 77.0953L192.029 77.1216C192.096 73.3346 192.002 69.4304 190.591 65.6733L189.187 66.2008ZM306.71 165.882C300.444 172.122 294.377 178.494 288.287 184.857L289.371 185.894C295.466 179.527 301.518 173.169 307.769 166.945L306.71 165.882ZM288.287 184.856C277.45 196.164 264.092 202.66 248.768 205.288L249.022 206.767C264.625 204.091 278.287 197.459 289.37 185.894L288.287 184.856ZM248.767 205.288C245.129 205.918 241.526 206.375 237.853 206.944L238.083 208.426C241.694 207.867 245.376 207.397 249.023 206.767L248.767 205.288ZM237.845 206.945C237.574 206.99 237.258 207.088 236.976 207.235C236.724 207.366 236.347 207.614 236.179 208.037L237.572 208.593C237.549 208.649 237.525 208.664 237.546 208.645C237.565 208.628 237.604 208.599 237.669 208.566C237.8 208.497 237.964 208.446 238.091 208.425L237.845 206.945ZM236.204 207.98C235.934 208.521 235.59 208.863 235.203 209.072C234.811 209.283 234.324 209.384 233.732 209.356L233.661 210.854C234.46 210.892 235.231 210.761 235.915 210.392C236.604 210.021 237.154 209.435 237.546 208.65L236.204 207.98ZM233.725 209.355C231.948 209.288 230.207 209.256 228.497 209.03L228.3 210.517C230.1 210.755 231.935 210.789 233.668 210.854L233.725 209.355ZM228.499 209.03C222.642 208.242 217.263 209.825 212.042 211.79L212.57 213.194C217.746 211.246 222.83 209.78 228.298 210.517L228.499 209.03ZM212.037 211.791C210.092 212.538 208.032 213.116 206.019 213.372L206.208 214.86C208.368 214.585 210.546 213.97 212.574 213.192L212.037 211.791ZM206.015 213.373C204.944 213.516 204.193 213.258 203.701 212.795C203.198 212.321 202.853 211.526 202.824 210.384L201.324 210.423C201.361 211.833 201.794 213.06 202.673 213.887C203.564 214.726 204.8 215.048 206.213 214.859L206.015 213.373ZM202.824 210.387C202.758 207.243 202.725 204.069 202.758 200.93L201.258 200.915C201.225 204.074 201.258 207.265 201.324 210.419L202.824 210.387ZM202.758 200.922C202.758 200.659 202.798 200.349 202.881 200.062C202.967 199.768 203.08 199.558 203.187 199.443L202.087 198.423C201.763 198.773 201.562 199.226 201.441 199.644C201.317 200.071 201.258 200.523 201.258 200.922H202.758ZM203.187 199.443C205.488 196.957 205.792 194.092 205.088 191.135L203.629 191.483C204.25 194.095 203.958 196.401 202.086 198.424L203.187 199.443ZM205.089 191.137C203.13 182.802 203.419 174.348 203.948 165.764L202.451 165.671C201.921 174.258 201.614 182.91 203.629 191.481L205.089 191.137ZM115.001 217.742C124.871 216.249 134.752 214.893 144.667 213.433L144.448 211.949C134.561 213.405 124.642 214.767 114.777 216.258L115.001 217.742ZM144.666 213.433C146.527 213.162 148.411 212.723 150.209 212.256L149.833 210.804C148.055 211.266 146.231 211.689 144.449 211.948L144.666 213.433ZM150.213 212.255C151.38 211.947 152.323 211.594 152.804 210.774C153.043 210.366 153.127 209.912 153.145 209.443C153.163 208.979 153.118 208.441 153.051 207.835L151.56 207.999C151.626 208.603 151.66 209.043 151.646 209.385C151.633 209.722 151.577 209.901 151.51 210.015C151.378 210.24 151.047 210.484 149.83 210.805L150.213 212.255ZM153.052 207.838C152.814 205.596 152.503 203.468 152.815 201.469L151.333 201.238C150.983 203.482 151.334 205.862 151.56 207.996L153.052 207.838ZM152.814 201.474C153.232 198.903 154.252 196.456 155.136 193.836L153.714 193.357C152.876 195.842 151.777 198.5 151.334 201.233L152.814 201.474ZM155.133 193.842C155.39 193.104 155.695 192.372 156.008 191.611C156.318 190.858 156.635 190.08 156.893 189.287L155.467 188.823C155.228 189.555 154.932 190.284 154.621 191.04C154.314 191.787 153.99 192.564 153.717 193.35L155.133 193.842ZM156.887 189.306C157.48 187.635 157.419 185.804 156.456 184.223L155.175 185.003C155.868 186.14 155.94 187.491 155.473 188.804L156.887 189.306ZM156.456 184.222C155.354 182.417 154.183 180.64 152.908 178.927L151.704 179.823C152.946 181.491 154.092 183.228 155.176 185.004L156.456 184.222ZM136.727 184.961C136.707 184.778 136.665 184.538 136.588 184.312C136.549 184.199 136.494 184.067 136.413 183.94C136.336 183.82 136.202 183.653 135.986 183.544L135.315 184.886C135.254 184.855 135.213 184.82 135.189 184.796C135.165 184.772 135.153 184.754 135.149 184.749C135.144 184.74 135.153 184.753 135.168 184.797C135.199 184.886 135.223 185.011 135.236 185.126L136.727 184.961ZM136.017 183.561C135.383 183.205 135.224 182.834 135.193 182.477C135.155 182.035 135.307 181.5 135.558 180.832L134.153 180.305C133.907 180.963 133.629 181.788 133.698 182.605C133.776 183.508 134.262 184.297 135.283 184.869L136.017 183.561ZM135.555 180.84C136.335 178.826 137.859 177.388 139.818 176.664L139.297 175.257C136.951 176.125 135.098 177.869 134.156 180.297L135.555 180.84ZM139.816 176.665C142.759 175.584 145.806 174.731 148.893 174.041L148.566 172.577C145.428 173.279 142.316 174.149 139.299 175.257L139.816 176.665ZM148.899 174.04C149.783 173.835 150.644 173.572 151.39 173.102C152.156 172.619 152.769 171.937 153.193 170.954L151.816 170.36C151.511 171.067 151.098 171.512 150.59 171.833C150.061 172.167 149.398 172.385 148.561 172.578L148.899 174.04ZM153.191 170.959C153.539 170.166 153.954 169.398 154.411 168.614L153.115 167.859C152.644 168.667 152.198 169.49 151.818 170.355L153.191 170.959ZM154.407 168.62C155.168 167.34 156.01 166.767 156.798 166.66C157.587 166.552 158.554 166.88 159.634 167.916L160.673 166.834C159.403 165.616 158.002 164.982 156.596 165.173C155.191 165.364 154.013 166.349 153.118 167.854L154.407 168.62ZM159.64 167.921C161.135 169.327 162.871 172.345 163.875 175.524L165.306 175.072C164.257 171.754 162.417 168.473 160.667 166.828L159.64 167.921ZM164.921 175.971C166.683 175.106 168.396 174.248 170.115 173.421L169.464 172.069C167.739 172.9 166.008 173.766 164.26 174.625L164.921 175.971ZM170.117 173.42C174.6 171.242 179.249 169.052 183.298 165.877L182.373 164.696C178.475 167.753 173.985 169.873 169.462 172.071L170.117 173.42ZM183.3 165.875C186.634 163.245 189.502 160.071 190.102 155.472L188.615 155.278C188.09 159.297 185.593 162.156 182.371 164.698L183.3 165.875ZM190.102 155.477C190.535 152.338 190.802 149.169 191.066 146.023L189.572 145.897C189.307 149.05 189.043 152.179 188.616 155.272L190.102 155.477ZM191.067 146.021C191.664 138.65 192.192 131.306 192.821 123.98L191.327 123.852C190.698 131.178 190.167 138.552 189.572 145.9L191.067 146.021ZM192.821 123.98C192.913 122.912 193.22 121.791 193.633 120.743L192.237 120.194C191.788 121.334 191.434 122.599 191.327 123.852L192.821 123.98ZM193.629 120.751C193.904 120.079 194.259 119.867 194.47 119.833C194.655 119.803 195.005 119.867 195.399 120.433L196.63 119.575C196.03 118.715 195.172 118.2 194.231 118.352C193.316 118.5 192.628 119.234 192.24 120.185L193.629 120.751ZM195.403 120.438C196.459 121.924 197.446 123.487 197.872 125.102L199.322 124.719C198.821 122.82 197.69 121.067 196.626 119.57L195.403 120.438ZM197.875 125.114C199.364 130.38 200.781 135.694 201.835 141.034L203.307 140.743C202.241 135.343 200.81 129.982 199.319 124.706L197.875 125.114ZM201.835 141.035C202.692 145.323 203.347 149.659 203.543 154.016L205.042 153.949C204.841 149.489 204.171 145.073 203.306 140.741L201.835 141.035ZM203.543 154.015C203.807 160.066 203.873 166.138 203.511 172.17L205.008 172.26C205.374 166.159 205.307 160.032 205.042 153.95L203.543 154.015ZM203.511 172.171C203.142 178.449 203.78 184.546 204.913 190.618L206.387 190.343C205.269 184.348 204.649 178.379 205.008 172.259L203.511 172.171ZM204.914 190.623C205.154 191.857 205.424 193.032 205.451 194.169C205.477 195.279 205.266 196.263 204.598 197.11L205.775 198.039C206.73 196.83 206.982 195.461 206.95 194.134C206.92 192.835 206.61 191.49 206.386 190.337L204.914 190.623ZM175.038 137.091C174.838 135.327 174.461 133.515 174.206 131.826L172.723 132.05C172.998 133.875 173.35 135.511 173.547 137.26L175.038 137.091ZM174.208 131.836C173.754 128.513 172.283 125.761 170.119 123.319L168.996 124.314C171.004 126.579 172.315 129.065 172.722 132.04L174.208 131.836ZM170.224 123.473C168.486 120.093 166.947 117.177 166.663 113.756L165.168 113.881C165.482 117.653 167.185 120.843 168.891 124.159L170.224 123.473ZM166.645 113.991C167.121 111.977 167.022 110.408 166.753 108.906C166.621 108.172 166.445 107.438 166.284 106.709C166.122 105.971 165.968 105.209 165.865 104.366L164.376 104.548C164.488 105.461 164.653 106.276 164.819 107.032C164.988 107.798 165.151 108.476 165.276 109.171C165.52 110.526 165.603 111.881 165.185 113.646L166.645 113.991ZM165.865 104.37C165.707 103.01 165.763 101.796 166.121 100.731C166.475 99.6793 167.138 98.7282 168.276 97.904L167.396 96.6893C166.017 97.6882 165.157 98.8918 164.699 100.252C164.246 101.599 164.202 103.053 164.375 104.543L165.865 104.37ZM168.252 96.6728C166.953 95.806 165.686 95.0044 164.4 94.1792L163.59 95.4416C164.886 96.2738 166.135 97.0635 167.419 97.9204L168.252 96.6728ZM163.409 94.3422C162.458 95.5317 161.628 96.653 160.715 97.6981L161.844 98.6852C162.785 97.6087 163.677 96.4095 164.58 95.2786L163.409 94.3422ZM160.709 97.705C159.615 98.9875 158.52 99.7388 157.361 100.049C156.204 100.358 154.888 100.253 153.302 99.6459L152.766 101.047C154.559 101.733 156.206 101.91 157.748 101.498C159.287 101.087 160.626 100.114 161.85 98.6783L160.709 97.705ZM153.306 99.6471C148.267 97.6924 145.28 93.7875 143.475 88.756L142.063 89.2623C143.968 94.5736 147.206 98.8898 152.763 101.046L153.306 99.6471ZM143.475 88.7552C141.598 83.5383 141.168 78.0703 141.135 72.4631L139.635 72.4719C139.669 78.1356 140.1 83.8059 142.064 89.2631L143.475 88.7552ZM141.135 72.4643C141.102 64.8638 141.533 57.361 143.719 50.1091L142.283 49.6761C140.032 57.1426 139.602 64.8224 139.635 72.4708L141.135 72.4643ZM143.719 50.1108C144.86 46.3578 146.479 43.0532 149.764 40.9434L148.954 39.6813C145.219 42.0799 143.461 45.803 142.284 49.6745L143.719 50.1108ZM149.767 40.9416C152.52 39.1561 155.645 38.5724 158.965 38.4095L158.892 36.9113C155.457 37.0799 152.025 37.6896 148.951 39.6831L149.767 40.9416ZM158.964 38.4095C164.492 38.1476 170.185 38.1095 175.761 37.7792L175.672 36.2819C170.055 36.6146 164.557 36.6428 158.893 36.9112L158.964 38.4095ZM175.761 37.7792C176.93 37.7093 178.077 37.4919 179.19 37.2447C180.326 36.9926 181.382 36.7207 182.482 36.5071L182.196 35.0346C181.077 35.252 179.931 35.5436 178.865 35.7804C177.776 36.0222 176.721 36.2192 175.672 36.2819L175.761 37.7792ZM183.083 35.6779C183.048 35.3952 183.023 35.2163 183.023 35.0084H181.523C181.523 35.3309 181.564 35.6162 181.595 35.8638L183.083 35.6779ZM181.773 46.5913C184.659 46.9898 187.544 47.355 190.988 47.7859L191.174 46.2975C187.73 45.8666 184.854 45.5025 181.978 45.1054L181.773 46.5913ZM211.455 43.0735C210.919 42.5174 210.309 42.1517 209.594 42.2039C208.927 42.2525 208.376 42.6573 207.923 43.0765L208.941 44.1781C209.348 43.8017 209.575 43.7093 209.703 43.6999C209.783 43.6941 209.984 43.7097 210.375 44.1148L211.455 43.0735ZM207.932 43.0679C205.59 45.1591 202.841 46.4568 199.734 46.9646L199.976 48.4449C203.36 47.8919 206.373 46.4713 208.931 44.1868L207.932 43.0679ZM217.87 77.2611C219.085 77.3125 220.207 77.1158 220.841 76.301C221.48 75.4788 221.377 74.3483 220.999 73.1951L219.573 73.6626C219.924 74.7304 219.804 75.1911 219.657 75.38C219.504 75.5763 219.07 75.8105 217.934 75.7625L217.87 77.2611ZM220.999 73.1954C219.541 68.7458 216.243 66.4099 211.941 65.4375L211.611 66.9006C215.521 67.7847 218.316 69.8245 219.573 73.6624L220.999 73.1954ZM211.94 65.4373C210.192 65.0444 208.393 65.0672 206.559 66.1537L207.324 67.4442C208.735 66.608 210.115 66.5645 211.612 66.9008L211.94 65.4373ZM206.353 67.2633C206.858 67.9041 207.277 68.4202 207.703 68.978L208.895 68.0675C208.46 67.4982 208.019 66.9534 207.53 66.3345L206.353 67.2633ZM207.717 68.9962C208.504 69.962 209.225 70.7 209.874 71.6103L211.095 70.7391C210.42 69.793 209.552 68.8735 208.881 68.0493L207.717 68.9962ZM209.876 71.6126C210.151 71.9947 210.352 72.3868 210.403 72.6964C210.426 72.8397 210.411 72.9292 210.389 72.9846C210.37 73.0314 210.327 73.1044 210.192 73.1874L210.976 74.4659C211.354 74.234 211.63 73.9216 211.782 73.5417C211.93 73.1702 211.938 72.7915 211.883 72.4542C211.776 71.8023 211.415 71.1834 211.093 70.7368L209.876 71.6126ZM210.175 73.198C210.031 73.2917 209.716 73.3733 209.271 73.3588C208.845 73.3449 208.429 73.246 208.159 73.1171L207.512 74.47C208.004 74.7056 208.631 74.8388 209.223 74.858C209.796 74.8767 210.475 74.7926 210.993 74.4553L210.175 73.198ZM208.166 73.1201C206.779 72.4403 205.886 71.0858 205.803 69.6398L204.305 69.7261C204.421 71.7277 205.647 73.5555 207.505 74.4669L208.166 73.1201ZM205.803 69.642C205.674 67.2933 205.931 64.8676 206.197 62.4385L204.706 62.2753C204.442 64.686 204.169 67.2327 204.305 69.7239L205.803 69.642ZM206.198 62.4314C206.392 60.4841 206.812 58.5459 207.182 56.5604L205.708 56.2858C205.349 58.212 204.908 60.2517 204.705 62.2823L206.198 62.4314ZM207.18 56.5731C208.123 51.9531 208.727 47.6285 211.507 44.0547L210.323 43.1337C207.275 47.0517 206.621 51.8101 205.71 56.2731L207.18 56.5731ZM172.301 91.2807C176.47 91.6782 180.389 91.9583 184.395 91.0328L184.058 89.5713C180.315 90.4359 176.618 90.1855 172.443 89.7875L172.301 91.2807ZM184.396 91.0325C185.917 90.6785 187.225 90.0448 188.199 89.0601C189.181 88.0673 189.775 86.7665 189.939 85.1746L188.447 85.0204C188.314 86.3126 187.848 87.2826 187.133 88.0052C186.41 88.736 185.384 89.2626 184.056 89.5716L184.396 91.0325ZM171.622 97.2303C171.622 97.2727 171.618 97.3283 171.609 97.4277C171.601 97.5107 171.589 97.6374 171.589 97.7607H173.089C173.089 97.7183 173.093 97.6627 173.102 97.5634C173.11 97.4804 173.122 97.3536 173.122 97.2303H171.622ZM171.809 98.291L171.809 98.2911L172.869 97.2304L172.869 97.2304L171.809 98.291ZM171.808 98.2908C171.853 98.335 171.927 98.4102 172.008 98.4775C172.084 98.5416 172.219 98.6439 172.4 98.7042L172.874 97.2813C172.919 97.2963 172.949 97.3134 172.96 97.3207C172.972 97.3282 172.975 97.3316 172.968 97.3257C172.962 97.32 172.95 97.3101 172.933 97.2931C172.915 97.2757 172.895 97.2566 172.87 97.2307L171.808 98.2908ZM188.585 100.931C192.842 100.997 197.105 100.997 201.269 101.424L201.422 99.9318C197.176 99.4966 192.829 99.4967 188.609 99.4307L188.585 100.931ZM201.267 101.424C204.294 101.743 206.792 102.718 208.768 104.311C210.744 105.905 212.244 108.153 213.216 111.091L214.64 110.619C213.593 107.457 211.947 104.948 209.71 103.144C207.472 101.34 204.688 100.276 201.424 99.932L201.267 101.424ZM213.215 111.086C214.378 114.676 214.835 118.377 214.9 122.172L216.4 122.146C216.333 118.25 215.863 114.393 214.642 110.624L213.215 111.086ZM214.9 122.171C215.064 132.333 213.127 142.29 211.597 152.412L213.08 152.636C214.597 142.603 216.567 132.471 216.4 122.147L214.9 122.171ZM211.597 152.412C210.442 160.078 209.166 167.829 209.803 175.723L211.298 175.602C210.678 167.916 211.918 160.351 213.081 152.636L211.597 152.412ZM209.803 175.724C210.042 178.628 210.859 181.515 211.652 184.227L213.092 183.806C212.295 181.08 211.523 178.332 211.298 175.601L209.803 175.724ZM211.653 184.23C211.868 184.953 212.25 185.6 212.649 186.203C213.07 186.84 213.476 187.383 213.884 188.053L215.165 187.272C214.745 186.583 214.257 185.916 213.9 185.376C213.521 184.803 213.24 184.306 213.091 183.803L211.653 184.23ZM215.274 187.688C215.473 181.843 215.605 176.387 215.837 170.954L214.338 170.89C214.106 176.33 213.973 181.813 213.775 187.637L215.274 187.688ZM215.837 170.952C216.233 160.922 216.731 150.857 217.095 140.783L215.596 140.729C215.232 150.809 214.736 160.833 214.338 170.892L215.837 170.952ZM217.095 140.782C217.459 130.307 217.63 119.719 215.524 109.248L214.054 109.544C216.121 119.825 215.96 130.254 215.596 140.73L217.095 140.782ZM215.525 109.248C214.347 103.386 212.081 97.9431 207.923 93.4397L206.821 94.4572C210.743 98.7054 212.914 103.871 214.054 109.544L215.525 109.248ZM207.924 93.4403C206.327 91.7072 204.853 90.6169 203.191 90.4707C201.524 90.324 199.903 91.1469 198.066 92.5975L198.996 93.7746C200.769 92.3743 201.995 91.8712 203.06 91.9649C204.13 92.0591 205.271 92.7754 206.82 94.4567L207.924 93.4403ZM198.067 92.5968C195.624 94.521 193.09 95.9987 190.107 96.1834L190.2 97.6805C193.641 97.4674 196.471 95.7628 198.995 93.7753L198.067 92.5968ZM190.105 96.1835C186.519 96.4141 182.916 96.3805 179.246 96.4473L179.273 97.947C182.888 97.8812 186.569 97.9139 190.202 97.6804L190.105 96.1835ZM179.238 96.4475C176.901 96.5134 174.671 96.4803 172.372 96.4803V97.9803C174.643 97.9803 176.916 98.0136 179.281 97.9469L179.238 96.4475ZM139.362 179.988C142.06 179.098 144.782 178.311 147.529 177.722L147.215 176.255C144.399 176.859 141.624 177.663 138.892 178.563L139.362 179.988ZM147.527 177.722C148.913 177.429 150.121 177.488 151.145 177.9C152.161 178.308 153.067 179.092 153.808 180.379L155.108 179.631C154.227 178.1 153.08 177.061 151.704 176.508C150.335 175.958 148.811 175.918 147.217 176.255L147.527 177.722ZM153.811 180.384C154.624 181.775 155.667 183.104 156.458 184.245L157.69 183.39C156.826 182.143 155.882 180.954 155.106 179.626L153.811 180.384ZM157.76 184.122C157.956 183.678 158.157 183.1 158.307 182.732C158.48 182.307 158.65 181.974 158.869 181.719L157.73 180.744C157.352 181.185 157.109 181.697 156.917 182.167C156.703 182.694 156.589 183.061 156.389 183.513L157.76 184.122ZM158.859 181.73C160.209 180.214 161.661 178.929 163.141 177.413L162.067 176.365C160.699 177.766 159.104 179.199 157.739 180.733L158.859 181.73ZM163.134 177.419C163.316 177.237 163.523 176.991 163.681 176.729C163.76 176.598 163.839 176.444 163.892 176.276C163.942 176.116 163.988 175.885 163.932 175.632L162.468 175.958C162.445 175.854 162.47 175.797 162.462 175.824C162.456 175.842 162.437 175.887 162.396 175.954C162.314 176.09 162.19 176.242 162.073 176.359L163.134 177.419ZM173.546 137.247C173.816 140.082 174.211 142.833 174.118 145.482C174.026 148.102 173.455 150.528 171.84 152.669L173.037 153.572C174.899 151.105 175.519 148.343 175.617 145.535C175.715 142.756 175.299 139.838 175.039 137.105L173.546 137.247ZM171.839 152.67C169.956 155.172 167.636 157.296 165.377 159.626L166.453 160.671C168.631 158.426 171.079 156.174 173.038 153.572L171.839 152.67ZM165.377 159.625C164.781 160.238 164.146 160.818 163.488 161.431C162.837 162.037 162.17 162.67 161.549 163.36L162.665 164.363C163.237 163.726 163.861 163.133 164.51 162.529C165.151 161.932 165.824 161.318 166.453 160.671L165.377 159.625ZM161.556 163.353C161.229 163.708 161.083 164.148 160.992 164.475C160.883 164.864 160.845 165.092 160.746 165.346L162.144 165.89C162.277 165.548 162.371 165.112 162.436 164.879C162.518 164.586 162.588 164.446 162.659 164.37L161.556 163.353ZM161.208 166.329C161.476 166.419 161.677 166.532 162.065 166.695C162.389 166.831 162.829 166.99 163.308 166.964L163.224 165.466C163.107 165.472 162.935 165.433 162.646 165.312C162.422 165.218 162.01 165.016 161.682 164.907L161.208 166.329ZM163.288 166.964C168.208 166.824 171.854 164.343 174.51 160.545L173.281 159.685C170.837 163.18 167.596 165.341 163.245 165.465L163.288 166.964ZM174.512 160.541C177.085 156.817 177.722 152.532 177.955 148.289L176.458 148.206C176.228 152.384 175.606 156.319 173.278 159.689L174.512 160.541ZM205.22 29.0622H205.485V27.5622H205.22V29.0622ZM206.218 28.4713C206.304 28.0733 206.374 27.6641 206.442 27.2853C206.512 26.8982 206.582 26.5326 206.674 26.1808L205.222 25.8026C205.115 26.2133 205.037 26.6267 204.966 27.0186C204.894 27.4188 204.831 27.7886 204.752 28.153L206.218 28.4713ZM221.991 20.2224C221.034 21.5796 219.705 21.7598 217.996 21.6952L217.94 23.1942C219.741 23.2622 221.79 23.1109 223.217 21.0868L221.991 20.2224ZM217.991 21.695C214.741 21.5954 211.491 21.529 208.241 21.4958L208.225 22.9958C211.465 23.0289 214.705 23.0951 217.945 23.1943L217.991 21.695ZM208.257 21.4962C207.217 21.4626 206.145 21.4958 205.22 21.4958V22.9958C206.215 22.9958 207.196 22.9627 208.209 22.9954L208.257 21.4962ZM204.47 22.2458V28.3122H205.97V22.2458H204.47ZM222.409 18.5288C223.044 15.651 221.6 12.511 218.921 11.2268L218.273 12.5794C220.296 13.5494 221.435 15.9785 220.944 18.2058L222.409 18.5288ZM215.398 190.773C215.331 192.086 215.299 193.117 215.201 194.192L216.695 194.327C216.796 193.214 216.831 192.124 216.896 190.85L215.398 190.773ZM215.201 194.194C215.111 195.219 214.822 196.042 214.346 196.668C213.874 197.288 213.178 197.767 212.173 198.045L212.571 199.491C213.851 199.138 214.843 198.491 215.539 197.577C216.23 196.67 216.587 195.554 216.695 194.325L215.201 194.194ZM212.174 198.044C211.148 198.324 209.937 198.58 208.823 198.951L209.298 200.374C210.37 200.017 211.41 199.808 212.57 199.491L212.174 198.044ZM208.806 198.957C207.973 199.257 206.983 199.654 206.189 200.26L207.098 201.452C207.695 200.998 208.492 200.665 209.315 200.368L208.806 198.957ZM206.178 200.268C205.663 200.677 205.271 201.304 205.477 202.004C205.674 202.674 206.308 203.012 206.909 203.119L207.173 201.643C207.025 201.616 206.944 201.574 206.91 201.55C206.879 201.528 206.902 201.533 206.916 201.581C206.923 201.603 206.924 201.624 206.922 201.64C206.921 201.655 206.918 201.658 206.923 201.647C206.934 201.623 206.978 201.548 207.109 201.444L206.178 200.268ZM206.922 203.122C207.359 203.191 207.865 203.249 208.37 203.234C208.869 203.22 209.418 203.135 209.906 202.879L209.209 201.551C209.001 201.66 208.706 201.724 208.328 201.735C207.955 201.745 207.551 201.703 207.16 201.64L206.922 203.122ZM220.17 199.973C220.328 200.106 220.578 200.331 220.803 200.503C221.045 200.689 221.344 200.884 221.704 201.004L222.179 199.581C222.042 199.535 221.894 199.449 221.714 199.312C221.517 199.16 221.369 199.021 221.131 198.822L220.17 199.973ZM221.685 200.997C222.107 201.151 222.526 201.243 222.911 201.315C223.317 201.392 223.646 201.442 223.994 201.521L224.326 200.059C223.946 199.972 223.529 199.906 223.19 199.842C222.83 199.773 222.505 199.699 222.198 199.588L221.685 200.997ZM224.908 200.84C225.015 199.249 224.774 197.925 224.268 196.794C223.762 195.666 223.011 194.77 222.154 194.009C221.302 193.254 220.33 192.618 219.376 192.02C218.406 191.412 217.464 190.849 216.591 190.207L215.703 191.416C216.634 192.101 217.646 192.706 218.579 193.291C219.528 193.885 220.408 194.465 221.158 195.131C221.903 195.792 222.503 196.522 222.899 197.407C223.293 198.288 223.504 199.363 223.412 200.74L224.908 200.84ZM236.455 206.463C236.072 204.254 234.962 202.666 233.079 201.839C231.258 201.04 228.826 201.004 225.871 201.578L226.158 203.051C228.998 202.498 231.068 202.595 232.476 203.213C233.822 203.803 234.665 204.917 234.977 206.719L236.455 206.463ZM167.074 109.019H167.803V107.519H167.074V109.019ZM168.519 108.491C169.411 105.614 170.341 102.687 171.204 99.7631L169.765 99.3385C168.906 102.249 167.982 105.156 167.086 108.047L168.519 108.491ZM168.434 97.9257C168.252 98.13 168.043 98.3399 167.812 98.5717C167.586 98.7972 167.34 99.0432 167.115 99.2958C166.687 99.7751 166.204 100.412 166.129 101.167L167.622 101.316C167.646 101.076 167.826 100.752 168.234 100.295C168.426 100.079 168.642 99.863 168.873 99.6317C169.098 99.4067 169.339 99.1649 169.555 98.9217L168.434 97.9257ZM166.129 101.168C165.89 103.59 166.23 106.08 166.325 108.301L167.823 108.237C167.72 105.818 167.397 103.6 167.622 101.315L166.129 101.168ZM171.864 96.0369V91.6943H170.364V96.0369H171.864ZM197.92 17.8015C197.285 18.1317 196.867 18.7735 197.072 19.5028C197.256 20.1547 197.86 20.558 198.511 20.6929L198.816 19.2241C198.672 19.1944 198.586 19.1464 198.543 19.1124C198.5 19.0781 198.508 19.066 198.516 19.0965C198.52 19.1117 198.523 19.1323 198.521 19.1554C198.518 19.1786 198.511 19.1957 198.507 19.2048C198.497 19.2232 198.508 19.1861 198.612 19.132L197.92 17.8015ZM307.769 166.945C317.354 157.4 327.489 153.038 340.291 152.644C353.152 152.249 368.728 155.856 389.175 162.355L389.63 160.925C369.171 154.423 353.382 150.741 340.245 151.145C327.051 151.551 316.557 156.076 306.71 165.882L307.769 166.945ZM389.154 162.348C391.486 163.165 392.884 163.854 393.834 164.479C394.772 165.097 395.3 165.669 395.895 166.325C396.503 166.995 397.173 167.744 398.352 168.601C399.523 169.452 401.174 170.395 403.754 171.511L404.35 170.135C401.834 169.046 400.288 168.154 399.234 167.387C398.188 166.627 397.605 165.977 397.006 165.317C396.394 164.642 395.762 163.953 394.659 163.226C393.568 162.508 392.045 161.772 389.651 160.932L389.154 162.348ZM188.332 28.1133L189.751 28.5993L189.897 28.1753L189.785 27.7411L188.332 28.1133ZM187.438 24.5994L186.048 25.1627L186.048 25.1635L187.438 24.5994ZM179.955 17.3065L179.475 18.7277L179.476 18.728L179.955 17.3065ZM154.491 19.3286L153.842 17.9765L153.838 17.9784L154.491 19.3286ZM150.154 23.9696L151.511 24.6084L151.514 24.6016L151.517 24.5948L150.154 23.9696ZM148.597 33.0857L147.098 33.1335L147.098 33.134L148.597 33.0857ZM151.61 35.8703L151.521 34.3729L151.515 34.3733L151.61 35.8703ZM161.577 34.8758L161.37 33.3902L161.369 33.3903L161.577 34.8758ZM183.001 33.9476L183.22 32.4636L183.208 32.4619L183.001 33.9476ZM187.173 31.6603L188.493 32.3741L188.509 32.3445L188.523 32.3141L187.173 31.6603ZM137.405 184.447L136.828 183.063L135.822 183.482L135.91 184.569L137.405 184.447ZM140.054 198.735L138.675 199.324L138.678 199.331L140.054 198.735ZM147.273 208.215L146.347 209.396L146.355 209.402L147.273 208.215ZM150.054 209.177L149.595 210.605L151.698 211.281L151.551 209.077L150.054 209.177ZM149.789 206.193L148.385 206.719L148.392 206.739L148.4 206.759L149.789 206.193ZM147.703 202.447L146.417 203.218L146.423 203.229L146.429 203.239L147.703 202.447ZM143.995 192.304L142.5 192.428L142.501 192.446L142.503 192.463L143.995 192.304ZM143.995 192.303L145.489 192.179L145.488 192.157L145.485 192.136L143.995 192.303ZM142.968 184.348L144.449 184.107L144.449 184.106L142.968 184.348ZM140.518 183.121L139.955 181.731L139.944 181.735L140.518 183.121ZM204.061 32.257L204.61 30.8611L203.546 30.4426L202.86 31.3576L204.061 32.257ZM203.763 32.6879L202.562 31.7886L201.936 32.6243L202.503 33.5015L203.763 32.6879ZM209.061 40.9422L207.799 41.7527L208.841 43.376L210.157 41.9657L209.061 40.9422ZM210.12 36.1355L211.182 35.0754L211.182 35.0754L210.12 36.1355ZM206.842 33.3509L206.009 34.5986L206.842 33.3509ZM191.445 34.6438L190.026 34.1578L189.04 37.0376L191.924 36.0652L191.445 34.6438ZM200.683 31.4946L201.163 32.9159L203.797 32.0273L201.608 30.3135L200.683 31.4946ZM189.785 27.7411C189.628 27.1265 189.528 26.5885 189.388 25.9476C189.255 25.342 189.092 24.6865 188.828 24.0354L186.048 25.1635C186.215 25.5731 186.334 26.0282 186.457 26.5911C186.573 27.1187 186.706 27.8072 186.879 28.4855L189.785 27.7411ZM188.828 24.0361C187.261 20.1671 184.44 17.2343 180.434 15.885L179.476 18.728C182.556 19.7655 184.768 22.004 186.048 25.1627L188.828 24.0361ZM180.434 15.8853C171.266 12.7908 162.349 13.8896 153.842 17.9765L155.141 20.6807C163.057 16.878 171.16 15.9215 179.475 18.7277L180.434 15.8853ZM153.838 17.9784C151.475 19.1216 149.831 21.0744 148.79 23.3444L151.517 24.5948C152.331 22.8205 153.534 21.4583 155.145 20.6789L153.838 17.9784ZM148.796 23.3307C147.296 26.5178 146.995 29.903 147.098 33.1335L150.096 33.0379C150.001 30.0363 150.296 27.1894 151.511 24.6084L148.796 23.3307ZM147.098 33.134C147.136 34.3106 147.404 35.5305 148.318 36.3907C149.245 37.2626 150.49 37.4446 151.706 37.3673L151.515 34.3733C150.645 34.4286 150.417 34.246 150.374 34.2062C150.32 34.1548 150.125 33.9162 150.096 33.0374L147.098 33.134ZM151.7 37.3677C155.084 37.1664 158.435 36.8309 161.786 36.3613L161.369 33.3903C158.097 33.8489 154.826 34.1764 151.521 34.373L151.7 37.3677ZM161.785 36.3614C168.926 35.3639 175.879 34.4717 182.795 35.4333L183.208 32.4619C175.819 31.4345 168.467 32.3988 161.37 33.3902L161.785 36.3614ZM182.783 35.4316C184.181 35.6375 185.39 35.4392 186.412 34.792C187.387 34.1741 188.017 33.2528 188.493 32.3741L185.854 30.9465C185.469 31.659 185.139 32.0471 184.806 32.2579C184.519 32.4395 184.073 32.5892 183.22 32.4636L182.783 35.4316ZM188.523 32.3141C188.847 31.6462 189.066 30.9472 189.244 30.3259C189.434 29.6639 189.569 29.1322 189.751 28.5993L186.913 27.6273C186.698 28.2547 186.518 28.9495 186.361 29.4974C186.192 30.0861 186.03 30.5804 185.823 31.0065L188.523 32.3141ZM135.91 184.569C136.302 189.372 136.606 194.48 138.675 199.324L141.434 198.145C139.595 193.84 139.303 189.268 138.9 184.325L135.91 184.569ZM138.678 199.331C140.391 203.287 142.923 206.71 146.347 209.396L148.199 207.035C145.198 204.682 142.962 201.674 141.431 198.138L138.678 199.331ZM146.355 209.402C146.963 209.872 147.666 210.099 148.196 210.243C148.862 210.424 149.146 210.46 149.595 210.605L150.514 207.749C150.036 207.595 149.293 207.432 148.982 207.348C148.535 207.227 148.311 207.122 148.191 207.029L146.355 209.402ZM151.551 209.077C151.518 208.589 151.55 208.301 151.533 207.611C151.519 207.051 151.466 206.333 151.179 205.628L148.4 206.759C148.477 206.949 148.523 207.225 148.534 207.684C148.542 208.013 148.524 208.77 148.558 209.276L151.551 209.077ZM151.194 205.667C150.63 204.161 149.68 202.787 148.978 201.656L146.429 203.239C147.25 204.561 147.955 205.574 148.385 206.719L151.194 205.667ZM148.99 201.676C147.166 198.633 145.852 195.563 145.486 192.144L142.503 192.463C142.932 196.469 144.466 199.963 146.417 203.218L148.99 201.676ZM145.489 192.179L145.489 192.179L142.5 192.428L142.5 192.428L145.489 192.179ZM145.485 192.136C145.188 189.49 144.886 186.801 144.449 184.107L141.487 184.588C141.911 187.198 142.205 189.813 142.504 192.471L145.485 192.136ZM144.449 184.106C144.313 183.276 144.003 182.07 142.869 181.533C142.32 181.273 141.761 181.267 141.302 181.335C140.849 181.401 140.391 181.554 139.955 181.731L141.08 184.512C141.245 184.445 141.382 184.396 141.496 184.361C141.61 184.326 141.689 184.31 141.738 184.303C141.842 184.287 141.749 184.322 141.585 184.245C141.504 184.206 141.44 184.156 141.395 184.109C141.354 184.065 141.344 184.039 141.352 184.055C141.36 184.072 141.381 184.119 141.408 184.212C141.434 184.305 141.461 184.428 141.488 184.589L144.449 184.106ZM139.944 181.735C139.452 181.939 138.961 182.151 138.454 182.369C137.945 182.589 137.414 182.818 136.828 183.063L137.983 185.831C138.588 185.579 139.134 185.343 139.643 185.124C140.154 184.904 140.624 184.701 141.092 184.507L139.944 181.735ZM202.86 31.3576C202.781 31.4634 202.708 31.5743 202.663 31.641C202.608 31.7234 202.582 31.7617 202.562 31.7886L204.963 33.5873C205.042 33.4815 205.116 33.3707 205.16 33.3039C205.215 33.2215 205.241 33.1832 205.261 33.1564L202.86 31.3576ZM202.503 33.5015C204.257 36.2183 206.007 38.9624 207.799 41.7527L210.323 40.1317C208.539 37.3529 206.779 34.5941 205.023 31.8743L202.503 33.5015ZM210.157 41.9657C211.179 40.8712 211.942 39.7208 212.199 38.5327C212.481 37.2284 212.119 36.0143 211.182 35.0754L209.059 37.1956C209.28 37.417 209.332 37.5952 209.267 37.8986C209.176 38.3183 208.83 38.9911 207.964 39.9187L210.157 41.9657ZM211.182 35.0754C210.16 34.0523 208.986 32.9787 207.675 32.1033L206.009 34.5986C207.082 35.3144 208.094 36.2298 209.059 37.1956L211.182 35.0754ZM207.675 32.1033C207.107 31.7242 206.489 31.4915 205.98 31.3202C205.4 31.1251 205.032 31.0273 204.61 30.8611L203.512 33.6529C204.016 33.8514 204.642 34.0353 205.023 34.1634C205.474 34.3153 205.783 34.4473 206.009 34.5986L207.675 32.1033ZM191.924 36.0652C193.551 35.5168 195.102 34.9853 196.625 34.4633C198.149 33.9409 199.644 33.4283 201.163 32.9159L200.204 30.0732C198.677 30.5884 197.175 31.1035 195.652 31.6253C194.129 32.1476 192.584 32.6768 190.966 33.2224L191.924 36.0652ZM201.608 30.3135C199.77 28.8745 197.169 28.891 195.074 29.5808C192.952 30.2792 190.822 31.8328 190.026 34.1578L192.864 35.1298C193.26 33.9741 194.457 32.942 196.012 32.4304C197.592 31.9103 199.014 32.0925 199.759 32.6756L201.608 30.3135Z" fill="#4A5055" mask="url(#path-1-outside-1_38_1343)"/>
<path d="M166.559 69.0632C167.763 70.5538 168.766 71.7864 169.769 73.0189C167.934 72.9903 166.817 71.5284 166.559 69.0632Z" fill="white"/>
<path d="M111 135C155 92.0001 88.5 -11 187 2.50012" stroke="#FF6A39" stroke-width="2"/>
<path d="M246 128C266.315 212.922 329.5 90.5001 402.5 123.5" stroke="#A05EB5" stroke-width="2"/>
<path d="M1.5 218.5C16.6139 188.779 91.5 199 122.5 163.5" stroke="#009F4D" stroke-width="2"/>
</svg>
