<svg width="414" height="246" viewBox="0 0 414 246" fill="none" xmlns="http://www.w3.org/2000/svg">
<path d="M241.817 221.529C235.221 202.597 230.189 191.843 212.637 171.764C201.199 154.932 200.791 146.921 202.448 133.198L202.391 114.082C191.386 96.8837 184.19 89.8263 171.287 77.4095L164.912 73.9882C162.612 73.5734 162.612 75.8219 164.015 77.4869L172.333 83.2953L185.932 105.166L186.197 125.459C186.197 125.459 182.816 120.278 181.582 116.564C179.696 110.888 179.625 107.599 179.625 101.294C179.625 98.4061 179.982 95.7683 177.367 94.5444C175.749 93.7876 174.497 93.9054 172.796 94.4456C170.102 95.3006 171.495 98.4764 171.712 101.294C172.108 106.437 173.256 112.324 172.582 120.591C172.264 124.502 170.715 126.485 170.377 130.394C169.814 136.911 169.895 141.078 172.716 146.979C174.517 150.747 176.851 152.04 179.098 155.56C182.436 160.791 183.435 164.219 186.178 169.785C195.918 189.547 210.407 220.733 210.407 220.733C210.407 220.733 218.085 235.836 223.005 245.514M173.555 91.8822C157.293 73.8236 133.436 76.2399 119.987 96.2364M168.507 130.119C153.296 141.907 143.878 145.423 120.787 129.792M161.243 75.5507C148.596 69.2969 133.463 69.5563 121.218 82.6602M124.409 86.9507C124.409 86.9507 112.046 85.0477 110.86 79.0357C110.655 77.9986 110.473 77.3704 110.684 76.3347C111.445 72.6004 119.139 81.208 119.139 81.208L114.424 76.8846C114.424 76.8846 110.478 72.5383 107.356 72.9794C103.908 73.4663 101.76 76.2956 101.58 79.7733C101.391 83.4226 104.562 84.7157 107.164 87.2817C111.05 91.1141 119.085 94.5752 119.085 94.5752M130.297 210.677L120.897 135.54C120.897 135.54 120.882 122.633 117.342 115.528C115.989 112.812 115.983 110.062 113.145 108.988C111.688 108.437 109.162 108.785 109.162 108.785C109.849 99.4652 112.843 91.5016 105.47 89.7077C103.957 89.3395 103.042 89.5838 101.487 89.5044C99.9318 89.425 100.462 93.3525 100.333 95.7299C100.11 99.8607 100.19 106.128 100.19 106.128C100.017 106.804 99.813 107.92 99.8342 108.852M108.678 109.478C108.275 110.055 107.854 111.539 106.742 112.25C104.543 113.656 100.333 110.353 100.333 110.353C100.333 110.353 99.8495 109.529 99.8342 108.852M101.003 90.1975C101.003 90.1975 98.858 88.2549 97.1908 87.5353C95.8958 86.9764 95.055 86.2755 93.6922 86.6389C91.5942 87.1983 91.2391 91.6283 91.2391 91.6283C91.219 94.3641 91.1482 97.8733 90.9992 99.8473C90.8815 101.407 90.3542 105.447 91.6746 109.462C92.3269 111.446 94.778 111.495 96.8015 110.98C98.2035 110.623 99.8342 108.852 99.8342 108.852M90.3368 89.9671C89.1356 88.3919 89.3309 87.2241 87.4384 86.6389C85.7325 86.1114 83.1335 86.0382 81.6067 86.9641C79.8608 88.0229 79.324 89.4947 79.7422 91.849C80.1604 94.2034 80.9693 99.0991 80.8593 99.8473C80.7494 100.595 82.2036 104.567 82.9445 106.459C83.6854 108.351 84.9433 109.213 86.7568 109.121C88.7625 109.02 90.3542 105.447 90.3542 105.447M77.3162 90.1549C77.3162 90.1549 78.4547 86.3097 77.0684 85.3416C75.6821 84.3735 72.2164 81.9533 72.2164 81.9533C71.6619 81.5661 67.2327 84.66 67.2327 84.66L68.801 93.4889C68.8428 94.5429 69.2913 95.8896 69.2384 98.1038C69.1982 99.7868 69.4198 101.758 69.7807 102.422C70.1415 103.087 71.0633 104.93 73.5929 105.085C75.4351 105.197 76.9091 104.474 77.746 102.829C78.3384 101.665 77.9427 99.4516 77.9427 98.4994M65.0991 96.5751C65.0991 96.5751 66.5892 92.5907 66.6499 89.9244C66.7084 87.3571 66.6748 85.7334 65.4999 83.4499C64.4185 81.3482 63.7005 79.4386 61.374 79.022C60.5615 78.8765 60.0493 78.847 59.2616 79.0936C56.5058 79.9563 59.3843 83.653 58.7505 86.4703C58.1529 89.1265 56.9331 90.3444 56.2644 92.9835C55.4296 96.2786 54.9257 98.2725 55.3738 101.642C56.0356 106.619 59.0884 108.542 61.3429 113.029C62.8693 116.066 63.3158 117.996 65.161 120.851C69.4853 127.541 80.5862 134.2 80.5862 134.2C82.9315 136.01 87.3802 139.976 87.3802 139.976C87.3802 139.976 89.4821 151.24 90.6541 156.698C91.8261 162.157 92.1352 180.418 92.1352 180.418L96.8016 230.844M113.42 107.118L147.877 107.979L150.847 100.773C147.902 99.5757 141.777 97.2232 140.835 97.3905C139.894 97.5577 120.588 97.3439 111.054 97.2161M170.929 159.136L153.019 184.783L134.665 214.758M165.148 160.77L130.868 195.092M130.471 180.895C130.471 180.895 134.206 176.285 135.592 177.253C137.325 178.463 149.987 167.713 151.995 167.053C154.003 166.393 143.932 158.877 141.174 152.278C139.593 148.495 136.715 145.845 138.462 142.135C141.156 136.41 151.127 141.846 153.705 147.624C155.05 150.639 151.682 153.714 153.991 156.073C156.878 159.022 160.683 155.822 164.33 153.892C166.001 153.007 168.288 151.105 168.288 151.105M274.132 71.8917C274.132 71.8917 273.805 74.9126 274.38 76.705C276.152 82.2339 284.834 83.146 288.341 81.8145C291.849 80.4831 296.414 77.0125 301.186 78.9258C306.195 80.9344 307.361 85.4028 308.436 90.6919C309.408 95.4688 306.852 98.2183 306.996 103.091C307.192 109.751 322.97 154.417 324.314 159.136L347.563 230.844M204.51 119.17C208.292 115.969 216.217 109.198 217.656 107.728C219.455 105.89 244.505 86.2618 244.505 86.2618C244.505 86.2618 257.503 76.2622 262.288 71.8704C262.288 71.8704 274.461 62.9213 282.124 65.6147C285.551 66.819 286.409 69.5123 289.749 70.9392C292.878 72.2763 295.153 71.3978 298.27 72.765C301.293 74.0913 302.955 75.1854 305.201 77.6054C309.313 82.0364 309.466 86.1907 310.516 92.144C311.21 96.0794 310.526 98.4068 311.116 102.359C311.966 108.045 313.748 112.618 315.149 116.518L358.554 230.844M123.067 94.7785C131.708 79.9046 156.819 79.2264 167.08 93.0322C176.39 105.558 172.757 125.062 158.847 132.139C150.113 136.582 142.29 135.977 133.774 131.128C120.915 123.805 115.634 107.574 123.067 94.7785Z" stroke="#4A5055" stroke-width="1.34521"/>
<path d="M73.0001 217C77.0003 156.418 25.5 103.5 38.0002 72.5" stroke="#009F4D" stroke-width="2"/>
<path d="M55 53C121.382 35.631 158.025 28.7699 212 73.5" stroke="#FF6A39" stroke-width="2"/>
<path d="M232 68.5001C290.5 31.0001 363 48.0002 373 195.5" stroke="#A05EB5" stroke-width="2"/>
</svg>
