<svg width="544" height="521" viewBox="0 0 544 521" fill="none" xmlns="http://www.w3.org/2000/svg">
                    <path d="M535.153 518.796C433.693 515.427 383.297 514.091 281.808 514.091C266.657 514.091 270.176 498.929 273.258 488.096C276.69 476.1 275.904 476.333 287.071 478.627C299.052 481.096 339.386 485.743 345.348 485.569C349.768 485.424 358.259 484.465 365.267 484.204C376.463 483.768 385.827 488.88 394.348 495.822C401.24 501.427 401.647 509.356 392.312 508.398C388.735 508.02 384.431 507.439 381.872 506.713C373.09 504.245 392.254 502.821 392.108 509.85C392.021 514.555 390.247 513.684 384.955 512.145C382.105 511.302 379.866 510.228 377.452 509.415C366.198 505.581 324.41 508.543 309.114 507.788C300.797 507.381 291.462 507.585 286.257 507.585C272.851 507.585 270.641 504.796 275.236 492.423C279.278 481.503 272.298 473.08 262.44 469.333C250.547 464.802 230.365 463.001 225.799 460.881C220.391 458.383 186.629 451.325 178.835 451.238C171.042 451.122 161.067 449.583 154.524 450.105C147.981 450.628 137.076 453.213 140.798 454.143C143.183 454.723 144.113 452.429 145.451 450.657C147.748 447.549 157.17 448.188 160.747 448.537C169.995 449.495 179.766 448.827 189.042 450.454C193.433 451.209 201.459 454.404 204.687 450.831C210.038 444.906 215.098 423.094 232.72 432.475C239.38 435.99 243.945 439.533 251.623 441.189C259.3 442.844 288.816 439.736 302.716 437.878C316.646 436.019 319.757 434.77 322.665 434.363C325.573 433.957 343.225 428.961 352.996 427.509C362.767 426.056 381.262 423.762 387.485 425.011C393.708 426.26 403.072 432.069 403.479 429.368C403.886 426.666 390.596 426.463 383.646 426.26C361.836 425.621 342.352 433.434 321.124 436.542C316.878 437.151 310.83 438.11 307.514 438.72C304.199 439.33 280.935 442.67 277.387 443.396C269.041 445.11 269.303 452.777 269.478 460.416C269.798 474.125 264.999 468.055 254.618 464.889C241.474 460.881 228.591 462.13 213.789 455.856C205.763 452.458 210.067 443.454 215.476 438.488C222.135 432.417 237.112 435.438 243.48 440.608C247.319 443.716 246.185 444.238 253.774 445.168C262.731 446.271 270.525 441.014 268.634 451.093C268.024 454.404 266.657 461.665 267.297 464.686C268.809 471.976 272.822 472.934 278.987 474.3C286.344 475.897 298.587 478.133 307.34 479.702C328.714 483.478 349.681 481.619 371.374 482.025C395.278 482.49 480.919 477.32 462.773 433.056C457.161 419.347 447.39 414.177 434.507 410.634C421.625 407.119 394.202 408.978 374.893 411.244C338.339 415.571 350.146 425.969 331.738 386.643C322.985 367.967 325.37 374.676 310.917 377C296.668 379.266 238.246 383.128 220.972 371.801C213.208 366.718 218.355 357.54 216.988 348.362C214.778 333.346 207.537 327.189 228.62 327.189C233.36 327.189 257.758 324.952 275.701 325.272C288.525 325.504 310.684 331.342 320.222 324.487C335.548 313.479 330.691 267.008 326.009 250.685C323.334 241.274 320.833 230.092 319.379 225.939C311.469 202.965 304.694 190.882 322.694 191.899C329.964 192.305 355.933 196.865 364.657 211.62C373.381 226.346 373.177 249.175 372.13 255.826C364.162 306.77 397.023 368.49 445.267 388.821C461.464 395.647 468.618 392.19 483.158 397.041C487.433 398.464 491.359 399.858 492.842 399.916C507.295 400.468 494.47 406.858 489.41 407.177C482.751 407.584 482.257 407.787 479.843 406.132C477.458 404.476 475.888 398.551 478.069 400.73C480.25 402.908 484.089 407.671 479.32 409.123C474.55 410.576 470.479 410.459 466.757 408.513C463.006 406.538 457.829 401.775 462.191 403.024C466.553 404.273 465.71 409.24 464.372 411.941C463.035 414.642 461.145 421.061 463.965 425.417C466.757 429.774 465.012 429.048 469.054 430.094C473.096 431.139 475.19 429.164 476.324 430.82C477.458 432.475 484.641 432.882 486.706 431.139C488.771 429.397 490.225 430.21 491.795 431.459C493.365 432.708 497.611 432.911 499.269 431.343C500.926 429.774 502.177 430.413 503.834 431.662C505.492 432.911 507.266 431.139 508.516 429.077C509.33 427.741 510.726 422.716 511.511 418.621C513.14 410.111 506.684 405.987 504.27 416.443C503.66 419.086 503.194 421.787 503.194 422.978C503.194 424.837 502.874 428.99 504.445 428.061C506.015 427.131 503.921 425.04 502.874 419.028C501.828 413.015 503.078 408.862 500.693 408.136C498.309 407.41 496.448 407.613 495.924 413.015C495.401 418.418 493.54 423.907 492.696 425.359C491.853 426.812 490.399 429.513 492.696 427.944C494.994 426.376 491.446 425.04 491.446 420.567C491.446 416.094 493.423 414.642 491.766 411.97C490.108 409.269 485.834 408.949 485.107 412.376C484.38 415.804 483.449 419.55 480.745 422.019C478.04 424.517 475.248 428.031 477.633 427.218C480.018 426.405 478.04 422.252 480.134 418.621C482.199 414.99 484.089 413.219 482.431 411.97C480.774 410.721 477.139 409.908 474.958 414.468C472.777 419.028 469.752 422.774 467.077 423.384C464.372 423.994 464.285 430.036 453.351 424.227C448.466 421.613 444.627 418.36 441.661 415.455C427.295 401.339 411.01 400.613 391.643 392.8C374.224 385.772 353.984 367.967 350.088 348.507C343.457 315.454 338.572 301.106 336.885 265.614C336.478 256.9 341.451 245.805 342.905 249.32C344.359 252.834 337.205 263.116 333.774 261.78C330.342 260.444 330.022 257.22 329.208 255.245C328.365 253.27 318.827 214.466 317.373 205.55C314.959 190.824 297.569 169.302 303.443 198.695C304.083 201.861 306.293 219.898 305.45 232.881C303.589 261.722 231.528 271.713 225.741 232.706C224.898 227.101 231.354 201.57 233.622 193.293C236.414 183.098 243.364 182.808 243.713 165.991C243.858 159.049 242.928 152.688 241.503 150.132C239.438 146.386 238.188 139.967 236.734 137.469C235.28 134.971 237.577 132.183 237.868 134.361C238.188 136.54 237.141 137.585 234.64 136.859C225.392 134.158 221.612 102.819 231.034 111.735C233.535 114.088 235.745 117.719 233.796 117.864C230.888 118.067 233.796 107.698 233.796 104.794C233.796 102.412 236.704 89.4872 243.247 82.3713C251.361 73.5127 273.665 73.8612 283.669 78.247C292.189 81.9937 298.849 91.317 300.506 98.3749C304.781 116.528 307.776 113.217 308.561 98.1716C309.172 86.3794 305.653 68.488 291.375 59.5713C273.985 48.7086 264.011 53.0072 258.02 54.6918C248.424 57.3929 251.099 42.8706 256.886 43.0739C263.109 43.2772 275.585 43.0739 281.401 44.7294C294.138 48.36 295.592 39.5595 287.478 35.2028C284.309 33.4892 279.481 32.066 272.677 31.2237C257.817 29.3939 242.026 39.3562 266.453 40.547C274.77 40.9536 277.475 41.5926 282.04 42.4059C292.218 44.2647 292.131 57.5091 284.425 53.5009C282.04 52.252 277.271 50.7998 273.404 50.7998C256.508 50.7998 238.304 60.733 232.372 77.5789C229.871 84.6368 227.486 99.1591 228.94 101.947C230.394 104.736 231.644 103.516 232.982 98.433C234.32 93.3502 235.163 74.6745 264.04 73.2222C292.916 71.77 301.844 92.5079 302.891 97.9102C303.938 103.312 306.933 121.146 304.461 119.49C301.96 117.835 306.235 111.59 309.55 110.893C312.865 110.196 312.138 115.773 310.684 121.465C309.23 127.158 305.799 129.772 303.938 134.652C302.076 139.531 297.918 136.307 299.692 135.901C301.466 135.494 300.622 136.743 299.488 142.116C294.894 163.783 271.077 180.223 252.117 163.783C249.005 161.082 241.561 152.369 245.254 153.618C247.639 154.431 248.336 160.066 247.522 166.397C246.417 174.995 240.514 190.359 230.51 190.359C226.148 190.359 223.444 194.309 222.63 196.575C221.815 198.84 212.248 230.179 211.608 232.271C210.969 234.362 205.589 253.444 204.542 259.05C203.815 262.913 202.826 270.203 201.169 273.369C196.37 282.605 188.461 242.262 194.567 246.183C198.377 248.623 197.185 268.431 195.469 284.435C191.979 316.645 180.929 350.366 165.487 378.133C163.423 381.88 147.399 399.916 134.953 408.223C122.478 416.53 115.004 420.683 111.049 423.588C107.094 426.492 100.668 430.645 94.212 436.251C87.7853 441.857 84.8482 442.263 81.2132 447.782C77.5782 453.271 73.3034 452.545 71.4423 451.006C69.5812 449.437 68.7379 450.163 65.3064 451.325C61.875 452.458 57.6293 451.935 56.1753 449.554C54.7213 447.172 54.4014 445.603 51.9296 446.969C49.4287 448.305 46.8406 444.994 43.2055 444.79C39.5705 444.587 37.7966 447.085 36.6625 443.657C35.8774 441.334 36.1682 434.537 36.4299 429.6C36.8661 421.09 43.4091 414.09 44.6595 427.218C45.0085 430.878 45.0085 435.06 44.8631 436.396C44.6595 438.458 46.1136 444.064 44.1361 441.276C42.1587 438.488 46.3171 436.6 46.3171 432.446C46.3171 428.293 47.7711 422.891 50.0684 419.696C55.3901 412.202 54.9248 426.87 54.634 429.658C54.2269 433.811 53.18 437.761 53.18 439.94C53.18 442.118 53.2963 445.139 52.1331 443.251C50.9699 441.363 56.1753 437.849 56.2916 434.131C56.3497 432.069 56.815 429.861 57.3966 427.915C60.2465 418.243 65.539 423.21 65.0447 429.948C64.7539 433.928 63.9978 438.633 64.4049 441.479C64.9284 445.226 65.2482 450.919 63.9978 449.263C62.7474 447.608 69.2904 448.218 69.8138 445.516C70.3373 442.815 66.7895 440.434 67.6328 435.554C68.4761 430.675 72.402 432.127 74.1758 436.6C75.9497 441.073 79.2649 449.466 77.4037 447.811C75.5426 446.155 76.8803 440.666 79.7883 437.122C82.6963 433.608 84.1503 422.281 85.6043 424.982C87.0583 427.683 81.9693 429.222 77.4037 429.658C72.8382 430.065 68.5634 428.322 66.9058 424.662C65.2482 421.032 62.0204 419.783 59.7521 419.696C54.9248 419.463 53.529 407.555 66.9058 412.115C70.8607 413.451 76.6767 413.161 79.1485 415.019C81.6203 416.878 84.6447 412.725 86.0987 411.505C87.5527 410.256 109.043 388.473 109.886 385.975C110.526 384.087 125.764 366.137 135.448 354.229C149.202 337.325 163.335 294.136 159.119 274.56C155.804 259.195 159.526 218.126 173.659 207.321C187.792 196.546 209.602 194.455 213.76 195.297C223.822 197.301 205.531 236.482 204.193 246.125C197.126 297.824 210.212 287.688 210.212 317.517C210.212 324.371 214.167 324.575 219.14 323.936C224.113 323.326 275.236 324.139 281.866 323.732C288.496 323.326 300.361 323.122 304.519 323.122C308.678 323.122 321.56 319.375 320.717 334.333C319.873 349.262 317.198 356.524 319.059 363.581C320.92 370.639 316.558 372.295 310.742 373.544C304.926 374.793 297.453 377.291 288.729 377.291C280.005 377.291 273.782 377.087 264.621 377.697C255.49 378.307 247.988 376.652 240.107 374.996C232.226 373.34 227.544 369.39 223.269 369.594C212.277 370.146 211.521 373.428 207.246 382.199C203.059 390.738 197.475 403.576 196.05 410.895C193.986 421.671 190.642 423.965 184.215 423.965C177.788 423.965 146.411 426.26 132.278 427.915C112.3 430.268 82.6672 436.948 76.3859 460.271C74.9319 465.673 76.793 482.693 89.472 490.971C102.151 499.278 118.756 500.295 126.665 501.979C134.546 503.635 181.51 510.489 196.894 510.489C209.515 510.489 242.637 509.095 256.246 508.688C267.5 508.369 271.862 516.414 261.074 518.244C245.661 520.858 223.647 519.813 207.624 519.696C154.67 519.261 36.8952 517.925 36.8952 517.925" stroke="#131E29" stroke-width="2" stroke-miterlimit="2.6131"></path>
                    <path d="M0.65332 402C83.5958 378.555 137.978 323.259 128.653 181.5" stroke="#FF6A39" stroke-width="2"></path>
                    <path d="M143.153 147.5C192.153 119 148.153 16.5 243.653 1.5" stroke="#009F4D" stroke-width="2"></path>
                    <path d="M392.153 161C386.13 284.462 420.02 338.23 542.653 408.5" stroke="#A05EB5" stroke-width="2"></path>
                  </svg>