<svg width="102" height="14" viewBox="0 0 102 14" fill="none" xmlns="http://www.w3.org/2000/svg">
<g clip-path="url(#clip0_528_3058)">
<path d="M69.5842 0.602539C68.2994 0.603699 67.0438 0.977718 65.9761 1.67732C64.9084 2.37692 64.0765 3.37069 63.5856 4.53301C63.0948 5.69533 62.967 6.97402 63.2184 8.20744C63.4697 9.44086 64.089 10.5736 64.9979 11.4626C65.9069 12.3515 67.0646 12.9567 68.3248 13.2016C69.585 13.4466 70.8912 13.3203 72.0781 12.8387C73.265 12.3571 74.2794 11.5419 74.993 10.496C75.7067 9.45021 76.0876 8.22071 76.0876 6.96299C76.0857 5.27567 75.3997 3.65811 74.1803 2.46554C72.9609 1.27298 71.3079 0.602926 69.5842 0.602539ZM69.5842 12.3513C68.4952 12.3513 67.4306 12.0352 66.5252 11.4429C65.6197 10.8506 64.914 10.0087 64.4973 9.02377C64.0806 8.03883 63.9717 6.95504 64.1842 5.90948C64.3968 4.86392 64.9213 3.90355 65.6915 3.14983C66.4617 2.39611 67.4429 1.88289 68.511 1.67509C69.5791 1.46729 70.6862 1.57424 71.6923 1.9824C72.6983 2.39057 73.5581 3.08162 74.1629 3.96817C74.7677 4.85471 75.0904 5.89692 75.0901 6.96299C75.085 8.39077 74.5032 9.75862 73.4717 10.7681C72.4402 11.7776 71.0428 12.3467 69.5842 12.3513Z" fill="#232323"/>
<path fill-rule="evenodd" clip-rule="evenodd" d="M69.5847 0C68.178 3.05303e-08 66.8028 0.408339 65.6331 1.17339C64.4634 1.93843 63.5517 3.02583 63.0133 4.29807C62.4749 5.57032 62.3339 6.97029 62.6082 8.32095C62.8826 9.67161 63.5599 10.9123 64.5545 11.8862C65.5491 12.86 66.8164 13.5233 68.1961 13.7922C69.5758 14.061 71.006 13.9233 72.3057 13.3965C73.6055 12.8697 74.7165 11.9775 75.4983 10.8326C76.28 9.68772 76.6975 8.34163 76.6978 6.96453C76.6962 5.11815 75.9463 3.34782 74.6127 2.0421C73.2792 0.736372 71.4709 0.00194127 69.5847 0ZM69.5847 11.7488C68.6174 11.7488 67.6719 11.468 66.8677 10.9419C66.0634 10.4158 65.4366 9.66807 65.0665 8.79324C64.6964 7.91841 64.5997 6.95578 64.7885 6.02712C64.9773 5.09845 65.4432 4.24546 66.1273 3.57602C66.8114 2.90657 67.6829 2.45075 68.6316 2.2662C69.5803 2.08166 70.5636 2.17667 71.4572 2.53922C72.3508 2.90178 73.1144 3.51559 73.6516 4.30304C74.1888 5.09048 74.4753 6.01618 74.475 6.96306C74.4699 8.23102 73.953 9.4456 73.0369 10.3421C72.1209 11.2385 70.88 11.7442 69.5847 11.7488Z" fill="#232323"/>
<path d="M93.7797 1.92765V6.47292H99.7424V7.46115H93.7797V11.9976H100.619V12.9668H92.8076V0.976074H100.619V1.92765H93.7797Z" fill="#232323"/>
<path d="M88.7628 12.9864H87.7143L80.5144 2.61728V12.9864H79.5049V0.963384H80.5908L80.6477 1.03816L87.7533 11.2768V0.95752H88.7628V12.9864Z" fill="#232323"/>
<path d="M60.7757 0.95752V1.94575H56.489V12.9864H55.4795V1.94575H51.1943V0.95752H60.7757Z" fill="#232323"/>
<path d="M48.8824 9.94702C48.8657 10.4389 48.7357 10.9207 48.5023 11.3566C48.2689 11.7925 47.9381 12.1712 47.5344 12.4645C46.7316 13.0495 45.6831 13.3428 44.5193 13.3428C44.4365 13.3451 44.3536 13.3388 44.2722 13.3237C43.014 13.2856 41.9102 12.8941 41.1103 12.1669C40.4426 11.5602 40.0178 10.7404 39.9121 9.85465V9.65231H40.9066L40.9216 9.83412C41.0331 10.4856 41.3617 11.0826 41.8563 11.532C42.4659 12.073 43.3031 12.3516 44.3321 12.3897C45.3611 12.4279 46.2373 12.2035 46.8664 11.7549C47.1658 11.5517 47.4116 11.2819 47.5837 10.9676C47.7558 10.6533 47.8493 10.3035 47.8564 9.94702C47.8954 9.145 47.5329 8.52919 46.79 8.04094C46.104 7.60107 45.1709 7.33276 44.428 7.10842L44.0281 6.99699L43.736 6.90755C43.05 6.70228 42.2112 6.4413 41.5252 5.97504C40.688 5.41494 40.2686 4.66864 40.306 3.75519C40.3148 3.29592 40.4372 2.84559 40.6629 2.44285C40.8885 2.04011 41.2107 1.697 41.6016 1.44297C42.3835 0.901931 43.4874 0.602823 44.6691 0.640945C46.5369 0.715722 48.0032 1.62917 48.6128 3.10272L48.6323 3.15844L47.6602 3.41942C47.1809 2.31976 46.0441 1.62917 44.6347 1.59252C43.6252 1.57346 42.8059 1.77873 42.2382 2.17021C41.9601 2.35013 41.731 2.59372 41.5707 2.87986C41.4105 3.16601 41.3239 3.48609 41.3185 3.81237C41.3006 4.42818 41.6046 4.9135 42.3101 5.32257C42.9571 5.69646 43.8333 5.9765 44.6347 6.2023L44.8444 6.25802C45.6442 6.50141 46.6537 6.79905 47.473 7.34009C48.4436 7.93244 48.9393 8.82829 48.8824 9.94702Z" fill="#232323"/>
<path d="M30.7586 0.957768H26.9287V12.9807H30.7586C34.1676 12.9807 36.949 10.277 36.949 6.96925C36.9379 5.36987 36.2806 3.83981 35.1206 2.71339C33.9607 1.58698 32.3924 0.955794 30.7586 0.957768ZM30.7586 12.0174H27.9128V1.9284H30.7586C31.4427 1.91699 32.1223 2.03903 32.7577 2.28741C33.3931 2.5358 33.9717 2.90555 34.4596 3.37511C34.9475 3.84467 35.3351 4.40463 35.5996 5.02234C35.8641 5.64005 36.0004 6.30313 36.0004 6.97292C36.0004 7.64271 35.8641 8.30579 35.5996 8.9235C35.3351 9.54121 34.9475 10.1012 34.4596 10.5707C33.9717 11.0403 33.3931 11.41 32.7577 11.6584C32.1223 11.9068 31.4427 12.0289 30.7586 12.0174Z" fill="#232323"/>
<path fill-rule="evenodd" clip-rule="evenodd" d="M94.3956 2.53058V5.87502H100.358V8.06995H94.3956V11.3939H101.235V13.5712H92.1924V0.372314H101.235V2.53058H94.3956Z" fill="#232323"/>
<path fill-rule="evenodd" clip-rule="evenodd" d="M89.3798 0.354736V13.5888H87.2978L81.1299 4.57157V13.5888H78.8877V0.354736H80.8977L81.1494 0.681703L87.1376 9.30892V0.354736H89.3798Z" fill="#232323"/>
<path fill-rule="evenodd" clip-rule="evenodd" d="M61.3927 0.35498V2.54991H57.106V13.589H54.8638V2.54991H50.5771V0.35498H61.3927Z" fill="#232323"/>
<path fill-rule="evenodd" clip-rule="evenodd" d="M49.498 9.97031C49.4767 10.5502 49.3228 11.118 49.0475 11.6319C48.7722 12.1458 48.3825 12.5926 47.9073 12.9394C46.9817 13.608 45.7984 13.9335 44.5313 13.9335H44.5238C44.4235 13.9347 44.3233 13.9279 44.2242 13.913C42.8762 13.8646 41.6286 13.435 40.7089 12.5934C39.9327 11.8899 39.4383 10.9385 39.3145 9.91019V9.87354V9.04952H41.4922L41.5522 9.75771C41.6442 10.267 41.9028 10.7332 42.2891 11.0861C42.7624 11.504 43.4454 11.7532 44.3725 11.7869C45.2997 11.8207 46.0336 11.6154 46.5219 11.2679C46.7449 11.1189 46.9282 10.9197 47.0565 10.6871C47.1847 10.4544 47.2541 10.195 47.2588 9.93072V9.91899C47.2857 9.36329 47.0611 8.93369 46.4664 8.54661C45.9078 8.18152 45.1394 7.95133 44.4025 7.72993L44.2707 7.69034L43.8633 7.57598L43.5517 7.47774C42.8747 7.2754 41.9521 6.99242 41.1792 6.46752C40.1922 5.80918 39.6485 4.87814 39.6934 3.73302C39.7056 3.18039 39.8535 2.63875 40.1247 2.15387C40.3958 1.66899 40.7821 1.25511 41.2511 0.94721C42.1603 0.318203 43.4034 -0.00436423 44.696 0.0366898C46.7585 0.118798 48.469 1.14222 49.1894 2.87382L49.1969 2.89141L49.4276 3.57174L47.3097 4.14063L47.0985 3.65531C46.7316 2.81224 45.8329 2.22722 44.6197 2.19936C43.694 2.18176 43.0185 2.37384 42.5886 2.66708C42.3889 2.79416 42.2246 2.96793 42.1106 3.17271C41.9965 3.37749 41.9364 3.60684 41.9356 3.84006C41.9249 4.01229 41.9694 4.1835 42.0629 4.32977C42.2095 4.53038 42.4011 4.69541 42.6231 4.81216C43.1967 5.14206 44.0026 5.39864 44.7994 5.62737L45.0121 5.68309H45.0211L45.1049 5.70948C45.8778 5.94261 46.9293 6.26078 47.801 6.83554C48.9558 7.53785 49.5654 8.63312 49.498 9.97031Z" fill="#232323"/>
<path fill-rule="evenodd" clip-rule="evenodd" d="M30.7589 0.35474H26.3135V13.5888H30.7589C34.5034 13.5888 37.5664 10.6197 37.5664 6.98057C37.5581 5.2192 36.837 3.53285 35.561 2.29093C34.2851 1.04902 32.5583 0.352782 30.7589 0.35474ZM30.7589 11.4129H28.5362V2.53061H30.7589C31.9622 2.53061 33.1161 2.99851 33.967 3.83139C34.8178 4.66427 35.2958 5.7939 35.2958 6.97178C35.2958 8.14965 34.8178 9.27927 33.967 10.1122C33.1161 10.945 31.9622 11.4129 30.7589 11.4129Z" fill="#232323"/>
<path fill-rule="evenodd" clip-rule="evenodd" d="M16.8707 2.53034V5.87478H22.814V8.06971H16.8707V11.3936H23.6902V13.5709H14.6465V0.37207H23.6902V2.53034H16.8707Z" fill="#232323"/>
<path fill-rule="evenodd" clip-rule="evenodd" d="M12.3239 13.5727H9.68931L6.81354 8.95554H3.25926L1.93671 6.8002H7.41265C7.70022 6.8002 7.98497 6.74476 8.25065 6.63703C8.51632 6.5293 8.75772 6.37141 8.96106 6.17235C9.1644 5.9733 9.3257 5.73699 9.43575 5.47692C9.54579 5.21684 9.60243 4.9381 9.60243 4.65659C9.60243 4.37509 9.54579 4.09635 9.43575 3.83627C9.3257 3.5762 9.1644 3.33989 8.96106 3.14083C8.75772 2.94178 8.51632 2.78389 8.25065 2.67616C7.98497 2.56843 7.70022 2.51299 7.41265 2.51299H1.36455L0.0419922 0.376709H7.41265C8.40987 0.381262 9.37563 0.718827 10.1503 1.33359C10.9249 1.94835 11.462 2.8035 11.6728 3.75764C11.8836 4.71177 11.7555 5.70776 11.3096 6.58093C10.8636 7.45409 10.1267 8.15214 9.2205 8.55966L12.3239 13.5727Z" fill="#232323"/>
<path d="M0.449219 10.9326H3.14525V13.5718H0.449219V10.9326Z" fill="#E70000"/>
</g>
<defs>
<clipPath id="clip0_528_3058">
<rect width="102" height="14" fill="white"/>
</clipPath>
</defs>
</svg>
