<svg width="222" height="196" viewBox="0 0 222 196" fill="none" xmlns="http://www.w3.org/2000/svg">
<path d="M222 195.191C222 195.191 168.709 196.667 155.355 195.063C139.357 193.138 145.592 154.184 147.914 144.584C149.351 138.616 153.982 123.394 156.035 118.863C158.087 114.332 156.651 108.056 155.727 110.533C154.688 113.305 157.933 118.311 161.205 118.722C164.117 119.094 169.826 118.927 177.317 121.122C185.746 123.586 188.222 123.997 193.764 123.689C206.374 122.983 191.763 113.408 187.08 105.784C179.832 94.0148 174.931 79.935 167.029 68.3452C157.741 54.7147 152.763 51.7755 136.086 54.5607C131.147 55.3821 131.66 58.886 129.197 58.2699C126.734 57.6539 125.708 54.0473 128.068 50.7616C130.865 46.8598 143.989 46.4234 134.483 36.6048C131.801 33.8325 127.042 29.3532 126.413 28.4804C125.708 27.5178 123.334 23.9754 122.129 21.7036C120.448 18.5078 122.629 19.0982 123.937 21.0747C124.964 22.6149 128.158 27.4536 129.954 28.2237C131.75 28.9938 134.688 31.0987 133.238 30.9447C131.801 30.7907 130.826 28.1724 129.325 26.7734C127.825 25.3744 124.848 20.1891 122.693 17.9815C117.536 12.6936 119.973 10.6657 123.565 15.4146C124.848 17.1088 131.635 25.9648 133.277 26.9916C134.919 28.0183 136.202 29.7125 135.073 29.3532C133.944 28.9938 133.585 26.9402 132.61 25.5926C131.801 24.4888 126.221 17.6735 123.937 14.4391C121.372 10.8197 124.207 10.1266 126.991 12.7834C130.005 15.6713 137.331 23.9369 139.088 25.1819C141.038 26.568 141.808 28.3135 140.474 27.5948C139.139 26.876 140.012 25.9519 139.191 23.8855C138.524 22.2042 135.535 17.1088 134.277 13.8487C132.61 9.51058 135.522 7.53402 137.446 11.9107C139.139 15.774 146.388 27.1841 149.992 29.7639C153.597 32.3308 164.284 41.5975 170.865 48.4898C177.446 55.3821 184.848 62.5824 185.669 63.6092C186.49 64.636 212.609 89.3301 215.688 100.227C220.345 116.668 213.199 130.466 198.203 116.168C186.221 104.745 189.543 97.6984 173.418 86.2369C173.418 86.2369 155.829 77.1884 140.82 77.5991C113.841 78.3435 132.238 112.381 124.168 130.992C121.808 136.447 121.397 136.087 119.024 136.909C115.394 138.166 108.735 133.905 107.106 130.953C104.913 127 102.244 120.493 100.371 115.359C97.6002 107.748 95.6374 94.0405 94.6111 89.4071C93.8799 86.1342 94.0851 82.3095 93.418 78.3179C92.8921 75.1477 88.9537 72.3112 92.1608 73.8514C94.9318 75.1862 93.8927 79.7682 92.2378 88.714C88.9537 106.554 81.9236 99.0717 85.0409 83.4646C85.862 79.3446 89.8773 79.6527 87.8119 83.5673C84.2199 90.3954 79.717 94.8106 78.2931 85.0561C64.5536 -8.94584 121.731 -20.1891 138.126 28.3264C141.282 37.6701 146.285 61.3759 148.171 76.7905C149.069 84.1834 145.9 103.423 147.452 101.78C150.942 98.0706 143.745 97.6599 141.487 88.6114C139.229 79.5628 135.522 66.5997 138.613 68.0372C141.692 69.4747 140.255 100.342 134.495 100.753C128.735 101.164 125.079 87.1867 126.105 75.4557C128.261 50.8258 133.431 42.65 120.551 21.0362C116.907 14.914 112.186 9.18971 104.669 11.4743C101.487 12.4369 102.167 6.96929 102.796 3.83761C104.156 -2.87499 105.836 9.20254 99.2679 12.0904C90.5444 15.9408 86.5419 17.943 86.2212 26.7477C85.631 42.419 88.6714 65.6114 101.025 76.6878C104.002 79.3575 106.067 80.8078 111.93 78.0227C117.793 75.2503 121.795 72.5679 123.245 71.0277C124.681 69.4875 125.605 66.3943 123.963 67.5238C123.014 68.1784 123.155 71.2587 123.527 74.4931C125.092 88.1365 122.706 102.665 124.271 114.538C124.784 118.452 124.271 127.603 120.884 131.3C108.979 144.289 100.538 109.147 99.1909 104.244C95.0601 89.3429 95.368 89.8563 95.6759 81.1158C95.9838 72.3754 92.0839 71.1432 82.1032 73.7102C56.8179 80.2302 61.3336 91.4607 47.6582 113.421C43.7455 119.697 36.8565 133.071 34.9065 135.843C24.3614 150.834 9.92912 142.697 11.2633 125.036C11.8791 116.809 23.8097 103.025 24.5281 101.279C25.2465 99.5338 42.6294 82.9641 43.1425 82.1426C50.6986 70.0523 64.746 63.2627 63.399 43.7666C63.1167 39.7365 64.5536 37.6573 65.7081 36.8358C68.7742 34.6668 66.1828 42.8425 65.8108 41.0456C65.4002 39.0434 67.7607 36.1556 68.5818 35.0775C69.4028 33.9993 73.0076 30.2388 76.3431 29.1093C79.0628 28.1852 84.4765 27.1584 87.4784 27.3381C88.4277 27.3894 92.6098 28.6216 91.0447 29.5713C90.0185 30.1874 85.0794 28.9553 81.8979 29.7254C78.7164 30.4955 72.6484 33.3319 73.6747 32.1896C74.701 31.0602 78.3572 31.3682 81.3334 30.9575C83.5143 30.6623 87.0422 30.2131 89.3514 30.6238C92.751 31.227 92.9819 34.0635 88.1711 34.1405C85.0922 34.1919 82.9755 34.1919 79.5374 34.1919C73.4951 34.1919 66.4137 37.8369 68.0686 45.4095C69.2617 50.8514 72.3277 56.3447 78.7036 56.0495C85.2975 55.7286 88.5945 49.9658 89.1461 48.0919C89.7106 46.1924 89.0948 40.6349 87.0422 38.068C84.9896 35.501 83.2321 35.0903 85.4514 34.9876C94.2006 34.5769 92.1352 37.6444 96.4071 38.9022C97.0614 39.0948 99.0883 37.8369 97.5617 36.4893C96.6637 35.6935 95.1243 34.5641 95.0216 32.6774C94.7266 27.2739 102.693 27.6461 103.553 31.4966C103.771 32.4848 103.873 33.4089 103.886 34.179C103.938 39.0306 106.272 36.3353 107.029 33.8325C107.542 32.1126 108.582 29.6227 112.956 27.8387C119.537 25.169 126.016 28.1467 128.889 34.5256C131.763 40.9045 127.452 46.5646 123.642 48.4128C119.832 50.261 115.317 50.261 111.712 48.1048C108.107 45.9485 108.056 40.3397 108.056 38.6969C108.056 34.0892 112.097 28.9296 110.66 35.7192C110.031 38.6712 109.236 42.9452 113.456 45.1271C119.832 48.4128 122.809 46.5646 125.182 44.3057C127.542 42.0468 128.723 32.9212 122.103 30.0077C115.471 27.0942 111.301 29.6997 109.864 31.2399C108.428 32.78 107.966 36.0272 106.683 37.5161C104.592 39.9419 99.3834 36.1299 97.69 34.7951C95.74 33.2549 90.8908 34.3972 96.3558 37.8241C97.4847 38.53 97.6387 41.8414 97.7413 42.3548C97.8439 42.8682 97.8952 47.4502 94.1364 48.5797C90.3777 49.7091 89.8645 50.4792 89.8645 47.8096C89.8645 45.1399 90.8651 41.9184 88.5303 38.453C86.1955 34.9876 82.565 34.6411 81.4874 34.6924C80.4098 34.7438 73.3668 35.0005 71.93 37.2594C70.4932 39.5183 71.6221 39.2103 72.7511 38.9536C76.3944 38.1193 79.0756 35.193 82.4624 37.6958C85.1051 39.6595 88.2481 44.1517 84.6817 49.4781C79.8453 56.6784 73.5208 53.0462 71.9813 49.7476C70.4419 46.4619 70.0314 44.4469 70.4419 42.65C70.8268 40.9558 69.9673 36.6433 68.1199 39.544C67.4015 40.6734 65.5542 45.5892 67.7607 49.0802C69.9673 52.5841 72.2379 54.6377 72.4945 57.2046C72.7511 59.7716 74.4701 63.4423 72.6484 61.3246C70.8268 59.194 75.0602 57.718 77.4335 57.1533C79.8068 56.5886 81.9877 56.1265 83.6298 55.4078C85.2718 54.689 86.76 52.5071 89.4925 51.3135C92.2121 50.1327 92.7253 50.5947 94.7907 49.3626C96.8433 48.1304 97.0486 47.1037 98.6521 46.6929C108.582 44.126 96.0992 51.9809 95.368 52.4044C93.0588 53.7392 88.7869 55.2281 87.9659 56.1137C82.2828 62.1589 76.4586 63.8659 69.7107 72.6706M69.685 72.6577C69.6979 72.5679 66.2085 76.6878 64.1174 79.3575C60.8076 83.593 57.9853 90.7548 55.5478 95.6962C54.2265 98.1989 39.4607 124.947 34.7013 133.661C33.5595 135.741 30.5063 140.823 34.6756 140.708C38.2805 140.605 56.882 124.664 60.4869 120.544C64.0917 116.424 66.4522 112.42 63.9891 114.473C61.526 116.527 62.9628 122.495 63.1681 124.972C63.3733 127.437 67.1834 159.331 67.6966 163.759C69.3515 177.954 67.4785 194.319 51.1091 194.306C36.4588 194.293 0.0253906 194.267 0.0253906 194.267" stroke="#131E29" stroke-miterlimit="2.6131"/>
</svg>
