<svg width="361" height="198" viewBox="0 0 361 198" fill="none" xmlns="http://www.w3.org/2000/svg">
<path d="M359.513 181.435C359.727 181.435 359.88 181.587 359.88 181.802C359.88 182.016 359.727 182.169 359.513 182.169C359.36 182.169 333.863 182.016 309.254 181.893C309.254 182.383 309.254 182.719 309.254 182.903C309.254 183.974 308.642 186.207 307.234 187.859C306.285 188.991 304.969 189.878 303.255 190.001C300.745 190.184 288.043 190.521 278.248 190.337C272.341 190.215 267.474 189.909 266.495 189.236C265.454 188.532 264.719 187.308 264.23 186.054C263.465 184.127 263.281 182.046 263.556 181.587C263.771 181.22 285.686 181.159 308.52 181.19C308.52 177.825 308.428 170.299 308.244 164.578C308.152 161.916 308.03 159.652 307.877 158.429C306.959 158.704 306.01 159.01 305.061 159.316C299.766 160.999 294.409 162.712 293.95 161.151C293.797 160.693 293.981 160.264 294.409 159.867C294.991 159.316 296.093 158.796 297.409 158.306C298.694 157.847 300.256 157.45 301.755 157.144C304.847 156.501 307.816 156.348 308.275 157.021C308.336 157.113 308.397 157.266 308.428 157.48C311.856 156.44 314.703 155.767 315.376 156.532C315.866 157.083 315.774 157.542 315.315 157.97C314.733 158.49 313.509 158.888 312.346 159.255C311.581 159.499 310.877 159.714 310.417 159.958C310.203 160.081 310.081 160.142 310.081 160.142C310.111 160.203 310.264 160.234 310.479 160.234C310.999 160.264 311.795 160.142 312.682 159.897C313.57 159.652 314.549 159.255 315.437 158.826C316.723 158.153 317.733 157.358 317.794 156.654C317.855 155.737 316.876 155.308 315.162 155.186C312.713 155.033 308.856 155.492 304.326 156.073C302.123 156.348 299.735 156.654 297.225 156.899C289.726 157.664 281.493 158.276 274.881 158.062C274.3 158.031 273.749 158.031 273.198 158L273.229 158.52C273.443 164.058 273.565 168.218 271.423 169.901C269.127 171.675 266.372 172.226 263.434 172.104C263.342 177.09 263.128 181.373 262.577 181.802C261.934 182.291 224.684 182.414 191.597 182.475C191.75 184.922 191.933 187.217 192.056 188.807C192.117 189.817 192.178 190.551 192.209 190.918C192.239 191.958 189.546 193.335 185.353 194.467C181.312 195.568 175.864 196.547 170.232 196.884C169.406 196.945 168.579 196.976 167.722 196.976C161.295 197.129 154.775 196.547 149.847 195.568C144.889 194.559 141.491 193.06 141.246 191.377C141.001 189.756 140.787 187.278 140.695 185.32C140.604 183.484 140.695 182.016 141.032 181.863C141.216 181.771 153.734 181.771 170.661 181.74C176.905 181.74 183.761 181.74 190.801 181.71C190.434 175.897 190.128 169.412 190.556 168.83C190.617 168.769 190.709 168.708 190.832 168.647C190.832 167.912 190.862 167.239 190.709 166.903C190.617 166.719 190.464 166.658 190.066 166.811C189.209 167.178 184.526 169.106 177.762 169.901C173.324 170.421 168.182 170.972 163.131 171.339C158.05 171.706 153.061 171.92 148.898 171.767C146.235 171.675 143.909 171.339 142.134 170.911C141.43 170.727 140.787 170.543 140.267 170.329C140.144 170.36 140.114 170.36 140.083 170.391V170.452C140.022 171.186 139.961 172.043 139.93 172.93C144.736 173.542 150.123 174.826 153.03 175.5C153.979 175.714 154.683 175.897 154.959 175.928C155.785 176.081 156.336 176.509 156.581 177.029C156.703 177.274 156.765 177.549 156.734 177.794C156.703 178.069 156.612 178.314 156.459 178.559C156.122 179.018 155.479 179.324 154.5 179.354C153.459 179.354 150.674 178.681 147.582 177.916C144.919 177.243 142.012 176.54 139.9 176.142C139.9 176.295 139.9 176.448 139.93 176.601C139.961 176.846 139.961 177.09 139.991 177.335C140.542 177.488 141.001 177.58 141.246 177.702C141.644 177.855 141.981 178.131 142.165 178.436C142.287 178.62 142.318 178.804 142.318 178.987C142.287 179.201 142.195 179.385 142.012 179.538C141.797 179.721 141.399 179.844 140.818 179.905C139.991 179.966 139.563 179.171 139.318 177.978C138.155 177.672 136.808 177.304 136.318 176.784C136.257 177.427 136.196 178.039 136.104 178.62C136.563 178.742 137.022 178.865 137.451 178.957C138.216 179.14 138.828 179.262 139.165 179.324C139.349 179.354 139.44 179.385 139.502 179.385C139.747 179.477 139.961 179.874 140.053 180.303C140.083 180.456 140.114 180.609 140.114 180.761C140.114 180.914 140.114 181.067 140.053 181.22C139.991 181.435 139.838 181.588 139.624 181.618C139.563 181.649 137.879 181.649 135.125 181.649C134.666 182.291 134.053 182.719 133.135 182.811C128.605 183.362 1.73459 182.261 1.3673 182.261C1.15304 182.261 1 182.108 1 181.893C1 181.679 1.15304 181.526 1.3673 181.526C1.73459 181.526 128.544 182.628 133.043 182.077C133.472 182.016 133.839 181.863 134.115 181.618C126.279 181.618 111.648 181.496 100.293 181.251C91.5082 181.067 84.652 180.762 84.3153 180.241C82.9685 178.314 83.8255 176.601 85.2641 175.438C84.5601 174.765 84.0398 173.878 83.8562 172.807C83.7337 172.043 83.3664 168.586 83.6725 163.752C83.8562 161.029 84.2541 157.878 85.0805 154.513C85.8763 151.27 86.1212 147.629 86.3966 143.958C86.7333 139.247 87.1006 134.475 88.5698 130.222C88.7228 129.824 88.8453 129.396 88.9983 128.968C86.366 128.111 83.8255 126.857 81.7442 125.511C79.2343 123.859 77.3978 122.084 76.9387 120.708C76.8163 120.31 76.6939 119.943 76.6326 119.576C76.602 119.576 76.602 119.576 76.5714 119.576C76.0511 119.729 75.4389 119.698 74.7962 119.453C72.9597 118.78 73.0209 117.74 73.0821 116.241C73.1433 115.079 73.2045 113.58 72.1026 111.744C70.6028 109.235 71.7047 106.054 72.776 102.994C73.5106 100.884 74.2146 98.8644 73.9697 97.3042C73.633 95.1321 75.0716 93.113 76.5408 91.1244C77.857 89.3195 79.1425 87.5145 79.0813 85.7095C79.0507 84.9141 79.6016 83.4456 80.3668 81.4877C80.9484 80.0192 81.6218 78.2448 82.2339 76.2563C84.652 68.4857 86.8864 62.7342 89.2432 58.5124C91.6306 54.26 94.1405 51.5679 97.0789 50.0382C103.109 46.8566 109.842 47.652 115.413 48.325C119.821 48.8451 123.494 49.2734 125.33 47.5602C125.728 47.1931 126.126 47.2849 126.524 47.7132C126.952 48.172 127.411 49.0898 128.024 50.3135C130.472 55.1778 135.37 64.8757 147.766 65.8241C149.847 65.9771 151.255 65.9465 152.235 65.7935C153.184 65.6712 153.704 65.457 154.01 65.304C154.041 65.2735 154.102 65.3346 154.071 65.304C153.949 65.0287 153.275 64.5392 152.265 63.8662C144.399 65.0899 134.696 64.3557 128.238 49.0286C127.258 46.673 129.095 45.847 131.605 44.715C132.278 44.4091 132.982 44.1032 133.717 43.7055C135.4 42.8183 137.053 40.6156 138.43 37.9846C138.981 36.9139 139.502 35.7819 139.961 34.6194C139.93 34.5888 139.869 34.5888 139.838 34.5582C139.44 34.3441 139.043 33.9464 138.706 33.4263C137.604 31.7743 136.869 28.715 137.451 26.1758C137.91 24.1261 138.675 22.9941 139.502 22.5352C139.9 22.3211 140.328 22.2599 140.726 22.3823C141.124 22.474 141.461 22.7494 141.767 23.1165C142.532 24.0649 142.96 25.8393 142.563 28.1337C142.256 29.8775 141.705 31.9272 140.971 33.9464C141.399 33.671 141.828 32.9368 142.165 31.5601C142.563 29.9999 143.695 28.715 145.317 27.6136C145.287 27.5219 145.256 27.4607 145.225 27.3689C145.011 26.757 144.766 26.0534 144.399 25.2274C143.573 23.4224 142.501 22.474 141.583 21.6786C140.42 20.6691 139.502 19.8737 139.502 18.0075C139.502 15.9578 140.726 9.96157 144.583 5.67857C146.909 3.07817 150.184 1.12023 154.745 1.05904C155.142 1.05904 155.51 1.05904 155.877 1.02845C160.468 0.967265 163.621 0.906079 167.998 1.97683C168.212 2.03802 168.396 2.06861 168.61 2.12979C173.63 3.50647 177.854 6.56576 180.364 11.1241C182.873 15.6824 183.669 21.7398 181.863 29.1433C181.772 29.5104 181.68 29.8775 181.557 30.2752C180.914 32.6309 180.333 33.4263 179.69 33.2427C179.047 33.0592 178.619 31.8049 178.068 30.214C177.242 27.7972 176.109 24.585 174.119 23.9731C172.62 23.5142 171.64 21.8316 170.997 19.7513C170.293 20.5161 169.375 21.0974 168.212 21.4645C166.682 21.9234 164.57 22.3823 162.213 22.8718C156.857 24.0037 150.153 25.4416 146.174 27.889C146.297 28.2255 146.419 28.5008 146.572 28.6844C147.031 29.2963 147.919 28.8985 150.674 26.8182C153.581 24.6155 159.366 23.453 164.815 23.7589C169.589 24.0343 174.15 25.4721 176.384 28.3785C178.252 30.7953 178.068 34.0076 176.966 37.2198C175.252 42.2982 171.212 47.4378 169.314 49.5181C168.61 50.3135 167.875 51.4455 167.049 52.6998C164.325 56.8604 160.744 62.3671 154.071 62.0612C147.154 61.7247 142.409 51.5373 140.512 47.2849C140.726 48.2026 141.063 49.3958 141.583 50.6807C142.226 52.3021 143.052 53.8929 144.032 55.3614C144.919 56.7075 145.929 57.9618 147.031 58.9713C148.99 60.8069 150.949 62.1224 152.357 63.1014L152.388 63.132C153.888 62.8872 155.326 62.5813 156.642 62.3059C159.611 61.6635 162.029 61.1434 163.59 61.7247C164.478 62.0612 166.039 62.979 167.906 64.1721C169.743 65.3652 171.946 66.8337 174.211 68.3633C176.874 70.1683 179.568 72.1263 181.68 74.5125C183.822 76.9293 185.353 79.7439 185.659 83.2621C185.812 85.1282 185.965 86.8414 186.118 88.5546C187.189 100.119 188.383 112.998 185.506 119.545C184.006 122.972 184.434 123.278 185.414 123.92C186.669 124.746 188.597 126 189.699 131.752C189.883 132.67 190.342 133.771 190.832 134.842C191.933 137.35 193.035 139.859 190.893 141.205C190.862 141.236 190.832 141.236 190.801 141.266C191.015 141.909 191.229 142.582 191.413 143.316C192.178 146.13 192.668 149.343 192.515 151.239C192.117 156.287 193.219 156.593 195.882 157.327C196.892 157.603 198.116 157.939 199.555 158.582C203.473 160.325 203.718 164.486 203.381 168.769L203.411 168.738C203.718 168.494 203.993 168.127 204.207 167.729C204.972 166.291 205.064 163.966 203.167 161.09C202.34 159.867 200.718 158.735 198.82 157.419C197.81 156.716 196.739 155.981 195.668 155.155C193.464 153.473 193.097 148.058 192.699 142.276C192.331 136.861 191.903 131.079 190.036 127.866C187.189 123.063 188.016 113.335 188.689 105.625C188.964 102.413 189.209 99.5375 189.148 97.5795C189.087 95.7439 193.311 92.2258 197.994 90.1149C199.555 89.4112 201.146 88.8606 202.646 88.5546C202.738 88.524 202.861 88.524 202.952 88.4934C205.279 84.5776 207.605 80.0498 207.452 76.3481C207.237 71.3614 208.952 64.0803 210.635 56.7992C210.788 56.0956 210.972 55.392 211.125 54.6883C212.012 50.8642 214.645 47.4684 217.308 45.1128C218.654 43.9196 220.001 42.9713 221.103 42.39C222.297 41.7475 223.246 41.5028 223.766 41.717C223.796 41.717 223.796 41.7475 223.827 41.7475C225.235 40.738 226.857 40.0955 228.571 40.3709C230.163 40.6156 230.959 41.0745 231.265 41.6252C233.56 40.8604 236.621 40.5238 239.835 41.5946C248.528 44.5315 251.527 57.3805 257.251 82.1301C257.71 84.0881 258.169 86.1072 258.72 88.4628C259.241 90.7267 260.159 93.1436 261.169 95.5298C262.822 96.7535 264.413 98.1608 265.791 99.7822C267.474 101.74 268.882 103.973 269.8 106.39C271.117 109.817 272.31 116.669 272.953 124.807C273.504 131.874 273.657 139.92 273.045 147.538C272.984 148.333 272.953 149.098 272.922 149.863C273.657 149.771 274.453 149.679 275.249 149.618C288.839 148.302 307.999 148.761 309.254 151.331C309.316 151.454 309.346 151.576 309.377 151.729C309.469 152.524 308.765 153.197 307.387 153.717C306.163 154.207 304.388 154.605 302.245 154.972C295.94 156.012 286.298 156.471 278.003 156.41C276.228 156.41 274.514 156.318 272.953 156.257C272.953 156.624 272.984 156.991 272.984 157.358C273.535 157.389 274.116 157.419 274.728 157.419C281.309 157.633 289.512 157.021 296.98 156.257C299.398 156.012 301.817 155.706 304.082 155.431C308.642 154.849 312.529 154.36 315.07 154.543C317.243 154.696 318.467 155.339 318.376 156.777C318.314 157.786 317.121 158.765 315.621 159.53C314.703 159.989 313.692 160.387 312.744 160.662C311.795 160.937 310.907 161.09 310.295 161.029C309.805 160.998 309.469 160.846 309.285 160.54C309.04 160.05 309.346 159.683 309.928 159.377C310.448 159.102 311.183 158.888 311.978 158.643C313.08 158.306 314.243 157.939 314.703 157.511C314.825 157.389 314.856 157.266 314.733 157.113C314.305 156.624 311.672 157.327 308.458 158.306C308.642 159.652 308.765 161.947 308.856 164.639C309.071 170.36 309.132 177.886 309.132 181.282C333.894 181.251 359.36 181.435 359.513 181.435ZM308.52 181.893C285.9 181.802 264.291 181.771 264.169 181.985C263.985 182.291 264.199 184.066 264.903 185.809C265.362 186.941 266.005 188.043 266.923 188.654C267.78 189.236 272.494 189.511 278.248 189.633C287.982 189.817 300.684 189.48 303.194 189.297C304.694 189.175 305.826 188.41 306.653 187.4C307.938 185.87 308.489 183.882 308.489 182.903C308.52 182.719 308.52 182.383 308.52 181.893ZM307.754 157.725C307.724 157.603 307.693 157.511 307.663 157.45C307.387 157.021 304.755 157.297 301.908 157.878C300.439 158.184 298.939 158.582 297.684 159.01C296.43 159.438 295.419 159.928 294.93 160.387C294.715 160.601 294.624 160.784 294.654 160.907C294.93 161.763 299.919 160.172 304.847 158.582C305.826 158.337 306.806 158 307.754 157.725ZM272.402 157.97C268.729 157.725 265.668 157.144 263.771 156.104C263.556 156.195 263.434 156.318 263.434 156.471C263.403 157.297 263.434 158.949 263.434 161.029C263.434 163.997 263.434 167.821 263.403 171.369C266.189 171.492 268.79 171.002 270.933 169.32C272.8 167.851 272.647 163.874 272.463 158.551L272.402 157.97ZM263.067 155.706C262.454 155.278 261.995 154.758 261.72 154.207C261.444 153.564 261.659 152.983 262.332 152.463C263.22 151.79 264.934 151.209 267.199 150.75C268.668 150.444 270.382 150.169 272.28 149.924C272.31 149.128 272.341 148.302 272.433 147.446C273.014 139.859 272.892 131.874 272.341 124.838C271.698 116.761 270.504 110 269.219 106.604C268.331 104.249 266.954 102.107 265.332 100.211C264.26 98.9562 263.067 97.8549 261.842 96.8453C262.118 97.4877 262.393 98.1302 262.669 98.742C264.566 102.994 266.189 106.727 265.607 108.715C265.148 110.245 263.526 110.765 260.006 109.725C254.894 108.226 251.466 100.333 249.385 91.8892C249.354 92.5623 249.324 93.2047 249.293 93.8472C249.14 96.3864 248.956 98.4973 248.742 99.8434C248.252 102.994 248.467 105.993 249.079 108.868C249.691 111.744 250.701 114.528 251.833 117.159C252.231 118.077 252.17 118.75 251.772 119.209C251.313 119.759 250.426 119.943 249.324 119.821C248.283 119.698 247.059 119.3 245.804 118.689C242.651 117.128 239.345 114.13 238.978 110.306C237.968 110.796 236.805 111.193 235.458 111.53C234.173 111.836 232.948 112.05 231.755 112.142C226.368 112.539 221.838 110.796 218.44 108.195C215.043 105.564 212.778 102.015 211.982 98.8338C211.829 98.222 211.737 97.6407 211.676 97.0594C211.492 94.6426 211.859 92.9294 212.471 91.6751C212.961 90.7267 213.573 90.0537 214.216 89.6254C214.859 89.1971 215.532 89.0135 216.053 88.9523C216.451 88.9217 216.787 88.9829 217.001 89.1053C223.031 92.1034 227.837 90.3902 231.234 87.7898C232.887 86.5049 234.203 85.0364 235.152 83.7821C235.366 83.5068 235.55 83.2315 235.734 82.9867L235.703 83.0173C233.407 85.2812 229.214 89.4112 225.204 89.9619C220.062 90.6349 218.409 88.4017 216.695 86.1378C216.481 85.8624 216.297 85.5871 216.083 85.3424C214.92 83.8433 212.839 80.3557 211.614 76.3481C210.819 73.6865 210.39 70.7802 210.91 68.0268C211.247 66.2524 211.461 64.2945 211.645 62.3977C212.227 57.0746 212.747 52.2103 215.716 51.9656C221.899 51.4455 230.194 61.6635 235.703 68.4551C237.05 70.1071 238.213 71.545 239.131 72.5546C239.896 68.8528 241.243 66.436 243.539 66.3442C244.794 66.3136 245.559 66.9867 245.926 67.9962C246.202 68.7916 246.202 69.7706 245.987 70.7496C245.773 71.7285 245.345 72.7075 244.732 73.4723C243.722 74.7266 242.284 75.4303 240.508 74.7266C240.264 74.6349 239.927 74.3901 239.529 74.023C238.825 78.6119 238.886 84.8529 239.101 90.9103C239.192 93.2353 239.284 95.5604 239.407 97.7631C239.621 102.536 239.835 106.666 239.651 109.021C239.651 109.052 239.651 109.052 239.651 109.082C243.845 106.482 244.151 102.413 244.396 98.8338C244.579 96.1416 244.763 93.7248 246.446 92.2564C246.814 91.9198 247.242 91.6751 247.732 91.4915C248.007 91.3692 248.314 91.308 248.65 91.2468C248.681 90.5432 248.711 89.8395 248.742 89.1053C248.161 86.3825 247.732 83.6904 247.426 81.1817C247.028 78.0919 246.844 75.2773 246.783 73.0746C246.753 70.8414 246.875 69.2505 247.15 68.6081C247.303 68.3021 247.518 68.1492 247.763 68.1492C247.793 68.1492 247.793 68.1492 247.824 68.1492C248.865 68.3021 249.354 72.371 249.507 77.633C249.599 81.1511 249.568 85.2506 249.446 89.0441C249.599 89.7171 249.752 90.3902 249.905 91.0938C251.772 91.0326 254.037 91.5833 256.394 92.6235C257.618 93.1741 258.873 93.8778 260.128 94.6732C259.302 92.6235 258.537 90.5432 258.078 88.5546C257.588 86.5355 257.098 84.3328 256.608 82.2219C250.915 57.7476 247.977 45.021 239.651 42.237C236.56 41.1969 233.622 41.564 231.448 42.2982C231.418 42.4818 231.387 42.6347 231.295 42.8183C231.142 43.1854 230.836 43.5219 230.5 43.8279C229.581 44.6233 228.173 45.1434 227.531 44.868C227.316 44.7762 227.194 44.5927 227.194 44.3785C227.194 44.1338 227.378 43.8279 227.714 43.5219C227.99 43.2466 228.388 42.9713 228.908 42.6653C229.367 42.39 229.949 42.1147 230.591 41.8393C230.347 41.5028 229.704 41.2275 228.51 41.0439C227.01 40.8298 225.572 41.3804 224.286 42.2982C224.317 42.5124 224.317 42.7265 224.286 42.9713C224.103 43.9502 223.245 45.4187 222.266 46.7342C221.287 48.0191 220.215 49.2122 219.573 49.5793C219.358 49.7323 219.144 49.7935 218.96 49.7629C218.685 49.7017 218.562 49.5181 218.562 49.2122C218.562 48.9675 218.685 48.5392 218.899 48.0191C219.113 47.5296 219.389 46.9483 219.787 46.3365C220.583 45.021 221.715 43.5219 223.092 42.3288C222.725 42.39 222.174 42.6347 221.501 42.9713C220.43 43.5525 219.144 44.4397 217.858 45.6022C215.318 47.8661 212.747 51.1395 211.921 54.8107C211.767 55.5143 211.584 56.218 211.431 56.9216C209.747 64.1415 208.064 71.392 208.278 76.2869C208.431 80.0498 206.258 84.4552 203.962 88.3405C205.034 88.2181 206.044 88.2793 206.931 88.524C208.707 89.0135 209.992 90.2678 210.329 92.6235C210.482 93.7248 210.543 95.285 210.268 96.57C210.115 97.3348 209.87 98.0078 209.472 98.4973C209.043 99.0174 208.462 99.3539 207.727 99.2927C207.329 99.2621 206.87 99.1397 206.38 98.8644C205.585 98.4361 205.003 97.7937 204.605 97.0288C204.146 97.4571 203.656 97.8854 203.136 98.2526C201.269 99.6598 199.31 100.516 198.392 99.9352C197.412 99.3233 197.596 97.3042 200.259 92.9294C200.595 92.3787 200.932 91.8281 201.299 91.2774C201.697 90.6655 202.095 89.9925 202.524 89.3195C201.177 89.6254 199.738 90.1455 198.361 90.7573C193.923 92.7764 189.883 95.9887 189.944 97.5489C190.005 99.5681 189.76 102.444 189.485 105.656C188.842 113.243 188.016 122.849 190.74 127.438C192.729 130.803 193.127 136.647 193.525 142.153C193.923 147.782 194.29 153.014 196.219 154.513C197.29 155.339 198.361 156.073 199.341 156.746C201.33 158.092 203.014 159.255 203.901 160.601C205.983 163.752 205.86 166.352 204.972 167.974C204.697 168.494 204.36 168.891 203.993 169.228C203.809 169.381 203.595 169.534 203.411 169.626C203.35 170.176 203.289 170.758 203.228 171.308C202.891 174.398 202.585 177.243 203.564 178.773C204.911 180.914 207.329 180.456 211.982 179.599C215.808 178.895 221.103 177.947 228.479 177.916C232.918 177.886 237.111 178.131 240.906 178.345C251.191 178.926 258.659 179.324 260.587 174.215C260.802 173.664 260.924 172.869 261.016 171.859C257.19 171.247 253.211 169.748 249.844 168.463C247.457 167.545 245.345 166.75 243.845 166.475C243.722 166.444 243.141 166.352 242.59 166.26C239.284 165.679 235.978 165.098 234.326 163.935C233.071 163.048 232.673 161.886 233.805 160.264C234.203 159.683 234.632 159.194 235.03 158.826C234.111 158.215 233.071 157.266 231.969 156.257C229.245 153.809 225.97 150.903 223.429 151.117C220.95 151.301 218.471 151.331 216.175 150.903C213.849 150.444 211.737 149.496 210.115 147.782C209.839 147.476 209.717 147.201 209.717 146.926C208.952 146.803 208.125 146.65 207.329 146.528C203.993 146.008 200.749 145.488 199.647 144.478C199.034 143.928 199.004 143.255 199.738 142.459C200.228 141.939 201.942 141.236 204.268 140.624C205.738 140.226 207.482 139.889 209.319 139.614C209.656 139.155 210.023 138.727 210.421 138.299C211.676 137.014 213.175 136.035 214.339 136.035C217.124 136.035 219.603 136.83 222.235 137.687C224.5 138.421 226.918 139.216 229.826 139.553H229.918C231.877 139.798 233.713 140.012 234.326 140.654C234.754 141.113 234.693 141.694 233.897 142.398C233.132 143.102 229.061 143.53 224.439 144.019C220.98 144.387 217.246 144.784 214.492 145.335C214.828 145.396 215.226 145.488 215.593 145.61C216.451 145.886 217.338 146.253 218.103 146.712C218.103 146.681 218.103 146.681 218.103 146.65C218.195 146.161 218.562 145.641 219.113 145.335C219.573 145.09 220.154 144.937 220.827 145.06C221.378 145.151 221.96 145.366 222.542 145.61C222.572 145.396 222.633 145.182 222.725 145.029C222.939 144.662 223.307 144.387 223.796 144.295C224.225 144.203 224.745 144.203 225.296 144.325C225.97 144.478 226.735 144.784 227.469 145.304C227.622 144.998 227.867 144.723 228.173 144.478C228.602 144.142 229.122 143.867 229.704 143.683C231.02 143.255 232.581 143.224 233.53 143.744C234.295 144.172 234.815 144.723 235.336 145.274C236.132 146.1 236.866 146.895 238.397 146.865C239.07 146.865 239.651 147.018 240.111 147.324C240.539 147.599 240.876 147.966 241.121 148.425C242.743 147.844 246.263 149.312 249.752 150.719C253.088 152.096 256.425 153.442 257.68 152.983C258.322 152.738 258.812 150.628 259.149 147.568C258.996 146.253 258.812 144.907 258.659 143.622C257.802 136.616 256.976 130.008 256.761 125.786C256.608 122.696 256.853 120.769 257.71 120.738C258.139 120.708 258.475 120.983 258.782 121.534C259.394 122.696 259.853 125.266 260.098 128.509C260.343 131.691 260.434 135.545 260.373 139.247C260.312 142.153 260.128 144.998 259.853 147.385C260.985 156.624 262.026 165.985 261.781 171.217C262.087 171.247 262.363 171.278 262.638 171.308C262.669 167.79 262.669 163.966 262.669 161.029C262.669 158.949 262.669 157.266 262.669 156.44C262.699 156.134 262.822 155.89 263.067 155.706ZM262.424 153.901C262.669 154.482 263.189 154.972 263.862 155.369C264.566 155.186 265.607 155.125 266.862 155.155C267.995 155.186 269.28 155.247 270.749 155.339C271.239 155.369 271.759 155.4 272.31 155.431C272.28 153.901 272.249 152.31 272.31 150.658C270.504 150.903 268.821 151.148 267.413 151.454C265.24 151.912 263.618 152.433 262.822 153.044C262.424 153.32 262.301 153.595 262.424 153.901ZM264.964 155.92C266.77 156.624 269.311 157.052 272.341 157.266C272.341 156.899 272.31 156.532 272.31 156.165C271.759 156.134 271.208 156.104 270.688 156.073C269.219 155.981 267.903 155.92 266.831 155.889C266.127 155.889 265.485 155.89 264.964 155.92ZM275.463 150.291C274.637 150.383 273.841 150.444 273.045 150.536C272.984 152.249 273.014 153.87 273.045 155.431C274.637 155.522 276.351 155.584 278.126 155.584C286.39 155.645 295.97 155.186 302.245 154.146C304.326 153.809 306.04 153.411 307.234 152.953C308.275 152.555 308.826 152.127 308.765 151.729C308.765 151.668 308.734 151.637 308.703 151.576C307.601 149.281 288.839 149.006 275.463 150.291ZM262.057 181.19C262.424 180.914 262.577 176.846 262.638 172.043C262.332 172.012 262.026 171.981 261.72 171.951C261.628 172.991 261.475 173.848 261.261 174.459C259.149 180.088 251.466 179.66 240.845 179.079C237.05 178.865 232.856 178.651 228.449 178.651C221.134 178.681 215.869 179.63 212.074 180.333C207.115 181.251 204.544 181.71 202.922 179.171C201.82 177.427 202.126 174.459 202.493 171.247C202.554 170.788 202.585 170.36 202.646 169.901C201.973 169.993 201.391 169.779 201.024 169.167C200.81 168.83 200.749 168.341 200.687 167.821C200.626 168.861 199.738 169.809 198.545 170.605C197.382 171.339 195.882 171.951 194.535 172.226C193.801 172.379 193.127 172.44 192.546 172.41C191.658 172.348 191.229 171.859 191.015 171.186C191.015 173.572 191.26 177.794 191.535 181.71C224.47 181.679 261.567 181.557 262.057 181.19ZM190.801 182.444C183.73 182.444 176.874 182.475 170.6 182.475C153.765 182.505 141.308 182.505 141.277 182.536C141.246 182.536 141.308 183.729 141.369 185.289C141.461 187.247 141.675 189.664 141.889 191.285C142.073 192.632 145.256 193.947 149.908 194.865C154.775 195.844 161.233 196.425 167.6 196.272C168.426 196.241 169.253 196.211 170.079 196.18C175.68 195.844 181.068 194.865 185.047 193.794C188.873 192.723 191.382 191.653 191.352 190.98C191.321 190.674 191.291 189.909 191.199 188.869C191.138 187.247 190.985 184.922 190.801 182.444ZM191.535 168.463C191.75 168.433 191.964 168.371 192.209 168.341C193.341 168.127 194.841 167.882 194.994 167.515C195.086 167.27 194.474 166.872 192.454 166.108C192.148 165.985 191.933 165.802 191.78 165.587C191.658 165.404 191.566 165.22 191.535 165.037C191.505 164.823 191.505 164.639 191.566 164.486C191.597 164.364 191.689 164.272 191.78 164.18C192.056 163.966 192.423 163.844 192.852 163.752C193.892 163.538 195.362 163.63 196.739 164.027C198.116 164.425 199.432 165.129 200.136 166.108C200.381 166.444 200.565 166.811 200.657 167.209C200.596 166.566 200.534 165.863 200.228 165.373C199.892 164.761 199.279 164.333 198.484 163.966C197.688 163.599 196.708 163.385 195.637 163.232C193.801 162.956 192.331 162.528 191.138 161.977C191.168 162.283 191.138 162.559 191.015 162.773C190.832 163.109 190.525 163.293 190.036 163.232H189.944C187.71 162.987 181.588 162.345 179.384 159.591C178.803 158.857 177.823 158.092 176.752 157.266C174.303 155.339 171.457 153.075 171.304 149.74C170.661 149.863 169.926 149.557 169.039 148.67C167.478 147.109 168.151 145.243 168.732 143.744C169.069 142.888 169.314 142.184 168.977 141.939C168.151 141.419 167.324 140.287 166.804 138.941C166.345 137.748 166.1 136.371 166.284 135.086C166.406 134.199 166.008 133.343 165.549 132.364C165.304 131.844 165.029 131.262 164.815 130.65C164.631 130.773 164.447 130.895 164.294 131.018C163.131 131.782 162.213 132.394 162.886 134.352C163.805 137.014 165.519 144.05 166.314 150.016C166.835 154.054 166.927 157.633 166.07 159.132C165.059 160.907 160.346 161.457 155.051 162.1C150.521 162.651 145.562 163.232 142.195 164.608C142.256 164.823 142.471 165.067 142.777 165.312C147.919 163.844 156.826 162.834 165.519 162.436C176.354 161.916 186.852 162.345 189.424 163.874C190.158 164.303 190.372 164.853 190.005 165.465C189.485 166.352 185.812 167.209 180.608 167.912C174.977 168.677 167.508 169.32 160.407 169.656C156.734 169.84 153.337 169.901 150.398 169.962C150.429 170.299 150.215 170.513 149.694 170.635C149.633 170.635 149.541 170.666 149.48 170.666C148.409 170.819 146.878 170.543 145.409 170.054C144.124 170.085 143.022 170.115 142.165 170.146L142.256 170.176C144.001 170.605 146.266 170.911 148.868 171.033C153 171.186 157.989 171.002 163.039 170.605C168.09 170.238 173.232 169.687 177.639 169.167C184.312 168.402 188.903 166.475 189.76 166.138C190.617 165.771 191.107 166.016 191.352 166.628C191.536 167.086 191.535 167.729 191.535 168.463ZM192.331 169.044C192.025 169.106 191.719 169.136 191.505 169.197C191.505 170.421 191.566 171.645 192.546 171.675C193.066 171.706 193.709 171.645 194.351 171.492C195.637 171.217 197.014 170.666 198.116 169.962C199.157 169.289 199.892 168.524 199.953 167.729C199.953 167.607 199.953 167.515 199.922 167.392C199.861 167.086 199.708 166.781 199.524 166.505C198.912 165.649 197.749 165.037 196.525 164.67C195.27 164.303 193.954 164.211 193.005 164.425C192.699 164.486 192.423 164.578 192.24 164.731C192.24 164.761 192.24 164.792 192.24 164.853C192.27 164.945 192.301 165.037 192.362 165.129C192.454 165.251 192.546 165.343 192.699 165.404C195.208 166.352 195.912 167.117 195.668 167.76C195.362 168.524 193.647 168.83 192.331 169.044ZM139.563 169.993C138.981 169.687 138.614 169.381 138.43 169.044C138.186 168.616 138.155 168.218 138.308 167.851C137.482 169.32 137.053 170.941 136.778 172.593C137.543 172.654 138.339 172.716 139.165 172.807C139.226 171.92 139.287 171.064 139.318 170.36V170.299C139.318 170.176 139.41 170.085 139.563 169.993ZM139.043 168.708C139.226 169.044 139.747 169.35 140.573 169.687C141.338 169.565 142.409 169.473 143.756 169.412C142.348 168.708 141.155 167.79 140.757 166.781C140.512 166.903 140.298 166.995 140.083 167.117C139.165 167.637 138.736 168.157 139.043 168.708ZM138.583 167.362C138.859 167.056 139.257 166.75 139.747 166.475C139.991 166.322 140.267 166.199 140.604 166.077C140.542 165.924 140.481 165.74 140.389 165.557C139.838 165.924 139.379 166.322 139.043 166.75C138.859 166.964 138.706 167.148 138.583 167.362ZM141.277 165.802C141.491 165.71 141.736 165.649 142.012 165.557C141.797 165.343 141.644 165.129 141.552 164.914C141.369 165.006 141.185 165.098 141.032 165.19C141.093 165.404 141.216 165.618 141.277 165.802ZM165.549 163.171C157.193 163.568 148.654 164.486 143.542 165.863C144.521 166.475 145.838 167.148 147.031 167.729C148.164 168.31 149.235 168.8 149.847 169.259C152.908 169.197 156.489 169.106 160.407 168.953C167.478 168.616 174.946 167.974 180.547 167.209C185.536 166.536 188.995 165.771 189.393 165.129C189.515 164.914 189.393 164.731 189.056 164.517C186.608 163.048 176.262 162.651 165.549 163.171ZM142.654 166.108C142.226 166.23 141.828 166.383 141.461 166.505C141.797 167.423 143.083 168.31 144.552 168.953C144.858 169.106 145.195 169.228 145.531 169.35C146.45 169.32 147.429 169.32 148.5 169.289H148.531C148.011 169.014 147.399 168.708 146.725 168.371C145.287 167.668 143.695 166.872 142.654 166.108ZM149.664 169.993C149.694 170.054 149.694 170.115 149.694 170.054C149.694 170.023 149.664 170.023 149.664 169.993ZM139.838 173.572C139.808 174.184 139.808 174.796 139.808 175.377C142.042 175.744 144.981 176.478 147.674 177.152C150.704 177.916 153.459 178.589 154.408 178.589C155.142 178.589 155.602 178.375 155.816 178.1C155.908 177.978 155.938 177.855 155.969 177.733C155.969 177.61 155.938 177.457 155.877 177.335C155.724 177.029 155.357 176.723 154.775 176.631C154.469 176.57 153.796 176.417 152.816 176.203C149.939 175.5 144.552 174.245 139.838 173.572ZM139.134 176.601C139.134 176.387 139.104 176.203 139.104 175.989C137.971 175.836 137.175 175.805 136.9 175.989C136.808 176.081 136.778 176.111 136.778 176.142C137.053 176.478 138.124 176.815 139.165 177.09C139.165 176.937 139.134 176.754 139.134 176.601ZM139.073 175.285C139.073 174.704 139.073 174.092 139.104 173.48C138.247 173.358 137.42 173.266 136.625 173.236C136.502 174 136.441 174.735 136.38 175.469C136.41 175.469 136.41 175.438 136.441 175.438C136.839 175.102 137.788 175.102 139.073 175.285ZM140.053 178.069C140.206 178.712 140.42 179.079 140.726 179.079C141.155 179.048 141.399 178.987 141.522 178.895C141.552 178.865 141.552 178.865 141.552 178.865C141.552 178.834 141.552 178.804 141.522 178.773C141.43 178.62 141.216 178.467 140.94 178.345C140.757 178.253 140.451 178.161 140.053 178.069ZM135.921 173.174C133.319 173.052 131.421 173.327 131.176 174.368C130.717 176.295 133.074 177.549 135.339 178.283C135.431 177.549 135.523 176.784 135.614 175.928C135.706 175.071 135.798 174.123 135.921 173.174ZM130.472 174.184C130.778 172.838 133.013 172.44 136.012 172.532C136.38 170.329 137.022 168.096 138.43 166.26C138.828 165.74 139.379 165.282 139.991 164.884C138.89 163.048 136.502 160.02 134.39 157.327C132.339 154.727 130.534 152.433 130.258 151.607C129.891 151.851 129.523 152.065 129.156 152.157C128.33 152.341 127.565 151.974 127.167 150.169C127.136 150.016 127.075 149.71 126.983 149.404C126.554 147.538 125.942 144.937 125.636 141.939C125.483 140.41 125.055 138.972 124.565 137.748C124.351 139.216 124.381 140.96 124.412 142.612C124.443 144.111 124.443 145.519 124.289 146.559C124.198 147.201 123.769 147.629 123.218 147.874C122.943 147.997 122.637 148.088 122.3 148.119C121.963 148.15 121.657 148.15 121.32 148.088C120.433 147.966 119.606 147.507 119.3 146.834C118.688 145.457 118.137 143.561 117.739 141.756C117.311 142.52 116.668 143.01 115.78 142.979C114.832 142.949 114.005 142.367 113.332 141.541C112.811 140.899 112.383 140.134 112.077 139.339C111.863 139.461 111.587 139.584 111.312 139.614C109.751 139.798 109.138 137.503 108.557 135.392C108.19 134.046 107.853 132.761 107.394 132.486C106.812 132.149 106.261 131.385 105.833 130.589C105.71 130.344 105.588 130.1 105.496 129.855C105.404 129.916 105.282 129.947 105.159 129.977C104.486 130.222 101.395 130.559 97.5992 130.344C95.1812 130.222 92.4876 129.855 89.9166 129.151C89.8247 129.121 89.7635 129.09 89.6717 129.09C89.5187 129.518 89.3962 129.916 89.2432 130.344C87.8046 134.505 87.4679 139.247 87.1312 143.897C86.8558 147.599 86.6109 151.239 85.7845 154.543C84.9887 157.847 84.5908 160.968 84.4071 163.66C84.101 168.402 84.4683 171.798 84.5908 172.563C84.7438 173.511 85.2335 174.276 85.8763 174.857C86.5803 174.398 87.3761 174.062 88.1107 173.878C88.9371 173.664 89.7023 173.633 90.192 173.848C90.8042 174.123 91.0491 174.643 90.6512 175.5C90.4369 175.989 90.0696 176.295 89.6105 176.509C89.0595 176.723 88.3862 176.754 87.6822 176.601C87.07 176.448 86.4272 176.173 85.8763 175.775C84.6214 176.723 83.8562 178.13 84.9274 179.691C85.1111 179.966 91.7531 180.18 100.323 180.394C111.985 180.639 127.105 180.761 134.696 180.761C134.972 180.272 135.155 179.66 135.278 178.957C132.645 178.161 129.891 176.693 130.472 174.184ZM137.237 179.568C136.839 179.477 136.41 179.354 135.951 179.232C135.829 179.813 135.676 180.333 135.492 180.792C137.604 180.792 138.981 180.792 139.349 180.792C139.349 180.761 139.349 180.731 139.349 180.67C139.349 180.578 139.318 180.456 139.318 180.364C139.257 180.15 139.226 179.966 139.226 179.966C139.226 179.966 139.134 179.966 139.012 179.935C138.645 179.874 137.971 179.752 137.237 179.568ZM88.2637 174.643C87.6822 174.796 87.07 175.041 86.4884 175.377C86.917 175.652 87.3761 175.836 87.8046 175.928C88.3556 176.05 88.9065 176.05 89.3044 175.867C89.6105 175.744 89.8247 175.53 89.9778 175.255C90.1614 174.888 90.0696 174.643 89.886 174.551C89.5493 174.429 88.9371 174.459 88.2637 174.643ZM89.2126 128.234C89.7635 126.612 90.3145 124.93 90.8348 123.339C93.008 116.792 94.8139 111.285 96.0994 110.245C96.3137 110.092 96.4973 109.878 96.681 109.664C96.2218 109.205 95.7627 108.777 95.3342 108.409C94.1099 108.838 93.0692 108.562 92.3958 108.073C92.1204 107.859 91.9061 107.645 91.7531 107.4C91.6 107.124 91.5082 106.849 91.5082 106.604C91.5388 106.237 91.7224 105.962 92.1203 105.84C92.7937 105.625 93.9874 106.298 95.426 107.492L95.4872 107.553C95.5485 107.522 95.5791 107.492 95.6403 107.461C96.834 106.819 97.1707 104.31 97.538 101.587C97.9665 98.4667 98.4256 95.1321 100.323 93.6942C100.568 93.5107 100.813 93.2659 101.058 92.9906C101.609 89.4418 102.099 86.3825 102.741 84.9447C103.017 84.3328 103.231 83.9963 103.445 83.8739C103.935 83.5374 104.241 83.8127 104.333 84.5164C104.394 84.8835 104.364 85.4342 104.302 86.1072C104.058 88.1569 103.231 91.3692 101.762 93.2965L101.701 93.6636C100.813 99.4457 99.7724 106.298 97.6604 109.572C98.6093 110.52 99.5887 111.591 100.568 112.723C101.486 113.763 103.537 114.038 105.955 114.344C108.894 114.712 112.322 115.17 114.985 117.19C115.903 117.893 116.821 118.444 117.831 119.056C119.025 119.759 120.341 120.555 121.871 121.717C122.973 122.513 123.922 123.063 124.749 123.492C126.616 124.501 127.871 125.205 128.605 127.805C130.778 135.576 130.962 146.436 130.993 150.169C131.452 149.863 131.819 149.74 132.186 150.016C132.676 150.444 136.074 154.911 138.767 158.826C140.206 160.876 141.43 162.803 141.95 163.905C145.409 162.498 150.429 161.886 154.959 161.366C160.07 160.754 164.6 160.203 165.427 158.765C166.192 157.419 166.1 153.993 165.58 150.107C164.815 144.203 163.101 137.228 162.182 134.597C161.325 132.088 162.458 131.354 163.896 130.406C164.111 130.253 164.355 130.1 164.6 129.916C164.264 128.601 164.202 127.04 164.845 124.991C165.457 123.125 166.008 121.931 166.406 121.442C166.682 121.105 166.957 121.014 167.233 121.075C167.478 121.167 167.661 121.411 167.753 121.809C167.937 122.543 167.906 124.012 167.6 126.123C167.324 128.234 166.406 129.396 165.427 130.191C165.641 130.895 165.947 131.507 166.192 132.058C166.712 133.159 167.141 134.107 166.988 135.178C166.804 136.341 167.018 137.564 167.447 138.635C167.906 139.828 168.641 140.838 169.314 141.266C170.171 141.817 169.804 142.765 169.375 143.928C168.885 145.213 168.273 146.834 169.528 148.088C170.263 148.823 170.844 149.006 171.304 148.884C171.304 148.761 171.334 148.639 171.334 148.517C171.701 146.039 172.528 144.662 173.201 144.081C173.507 143.836 173.783 143.744 174.028 143.744C174.364 143.744 174.609 143.928 174.701 144.264C174.823 144.601 174.732 145.182 174.334 145.855C174.181 146.13 174.028 146.375 173.905 146.62C173.415 147.538 172.926 148.425 172.344 149.006C172.222 149.128 172.069 149.251 171.946 149.343C171.916 152.524 174.732 154.727 177.119 156.624C178.221 157.48 179.2 158.276 179.843 159.071C181.863 161.58 187.74 162.222 189.913 162.436H190.005C190.158 162.467 190.25 162.436 190.25 162.375C190.342 162.222 190.311 161.916 190.189 161.549V161.519C189.24 161.029 188.567 160.478 188.077 159.958C187.679 159.53 187.434 159.132 187.281 158.796C187.128 158.398 187.097 158.031 187.22 157.786C187.312 157.572 187.465 157.45 187.679 157.389C188.322 157.205 189.485 158.429 190.219 159.805C190.434 160.203 190.648 160.631 190.77 161.029C191.964 161.61 193.525 162.161 195.576 162.467C196.678 162.62 197.718 162.895 198.606 163.262C199.524 163.66 200.228 164.211 200.687 164.945C201.085 165.649 201.177 166.536 201.238 167.331C201.299 167.912 201.33 168.463 201.483 168.738C201.697 169.075 202.065 169.197 202.493 169.106C202.524 169.106 202.554 169.106 202.585 169.075C202.952 164.884 202.861 160.754 199.249 159.163C197.871 158.551 196.678 158.215 195.698 157.939C192.637 157.083 191.352 156.746 191.811 151.086C191.964 149.281 191.474 146.161 190.709 143.408C190.525 142.735 190.342 142.092 190.128 141.48C189.362 141.694 188.658 141.511 188.107 141.083C187.771 140.807 187.465 140.471 187.281 140.073C187.097 139.675 187.005 139.278 187.005 138.88C187.036 138.268 187.342 137.748 188.016 137.564C188.107 137.534 188.199 137.534 188.322 137.534C188.934 137.595 189.515 138.299 190.066 139.369C190.219 139.706 190.372 140.073 190.525 140.44C192.056 139.431 191.076 137.228 190.128 135.025C189.638 133.893 189.148 132.792 188.934 131.782C187.893 126.367 186.087 125.174 184.955 124.44C183.577 123.553 182.996 123.155 184.771 119.147C187.556 112.784 186.393 99.9964 185.322 88.524C185.138 86.6273 184.985 84.7917 184.832 83.2315C184.557 79.8968 183.088 77.2047 181.037 74.9102C178.986 72.5852 176.323 70.6578 173.691 68.8834C171.487 67.3844 169.283 65.8853 167.416 64.6922C165.58 63.4991 164.08 62.6425 163.223 62.3059C161.846 61.7859 159.519 62.3059 156.673 62.9178C155.571 63.1625 154.347 63.4073 153.122 63.652C153.888 64.2027 154.377 64.6004 154.561 64.9675C154.745 65.3958 154.622 65.7018 154.132 65.9465C153.765 66.0995 153.184 66.3442 152.143 66.4972C151.133 66.6195 149.664 66.6807 147.521 66.5278C134.696 65.5488 129.676 55.5755 127.167 50.5889C126.585 49.4264 126.126 48.5392 125.789 48.1415C125.697 48.0497 125.636 47.9885 125.636 48.0191C123.524 49.9464 119.729 49.4875 115.138 48.9675C109.659 48.325 103.047 47.5602 97.2013 50.6195C94.3853 52.0879 91.9673 54.6883 89.6717 58.8184C87.3455 62.979 85.1111 68.6999 82.7237 76.4093C82.1115 78.3978 81.4075 80.2028 80.826 81.7018C80.0914 83.568 79.571 84.9753 79.6016 85.6177C79.6935 87.698 78.3161 89.6254 76.9387 91.5221C75.5614 93.4189 74.2146 95.285 74.4901 97.1818C74.7655 98.9256 74.031 101.037 73.2657 103.209C72.2557 106.115 71.215 109.144 72.5312 111.346C73.7555 113.365 73.6943 114.987 73.633 116.241C73.5718 117.404 73.5412 118.23 74.888 118.719C75.3777 118.903 75.8368 118.933 76.2041 118.811C76.2347 118.811 76.2653 118.78 76.296 118.78C75.9593 116.669 76.3266 114.987 76.8469 114.038C77.0305 113.702 77.2448 113.427 77.4591 113.243C77.7345 113.029 78.01 112.937 78.2855 112.998C78.5916 113.06 78.8364 113.335 78.9589 113.794C79.2037 114.65 79.0813 115.905 78.6834 117.037C78.4691 117.587 78.163 118.138 77.7958 118.566C77.5815 118.811 77.3672 119.025 77.0918 119.178C77.1836 119.576 77.2754 119.973 77.4285 120.371C77.8264 121.595 79.571 123.247 81.9585 124.807C84.1316 126.184 86.6109 127.408 89.2126 128.234ZM91.5388 123.583C91.0185 125.144 90.4981 126.765 89.9166 128.478C89.9778 128.509 90.0696 128.509 90.1308 128.539C92.6407 129.243 95.273 129.58 97.6604 129.733C101.364 129.947 104.333 129.641 104.915 129.396C105.037 129.335 105.159 129.304 105.282 129.243C105.251 129.151 105.221 129.029 105.221 128.937C105.098 128.325 105.129 127.775 105.343 127.408C105.435 127.255 105.557 127.132 105.741 127.04C106.169 126.826 106.567 126.857 106.843 127.071C106.996 127.193 107.118 127.377 107.18 127.591C107.241 127.775 107.241 128.019 107.18 128.234C107.088 128.662 106.782 129.151 106.169 129.549C106.261 129.824 106.384 130.069 106.506 130.314C106.873 131.018 107.363 131.66 107.792 131.935C108.496 132.364 108.863 133.771 109.291 135.27C109.781 137.105 110.332 139.063 111.25 138.941C111.495 138.91 111.71 138.819 111.863 138.666C111.648 137.932 111.526 137.228 111.526 136.677C111.526 136.188 111.679 135.79 111.924 135.576C112.199 135.362 112.475 135.331 112.72 135.453C112.964 135.606 113.148 135.912 113.24 136.341C113.301 136.677 113.301 137.105 113.24 137.534C113.148 137.993 112.995 138.482 112.72 138.849C112.995 139.645 113.424 140.471 113.944 141.113C114.495 141.786 115.138 142.276 115.842 142.276C116.699 142.306 117.25 141.48 117.525 140.501C117.464 140.104 117.403 139.736 117.341 139.4C117.219 138.543 117.127 137.779 117.127 137.228C117.127 136.524 117.25 136.065 117.556 135.943C117.617 135.943 117.648 135.912 117.709 135.912C118.107 135.912 118.413 136.494 118.505 137.381C118.535 137.779 118.566 138.237 118.535 138.727C118.505 139.216 118.443 139.736 118.352 140.226C118.321 140.318 118.321 140.44 118.29 140.532C118.688 142.612 119.331 144.968 120.035 146.589C120.219 147.018 120.831 147.324 121.474 147.415C121.749 147.446 122.024 147.476 122.269 147.446C122.514 147.415 122.759 147.354 122.973 147.262C123.31 147.109 123.555 146.865 123.616 146.497C123.769 145.519 123.739 144.142 123.739 142.673C123.708 140.991 123.708 139.155 123.922 137.656C123.983 137.197 124.014 136.769 124.045 136.402C123.647 135.576 123.31 134.995 123.096 134.658C122.79 134.169 122.759 133.771 122.851 133.496C122.943 133.19 123.218 133.006 123.524 133.067C123.739 133.098 123.983 133.251 124.198 133.557C124.504 134.016 124.81 134.842 124.779 136.249C124.902 136.494 125.024 136.769 125.146 137.075C125.697 138.421 126.248 140.073 126.432 141.878C126.738 144.815 127.35 147.385 127.779 149.251C127.84 149.496 127.871 149.71 127.962 150.016C128.238 151.239 128.636 151.545 129.095 151.454C129.462 151.362 129.921 151.056 130.319 150.719C130.289 147.629 130.197 136.096 127.962 127.989C127.32 125.664 126.157 125.052 124.473 124.104C123.616 123.645 122.637 123.094 121.504 122.268C119.974 121.136 118.688 120.341 117.494 119.637C116.454 118.995 115.505 118.444 114.556 117.71C112.046 115.813 108.741 115.385 105.894 115.017C103.354 114.681 101.15 114.406 100.048 113.151C99.099 112.081 98.1501 111.04 97.2625 110.123C97.0483 110.367 96.8646 110.581 96.6197 110.765C95.4566 111.713 93.6507 117.159 91.5388 123.583ZM97.0789 109.052C98.946 106.054 99.956 99.721 100.813 94.2143C100.782 94.2449 100.752 94.2755 100.721 94.2755C99.0684 95.5298 98.6399 98.7115 98.2114 101.679C97.8135 104.524 97.4768 107.155 96.0076 108.042C96.3749 108.379 96.7422 108.715 97.0789 109.052ZM103.354 85.2506C102.833 86.3825 102.435 88.677 102.007 91.4304C102.833 89.7172 103.354 87.5451 103.537 86.0154C103.598 85.5259 103.598 85.0976 103.598 84.7917C103.507 84.9141 103.445 85.067 103.354 85.2506ZM92.7937 107.461C93.2222 107.767 93.865 107.981 94.6302 107.828C93.5283 106.941 92.6713 106.421 92.304 106.543C92.2428 106.574 92.2122 106.604 92.2122 106.635C92.2122 106.727 92.2428 106.849 92.3346 107.002C92.457 107.155 92.6101 107.308 92.7937 107.461ZM130.962 151.117C130.962 151.27 130.962 151.392 130.962 151.454C130.962 151.851 132.829 154.207 134.972 156.899C137.084 159.561 139.44 162.559 140.634 164.517C140.848 164.394 141.032 164.303 141.277 164.211C140.787 163.201 139.563 161.335 138.155 159.255C135.492 155.4 132.125 150.995 131.697 150.597C131.635 150.597 131.329 150.811 130.962 151.117ZM123.677 134.322C123.708 134.383 123.739 134.444 123.8 134.505C123.739 134.291 123.647 134.138 123.555 134.016C123.524 133.985 123.524 133.954 123.494 133.954C123.524 134.046 123.585 134.169 123.677 134.322ZM112.26 136.708C112.26 137.014 112.291 137.411 112.383 137.87C112.444 137.717 112.475 137.595 112.475 137.442C112.536 137.105 112.536 136.769 112.475 136.494C112.444 136.279 112.383 136.157 112.352 136.127C112.322 136.127 112.383 136.157 112.383 136.157C112.291 136.218 112.26 136.432 112.26 136.708ZM105.894 128.754V128.784C106.2 128.539 106.353 128.264 106.414 128.019C106.445 127.897 106.445 127.805 106.414 127.744C106.384 127.683 106.384 127.652 106.323 127.622C106.261 127.561 106.139 127.591 105.986 127.652C105.955 127.683 105.925 127.713 105.894 127.744C105.802 127.958 105.802 128.325 105.894 128.754ZM77.6427 114.436C77.1836 115.262 76.8775 116.669 77.1224 118.444C77.2142 118.352 77.306 118.26 77.3978 118.169C77.7039 117.801 77.9488 117.343 78.1324 116.853C78.4997 115.843 78.5916 114.742 78.4079 114.038C78.3467 113.855 78.3161 113.763 78.2549 113.763C78.2243 113.763 78.1324 113.794 78.0406 113.855C77.9488 113.977 77.7958 114.161 77.6427 114.436ZM151.378 63.3155C150.031 62.3671 148.317 61.1434 146.572 59.5526C145.44 58.4818 144.368 57.1969 143.45 55.7897C142.471 54.2906 141.614 52.6386 140.94 50.9866C140.236 49.2734 139.838 47.7132 139.685 46.7036C139.624 46.3059 139.594 45.9694 139.563 45.7246C139.563 45.3269 139.655 45.0822 139.869 44.9904C139.9 44.9904 139.93 44.9598 139.961 44.9598C140.298 44.8986 140.542 45.4799 140.971 46.4283C142.593 50.1606 147.337 61.021 154.132 61.3576C160.376 61.6635 163.866 56.3403 166.467 52.3327C167.324 51.0478 168.059 49.8852 168.824 49.0592C170.691 47.0095 174.64 41.9617 176.323 37.0362C177.364 34.0381 177.517 31.04 175.864 28.868C173.783 26.1452 169.436 24.7991 164.845 24.5544C159.55 24.2484 153.979 25.3498 151.194 27.4607C147.98 29.8775 146.878 30.214 146.082 29.1739C145.929 28.9597 145.776 28.6844 145.654 28.3479C144.277 29.3268 143.297 30.4588 142.96 31.7743C142.532 33.4875 141.92 34.4053 141.277 34.7112C141.093 34.803 140.91 34.8336 140.757 34.8642C140.298 36.0879 139.747 37.281 139.165 38.4129C137.726 41.1663 135.982 43.4913 134.145 44.4397C133.411 44.8374 132.676 45.1739 131.972 45.4799C129.83 46.4282 128.269 47.1625 128.973 48.8451C134.91 63.1014 143.879 64.2945 151.378 63.3155ZM145.96 27.1548L145.991 27.2465C150.123 24.7685 156.765 23.3306 162.121 22.1987C164.478 21.7092 166.559 21.2503 168.059 20.7914C169.253 20.4243 170.14 19.7819 170.814 18.9253C170.416 17.2733 170.232 15.4683 170.202 13.8163C170.171 12.6537 170.232 11.583 170.324 10.6958C170.416 9.77801 170.6 9.04378 170.783 8.61548C170.967 8.18718 171.242 7.97303 171.579 8.06481C172.038 8.15659 172.467 8.79904 172.742 9.74742C172.956 10.4816 173.14 11.3994 173.171 12.409C173.232 13.4186 173.171 14.5199 172.987 15.6212C172.742 16.8756 172.314 18.0993 171.579 19.1088C172.099 21.1891 172.987 22.8718 174.364 23.3001C176.691 24.0037 177.884 27.4301 178.772 29.9999C179.262 31.3766 179.629 32.4779 179.904 32.5697C180.088 32.6309 180.364 31.9578 180.853 30.1223C180.945 29.7551 181.037 29.388 181.129 29.0209C182.873 21.8316 182.108 15.9272 179.69 11.5218C177.272 7.11643 173.232 4.17952 168.396 2.86402C168.212 2.80284 167.998 2.77224 167.784 2.71106C163.498 1.6709 160.407 1.73209 155.846 1.79327C155.479 1.79327 155.081 1.79327 154.714 1.82387C150.429 1.88505 147.307 3.75122 145.103 6.19864C141.43 10.3287 140.236 16.1107 140.236 18.0381C140.236 19.5677 141.032 20.2714 142.073 21.1586C143.052 22.0152 144.215 22.9941 145.103 24.9521C145.47 25.7781 145.746 26.5123 145.96 27.1548ZM170.936 13.7857C170.967 15.1929 171.089 16.692 171.365 18.0993C171.824 17.3039 172.099 16.4167 172.283 15.4989C172.467 14.4587 172.528 13.4186 172.467 12.4702C172.405 11.5218 172.252 10.6346 172.038 9.96157C171.824 9.25793 171.61 8.79904 171.426 8.76844C171.395 8.76844 171.457 8.82963 171.426 8.92141C171.242 9.28852 171.12 9.93097 171.028 10.757C170.936 11.6442 170.906 12.6843 170.936 13.7857ZM140.175 33.9464C140.175 33.9464 140.206 33.9464 140.206 33.977C140.971 31.9272 141.552 29.8469 141.828 28.0419C142.165 25.9616 141.828 24.4014 141.185 23.606C140.971 23.3612 140.757 23.1777 140.512 23.1165C140.298 23.0553 140.053 23.0859 139.808 23.2083C139.165 23.5448 138.522 24.5544 138.124 26.3593C137.604 28.715 138.277 31.5295 139.287 33.0592C139.594 33.4569 139.9 33.7934 140.175 33.9464ZM188.658 140.593C188.995 140.868 189.454 140.991 189.974 140.868C189.821 140.471 189.668 140.134 189.515 139.798C189.087 138.941 188.689 138.39 188.383 138.36C188.352 138.36 188.352 138.36 188.322 138.36C188.016 138.452 187.863 138.696 187.863 139.002C187.863 139.247 187.924 139.553 188.046 139.828C188.199 140.134 188.413 140.379 188.658 140.593ZM261.077 171.125C261.291 166.475 260.465 158.398 259.455 150.107C259.057 152.157 258.567 153.503 257.924 153.748C256.394 154.299 252.966 152.891 249.477 151.454C246.079 150.046 242.651 148.67 241.396 149.128C241.488 149.465 241.549 149.802 241.549 150.138C241.549 150.872 241.365 151.637 240.968 152.28C240.662 152.769 240.355 152.983 240.049 152.983C239.743 153.014 239.498 152.861 239.345 152.585C239.223 152.371 239.162 152.096 239.131 151.759C239.1 150.933 239.468 149.74 240.478 148.853C240.294 148.486 240.049 148.211 239.713 147.997C239.376 147.782 238.917 147.66 238.397 147.66C236.56 147.691 235.703 146.803 234.785 145.824C234.295 145.335 233.805 144.815 233.132 144.448C232.367 144.019 231.051 144.081 229.887 144.448C229.398 144.601 228.939 144.845 228.571 145.121C228.326 145.335 228.112 145.549 228.02 145.794C228.388 146.069 228.724 146.406 229.061 146.773C229.918 147.721 230.347 148.364 230.469 148.731C230.591 149.098 230.5 149.312 230.224 149.434C230.041 149.496 229.826 149.465 229.581 149.343C229.122 149.098 228.388 148.394 227.622 147.354C227.316 146.926 227.194 146.497 227.194 146.13C226.459 145.61 225.725 145.274 225.051 145.121C224.592 145.029 224.194 144.998 223.888 145.09C223.613 145.151 223.399 145.304 223.307 145.488C223.215 145.641 223.184 145.824 223.184 146.069C223.49 146.222 223.796 146.406 224.072 146.559C225.327 147.324 226.276 148.241 226.276 148.761C226.276 149.067 226.123 149.281 225.908 149.404C225.725 149.496 225.48 149.526 225.204 149.496C224.99 149.465 224.715 149.373 224.47 149.22C223.674 148.792 222.817 147.844 222.542 146.559C221.899 146.253 221.225 146.008 220.644 145.916C220.185 145.824 219.756 145.916 219.419 146.1C219.052 146.314 218.807 146.589 218.777 146.895C218.746 147.018 218.746 147.14 218.746 147.262C219.511 147.813 220.062 148.425 220.154 149.006C220.246 149.496 220.185 149.832 220.062 150.016C219.879 150.291 219.634 150.322 219.328 150.169C219.175 150.077 218.991 149.924 218.807 149.71C218.44 149.251 218.073 148.455 218.012 147.599C217.246 147.109 216.236 146.681 215.318 146.375C214.798 146.222 214.277 146.1 213.849 146.069C213.451 146.039 213.114 146.039 212.9 146.161C212.778 146.222 212.716 146.314 212.716 146.436C212.716 146.589 212.747 146.742 212.808 146.865C214.645 147.354 215.93 147.997 216.053 148.945C216.083 149.251 215.961 149.434 215.716 149.557C215.532 149.649 215.318 149.649 215.043 149.587C214.828 149.557 214.583 149.465 214.308 149.343C213.573 148.976 212.686 148.302 212.288 147.446C211.737 147.324 211.094 147.201 210.451 147.079C210.482 147.14 210.513 147.201 210.574 147.293C212.074 148.914 214.032 149.771 216.236 150.199C218.44 150.628 220.889 150.597 223.307 150.413C226.153 150.199 229.551 153.197 232.397 155.737C233.591 156.807 234.693 157.786 235.55 158.368C236.162 157.939 236.713 157.725 237.142 157.664C237.509 157.603 237.784 157.664 237.999 157.786C238.274 157.939 238.427 158.215 238.335 158.551C238.274 158.857 237.968 159.224 237.386 159.53C236.927 159.775 236.315 159.652 235.611 159.255C235.213 159.591 234.785 160.081 234.356 160.693C233.53 161.886 233.775 162.712 234.693 163.324C236.223 164.394 239.437 164.945 242.682 165.526C242.957 165.587 243.233 165.618 243.937 165.74C245.528 166.046 247.671 166.842 250.089 167.76C253.425 169.044 257.343 170.543 261.077 171.125ZM259.394 143.561L259.455 144.05C259.547 142.52 259.608 140.899 259.639 139.247C259.73 135.576 259.639 131.752 259.363 128.57C259.118 125.45 258.69 122.941 258.139 121.901C257.986 121.626 257.863 121.473 257.741 121.503C257.404 121.534 257.343 123.155 257.465 125.786C257.71 129.977 258.537 136.555 259.394 143.561ZM240.784 149.618C240.111 150.322 239.866 151.148 239.896 151.759C239.896 151.974 239.958 152.127 240.019 152.218C240.049 152.249 240.019 152.28 240.049 152.28C240.111 152.28 240.233 152.157 240.386 151.912C240.692 151.392 240.876 150.781 240.845 150.169C240.815 149.985 240.815 149.802 240.784 149.618ZM228.479 147.171C228.786 147.568 229.061 147.905 229.337 148.15C229.153 147.905 228.908 147.629 228.602 147.293C228.541 147.232 228.51 147.201 228.479 147.171ZM223.552 147.018C223.858 147.752 224.439 148.272 224.929 148.578C225.113 148.67 225.296 148.761 225.419 148.761C225.51 148.792 225.602 148.792 225.633 148.761C225.633 148.761 225.633 148.761 225.633 148.731C225.633 148.486 224.837 147.813 223.796 147.171C223.705 147.14 223.643 147.079 223.552 147.018ZM218.96 148.241C219.083 148.67 219.266 149.006 219.481 149.251C219.511 149.281 219.542 149.312 219.573 149.343C219.573 149.281 219.542 149.19 219.542 149.098C219.45 148.823 219.266 148.547 218.96 148.241ZM212.074 146.436C212.074 146.253 212.104 146.1 212.165 145.977C211.706 146.13 211.308 146.283 211.033 146.436C211.4 146.497 211.767 146.589 212.104 146.65C212.074 146.589 212.074 146.528 212.074 146.436ZM213.39 147.721C213.757 148.119 214.247 148.455 214.675 148.67C214.889 148.761 215.073 148.823 215.257 148.853C215.287 148.853 215.318 148.853 215.349 148.884C215.196 148.425 214.461 148.058 213.39 147.721ZM207.452 145.824C208.339 145.977 209.196 146.1 210.053 146.253C210.084 146.222 210.115 146.192 210.145 146.161C211.676 144.754 218.471 144.019 224.409 143.377C228.877 142.888 232.856 142.459 233.438 141.939C233.836 141.572 233.928 141.327 233.805 141.205C233.377 140.746 231.663 140.532 229.826 140.318H229.734C226.796 139.981 224.317 139.186 222.021 138.421C219.45 137.595 217.032 136.8 214.339 136.8C213.39 136.8 212.074 137.717 210.941 138.849C210.727 139.063 210.543 139.278 210.359 139.492C210.696 139.461 211.002 139.431 211.339 139.4C213.42 139.186 215.532 139.155 217.43 139.155C220.552 139.186 223.031 139.4 223.613 139.492C224.256 139.584 224.715 139.951 224.96 140.379C225.051 140.532 225.113 140.715 225.143 140.868C225.174 141.052 225.174 141.205 225.143 141.388C225.082 141.725 224.898 142 224.623 142.184C223.582 142.796 219.297 143.591 215.41 143.989C212.288 144.295 209.38 144.325 208.523 143.714C208.248 143.53 208.094 143.255 208.033 142.949C207.911 142.337 208.125 141.541 208.615 140.715C208.676 140.624 208.707 140.532 208.768 140.44C207.207 140.685 205.738 140.991 204.452 141.327C202.279 141.909 200.687 142.52 200.289 142.949C199.892 143.346 199.892 143.683 200.167 143.928C201.085 144.815 204.238 145.304 207.452 145.824ZM211.4 140.134C210.849 140.195 210.268 140.257 209.717 140.318C209.533 140.562 209.38 140.838 209.227 141.083C208.86 141.786 208.645 142.398 208.737 142.826C208.768 142.949 208.829 143.071 208.952 143.132C209.656 143.622 212.349 143.561 215.349 143.255C219.144 142.888 223.307 142.092 224.256 141.541C224.347 141.48 224.409 141.388 224.439 141.266C224.439 141.174 224.439 141.113 224.439 141.021C224.409 140.93 224.378 140.838 224.317 140.746C224.164 140.501 223.888 140.287 223.49 140.195C222.939 140.104 220.521 139.889 217.43 139.859C215.563 139.889 213.451 139.951 211.4 140.134ZM236.315 158.765C236.652 158.918 236.927 158.949 237.111 158.857C237.448 158.673 237.631 158.52 237.693 158.398C237.631 158.368 237.478 158.368 237.325 158.368C237.019 158.429 236.682 158.551 236.315 158.765ZM260.679 95.9581C259.179 94.8873 257.649 94.0002 256.149 93.3271C253.976 92.3481 251.864 91.8281 250.15 91.8281C252.17 100.027 255.445 107.583 260.251 109.021C263.281 109.908 264.628 109.603 264.964 108.501C265.485 106.788 263.893 103.178 262.057 99.048C261.597 98.0384 261.138 96.9983 260.679 95.9581ZM248.65 92.0116C248.436 92.0728 248.222 92.134 248.038 92.1952C247.64 92.3481 247.273 92.5623 246.967 92.8376C245.498 94.0919 245.345 96.3864 245.161 98.895C244.885 102.78 244.579 107.216 239.682 109.939C239.896 113.61 243.08 116.516 246.14 118.016C247.334 118.597 248.497 118.964 249.446 119.086C250.303 119.178 250.976 119.086 251.252 118.75C251.466 118.505 251.466 118.077 251.191 117.434C250.028 114.742 249.018 111.958 248.375 109.021C247.763 106.084 247.548 102.994 248.038 99.721C248.252 98.4055 248.436 96.2946 248.558 93.786C248.62 93.2047 248.65 92.6235 248.65 92.0116ZM235.305 110.826C236.744 110.459 237.937 110.031 238.947 109.48C238.947 109.297 238.947 109.113 238.978 108.96C239.162 106.635 238.978 102.536 238.733 97.7937C238.641 95.6216 238.519 93.2965 238.427 90.9409C238.213 84.6693 238.182 78.1836 239.009 73.4417C237.999 72.371 236.713 70.7802 235.183 68.914C229.765 62.2448 221.623 52.2103 215.808 52.6998C213.42 52.8833 212.931 57.5029 212.38 62.4895C212.165 64.3863 211.951 66.3442 211.614 68.1798C211.155 70.7802 211.553 73.5641 212.318 76.1645C213.482 80.0804 215.532 83.4762 216.665 84.9141C216.879 85.1894 217.093 85.4647 217.277 85.7401C218.838 87.851 220.368 89.9007 225.082 89.2889C228.816 88.7994 232.918 84.7611 235.152 82.5584C235.764 81.9466 236.254 81.4571 236.56 81.2429C236.927 80.9676 237.203 80.9064 237.417 81.1817C237.509 81.3041 237.509 81.4571 237.417 81.6712C237.264 81.9772 236.682 83.0173 235.703 84.3022C234.724 85.5871 233.377 87.1168 231.663 88.4323C228.112 91.1856 223.001 92.9906 216.665 89.8395C216.542 89.7783 216.359 89.7477 216.114 89.7783C215.685 89.8089 215.165 89.9619 214.614 90.329C214.063 90.6961 213.543 91.2468 213.114 92.0728C212.563 93.2047 212.227 94.7956 212.38 97.0594C212.41 97.5795 212.502 98.1608 212.655 98.7114C213.42 101.74 215.563 105.136 218.838 107.645C222.113 110.184 226.49 111.836 231.663 111.469C232.856 111.316 234.05 111.132 235.305 110.826ZM239.743 73.1664C240.233 73.6559 240.6 73.9618 240.845 74.0842C242.253 74.6349 243.416 74.0536 244.243 73.044C244.794 72.371 245.161 71.5144 245.345 70.6272C245.528 69.7706 245.528 68.914 245.314 68.241C245.069 67.5067 244.518 67.0478 243.631 67.0784C241.58 67.1702 240.386 69.5564 239.743 73.1664ZM248.865 85.6789C248.895 82.9561 248.895 80.1722 248.834 77.6942C248.711 73.044 248.405 69.4035 247.854 68.9446C247.61 69.4647 247.487 70.9637 247.548 73.0746C247.579 75.2161 247.793 78.0001 248.191 81.09C248.344 82.589 248.589 84.1187 248.865 85.6789ZM247.793 68.914C247.763 68.914 247.793 68.914 247.793 68.914C247.732 68.914 247.763 68.914 247.793 68.914ZM230.622 42.6041C230.132 42.8183 229.704 43.0324 229.337 43.2466C228.877 43.5219 228.51 43.7667 228.296 44.0114C228.204 44.0726 228.143 44.1644 228.112 44.195C228.602 44.195 229.459 43.7667 230.102 43.216C230.285 43.063 230.5 42.8183 230.622 42.6041ZM223.582 42.8795C222.266 44.0114 221.195 45.4493 220.43 46.7342C220.062 47.346 219.787 47.8967 219.603 48.325C219.511 48.5086 219.45 48.6921 219.419 48.8451C220.001 48.4168 220.889 47.4072 221.715 46.3059C222.633 45.0822 223.429 43.7361 223.582 42.8795ZM203.503 89.1053C202.983 89.9925 202.432 90.8491 201.942 91.6445C201.575 92.2258 201.208 92.807 200.902 93.2965C198.514 97.2124 198.147 98.9256 198.79 99.2927C199.432 99.6904 201.055 98.895 202.707 97.6407C203.258 97.243 203.779 96.7535 204.299 96.2946C203.993 95.4074 203.871 94.459 203.932 93.5413C203.962 92.9294 204.054 92.3787 204.207 91.8892C204.36 91.3692 204.575 90.9409 204.85 90.6655C205.248 90.2372 205.707 90.0537 206.227 90.2678C207.697 90.8491 207.911 92.0422 207.36 93.3883C206.962 94.3673 206.136 95.4686 205.156 96.4782C205.493 97.2124 205.983 97.8243 206.717 98.1914C207.115 98.4055 207.482 98.4973 207.788 98.5279C208.278 98.5585 208.645 98.3749 208.921 98.0078C209.227 97.6101 209.441 97.0288 209.564 96.3864C209.809 95.1627 209.778 93.7248 209.625 92.6847C209.319 90.6655 208.248 89.5642 206.748 89.1665C205.799 88.9217 204.697 88.9217 203.503 89.1053ZM204.881 95.7134C205.707 94.8568 206.35 93.939 206.687 93.113C207.084 92.1646 206.962 91.3386 205.952 90.9409C205.768 90.8491 205.554 90.9409 205.401 91.155C205.217 91.3692 205.034 91.7057 204.911 92.134C204.789 92.5623 204.697 93.0824 204.666 93.633C204.636 94.2755 204.697 95.0097 204.881 95.7134ZM188.75 159.561C189.026 159.867 189.393 160.173 189.852 160.478C189.821 160.387 189.76 160.295 189.73 160.234C189.117 159.132 188.322 158.062 188.046 158.153C188.016 158.245 188.046 158.398 188.107 158.612C188.199 158.888 188.413 159.194 188.75 159.561ZM173.752 144.723C173.201 145.182 172.528 146.283 172.191 148.302C172.589 147.813 172.987 147.109 173.385 146.345C173.538 146.069 173.691 145.794 173.813 145.549C174.089 145.06 174.181 144.723 174.119 144.54C174.028 144.54 173.905 144.601 173.752 144.723ZM165.549 125.235C164.998 126.918 164.998 128.295 165.243 129.427C166.008 128.723 166.682 127.744 166.896 126.061C167.171 124.012 167.202 122.635 167.049 121.993C167.018 121.87 167.018 121.809 167.018 121.809C166.988 121.809 167.049 121.87 166.988 121.931C166.621 122.36 166.131 123.43 165.549 125.235Z" fill="#131E29" stroke="#131E29" stroke-width="0.5"/>
</svg>
