<svg width="24" height="24" viewBox="0 0 24 24" fill="none" xmlns="http://www.w3.org/2000/svg">
<path d="M3.83327 15.2485L4.32064 15.1368L3.83327 15.2485ZM3.83327 9.35323L4.32064 9.46493L3.83327 9.35323ZM20.1667 9.35323L19.6794 9.46494L20.1667 9.35323ZM20.1667 15.2485L19.6794 15.1368L20.1667 15.2485ZM14.8801 20.6589L14.9969 21.1451L14.8801 20.6589ZM9.11986 20.6589L9.23657 20.1727L9.11986 20.6589ZM9.11985 3.94279L9.23657 4.42898L9.11985 3.94279ZM14.8801 3.94279L14.9969 3.45661L14.8801 3.94279ZM8.57008 3C8.57008 2.72386 8.34622 2.5 8.07008 2.5C7.79394 2.5 7.57008 2.72386 7.57008 3H8.57008ZM7.57008 5.51375C7.57008 5.78989 7.79394 6.01375 8.07008 6.01375C8.34622 6.01375 8.57008 5.78989 8.57008 5.51375H7.57008ZM16.4299 3C16.4299 2.72386 16.2061 2.5 15.9299 2.5C15.6538 2.5 15.4299 2.72386 15.4299 3H16.4299ZM15.4299 5.51375C15.4299 5.78989 15.6538 6.01375 15.9299 6.01375C16.2061 6.01375 16.4299 5.78989 16.4299 5.51375H15.4299ZM4.32064 15.1368C3.89312 13.2715 3.89312 11.3302 4.32064 9.46493L3.34591 9.24153C2.8847 11.2538 2.8847 13.3479 3.34591 15.3602L4.32064 15.1368ZM19.6794 9.46494C20.1069 11.3302 20.1069 13.2715 19.6794 15.1368L20.6541 15.3602C21.1153 13.3479 21.1153 11.2538 20.6541 9.24153L19.6794 9.46494ZM14.7634 20.1727C12.9458 20.6091 11.0542 20.6091 9.23657 20.1727L9.00314 21.1451C10.9742 21.6183 13.0258 21.6183 14.9969 21.1451L14.7634 20.1727ZM9.23657 4.42898C11.0542 3.99262 12.9458 3.99262 14.7634 4.42898L14.9969 3.45661C13.0258 2.98341 10.9742 2.98342 9.00314 3.45661L9.23657 4.42898ZM9.23657 20.1727C6.80296 19.5885 4.89465 17.6412 4.32064 15.1368L3.34591 15.3602C4.0025 18.2249 6.19051 20.4699 9.00314 21.1451L9.23657 20.1727ZM14.9969 21.1451C17.8095 20.4699 19.9975 18.2249 20.6541 15.3602L19.6794 15.1368C19.1054 17.6412 17.197 19.5885 14.7634 20.1727L14.9969 21.1451ZM14.7634 4.42898C17.197 5.0132 19.1054 6.9605 19.6794 9.46494L20.6541 9.24153C19.9975 6.37681 17.8095 4.13182 14.9969 3.45661L14.7634 4.42898ZM9.00314 3.45661C6.1905 4.13182 4.0025 6.37681 3.34591 9.24153L4.32064 9.46493C4.89465 6.96049 6.80296 5.0132 9.23657 4.42898L9.00314 3.45661ZM4.14016 8.77886H19.8598V7.77886H4.14016V8.77886ZM7.57008 3V5.51375H8.57008V3H7.57008ZM15.4299 3V5.51375H16.4299V3H15.4299Z" fill="#4A5055"/>
<path d="M13.4419 13.9239C13.8469 13.6359 14.0989 13.2039 14.0989 12.6189C14.0989 11.4039 13.1629 10.7739 12.0559 10.7739C10.9489 10.7739 10.0039 11.4039 10.0039 12.6189C10.0039 13.2039 10.2649 13.6359 10.6609 13.9239C10.1119 14.2569 9.79688 14.8059 9.79688 15.4449C9.79688 16.6059 10.6519 17.3259 12.0559 17.3259C13.4509 17.3259 14.3149 16.6059 14.3149 15.4449C14.3149 14.8059 13.9999 14.2569 13.4419 13.9239ZM12.0559 11.9439C12.5239 11.9439 12.8659 12.2139 12.8659 12.6819C12.8659 13.1409 12.5239 13.4289 12.0559 13.4289C11.5879 13.4289 11.2459 13.1409 11.2459 12.6819C11.2459 12.2139 11.5879 11.9439 12.0559 11.9439ZM12.0559 16.1559C11.4619 16.1559 11.0299 15.8499 11.0299 15.2829C11.0299 14.7249 11.4619 14.4189 12.0559 14.4189C12.6499 14.4189 13.0819 14.7249 13.0819 15.2829C13.0819 15.8499 12.6499 16.1559 12.0559 16.1559Z" fill="#4A5055"/>
</svg>
