<svg width="41" height="30" viewBox="0 0 41 30" fill="none" xmlns="http://www.w3.org/2000/svg">
<path d="M9.31868 11.9639C8.86289 11.9639 8.42549 12.0321 7.99013 12.0942C8.13116 11.6293 8.27628 11.1563 8.50929 10.7315C8.74229 10.1142 9.10611 9.57916 9.46789 9.04008C9.77038 8.45691 10.3038 8.06212 10.6963 7.56313C11.1071 7.07816 11.6671 6.75551 12.1107 6.3527C12.546 5.93186 13.1163 5.72144 13.57 5.42485C14.0442 5.15832 14.4571 4.86373 14.8986 4.72345L16.0002 4.27856L16.9691 3.88377L15.9778 0L14.7575 0.288576C14.3672 0.384769 13.8909 0.496993 13.3493 0.631262C12.7954 0.731462 12.2047 1.00601 11.5465 1.25651C10.8966 1.54108 10.1444 1.73347 9.4454 2.19038C8.74229 2.62725 7.93086 2.99198 7.21549 3.57715C6.5226 4.18036 5.68664 4.70341 5.06938 5.47094C4.39488 6.18838 3.72857 6.94188 3.21146 7.7996C2.61259 8.61723 2.20585 9.51503 1.77663 10.4028C1.38828 11.2906 1.07556 12.1984 0.820075 13.0802C0.335667 14.8477 0.119012 16.5271 0.0352111 17.9639C-0.0342821 19.4028 0.00659623 20.5992 0.0924407 21.4649C0.123099 21.8737 0.180329 22.2705 0.221208 22.5451L0.272305 22.8818L0.325447 22.8697C0.68898 24.5347 1.52585 26.0648 2.73924 27.2829C3.95263 28.5011 5.49296 29.3575 7.18205 29.7532C8.87114 30.1488 10.64 30.0675 12.2839 29.5187C13.9278 28.9699 15.3797 27.9759 16.4716 26.6519C17.5635 25.3278 18.2507 23.7277 18.4538 22.0367C18.6569 20.3456 18.3676 18.6328 17.6193 17.0962C16.871 15.5597 15.6943 14.2623 14.2254 13.354C12.7565 12.4458 11.0553 11.9638 9.31868 11.9639ZM31.8018 11.9639C31.346 11.9639 30.9086 12.0321 30.4732 12.0942C30.6142 11.6293 30.7594 11.1563 30.9924 10.7315C31.2254 10.1142 31.5892 9.57916 31.951 9.04008C32.2535 8.45691 32.7869 8.06212 33.1794 7.56313C33.5902 7.07816 34.1502 6.75551 34.5937 6.3527C35.0291 5.93186 35.5994 5.72144 36.0531 5.42485C36.5273 5.15832 36.9402 4.86373 37.3816 4.72345L38.4833 4.27856L39.4521 3.88377L38.4608 0L37.2406 0.288576C36.8502 0.384769 36.374 0.496993 35.8324 0.631262C35.2785 0.731462 34.6878 1.00601 34.0296 1.25651C33.3817 1.54309 32.6275 1.73347 31.9285 2.19238C31.2254 2.62926 30.4139 2.99399 29.6986 3.57916C29.0057 4.18236 28.1697 4.70541 27.5525 5.47094C26.878 6.18838 26.2116 6.94188 25.6945 7.7996C25.0957 8.61723 24.6889 9.51503 24.2597 10.4028C23.8714 11.2906 23.5586 12.1984 23.3032 13.0802C22.8187 14.8477 22.6021 16.5271 22.5183 17.9639C22.4488 19.4028 22.4897 20.5992 22.5755 21.4649C22.6062 21.8737 22.6634 22.2705 22.7043 22.5451L22.7554 22.8818L22.8085 22.8697C23.1721 24.5347 24.0089 26.0648 25.2223 27.2829C26.4357 28.5011 27.976 29.3575 29.6651 29.7532C31.3542 30.1488 33.123 30.0675 34.767 29.5187C36.4109 28.9699 37.8628 27.9759 38.9547 26.6519C40.0465 25.3278 40.7338 23.7277 40.9369 22.0367C41.14 20.3456 40.8507 18.6328 40.1024 17.0962C39.3541 15.5597 38.1774 14.2623 36.7085 13.354C35.2396 12.4458 33.5384 11.9638 31.8018 11.9639Z" fill="#16212C"/>
</svg>
